<svg width="364" height="80" viewBox="0 0 364 80" fill="none" xmlns="http://www.w3.org/2000/svg">
<g filter="url(#filter0_d_392_1575)">
<rect width="362.719" height="60" transform="translate(0.984375)" fill="white"/>
<rect width="301.719" height="60" transform="translate(60.9844)" fill="white"/>
<g clip-path="url(#clip0_392_1575)">
<path d="M94.1844 24.9422V26.2462H90.4804V36.4062H88.9284V26.2462H85.2084V24.9422H94.1844ZM95.5899 36.4062V24.6222H97.0139V29.3902C97.3605 29.0222 97.7445 28.7289 98.1659 28.5102C98.5872 28.2862 99.0725 28.1742 99.6219 28.1742C100.065 28.1742 100.454 28.2489 100.79 28.3982C101.131 28.5422 101.414 28.7502 101.638 29.0222C101.867 29.2889 102.041 29.6116 102.158 29.9902C102.275 30.3689 102.334 30.7876 102.334 31.2462V36.4062H100.91V31.2462C100.91 30.6329 100.769 30.1582 100.486 29.8222C100.209 29.4809 99.7819 29.3102 99.2059 29.3102C98.7845 29.3102 98.3899 29.4116 98.0219 29.6142C97.6592 29.8169 97.3232 30.0916 97.0139 30.4382V36.4062H95.5899ZM107.689 28.1742C108.174 28.1742 108.622 28.2569 109.033 28.4222C109.443 28.5822 109.798 28.8169 110.097 29.1262C110.395 29.4302 110.627 29.8089 110.793 30.2622C110.963 30.7102 111.049 31.2222 111.049 31.7982C111.049 32.0222 111.025 32.1716 110.977 32.2462C110.929 32.3209 110.838 32.3582 110.705 32.3582H105.312C105.323 32.8702 105.393 33.3156 105.521 33.6942C105.649 34.0729 105.825 34.3902 106.049 34.6462C106.273 34.8969 106.539 35.0862 106.849 35.2142C107.158 35.3369 107.505 35.3982 107.889 35.3982C108.246 35.3982 108.553 35.3582 108.809 35.2782C109.07 35.1929 109.294 35.1022 109.481 35.0062C109.667 34.9102 109.822 34.8222 109.945 34.7422C110.073 34.6569 110.182 34.6142 110.273 34.6142C110.39 34.6142 110.481 34.6596 110.545 34.7502L110.945 35.2702C110.769 35.4836 110.558 35.6702 110.313 35.8302C110.067 35.9849 109.803 36.1129 109.521 36.2142C109.243 36.3156 108.955 36.3902 108.657 36.4383C108.358 36.4916 108.062 36.5183 107.769 36.5183C107.209 36.5183 106.691 36.4249 106.217 36.2382C105.747 36.0462 105.339 35.7689 104.993 35.4062C104.651 35.0382 104.385 34.5849 104.193 34.0462C104.001 33.5076 103.905 32.8889 103.905 32.1902C103.905 31.6249 103.99 31.0969 104.161 30.6062C104.337 30.1156 104.587 29.6916 104.913 29.3342C105.238 28.9716 105.635 28.6889 106.105 28.4862C106.574 28.2782 107.102 28.1742 107.689 28.1742ZM107.72 29.2222C107.033 29.2222 106.491 29.4222 106.097 29.8222C105.702 30.2169 105.457 30.7662 105.361 31.4702H109.769C109.769 31.1396 109.723 30.8382 109.633 30.5662C109.542 30.2889 109.409 30.0516 109.233 29.8542C109.057 29.6516 108.841 29.4969 108.585 29.3902C108.334 29.2782 108.046 29.2222 107.72 29.2222ZM124.269 34.0382C124.354 34.0382 124.432 34.0729 124.501 34.1422L125.109 34.8062C124.64 35.3502 124.069 35.7742 123.397 36.0782C122.73 36.3823 121.925 36.5343 120.981 36.5343C120.154 36.5343 119.405 36.3929 118.733 36.1102C118.061 35.8222 117.488 35.4222 117.013 34.9102C116.538 34.3929 116.17 33.7742 115.909 33.0542C115.648 32.3342 115.517 31.5422 115.517 30.6782C115.517 29.8142 115.656 29.0222 115.933 28.3022C116.216 27.5822 116.61 26.9636 117.117 26.4462C117.624 25.9289 118.229 25.5289 118.933 25.2462C119.642 24.9582 120.424 24.8142 121.277 24.8142C122.12 24.8142 122.845 24.9449 123.453 25.2062C124.066 25.4676 124.61 25.8222 125.085 26.2702L124.581 26.9822C124.544 27.0356 124.501 27.0809 124.453 27.1182C124.405 27.1502 124.336 27.1662 124.245 27.1662C124.176 27.1662 124.101 27.1422 124.021 27.0942C123.946 27.0409 123.856 26.9769 123.749 26.9022C123.642 26.8276 123.517 26.7476 123.373 26.6622C123.229 26.5769 123.058 26.4969 122.861 26.4222C122.664 26.3476 122.434 26.2862 122.173 26.2382C121.912 26.1849 121.61 26.1582 121.269 26.1582C120.656 26.1582 120.093 26.2649 119.581 26.4782C119.074 26.6862 118.637 26.9849 118.269 27.3742C117.901 27.7636 117.613 28.2382 117.405 28.7982C117.202 29.3582 117.101 29.9849 117.101 30.6782C117.101 31.3929 117.202 32.0302 117.405 32.5902C117.613 33.1502 117.893 33.6249 118.245 34.0142C118.602 34.3982 119.024 34.6916 119.509 34.8942C119.994 35.0969 120.517 35.1982 121.077 35.1982C121.418 35.1982 121.725 35.1796 121.997 35.1422C122.269 35.0996 122.52 35.0356 122.749 34.9502C122.984 34.8649 123.2 34.7582 123.397 34.6302C123.6 34.4969 123.802 34.3396 124.005 34.1582C124.096 34.0782 124.184 34.0382 124.269 34.0382ZM126.918 36.4062V28.3022H127.734C127.889 28.3022 127.995 28.3316 128.054 28.3902C128.113 28.4489 128.153 28.5502 128.174 28.6942L128.27 29.9582C128.547 29.3929 128.889 28.9529 129.294 28.6382C129.705 28.3182 130.185 28.1582 130.734 28.1582C130.958 28.1582 131.161 28.1849 131.342 28.2382C131.523 28.2862 131.691 28.3556 131.846 28.4462L131.662 29.5102C131.625 29.6436 131.542 29.7102 131.414 29.7102C131.339 29.7102 131.225 29.6862 131.07 29.6382C130.915 29.5849 130.699 29.5582 130.422 29.5582C129.926 29.5582 129.51 29.7022 129.174 29.9902C128.843 30.2782 128.566 30.6969 128.342 31.2462V36.4062H126.918ZM136.579 28.1742C137.064 28.1742 137.512 28.2569 137.923 28.4222C138.334 28.5822 138.688 28.8169 138.987 29.1262C139.286 29.4302 139.518 29.8089 139.683 30.2622C139.854 30.7102 139.939 31.2222 139.939 31.7982C139.939 32.0222 139.915 32.1716 139.867 32.2462C139.819 32.3209 139.728 32.3582 139.595 32.3582H134.203C134.214 32.8702 134.283 33.3156 134.411 33.6942C134.539 34.0729 134.715 34.3902 134.939 34.6462C135.163 34.8969 135.43 35.0862 135.739 35.2142C136.048 35.3369 136.395 35.3982 136.779 35.3982C137.136 35.3982 137.443 35.3582 137.699 35.2782C137.96 35.1929 138.184 35.1022 138.371 35.0062C138.558 34.9102 138.712 34.8222 138.835 34.7422C138.963 34.6569 139.072 34.6142 139.163 34.6142C139.28 34.6142 139.371 34.6596 139.435 34.7502L139.835 35.2702C139.659 35.4836 139.448 35.6702 139.203 35.8302C138.958 35.9849 138.694 36.1129 138.411 36.2142C138.134 36.3156 137.846 36.3902 137.547 36.4383C137.248 36.4916 136.952 36.5183 136.659 36.5183C136.099 36.5183 135.582 36.4249 135.107 36.2382C134.638 36.0462 134.23 35.7689 133.883 35.4062C133.542 35.0382 133.275 34.5849 133.083 34.0462C132.891 33.5076 132.795 32.8889 132.795 32.1902C132.795 31.6249 132.88 31.0969 133.051 30.6062C133.227 30.1156 133.478 29.6916 133.803 29.3342C134.128 28.9716 134.526 28.6889 134.995 28.4862C135.464 28.2782 135.992 28.1742 136.579 28.1742ZM136.611 29.2222C135.923 29.2222 135.382 29.4222 134.987 29.8222C134.592 30.2169 134.347 30.7662 134.251 31.4702H138.659C138.659 31.1396 138.614 30.8382 138.523 30.5662C138.432 30.2889 138.299 30.0516 138.123 29.8542C137.947 29.6516 137.731 29.4969 137.475 29.3902C137.224 29.2782 136.936 29.2222 136.611 29.2222ZM144.97 28.1742C145.455 28.1742 145.903 28.2569 146.314 28.4222C146.724 28.5822 147.079 28.8169 147.378 29.1262C147.676 29.4302 147.908 29.8089 148.074 30.2622C148.244 30.7102 148.33 31.2222 148.33 31.7982C148.33 32.0222 148.306 32.1716 148.258 32.2462C148.21 32.3209 148.119 32.3582 147.986 32.3582H142.594C142.604 32.8702 142.674 33.3156 142.802 33.6942C142.93 34.0729 143.106 34.3902 143.33 34.6462C143.554 34.8969 143.82 35.0862 144.13 35.2142C144.439 35.3369 144.786 35.3982 145.17 35.3982C145.527 35.3982 145.834 35.3582 146.09 35.2782C146.351 35.1929 146.575 35.1022 146.762 35.0062C146.948 34.9102 147.103 34.8222 147.226 34.7422C147.354 34.6569 147.463 34.6142 147.554 34.6142C147.671 34.6142 147.762 34.6596 147.826 34.7502L148.226 35.2702C148.05 35.4836 147.839 35.6702 147.594 35.8302C147.348 35.9849 147.084 36.1129 146.802 36.2142C146.524 36.3156 146.236 36.3902 145.938 36.4383C145.639 36.4916 145.343 36.5183 145.05 36.5183C144.49 36.5183 143.972 36.4249 143.498 36.2382C143.028 36.0462 142.62 35.7689 142.274 35.4062C141.932 35.0382 141.666 34.5849 141.474 34.0462C141.282 33.5076 141.186 32.8889 141.186 32.1902C141.186 31.6249 141.271 31.0969 141.442 30.6062C141.618 30.1156 141.868 29.6916 142.194 29.3342C142.519 28.9716 142.916 28.6889 143.386 28.4862C143.855 28.2782 144.383 28.1742 144.97 28.1742ZM145.002 29.2222C144.314 29.2222 143.772 29.4222 143.378 29.8222C142.983 30.2169 142.738 30.7662 142.642 31.4702H147.05C147.05 31.1396 147.004 30.8382 146.914 30.5662C146.823 30.2889 146.69 30.0516 146.514 29.8542C146.338 29.6516 146.122 29.4969 145.866 29.3902C145.615 29.2782 145.327 29.2222 145.002 29.2222ZM151.632 24.6222V31.5582H152C152.107 31.5582 152.195 31.5449 152.264 31.5182C152.334 31.4862 152.411 31.4249 152.496 31.3342L155.056 28.5902C155.136 28.5049 155.216 28.4356 155.296 28.3822C155.376 28.3289 155.483 28.3022 155.616 28.3022H156.912L153.928 31.4782C153.854 31.5689 153.779 31.6489 153.704 31.7182C153.635 31.7876 153.555 31.8489 153.464 31.9022C153.56 31.9662 153.646 32.0409 153.72 32.1262C153.8 32.2062 153.875 32.2996 153.944 32.4062L157.112 36.4062H155.832C155.715 36.4062 155.614 36.3849 155.528 36.3422C155.448 36.2942 155.371 36.2222 155.296 36.1262L152.632 32.8062C152.552 32.6942 152.472 32.6222 152.392 32.5902C152.312 32.5529 152.192 32.5342 152.032 32.5342H151.632V36.4062H150.2V24.6222H151.632Z" fill="#475461"/>
</g>
<rect x="1.28125" width="60" height="60" fill="#82C0FB"/>
<rect opacity="0.25" x="5.28125" y="18" width="52.3176" height="4.93562" fill="white"/>
<rect opacity="0.25" x="5.28125" y="18" width="4.44206" height="22.8026" fill="white"/>
<rect opacity="0.25" x="52.9592" y="18" width="4.63949" height="22.8026" fill="white"/>
<rect opacity="0.25" x="5.28125" y="36.0625" width="52.3176" height="4.93562" fill="white"/>
<path d="M25.3668 30.6921C25.3599 30.9355 25.4141 31.1766 25.524 31.3913C25.6225 31.5773 25.7583 31.7388 25.9221 31.8647C26.0802 31.9846 26.2578 32.0736 26.4463 32.1273C26.626 32.1804 26.8117 32.2084 26.9984 32.2105H31.2905C31.2319 32.4146 31.133 32.6035 31 32.7649C30.8702 32.9182 30.7154 33.0463 30.5429 33.1432C30.3152 33.2674 30.0603 33.3271 29.8036 33.3161C29.6469 33.3168 29.4911 33.2905 29.3425 33.2383C29.1957 33.1886 29.0519 33.1302 28.9082 33.0729C28.7645 33.0157 28.6156 32.9584 28.4636 32.9087C28.3049 32.8556 28.1391 32.8293 27.9725 32.8309C27.7396 32.8249 27.5082 32.8702 27.2931 32.9638C27.0932 33.0602 26.912 33.1943 26.7586 33.3593L26.071 34.078C26.5575 34.6428 27.1494 35.0977 27.8101 35.4149C28.4216 35.7071 29.0858 35.8597 29.7582 35.8623C30.3587 35.8655 30.9535 35.7397 31.5056 35.4927C32.0388 35.2565 32.5236 34.9153 32.9335 34.4876C33.3422 34.0576 33.6701 33.5514 33.9003 32.9951C34.135 32.4203 34.2559 31.8018 34.2559 31.1768C34.2559 30.5518 34.135 29.9333 33.9003 29.3585C33.6701 28.8022 33.3422 28.296 32.9335 27.866C32.5236 27.4387 32.0388 27.0978 31.5056 26.862C30.9535 26.615 30.3587 26.4892 29.7582 26.4924C29.2506 26.4919 28.7473 26.5905 28.2744 26.7831C27.3356 27.1642 26.5357 27.8449 25.9882 28.7284C25.7177 29.1576 25.5213 29.6332 25.4082 30.1334C25.3855 30.2343 25.3737 30.3377 25.373 30.4414C25.373 30.5494 25.373 30.6381 25.373 30.6953L25.3668 30.6921ZM43.8073 30.6953C43.8106 30.9386 43.7528 31.1786 43.6398 31.3913C43.5418 31.5772 43.4063 31.7387 43.2428 31.8647C43.0843 31.9846 42.9063 32.0736 42.7175 32.1273C42.5378 32.1804 42.3521 32.2084 42.1654 32.2105H37.8733C37.9323 32.4144 38.0313 32.6032 38.1639 32.7649C38.2938 32.9176 38.4481 33.0456 38.6199 33.1432C38.8479 33.2675 39.1032 33.3271 39.3602 33.3161C39.5169 33.3167 39.6727 33.2904 39.8213 33.2383C39.9671 33.1886 40.1109 33.1302 40.2546 33.0729C40.3983 33.0157 40.5472 32.9584 40.6992 32.9087C40.8583 32.8556 41.0244 32.8293 41.1914 32.8309C41.4242 32.8249 41.6557 32.8702 41.8707 32.9638C42.0718 33.0598 42.2541 33.1939 42.4084 33.3593L43.097 34.078C42.6098 34.6426 42.0177 35.0974 41.3568 35.4149C40.7456 35.707 40.0819 35.8596 39.4098 35.8623C38.8089 35.8656 38.2138 35.7398 37.6613 35.4927C37.1281 35.2565 36.6433 34.9153 36.2334 34.4876C35.8246 34.0586 35.496 33.5535 35.2646 32.9984C35.0298 32.4234 34.9087 31.8047 34.9087 31.1795C34.9087 30.5543 35.0298 29.9356 35.2646 29.3607C35.495 28.8045 35.8229 28.2984 36.2313 27.8682C36.6413 27.4408 37.1261 27.0999 37.6593 26.8642C38.2117 26.6171 38.8069 26.4913 39.4077 26.4946C39.915 26.494 40.4179 26.5926 40.8905 26.7853C41.8293 27.1668 42.6295 27.8473 43.1777 28.7306C43.4482 29.1598 43.6446 29.6353 43.7577 30.1355C43.781 30.2368 43.7938 30.3405 43.796 30.4446C43.8011 30.5494 43.8011 30.6348 43.8011 30.6921L43.8073 30.6953ZM41.0228 30.1874C40.9265 29.9786 40.8011 29.786 40.6506 29.6157C40.5053 29.4564 40.3363 29.3229 40.1501 29.2202C39.9141 29.0922 39.6508 29.029 39.385 29.0364C39.1098 29.0257 38.8372 29.0957 38.5981 29.2385C38.4075 29.358 38.2367 29.5091 38.0925 29.6859C37.9467 29.8813 37.8319 30.0999 37.7523 30.3333C37.7854 30.3106 37.8247 30.2879 37.8681 30.2641C37.9116 30.2404 37.9519 30.2296 38.0015 30.2123C38.055 30.1943 38.1108 30.1855 38.167 30.1863L41.0228 30.1874ZM28.1565 30.1874C28.2528 29.9784 28.3787 29.7857 28.5298 29.6157C28.6746 29.4564 28.8433 29.3228 29.0292 29.2202C29.2619 29.0942 29.521 29.0311 29.783 29.0364C30.0581 29.0258 30.3307 29.0958 30.5698 29.2385C30.7605 29.358 30.9312 29.5091 31.0754 29.6859C31.2205 29.8816 31.335 30.1001 31.4146 30.3333C31.3772 30.3081 31.3385 30.285 31.2988 30.2641C31.2605 30.2468 31.2161 30.2296 31.1664 30.2123C31.1126 30.1943 31.0564 30.1856 31 30.1863L28.1565 30.1874ZM47.235 35.7261H44.5176V23.3086H47.235V30.1809L48.5388 27.6066C48.5929 27.4579 48.6768 27.3231 48.7849 27.2111C48.8997 27.0924 49.0286 26.9896 49.1685 26.9052C49.3147 26.8174 49.4706 26.7484 49.6328 26.6999C49.7919 26.6527 49.9565 26.6287 50.1218 26.6286H51.9365L49.9316 30.6662C49.8888 30.7229 49.8406 30.7751 49.7879 30.8218C49.7391 30.8645 49.6873 30.9032 49.6328 30.9374C49.5898 30.9667 49.5445 30.992 49.4973 31.0131C49.472 31.0254 49.4452 31.0342 49.4177 31.039C49.4436 31.0437 49.4687 31.0525 49.4921 31.065C49.5397 31.086 49.586 31.1102 49.6307 31.1374C49.6862 31.1718 49.7388 31.2112 49.7879 31.2552C49.8403 31.3035 49.8884 31.3566 49.9316 31.414L52.1433 35.7294H50.3286C49.9926 35.7357 49.6602 35.6567 49.3598 35.4992C49.0703 35.3377 48.8465 35.072 48.7301 34.7513L47.235 31.8863V35.7261ZM15.1814 29.3358C14.9561 29.3356 14.7329 29.3808 14.5238 29.4687C14.0915 29.651 13.742 29.9989 13.5467 30.4414C13.4429 30.6715 13.3899 30.923 13.3916 31.1773C13.3888 31.4357 13.4418 31.6913 13.5467 31.9252C13.6454 32.1447 13.7829 32.3427 13.952 32.5088C14.1199 32.6695 14.3134 32.7983 14.5238 32.8892C14.732 32.9809 14.9556 33.0279 15.1814 33.0275C15.3358 33.0278 15.4895 33.0045 15.6374 32.9584C15.7749 32.9152 15.9135 32.8687 16.051 32.8168C16.1885 32.7649 16.3271 32.7163 16.4729 32.6731C16.6333 32.6277 16.799 32.6063 16.9651 32.6093C17.2005 32.6056 17.4335 32.6608 17.6444 32.7703C17.847 32.8795 18.0317 33.0218 18.1914 33.1918L18.8707 33.9105C18.611 34.2012 18.331 34.4714 18.0332 34.7189C17.75 34.9552 17.4448 35.1612 17.1222 35.3338C16.8142 35.5009 16.4897 35.6324 16.1544 35.7261C15.8361 35.818 15.5075 35.8649 15.1773 35.8655C14.5774 35.869 13.9832 35.7432 13.4319 35.4959C12.3539 35.0175 11.4939 34.1229 11.031 32.9984C10.7955 32.4236 10.6741 31.8048 10.6741 31.1795C10.6741 30.5542 10.7955 29.9354 11.031 29.3607C11.4942 28.2351 12.3561 27.3405 13.4361 26.8642C13.9874 26.6169 14.5815 26.4911 15.1814 26.4946C15.5103 26.4956 15.8375 26.5425 16.1544 26.634C16.4869 26.7289 16.8091 26.8593 17.116 27.023C17.4384 27.196 17.7435 27.402 18.027 27.638C18.3245 27.8851 18.6045 28.1545 18.8645 28.4442L18.1852 29.1715C18.0215 29.3488 17.8242 29.4885 17.6059 29.5815C17.3876 29.6746 17.1531 29.719 16.9175 29.7119C16.7544 29.7133 16.5918 29.6929 16.4336 29.6514C16.2816 29.6114 16.1358 29.5682 15.9973 29.5217C15.8587 29.4752 15.7243 29.432 15.5837 29.392C15.4526 29.3544 15.3173 29.3355 15.1814 29.3358ZM21.7007 26.634C21.7681 26.7082 21.8208 26.7956 21.8558 26.8912C21.8899 26.9798 21.9165 27.0712 21.9354 27.1646C21.958 27.2658 21.9663 27.37 21.9602 27.4737C22.0404 27.3092 22.1536 27.1646 22.2922 27.0501C22.4357 26.9277 22.5947 26.8266 22.7647 26.7496C22.9352 26.672 23.113 26.613 23.2951 26.5735C23.4608 26.5347 23.6299 26.5144 23.7997 26.5129C24.2822 26.5129 24.8871 26.6657 25.6143 26.9712L25.4241 28.1146C25.3984 28.3067 25.3304 28.4899 25.2254 28.6499C25.1204 28.8098 24.9814 28.9422 24.8192 29.0364C24.6673 29.1274 24.502 29.1917 24.3301 29.2266C24.1529 29.2651 23.9724 29.2846 23.7914 29.285C23.6092 29.2843 23.4279 29.3105 23.2527 29.3628C23.0931 29.41 22.9401 29.479 22.7978 29.5682C22.6726 29.6445 22.5592 29.7403 22.4617 29.8524C22.3783 29.9429 22.3191 30.0547 22.2901 30.1766V35.7261H19.5748V26.634H21.7007Z" fill="white"/>
<path fill-rule="evenodd" clip-rule="evenodd" d="M5.28125 18H5.37336L5.37336 18.0913L5.37336 18.092H5.28125V18ZM5.28125 40.908V41H5.37336V40.908H5.28125ZM57.5988 40.908H57.5067V41H57.5988V40.908ZM57.5988 18.092V18H57.5067V18.092H57.5988ZM5.55758 18V18.092H5.74179V18H5.55758ZM5.92601 18V18.092H6.11023V18H5.92601ZM6.29444 18V18.092H6.47866V18H6.29444ZM6.66288 18V18.092H6.84709V18H6.66288ZM7.03131 18V18.092H7.21553V18H7.03131ZM7.39974 18V18.092H7.58396V18H7.39974ZM7.76818 18V18.092H7.95239V18H7.76818ZM8.13661 18V18.092H8.32083V18H8.13661ZM8.50504 18V18.092H8.68926V18H8.50504ZM8.87348 18V18.092H9.05769V18H8.87348ZM9.24191 18V18.092H9.42613V18H9.24191ZM9.61035 18V18.092H9.79456V18H9.61035ZM9.97878 18V18.092H10.163V18H9.97878ZM10.3472 18V18.092H10.5314V18H10.3472ZM10.7156 18V18.092H10.8999V18H10.7156ZM11.0841 18V18.092H11.2683V18H11.0841ZM11.4525 18V18.092H11.6367V18H11.4525ZM11.8209 18V18.092H12.0052V18H11.8209ZM12.1894 18V18.092H12.3736V18H12.1894ZM12.5578 18V18.092H12.742V18H12.5578ZM12.9262 18V18.092H13.1105V18H12.9262ZM13.2947 18V18.092H13.4789V18H13.2947ZM13.6631 18V18.092H13.8473V18H13.6631ZM14.0316 18V18.092H14.2158V18H14.0316ZM14.4 18V18.092H14.5842V18H14.4ZM14.7684 18V18.092H14.9526V18H14.7684ZM15.1369 18V18.092H15.3211V18H15.1369ZM15.5053 18V18.092H15.6895V18H15.5053ZM15.8737 18V18.092H16.0579V18H15.8737ZM16.2422 18V18.092H16.4264V18H16.2422ZM16.6106 18V18.092H16.7948V18H16.6106ZM16.979 18V18.092H17.1632V18H16.979ZM17.3475 18V18.092H17.5317V18H17.3475ZM17.7159 18V18.092H17.9001V18H17.7159ZM18.0843 18V18.092H18.2685V18H18.0843ZM18.4528 18V18.092H18.637V18H18.4528ZM18.8212 18V18.092H19.0054V18H18.8212ZM19.1896 18V18.092H19.3738V18H19.1896ZM19.5581 18V18.092H19.7423V18H19.5581ZM19.9265 18V18.092H20.1107V18H19.9265ZM20.2949 18V18.092H20.4791V18H20.2949ZM20.6634 18V18.092H20.8476V18H20.6634ZM21.0318 18V18.092H21.216V18H21.0318ZM21.4002 18V18.092H21.5844V18H21.4002ZM21.7687 18V18.092H21.9529V18H21.7687ZM22.1371 18V18.092H22.3213V18H22.1371ZM22.5055 18V18.092H22.6897V18H22.5055ZM22.874 18V18.092H23.0582V18H22.874ZM23.2424 18V18.092H23.4266V18H23.2424ZM23.6108 18V18.092H23.795V18H23.6108ZM23.9793 18V18.092H24.1635V18H23.9793ZM24.3477 18V18.092H24.5319V18H24.3477ZM24.7161 18V18.092H24.9003V18H24.7161ZM25.0846 18V18.092H25.2688V18H25.0846ZM25.453 18V18.092H25.6372V18H25.453ZM25.8214 18V18.092H26.0056V18H25.8214ZM26.1899 18V18.092H26.3741V18H26.1899ZM26.5583 18V18.092H26.7425V18H26.5583ZM26.9267 18V18.092H27.111V18H26.9267ZM27.2952 18V18.092H27.4794V18H27.2952ZM27.6636 18V18.092H27.8478V18H27.6636ZM28.032 18V18.092H28.2163V18H28.032ZM28.4005 18V18.092H28.5847V18H28.4005ZM28.7689 18V18.092H28.9531V18H28.7689ZM29.1373 18V18.092H29.3216V18H29.1373ZM29.5058 18V18.092H29.69V18H29.5058ZM29.8742 18V18.092H30.0584V18H29.8742ZM30.2426 18V18.092H30.4269V18H30.2426ZM30.6111 18V18.092H30.7953V18H30.6111ZM30.9795 18V18.092H31.1637V18H30.9795ZM31.3479 18V18.092H31.5322V18H31.3479ZM31.7164 18V18.092H31.9006V18H31.7164ZM32.0848 18V18.092H32.269V18H32.0848ZM32.4532 18V18.092H32.6375V18H32.4532ZM32.8217 18V18.092H33.0059V18H32.8217ZM33.1901 18V18.092H33.3743V18H33.1901ZM33.5585 18V18.092H33.7428V18H33.5585ZM33.927 18V18.092H34.1112V18H33.927ZM34.2954 18V18.092H34.4796V18H34.2954ZM34.6638 18V18.092H34.8481V18H34.6638ZM35.0323 18V18.092H35.2165V18H35.0323ZM35.4007 18V18.092H35.5849V18H35.4007ZM35.7691 18V18.092H35.9534V18H35.7691ZM36.1376 18V18.092H36.3218V18H36.1376ZM36.506 18V18.092H36.6902V18H36.506ZM36.8744 18V18.092H37.0587V18H36.8744ZM37.2429 18V18.092H37.4271V18H37.2429ZM37.6113 18V18.092H37.7955V18H37.6113ZM37.9797 18V18.092H38.164V18H37.9797ZM38.3482 18V18.092H38.5324V18H38.3482ZM38.7166 18V18.092H38.9008V18H38.7166ZM39.085 18V18.092H39.2693V18H39.085ZM39.4535 18V18.092H39.6377V18H39.4535ZM39.8219 18V18.092H40.0061V18H39.8219ZM40.1903 18V18.092H40.3746V18H40.1903ZM40.5588 18V18.092H40.743V18H40.5588ZM40.9272 18V18.092H41.1114V18H40.9272ZM41.2957 18V18.092H41.4799V18H41.2957ZM41.6641 18V18.092H41.8483V18H41.6641ZM42.0325 18V18.092H42.2167V18H42.0325ZM42.401 18V18.092H42.5852V18H42.401ZM42.7694 18V18.092H42.9536V18H42.7694ZM43.1378 18V18.092H43.322V18H43.1378ZM43.5063 18V18.092H43.6905V18H43.5063ZM43.8747 18V18.092H44.0589V18H43.8747ZM44.2431 18V18.092H44.4273V18H44.2431ZM44.6116 18V18.092H44.7958V18H44.6116ZM44.98 18V18.092H45.1642V18H44.98ZM45.3484 18V18.092H45.5326V18H45.3484ZM45.7169 18V18.092H45.9011V18H45.7169ZM46.0853 18V18.092H46.2695V18H46.0853ZM46.4537 18V18.092H46.6379V18H46.4537ZM46.8222 18V18.092H47.0064V18H46.8222ZM47.1906 18V18.092H47.3748V18H47.1906ZM47.559 18V18.092H47.7432V18H47.559ZM47.9275 18V18.092H48.1117V18H47.9275ZM48.2959 18V18.092H48.4801V18H48.2959ZM48.6643 18V18.092H48.8485V18H48.6643ZM49.0328 18V18.092H49.217V18H49.0328ZM49.4012 18V18.092H49.5854V18H49.4012ZM49.7696 18V18.092H49.9538V18H49.7696ZM50.1381 18V18.092H50.3223V18H50.1381ZM50.5065 18V18.092H50.6907V18H50.5065ZM50.8749 18V18.092H51.0591V18H50.8749ZM51.2434 18V18.092H51.4276V18H51.2434ZM51.6118 18V18.092H51.796V18H51.6118ZM51.9802 18V18.092H52.1644V18H51.9802ZM52.3487 18V18.092H52.5329V18H52.3487ZM52.7171 18V18.092H52.9013V18H52.7171ZM53.0855 18V18.092H53.2697V18H53.0855ZM53.454 18V18.092H53.6382V18H53.454ZM53.8224 18V18.092H54.0066V18H53.8224ZM54.1908 18V18.092H54.375V18H54.1908ZM54.5593 18V18.092H54.7435V18H54.5593ZM54.9277 18V18.092H55.1119V18H54.9277ZM55.2961 18V18.092H55.4804V18H55.2961ZM55.6646 18V18.092H55.8488V18H55.6646ZM56.033 18V18.092H56.2172V18H56.033ZM56.4014 18V18.092H56.5857V18H56.4014ZM56.7699 18V18.092H56.9541V18H56.7699ZM57.1383 18V18.092H57.3225V18H57.1383ZM57.5988 18.2738H57.5067V18.4563H57.5988V18.2738ZM57.5988 18.6389H57.5067V18.8214H57.5988V18.6389ZM57.5988 19.004H57.5067V19.1865H57.5988V19.004ZM57.5988 19.369H57.5067V19.5516H57.5988V19.369ZM57.5988 19.7341H57.5067V19.9167H57.5988V19.7341ZM57.5988 20.0992H57.5067V20.2817H57.5988V20.0992ZM57.5988 20.4643H57.5067V20.6468H57.5988V20.4643ZM57.5988 20.8294H57.5067V21.0119H57.5988V20.8294ZM57.5988 21.1944H57.5067V21.377H57.5988V21.1944ZM57.5988 21.5595H57.5067V21.7421H57.5988V21.5595ZM57.5988 21.9246H57.5067V22.1071H57.5988V21.9246ZM57.5988 22.2897H57.5067V22.4722H57.5988V22.2897ZM57.5988 22.6548H57.5067V22.8373H57.5988V22.6548ZM57.5988 23.0198H57.5067V23.2024H57.5988V23.0198ZM57.5988 23.3849H57.5067V23.5675H57.5988V23.3849ZM57.5988 23.75H57.5067V23.9325H57.5988V23.75ZM57.5988 24.1151H57.5067V24.2976H57.5988V24.1151ZM57.5988 24.4802H57.5067V24.6627H57.5988V24.4802ZM57.5988 24.8452H57.5067V25.0278H57.5988V24.8452ZM57.5988 25.2103H57.5067V25.3929H57.5988V25.2103ZM57.5988 25.5754H57.5067V25.7579H57.5988V25.5754ZM57.5988 25.9405H57.5067V26.123H57.5988V25.9405ZM57.5988 26.3056H57.5067V26.4881H57.5988V26.3056ZM57.5988 26.6706H57.5067V26.8532H57.5988V26.6706ZM57.5988 27.0357H57.5067V27.2183H57.5988V27.0357ZM57.5988 27.4008H57.5067V27.5833H57.5988V27.4008ZM57.5988 27.7659H57.5067V27.9484H57.5988V27.7659ZM57.5988 28.131H57.5067V28.3135H57.5988V28.131ZM57.5988 28.496H57.5067V28.6786H57.5988V28.496ZM57.5988 28.8611H57.5067V29.0437H57.5988V28.8611ZM57.5988 29.2262H57.5067V29.4087H57.5988V29.2262ZM57.5988 29.5913H57.5067V29.7738H57.5988V29.5913ZM57.5988 29.9564H57.5067V30.1389H57.5988V29.9564ZM57.5988 30.3214H57.5067V30.504H57.5988V30.3214ZM57.5988 30.6865H57.5067V30.8691H57.5988V30.6865ZM57.5988 31.0516H57.5067V31.2341H57.5988V31.0516ZM57.5988 31.4167H57.5067V31.5992H57.5988V31.4167ZM57.5988 31.7818H57.5067V31.9643H57.5988V31.7818ZM57.5988 32.1468H57.5067V32.3294H57.5988V32.1468ZM57.5988 32.5119H57.5067V32.6944H57.5988V32.5119ZM57.5988 32.877H57.5067V33.0595H57.5988V32.877ZM57.5988 33.2421H57.5067V33.4246H57.5988V33.2421ZM57.5988 33.6071H57.5067V33.7897H57.5988V33.6071ZM57.5988 33.9722H57.5067V34.1548H57.5988V33.9722ZM57.5988 34.3373H57.5067V34.5198H57.5988V34.3373ZM57.5988 34.7024H57.5067V34.8849H57.5988V34.7024ZM57.5988 35.0675H57.5067V35.25H57.5988V35.0675ZM57.5988 35.4325H57.5067V35.6151H57.5988V35.4325ZM57.5988 35.7976H57.5067V35.9802H57.5988V35.7976ZM57.5988 36.1627H57.5067V36.3452H57.5988V36.1627ZM57.5988 36.5278H57.5067V36.7103H57.5988V36.5278ZM57.5988 36.8929H57.5067V37.0754H57.5988V36.8929ZM57.5988 37.2579H57.5067V37.4405H57.5988V37.2579ZM57.5988 37.623H57.5067V37.8056H57.5988V37.623ZM57.5988 37.9881H57.5067V38.1706H57.5988V37.9881ZM57.5988 38.3532H57.5067V38.5357H57.5988V38.3532ZM57.5988 38.7183H57.5067V38.9008H57.5988V38.7183ZM57.5988 39.0833H57.5067V39.2659H57.5988V39.0833ZM57.5988 39.4484H57.5067V39.631H57.5988V39.4484ZM57.5988 39.8135H57.5067V39.996H57.5988V39.8135ZM57.5988 40.1786H57.5067V40.3611H57.5988V40.1786ZM57.5988 40.5437H57.5067V40.7262H57.5988V40.5437ZM57.3225 41V40.908H57.1383V41H57.3225ZM56.9541 41V40.908H56.7699V41H56.9541ZM56.5857 41V40.908H56.4014V41H56.5857ZM56.2172 41V40.908H56.033V41H56.2172ZM55.8488 41V40.908H55.6646V41H55.8488ZM55.4804 41V40.908H55.2961V41H55.4804ZM55.1119 41V40.908H54.9277V41H55.1119ZM54.7435 41V40.908H54.5593V41H54.7435ZM54.375 41V40.908H54.1908V41H54.375ZM54.0066 41V40.908H53.8224V41H54.0066ZM53.6382 41V40.908H53.454V41H53.6382ZM53.2697 41V40.908H53.0855V41H53.2697ZM52.9013 41V40.908H52.7171V41H52.9013ZM52.5329 41V40.908H52.3487V41H52.5329ZM52.1644 41V40.908H51.9802V41H52.1644ZM51.796 41V40.908H51.6118V41H51.796ZM51.4276 41V40.908H51.2434V41H51.4276ZM51.0591 41V40.908H50.8749V41H51.0591ZM50.6907 41V40.908H50.5065V41H50.6907ZM50.3223 41V40.908H50.1381V41H50.3223ZM49.9538 41V40.908H49.7696V41H49.9538ZM49.5854 41V40.908H49.4012V41H49.5854ZM49.217 41V40.908H49.0328V41H49.217ZM48.8485 41V40.908H48.6643V41H48.8485ZM48.4801 41V40.908H48.2959V41H48.4801ZM48.1117 41V40.908H47.9275V41H48.1117ZM47.7432 41V40.908H47.559V41H47.7432ZM47.3748 41V40.908H47.1906V41H47.3748ZM47.0064 41V40.908H46.8222V41H47.0064ZM46.6379 41V40.908H46.4537V41H46.6379ZM46.2695 41V40.908H46.0853V41H46.2695ZM45.9011 41V40.908H45.7169V41H45.9011ZM45.5326 41V40.908H45.3484V41H45.5326ZM45.1642 41V40.908H44.98V41H45.1642ZM44.7958 41V40.908H44.6116V41H44.7958ZM44.4273 41V40.908H44.2431V41H44.4273ZM44.0589 41V40.908H43.8747V41H44.0589ZM43.6905 41V40.908H43.5063V41H43.6905ZM43.322 41V40.908H43.1378V41H43.322ZM42.9536 41V40.908H42.7694V41H42.9536ZM42.5852 41V40.908H42.401V41H42.5852ZM42.2167 41V40.908H42.0325V41H42.2167ZM41.8483 41V40.908H41.6641V41H41.8483ZM41.4799 41V40.908H41.2957V41H41.4799ZM41.1114 41V40.908H40.9272V41H41.1114ZM40.743 41V40.908H40.5588V41H40.743ZM40.3746 41V40.908H40.1903V41H40.3746ZM40.0061 41V40.908H39.8219V41H40.0061ZM39.6377 41V40.908H39.4535V41H39.6377ZM39.2693 41V40.908H39.085V41H39.2693ZM38.9008 41V40.908H38.7166V41H38.9008ZM38.5324 41V40.908H38.3482V41H38.5324ZM38.164 41V40.908H37.9797V41H38.164ZM37.7955 41V40.908H37.6113V41H37.7955ZM37.4271 41V40.908H37.2429V41H37.4271ZM37.0587 41V40.908H36.8744V41H37.0587ZM36.6902 41V40.908H36.506V41H36.6902ZM36.3218 41V40.908H36.1376V41H36.3218ZM35.9534 41V40.908H35.7691V41H35.9534ZM35.5849 41V40.908H35.4007V41H35.5849ZM35.2165 41V40.908H35.0323V41H35.2165ZM34.8481 41V40.908H34.6638V41H34.8481ZM34.4796 41V40.908H34.2954V41H34.4796ZM34.1112 41V40.908H33.927V41H34.1112ZM33.7428 41V40.908H33.5585V41H33.7428ZM33.3743 41V40.908H33.1901V41H33.3743ZM33.0059 41V40.908H32.8217V41H33.0059ZM32.6375 41V40.908H32.4532V41H32.6375ZM32.269 41V40.908H32.0848V41H32.269ZM31.9006 41V40.908H31.7164V41H31.9006ZM31.5322 41V40.908H31.3479V41H31.5322ZM31.1637 41V40.908H30.9795V41H31.1637ZM30.7953 41V40.908H30.6111V41H30.7953ZM30.4269 41V40.908H30.2426V41H30.4269ZM30.0584 41V40.908H29.8742V41H30.0584ZM29.69 41V40.908H29.5058V41H29.69ZM29.3216 41V40.908H29.1373V41H29.3216ZM28.9531 41V40.908H28.7689V41H28.9531ZM28.5847 41V40.908H28.4005V41H28.5847ZM28.2163 41V40.908H28.032V41H28.2163ZM27.8478 41V40.908H27.6636V41H27.8478ZM27.4794 41V40.908H27.2952V41H27.4794ZM27.111 41V40.908H26.9267V41H27.111ZM26.7425 41V40.908H26.5583V41H26.7425ZM26.3741 41V40.908H26.1899V41H26.3741ZM26.0056 41V40.908H25.8214V41H26.0056ZM25.6372 41V40.908H25.453V41H25.6372ZM25.2688 41V40.908H25.0846V41H25.2688ZM24.9003 41V40.908H24.7161V41H24.9003ZM24.5319 41V40.908H24.3477V41H24.5319ZM24.1635 41V40.908H23.9793V41H24.1635ZM23.795 41V40.908H23.6108V41H23.795ZM23.4266 41V40.908H23.2424V41H23.4266ZM23.0582 41V40.908H22.874V41H23.0582ZM22.6897 41V40.908H22.5055V41H22.6897ZM22.3213 41V40.908H22.1371V41H22.3213ZM21.9529 41V40.908H21.7687V41H21.9529ZM21.5844 41V40.908H21.4002V41H21.5844ZM21.216 41V40.908H21.0318V41H21.216ZM20.8476 41V40.908H20.6634V41H20.8476ZM20.4791 41V40.908H20.2949V41H20.4791ZM20.1107 41V40.908H19.9265V41H20.1107ZM19.7423 41V40.908H19.5581V41H19.7423ZM19.3738 41V40.908H19.1896V41H19.3738ZM19.0054 41V40.908H18.8212V41H19.0054ZM18.637 41V40.908H18.4528V41H18.637ZM18.2685 41V40.908H18.0843V41H18.2685ZM17.9001 41V40.908H17.7159V41H17.9001ZM17.5317 41V40.908H17.3475V41H17.5317ZM17.1632 41V40.908H16.979V41H17.1632ZM16.7948 41V40.908H16.6106V41H16.7948ZM16.4264 41V40.908H16.2422V41H16.4264ZM16.0579 41V40.908H15.8737V41H16.0579ZM15.6895 41V40.908H15.5053V41H15.6895ZM15.3211 41V40.908H15.1369V41H15.3211ZM14.9526 41V40.908H14.7684V41H14.9526ZM14.5842 41V40.908H14.4V41H14.5842ZM14.2158 41V40.908H14.0316V41H14.2158ZM13.8473 41V40.908H13.6631V41H13.8473ZM13.4789 41V40.908H13.2947V41H13.4789ZM13.1105 41V40.908H12.9263V41H13.1105ZM12.742 41V40.908H12.5578V41H12.742ZM12.3736 41V40.908H12.1894V41H12.3736ZM12.0052 41V40.908H11.8209V41H12.0052ZM11.6367 41V40.908H11.4525V41H11.6367ZM11.2683 41V40.908H11.0841V41H11.2683ZM10.8999 41V40.908H10.7156V41H10.8999ZM10.5314 41V40.908H10.3472V41H10.5314ZM10.163 41V40.908H9.97878V41H10.163ZM9.79456 41V40.908H9.61035V41H9.79456ZM9.42613 41V40.908H9.24191V41H9.42613ZM9.0577 41V40.908H8.87348V41H9.0577ZM8.68926 41V40.908H8.50505V41H8.68926ZM8.32083 41V40.908H8.13661V41H8.32083ZM7.95239 41V40.908H7.76818V41H7.95239ZM7.58396 41V40.908H7.39974V41H7.58396ZM7.21553 41V40.908H7.03131V41H7.21553ZM6.84709 41V40.908H6.66288V41H6.84709ZM6.47866 41V40.908H6.29444V41H6.47866ZM6.11023 41V40.908H5.92601V41H6.11023ZM5.74179 41V40.908H5.55758V41H5.74179ZM5.28125 40.7262H5.37336V40.5437H5.28125V40.7262ZM5.28125 40.3611H5.37336V40.1786H5.28125V40.3611ZM5.28125 39.996H5.37336V39.8135H5.28125V39.996ZM5.28125 39.631H5.37336V39.4484H5.28125V39.631ZM5.28125 39.2659H5.37336V39.0833H5.28125V39.2659ZM5.28125 38.9008H5.37336V38.7183H5.28125V38.9008ZM5.28125 38.5357H5.37336V38.3532H5.28125V38.5357ZM5.28125 38.1706H5.37336V37.9881H5.28125V38.1706ZM5.28125 37.8056H5.37336V37.623H5.28125V37.8056ZM5.28125 37.4405H5.37336V37.2579H5.28125V37.4405ZM5.28125 37.0754H5.37336V36.8929H5.28125V37.0754ZM5.28125 36.7103H5.37336V36.5278H5.28125V36.7103ZM5.28125 36.3452H5.37336V36.1627H5.28125V36.3452ZM5.28125 35.9802H5.37336V35.7976H5.28125V35.9802ZM5.28125 35.6151H5.37336V35.4325H5.28125V35.6151ZM5.28125 35.25H5.37336V35.0675H5.28125V35.25ZM5.28125 34.8849H5.37336V34.7024H5.28125V34.8849ZM5.28125 34.5198H5.37336V34.3373H5.28125V34.5198ZM5.28125 34.1548H5.37336V33.9722H5.28125V34.1548ZM5.28125 33.7897H5.37336V33.6071H5.28125V33.7897ZM5.28125 33.4246H5.37336V33.2421H5.28125V33.4246ZM5.28125 33.0595H5.37336V32.877H5.28125V33.0595ZM5.28125 32.6944H5.37336V32.5119H5.28125V32.6944ZM5.28125 32.3294H5.37336V32.1468H5.28125V32.3294ZM5.28125 31.9643H5.37336V31.7817H5.28125V31.9643ZM5.28125 31.5992H5.37336V31.4167H5.28125V31.5992ZM5.28125 31.2341H5.37336V31.0516H5.28125V31.2341ZM5.28125 30.869H5.37336V30.6865H5.28125V30.869ZM5.28125 30.504H5.37336V30.3214H5.28125V30.504ZM5.28125 30.1389H5.37336V29.9563H5.28125V30.1389ZM5.28125 29.7738H5.37336V29.5913H5.28125V29.7738ZM5.28125 29.4087H5.37336V29.2262H5.28125V29.4087ZM5.28125 29.0436H5.37336V28.8611H5.28125V29.0436ZM5.28125 28.6786H5.37336V28.496H5.28125V28.6786ZM5.28125 28.3135H5.37336V28.1309H5.28125V28.3135ZM5.28125 27.9484H5.37336V27.7659H5.28125V27.9484ZM5.28125 27.5833H5.37336V27.4008H5.28125V27.5833ZM5.28125 27.2182H5.37336V27.0357H5.28125V27.2182ZM5.28125 26.8532H5.37336V26.6706H5.28125V26.8532ZM5.28125 26.4881H5.37336V26.3056H5.28125V26.4881ZM5.28125 26.123H5.37336V25.9405H5.28125V26.123ZM5.28125 25.7579H5.37336V25.5754H5.28125V25.7579ZM5.28125 25.3929H5.37336V25.2103H5.28125V25.3929ZM5.28125 25.0278H5.37336V24.8452H5.28125V25.0278ZM5.28125 24.6627H5.37336V24.4802H5.28125V24.6627ZM5.28125 24.2976H5.37336V24.1151H5.28125V24.2976ZM5.28125 23.9325H5.37336V23.75H5.28125V23.9325ZM5.28125 23.5675H5.37336V23.3849H5.28125V23.5675ZM5.28125 23.2024H5.37336V23.0198H5.28125V23.2024ZM5.28125 22.8373H5.37336V22.6548H5.28125V22.8373ZM5.28125 22.4722H5.37336V22.2897H5.28125V22.4722ZM5.28125 22.1071H5.37336V21.9246H5.28125V22.1071ZM5.28125 21.7421H5.37336V21.5595H5.28125V21.7421ZM5.28125 21.377H5.37336V21.1944H5.28125V21.377ZM5.28125 21.0119H5.37336V20.8294H5.28125V21.0119ZM5.28125 20.6468H5.37336V20.4643H5.28125V20.6468ZM5.28125 20.2817H5.37336V20.0992H5.28125V20.2817ZM5.28125 19.9167H5.37336V19.7341H5.28125V19.9167ZM5.28125 19.5516H5.37336V19.369H5.28125V19.5516ZM5.28125 19.1865H5.37336V19.004H5.28125V19.1865ZM5.28125 18.8214H5.37336V18.6389H5.28125V18.8214ZM5.28125 18.4563H5.37336V18.2738H5.28125V18.4563Z" fill="white"/>
<path fill-rule="evenodd" clip-rule="evenodd" d="M9.6564 18.092V18L9.74851 18V18.092L9.6564 18.092ZM9.6564 18.46V18.276H9.74851V18.46H9.6564ZM9.6564 18.828V18.644H9.74851V18.828H9.6564ZM9.6564 19.196V19.012H9.74851V19.196H9.6564ZM9.6564 19.564V19.38H9.74851V19.564H9.6564ZM9.6564 19.932V19.748H9.74851V19.932H9.6564ZM9.6564 20.3V20.116H9.74851V20.3H9.6564ZM9.6564 20.668V20.484H9.74851V20.668H9.6564ZM9.6564 21.036V20.852H9.74851V21.036H9.6564ZM9.6564 21.404V21.22H9.74851V21.404H9.6564ZM9.6564 21.772V21.588H9.74851V21.772H9.6564ZM9.6564 22.14L9.6564 21.956H9.74851L9.74851 22.14H9.6564ZM9.6564 22.508V22.324H9.74851V22.508H9.6564ZM9.6564 22.876V22.692H9.74851V22.876H9.6564ZM9.6564 23.244V23.06H9.74851V23.244H9.6564ZM9.6564 23.612V23.428H9.74851V23.612H9.6564ZM9.6564 23.98V23.796H9.74851V23.98H9.6564ZM9.6564 24.348V24.164H9.74851V24.348H9.6564ZM9.6564 24.716V24.532H9.74851V24.716H9.6564ZM9.6564 25.084V24.9H9.74851V25.084H9.6564ZM9.6564 25.452V25.268H9.74851V25.452H9.6564ZM9.6564 25.82V25.636H9.74851V25.82H9.6564ZM9.6564 26.188V26.004H9.74851V26.188H9.6564ZM9.6564 26.556V26.372H9.74851V26.556H9.6564ZM9.6564 26.924V26.74H9.74851V26.924H9.6564ZM9.6564 27.292V27.108H9.74851V27.292H9.6564ZM9.6564 27.66V27.476H9.74851V27.66H9.6564ZM9.6564 28.028V27.844H9.74851V28.028H9.6564ZM9.6564 28.396V28.212H9.74851V28.396H9.6564ZM9.6564 28.764V28.58H9.74851V28.764H9.6564ZM9.6564 29.132V28.948H9.74851V29.132H9.6564ZM9.6564 29.5V29.316H9.74851V29.5H9.6564ZM9.6564 29.868V29.684H9.74851V29.868H9.6564ZM9.6564 30.236V30.052H9.74851V30.236H9.6564ZM9.6564 30.604V30.42H9.74851V30.604H9.6564ZM9.6564 30.972V30.788H9.74851V30.972H9.6564ZM9.6564 31.34V31.156H9.74851V31.34H9.6564ZM9.6564 31.708V31.524H9.74851V31.708H9.6564ZM9.6564 32.076V31.892H9.74851V32.076H9.6564ZM9.6564 32.444V32.26H9.74851V32.444H9.6564ZM9.6564 32.812V32.628H9.74851V32.812H9.6564ZM9.6564 33.18V32.996H9.74851V33.18H9.6564ZM9.6564 33.548V33.364H9.74851V33.548H9.6564ZM9.6564 33.916V33.732H9.74851V33.916H9.6564ZM9.6564 34.284V34.1H9.74851V34.284H9.6564ZM9.6564 34.652V34.468H9.74851V34.652H9.6564ZM9.6564 35.02V34.836H9.74851V35.02H9.6564ZM9.6564 35.388V35.204H9.74851V35.388H9.6564ZM9.6564 35.756V35.572H9.74851V35.756H9.6564ZM9.6564 36.124V35.94H9.74851V36.124H9.6564ZM9.6564 36.492V36.308H9.74851V36.492H9.6564ZM9.6564 36.86V36.676H9.74851V36.86H9.6564ZM9.6564 37.228V37.044H9.74851V37.228H9.6564ZM9.6564 37.596V37.412H9.74851V37.596H9.6564ZM9.6564 37.964V37.78H9.74851V37.964H9.6564ZM9.6564 38.332V38.148H9.74851V38.332H9.6564ZM9.6564 38.7V38.516H9.74851V38.7H9.6564ZM9.6564 39.068V38.884H9.74851V39.068H9.6564ZM9.6564 39.436V39.252H9.74851V39.436H9.6564ZM9.6564 39.804V39.62H9.74851V39.804H9.6564ZM9.6564 40.172V39.988H9.74851V40.172H9.6564ZM9.6564 40.54V40.356H9.74851V40.54H9.6564ZM9.6564 40.816V40.724H9.74851V40.816H9.6564Z" fill="white"/>
<path fill-rule="evenodd" clip-rule="evenodd" d="M5.37336 23.014H5.28125L5.28125 22.922H5.37336V23.014ZM5.74179 23.014H5.55758V22.922H5.74179V23.014ZM6.11023 23.014H5.92601V22.922H6.11023L6.11023 23.014ZM6.47866 23.014H6.29444V22.922H6.47866V23.014ZM6.84709 23.014H6.66288V22.922H6.84709V23.014ZM7.21553 23.014H7.03131V22.922H7.21553V23.014ZM7.58396 23.014H7.39974V22.922H7.58396V23.014ZM7.95239 23.014H7.76818V22.922H7.95239L7.95239 23.014ZM8.32083 23.014H8.13661V22.922H8.32083V23.014ZM8.68926 23.014H8.50505V22.922H8.68926V23.014ZM9.0577 23.014H8.87348V22.922H9.0577V23.014ZM9.42613 23.014H9.24191V22.922H9.42613V23.014ZM9.79456 23.014H9.61035L9.61035 22.922H9.79456V23.014ZM10.163 23.014H9.97878V22.922H10.163V23.014ZM10.5314 23.014H10.3472V22.922H10.5314V23.014ZM10.8999 23.014H10.7156V22.922H10.8999V23.014ZM11.2683 23.014H11.0841V22.922H11.2683V23.014ZM11.6367 23.014H11.4525V22.922H11.6367V23.014ZM12.0052 23.014H11.8209V22.922H12.0052V23.014ZM12.3736 23.014H12.1894V22.922H12.3736V23.014ZM12.742 23.014H12.5578V22.922H12.742V23.014ZM13.1105 23.014H12.9263V22.922H13.1105V23.014ZM13.4789 23.014H13.2947V22.922H13.4789V23.014ZM13.8473 23.014H13.6631V22.922H13.8473V23.014ZM14.2158 23.014H14.0316V22.922H14.2158V23.014ZM14.5842 23.014H14.4V22.922H14.5842V23.014ZM14.9526 23.014H14.7684V22.922H14.9526V23.014ZM15.3211 23.014H15.1369V22.922H15.3211V23.014ZM15.6895 23.014H15.5053V22.922H15.6895V23.014ZM16.0579 23.014H15.8737V22.922H16.0579V23.014ZM16.4264 23.014H16.2422V22.922H16.4264V23.014ZM16.7948 23.014H16.6106V22.922H16.7948V23.014ZM17.1632 23.014H16.979V22.922H17.1632V23.014ZM17.5317 23.014H17.3475V22.922H17.5317V23.014ZM17.9001 23.014H17.7159V22.922H17.9001V23.014ZM18.2685 23.014H18.0843V22.922H18.2685V23.014ZM18.637 23.014H18.4528V22.922H18.637V23.014ZM19.0054 23.014H18.8212V22.922H19.0054V23.014ZM19.3738 23.014H19.1896V22.922H19.3738V23.014ZM19.7423 23.014H19.5581V22.922H19.7423V23.014ZM20.1107 23.014H19.9265V22.922H20.1107V23.014ZM20.4791 23.014H20.2949V22.922H20.4791V23.014ZM20.8476 23.014H20.6634V22.922H20.8476V23.014ZM21.216 23.014H21.0318V22.922H21.216V23.014ZM21.5844 23.014H21.4002V22.922H21.5844V23.014ZM21.9529 23.014H21.7687V22.922H21.9529V23.014ZM22.3213 23.014H22.1371V22.922H22.3213V23.014ZM22.6897 23.014H22.5055V22.922H22.6897V23.014ZM23.0582 23.014H22.874V22.922H23.0582V23.014ZM23.4266 23.014H23.2424V22.922H23.4266V23.014ZM23.795 23.014H23.6108V22.922H23.795V23.014ZM24.1635 23.014H23.9793V22.922H24.1635V23.014ZM24.5319 23.014H24.3477V22.922H24.5319V23.014ZM24.9003 23.014H24.7161V22.922H24.9003V23.014ZM25.2688 23.014H25.0846V22.922H25.2688V23.014ZM25.6372 23.014H25.453V22.922H25.6372V23.014ZM26.0056 23.014H25.8214V22.922H26.0056V23.014ZM26.3741 23.014H26.1899V22.922H26.3741V23.014ZM26.7425 23.014H26.5583V22.922H26.7425V23.014ZM27.111 23.014H26.9267V22.922H27.111V23.014ZM27.4794 23.014H27.2952V22.922L27.4794 22.922V23.014ZM27.8478 23.014L27.6636 23.014V22.922L27.8478 22.922V23.014ZM28.2163 23.014H28.032V22.922H28.2163V23.014ZM28.5847 23.014H28.4005V22.922H28.5847V23.014ZM28.9531 23.014H28.7689V22.922H28.9531V23.014ZM29.3216 23.014H29.1373V22.922H29.3216V23.014ZM29.69 23.014H29.5058V22.922H29.69V23.014ZM30.0584 23.014H29.8742V22.922H30.0584V23.014ZM30.4269 23.014H30.2426V22.922H30.4269V23.014ZM30.7953 23.014H30.6111V22.922H30.7953V23.014ZM31.1637 23.014H30.9795V22.922H31.1637V23.014ZM31.5322 23.014H31.3479V22.922H31.5322V23.014ZM31.9006 23.014H31.7164V22.922H31.9006V23.014ZM32.269 23.014H32.0848V22.922H32.269V23.014ZM32.6375 23.014H32.4532V22.922H32.6375V23.014ZM33.0059 23.014H32.8217V22.922H33.0059V23.014ZM33.3743 23.014H33.1901V22.922H33.3743V23.014ZM33.7428 23.014H33.5585V22.922H33.7428V23.014ZM34.1112 23.014H33.927V22.922H34.1112V23.014ZM34.4796 23.014H34.2954V22.922H34.4796V23.014ZM34.8481 23.014H34.6638V22.922H34.8481V23.014ZM35.2165 23.014H35.0323V22.922H35.2165V23.014ZM35.5849 23.014H35.4007V22.922H35.5849V23.014ZM35.9534 23.014H35.7691V22.922H35.9534V23.014ZM36.3218 23.014H36.1376V22.922H36.3218V23.014ZM36.6902 23.014H36.506V22.922H36.6902V23.014ZM37.0587 23.014H36.8744V22.922H37.0587V23.014ZM37.4271 23.014H37.2429V22.922H37.4271V23.014ZM37.7955 23.014H37.6113V22.922H37.7955V23.014ZM38.164 23.014H37.9797V22.922H38.164V23.014ZM38.5324 23.014H38.3482V22.922H38.5324V23.014ZM38.9008 23.014H38.7166V22.922H38.9008V23.014ZM39.2693 23.014H39.085V22.922H39.2693V23.014ZM39.6377 23.014H39.4535V22.922H39.6377V23.014ZM40.0061 23.014H39.8219V22.922H40.0061V23.014ZM40.3746 23.014H40.1903V22.922H40.3746V23.014ZM40.743 23.014H40.5588V22.922H40.743V23.014ZM41.1114 23.014H40.9272V22.922H41.1114V23.014ZM41.4799 23.014H41.2957V22.922H41.4799V23.014ZM41.8483 23.014H41.6641V22.922H41.8483V23.014ZM42.2167 23.014H42.0325V22.922H42.2167V23.014ZM42.5852 23.014H42.401V22.922H42.5852V23.014ZM42.9536 23.014H42.7694V22.922H42.9536V23.014ZM43.322 23.014H43.1378V22.922H43.322V23.014ZM43.6905 23.014H43.5063V22.922H43.6905V23.014ZM44.0589 23.014H43.8747V22.922H44.0589V23.014ZM44.4273 23.014H44.2431V22.922H44.4273V23.014ZM44.7958 23.014H44.6116V22.922H44.7958V23.014ZM45.1642 23.014H44.98V22.922H45.1642V23.014ZM45.5326 23.014H45.3484V22.922H45.5326V23.014ZM45.9011 23.014H45.7169V22.922H45.9011V23.014ZM46.2695 23.014H46.0853V22.922H46.2695V23.014ZM46.6379 23.014H46.4537L46.4537 22.922H46.6379V23.014ZM47.0064 23.014H46.8222V22.922H47.0064V23.014ZM47.3748 23.014H47.1906V22.922H47.3748V23.014ZM47.7432 23.014H47.559V22.922H47.7432V23.014ZM48.1117 23.014H47.9275V22.922H48.1117V23.014ZM48.4801 23.014H48.2959V22.922H48.4801V23.014ZM48.8485 23.014H48.6643V22.922H48.8485V23.014ZM49.217 23.014H49.0328V22.922H49.217V23.014ZM49.5854 23.014H49.4012V22.922H49.5854V23.014ZM49.9538 23.014H49.7696V22.922H49.9538V23.014ZM50.3223 23.014H50.1381V22.922H50.3223V23.014ZM50.6907 23.014H50.5065V22.922H50.6907V23.014ZM51.0591 23.014H50.8749V22.922H51.0591V23.014ZM51.4276 23.014H51.2434V22.922H51.4276V23.014ZM51.796 23.014H51.6118V22.922H51.796V23.014ZM52.1644 23.014H51.9802V22.922H52.1644V23.014ZM52.5329 23.014H52.3487V22.922H52.5329V23.014ZM52.9013 23.014H52.7171V22.922H52.9013V23.014ZM53.2697 23.014H53.0855V22.922H53.2697V23.014ZM53.6382 23.014H53.454V22.922H53.6382V23.014ZM54.0066 23.014H53.8224V22.922H54.0066V23.014ZM54.375 23.014H54.1908V22.922H54.375V23.014ZM54.7435 23.014H54.5593V22.922H54.7435V23.014ZM55.1119 23.014H54.9277V22.922H55.1119V23.014ZM55.4804 23.014H55.2961V22.922H55.4804V23.014ZM55.8488 23.014H55.6646V22.922H55.8488V23.014ZM56.2172 23.014H56.033V22.922H56.2172V23.014ZM56.5857 23.014H56.4014V22.922H56.5857V23.014ZM56.9541 23.014H56.7699V22.922H56.9541V23.014ZM57.3225 23.014H57.1383V22.922H57.3225V23.014ZM57.5988 23.014H57.5067V22.922H57.5988V23.014Z" fill="white"/>
<path fill-rule="evenodd" clip-rule="evenodd" d="M5.37336 36.262H5.28125L5.28125 36.17H5.37336L5.37336 36.262ZM5.74179 36.262H5.55758V36.17H5.74179V36.262ZM6.11023 36.262H5.92601V36.17H6.11023V36.262ZM6.47866 36.262H6.29444V36.17H6.47866V36.262ZM6.84709 36.262H6.66288V36.17H6.84709V36.262ZM7.21553 36.262H7.03131V36.17H7.21553V36.262ZM7.58396 36.262H7.39974V36.17H7.58396V36.262ZM7.95239 36.262H7.76818V36.17H7.95239V36.262ZM8.32083 36.262H8.13661V36.17H8.32083V36.262ZM8.68926 36.262H8.50505V36.17H8.68926V36.262ZM9.0577 36.262H8.87348V36.17H9.0577V36.262ZM9.42613 36.262H9.24191V36.17H9.42613V36.262ZM9.79456 36.262H9.61035V36.17H9.79456V36.262ZM10.163 36.262H9.97878V36.17H10.163V36.262ZM10.5314 36.262H10.3472V36.17H10.5314V36.262ZM10.8999 36.262H10.7156V36.17H10.8999V36.262ZM11.2683 36.262H11.0841V36.17H11.2683V36.262ZM11.6367 36.262H11.4525V36.17H11.6367V36.262ZM12.0052 36.262H11.8209V36.17H12.0052V36.262ZM12.3736 36.262H12.1894V36.17H12.3736V36.262ZM12.742 36.262H12.5578V36.17H12.742V36.262ZM13.1105 36.262H12.9263V36.17H13.1105V36.262ZM13.4789 36.262H13.2947V36.17H13.4789V36.262ZM13.8473 36.262H13.6631V36.17H13.8473V36.262ZM14.2158 36.262H14.0316V36.17H14.2158V36.262ZM14.5842 36.262H14.4V36.17H14.5842V36.262ZM14.9526 36.262H14.7684V36.17H14.9526V36.262ZM15.3211 36.262H15.1369V36.17H15.3211V36.262ZM15.6895 36.262H15.5053V36.17H15.6895V36.262ZM16.0579 36.262H15.8737V36.17H16.0579V36.262ZM16.4264 36.262H16.2422V36.17H16.4264V36.262ZM16.7948 36.262H16.6106V36.17H16.7948V36.262ZM17.1632 36.262H16.979V36.17H17.1632V36.262ZM17.5317 36.262H17.3475V36.17H17.5317V36.262ZM17.9001 36.262H17.7159V36.17H17.9001V36.262ZM18.2685 36.262H18.0843V36.17H18.2685V36.262ZM18.637 36.262H18.4528V36.17H18.637V36.262ZM19.0054 36.262H18.8212V36.17H19.0054V36.262ZM19.3738 36.262H19.1896V36.17H19.3738V36.262ZM19.7423 36.262H19.5581V36.17H19.7423V36.262ZM20.1107 36.262H19.9265V36.17H20.1107V36.262ZM20.4791 36.262H20.2949V36.17H20.4791V36.262ZM20.8476 36.262H20.6634V36.17H20.8476V36.262ZM21.216 36.262H21.0318V36.17H21.216V36.262ZM21.5844 36.262H21.4002V36.17H21.5844V36.262ZM21.9529 36.262H21.7687V36.17H21.9529V36.262ZM22.3213 36.262H22.1371V36.17H22.3213V36.262ZM22.6897 36.262H22.5055V36.17H22.6897V36.262ZM23.0582 36.262H22.874V36.17H23.0582V36.262ZM23.4266 36.262H23.2424V36.17H23.4266V36.262ZM23.795 36.262H23.6108V36.17H23.795V36.262ZM24.1635 36.262H23.9793V36.17H24.1635V36.262ZM24.5319 36.262H24.3477V36.17H24.5319V36.262ZM24.9003 36.262H24.7161V36.17H24.9003V36.262ZM25.2688 36.262H25.0846V36.17H25.2688V36.262ZM25.6372 36.262H25.453V36.17H25.6372V36.262ZM26.0056 36.262H25.8214V36.17H26.0056V36.262ZM26.3741 36.262H26.1899V36.17H26.3741V36.262ZM26.7425 36.262H26.5583V36.17H26.7425V36.262ZM27.111 36.262H26.9267V36.17H27.111V36.262ZM27.4794 36.262H27.2952V36.17H27.4794V36.262ZM27.8478 36.262H27.6636V36.17H27.8478V36.262ZM28.2163 36.262H28.032V36.17H28.2163V36.262ZM28.5847 36.262H28.4005V36.17H28.5847V36.262ZM28.9531 36.262H28.7689V36.17H28.9531V36.262ZM29.3216 36.262L29.1373 36.262V36.17H29.3216V36.262ZM29.69 36.262H29.5058V36.17H29.69V36.262ZM30.0584 36.262H29.8742V36.17H30.0584V36.262ZM30.4269 36.262H30.2426V36.17H30.4269V36.262ZM30.7953 36.262H30.6111V36.17H30.7953V36.262ZM31.1637 36.262H30.9795V36.17H31.1637V36.262ZM31.5322 36.262H31.3479V36.17H31.5322V36.262ZM31.9006 36.262H31.7164V36.17H31.9006V36.262ZM32.269 36.262H32.0848V36.17H32.269V36.262ZM32.6375 36.262H32.4532V36.17H32.6375V36.262ZM33.0059 36.262H32.8217V36.17H33.0059V36.262ZM33.3743 36.262H33.1901V36.17H33.3743V36.262ZM33.7428 36.262H33.5585V36.17H33.7428V36.262ZM34.1112 36.262H33.927V36.17H34.1112V36.262ZM34.4796 36.262H34.2954V36.17H34.4796V36.262ZM34.8481 36.262H34.6638V36.17H34.8481V36.262ZM35.2165 36.262H35.0323V36.17H35.2165V36.262ZM35.5849 36.262H35.4007V36.17H35.5849V36.262ZM35.9534 36.262H35.7691V36.17H35.9534V36.262ZM36.3218 36.262H36.1376V36.17H36.3218V36.262ZM36.6902 36.262H36.506V36.17H36.6902V36.262ZM37.0587 36.262H36.8744V36.17H37.0587V36.262ZM37.4271 36.262H37.2429V36.17H37.4271V36.262ZM37.7955 36.262H37.6113V36.17H37.7955V36.262ZM38.164 36.262H37.9797V36.17H38.164V36.262ZM38.5324 36.262H38.3482V36.17H38.5324V36.262ZM38.9008 36.262H38.7166V36.17H38.9008V36.262ZM39.2693 36.262H39.085V36.17H39.2693V36.262ZM39.6377 36.262H39.4535V36.17H39.6377V36.262ZM40.0061 36.262H39.8219V36.17H40.0061V36.262ZM40.3746 36.262H40.1903V36.17H40.3746V36.262ZM40.743 36.262H40.5588V36.17H40.743V36.262ZM41.1114 36.262H40.9272V36.17H41.1114V36.262ZM41.4799 36.262H41.2957V36.17H41.4799V36.262ZM41.8483 36.262H41.6641V36.17H41.8483V36.262ZM42.2167 36.262H42.0325V36.17H42.2167V36.262ZM42.5852 36.262H42.401V36.17H42.5852V36.262ZM42.9536 36.262H42.7694V36.17H42.9536V36.262ZM43.322 36.262H43.1378V36.17H43.322V36.262ZM43.6905 36.262H43.5063V36.17H43.6905V36.262ZM44.0589 36.262H43.8747V36.17H44.0589V36.262ZM44.4273 36.262H44.2431V36.17H44.4273V36.262ZM44.7958 36.262H44.6116V36.17H44.7958V36.262ZM45.1642 36.262H44.98V36.17H45.1642V36.262ZM45.5326 36.262H45.3484V36.17H45.5326V36.262ZM45.9011 36.262H45.7169V36.17H45.9011V36.262ZM46.2695 36.262H46.0853V36.17H46.2695V36.262ZM46.6379 36.262H46.4537V36.17H46.6379V36.262ZM47.0064 36.262H46.8222V36.17H47.0064V36.262ZM47.3748 36.262H47.1906V36.17H47.3748V36.262ZM47.7432 36.262H47.559V36.17H47.7432V36.262ZM48.1117 36.262H47.9275V36.17H48.1117V36.262ZM48.4801 36.262H48.2959V36.17H48.4801V36.262ZM48.8485 36.262H48.6643V36.17H48.8485V36.262ZM49.217 36.262H49.0328V36.17H49.217V36.262ZM49.5854 36.262H49.4012V36.17H49.5854V36.262ZM49.9538 36.262H49.7696V36.17H49.9538V36.262ZM50.3223 36.262H50.1381V36.17H50.3223V36.262ZM50.6907 36.262H50.5065V36.17H50.6907V36.262ZM51.0591 36.262H50.8749V36.17H51.0591V36.262ZM51.4276 36.262H51.2434V36.17H51.4276V36.262ZM51.796 36.262H51.6118V36.17H51.796V36.262ZM52.1644 36.262H51.9802V36.17H52.1644V36.262ZM52.5329 36.262H52.3487V36.17H52.5329V36.262ZM52.9013 36.262H52.7171V36.17H52.9013V36.262ZM53.2697 36.262H53.0855V36.17H53.2697V36.262ZM53.6382 36.262H53.454V36.17H53.6382V36.262ZM54.0066 36.262H53.8224V36.17H54.0066V36.262ZM54.375 36.262H54.1908V36.17H54.375V36.262ZM54.7435 36.262H54.5593V36.17H54.7435V36.262ZM55.1119 36.262H54.9277V36.17H55.1119V36.262ZM55.4804 36.262H55.2961V36.17H55.4804V36.262ZM55.8488 36.262H55.6646V36.17H55.8488V36.262ZM56.2172 36.262H56.033V36.17H56.2172V36.262ZM56.5857 36.262H56.4014V36.17H56.5857V36.262ZM56.9541 36.262H56.7699V36.17H56.9541V36.262ZM57.3225 36.262H57.1383V36.17H57.3225V36.262ZM57.5988 36.262H57.5067V36.17H57.5988V36.262Z" fill="white"/>
<path fill-rule="evenodd" clip-rule="evenodd" d="M52.9474 18.0913V18L53.0395 18V18.0913L52.9474 18.0913ZM52.9474 18.4563V18.2738H53.0395V18.4563H52.9474ZM52.9474 18.8214V18.6389H53.0395V18.8214H52.9474ZM52.9474 19.1865V19.004H53.0395V19.1865H52.9474ZM52.9474 19.5516V19.369H53.0395V19.5516H52.9474ZM52.9474 19.9167V19.7341H53.0395V19.9167H52.9474ZM52.9474 20.2817V20.0992H53.0395V20.2817H52.9474ZM52.9474 20.6468V20.4643H53.0395V20.6468H52.9474ZM52.9474 21.0119V20.8294H53.0395V21.0119H52.9474ZM52.9474 21.377V21.1944H53.0395V21.377H52.9474ZM52.9474 21.7421V21.5595H53.0395V21.7421H52.9474ZM52.9474 22.1071V21.9246H53.0395V22.1071H52.9474ZM52.9474 22.4722V22.2897H53.0395V22.4722H52.9474ZM52.9474 22.8373V22.6548H53.0395V22.8373H52.9474ZM52.9474 23.2024V23.0198H53.0395V23.2024H52.9474ZM52.9474 23.5675V23.3849H53.0395V23.5675H52.9474ZM52.9474 23.9325V23.75H53.0395V23.9325H52.9474ZM52.9474 24.2976V24.1151H53.0395V24.2976H52.9474ZM52.9474 24.6627V24.4802H53.0395V24.6627H52.9474ZM52.9474 25.0278V24.8452H53.0395V25.0278H52.9474ZM52.9474 25.3929V25.2103H53.0395V25.3929H52.9474ZM52.9474 25.7579V25.5754H53.0395V25.7579H52.9474ZM52.9474 26.123V25.9405H53.0395V26.123H52.9474ZM52.9474 26.4881V26.3056H53.0395V26.4881H52.9474ZM52.9474 26.8532V26.6706H53.0395V26.8532H52.9474ZM52.9474 27.2182V27.0357H53.0395V27.2182H52.9474ZM52.9474 27.5833V27.4008H53.0395V27.5833H52.9474ZM52.9474 27.9484V27.7659H53.0395V27.9484H52.9474ZM52.9474 28.3135V28.1309H53.0395V28.3135H52.9474ZM52.9474 28.6786V28.496H53.0395V28.6786H52.9474ZM52.9474 29.0436V28.8611H53.0395V29.0436H52.9474ZM52.9474 29.4087V29.2262H53.0395V29.4087H52.9474ZM52.9474 29.7738V29.5913H53.0395V29.7738H52.9474ZM52.9474 30.1389V29.9563H53.0395V30.1389H52.9474ZM52.9474 30.504V30.3214H53.0395V30.504H52.9474ZM52.9474 30.869V30.6865H53.0395V30.869H52.9474ZM52.9474 31.2341V31.0516H53.0395V31.2341H52.9474ZM52.9474 31.5992V31.4167H53.0395V31.5992H52.9474ZM52.9474 31.9643V31.7817H53.0395V31.9643H52.9474ZM52.9474 32.3294V32.1468H53.0395V32.3294H52.9474ZM52.9474 32.6944V32.5119H53.0395V32.6944H52.9474ZM52.9474 33.0595V32.877H53.0395V33.0595H52.9474ZM52.9474 33.4246V33.2421H53.0395V33.4246H52.9474ZM52.9474 33.7897V33.6071H53.0395V33.7897H52.9474ZM52.9474 34.1548V33.9722H53.0395V34.1548H52.9474ZM52.9474 34.5198V34.3373H53.0395V34.5198H52.9474ZM52.9474 34.8849V34.7024H53.0395V34.8849H52.9474ZM52.9474 35.25V35.0675H53.0395V35.25H52.9474ZM52.9474 35.6151V35.4325H53.0395V35.6151H52.9474ZM52.9474 35.9802V35.7976H53.0395V35.9802H52.9474ZM52.9474 36.3452V36.1627H53.0395V36.3452H52.9474ZM52.9474 36.7103V36.5278H53.0395V36.7103H52.9474ZM52.9474 37.0754V36.8929H53.0395V37.0754H52.9474ZM52.9474 37.4405V37.2579H53.0395V37.4405H52.9474ZM52.9474 37.8056V37.623H53.0395V37.8056H52.9474ZM52.9474 38.1706V37.9881H53.0395V38.1706H52.9474ZM52.9474 38.5357V38.3532H53.0395V38.5357H52.9474ZM52.9474 38.9008V38.7183H53.0395V38.9008H52.9474ZM52.9474 39.2659V39.0833H53.0395V39.2659H52.9474ZM52.9474 39.631V39.4484H53.0395V39.631H52.9474ZM52.9474 39.996V39.8135H53.0395V39.996H52.9474ZM52.9474 40.3611V40.1786H53.0395V40.3611H52.9474ZM52.9474 40.7262V40.5437H53.0395V40.7262H52.9474ZM52.9474 41V40.9087H53.0395V41H52.9474Z" fill="white"/>
</g>
<defs>
<filter id="filter0_d_392_1575" x="0.984375" y="0" width="362.719" height="80" filterUnits="userSpaceOnUse" color-interpolation-filters="sRGB">
<feFlood flood-opacity="0" result="BackgroundImageFix"/>
<feColorMatrix in="SourceAlpha" type="matrix" values="0 0 0 0 0 0 0 0 0 0 0 0 0 0 0 0 0 0 127 0" result="hardAlpha"/>
<feMorphology radius="20" operator="erode" in="SourceAlpha" result="effect1_dropShadow_392_1575"/>
<feOffset dy="20"/>
<feGaussianBlur stdDeviation="10"/>
<feComposite in2="hardAlpha" operator="out"/>
<feColorMatrix type="matrix" values="0 0 0 0 0 0 0 0 0 0 0 0 0 0 0 0 0 0 0.1 0"/>
<feBlend mode="normal" in2="BackgroundImageFix" result="effect1_dropShadow_392_1575"/>
<feBlend mode="normal" in="SourceGraphic" in2="effect1_dropShadow_392_1575" result="shape"/>
</filter>
<clipPath id="clip0_392_1575">
<rect width="87.3281" height="19.1875" fill="white" transform="translate(84.9844 20.4062)"/>
</clipPath>
</defs>
</svg>
