<svg width="527" height="352" viewBox="0 0 527 352" fill="none" xmlns="http://www.w3.org/2000/svg">
<line x1="39.5" y1="0.21875" x2="39.5" y2="351.219" stroke="#DBDBDB"/>
<line x1="4.37114e-08" y1="323.719" x2="527" y2="323.719" stroke="#DBDBDB"/>
<line x1="25" y1="273.719" x2="527" y2="273.719" stroke="#DBDBDB"/>
<line x1="25" y1="223.719" x2="527" y2="223.719" stroke="#DBDBDB"/>
<line x1="25" y1="173.719" x2="527" y2="173.719" stroke="#DBDBDB"/>
<line x1="25" y1="123.719" x2="527" y2="123.719" stroke="#DBDBDB"/>
<line x1="25" y1="73.7188" x2="527" y2="73.7187" stroke="#DBDBDB"/>
<line x1="25" y1="23.7188" x2="527" y2="23.7187" stroke="#DBDBDB"/>
<path d="M9.842 279.219V272.877C9.842 272.69 9.842 272.499 9.842 272.303C9.85133 272.097 9.86067 271.883 9.87 271.659C9.55267 271.967 9.18867 272.233 8.778 272.457C8.37667 272.671 7.96133 272.825 7.532 272.919L7.252 271.617C7.448 271.589 7.67667 271.523 7.938 271.421C8.19933 271.318 8.47 271.187 8.75 271.029C9.03 270.87 9.28667 270.702 9.52 270.525C9.75333 270.338 9.93533 270.156 10.066 269.979H11.326V279.219H9.842ZM17.0288 279.359C15.9181 279.359 15.0455 278.957 14.4108 278.155C13.7855 277.343 13.4728 276.157 13.4728 274.599C13.4728 273.04 13.7855 271.859 14.4108 271.057C15.0455 270.245 15.9181 269.839 17.0288 269.839C18.1488 269.839 19.0215 270.245 19.6468 271.057C20.2815 271.859 20.5988 273.04 20.5988 274.599C20.5988 276.157 20.2815 277.343 19.6468 278.155C19.0215 278.957 18.1488 279.359 17.0288 279.359ZM17.0288 278.085C17.4768 278.085 17.8501 277.959 18.1488 277.707C18.4568 277.445 18.6855 277.058 18.8348 276.545C18.9935 276.022 19.0728 275.373 19.0728 274.599C19.0728 273.824 18.9935 273.18 18.8348 272.667C18.6855 272.144 18.4568 271.757 18.1488 271.505C17.8501 271.243 17.4768 271.113 17.0288 271.113C16.5808 271.113 16.2028 271.243 15.8948 271.505C15.5961 271.757 15.3721 272.144 15.2228 272.667C15.0735 273.18 14.9988 273.824 14.9988 274.599C14.9988 275.373 15.0735 276.022 15.2228 276.545C15.3721 277.058 15.5961 277.445 15.8948 277.707C16.2028 277.959 16.5808 278.085 17.0288 278.085Z" fill="#332E2E"/>
<path d="M5.98 229.219V228.127C6.86667 227.492 7.60867 226.932 8.206 226.447C8.81267 225.961 9.298 225.513 9.662 225.103C10.026 224.692 10.2873 224.305 10.446 223.941C10.614 223.567 10.698 223.189 10.698 222.807C10.698 222.312 10.544 221.911 10.236 221.603C9.928 221.295 9.49867 221.141 8.948 221.141C8.36933 221.141 7.90733 221.337 7.562 221.729C7.226 222.111 7.03467 222.639 6.988 223.311L5.686 222.709C5.75133 222.121 5.924 221.612 6.204 221.183C6.484 220.753 6.862 220.422 7.338 220.189C7.82333 219.955 8.38333 219.839 9.018 219.839C9.54067 219.839 9.998 219.913 10.39 220.063C10.7913 220.212 11.1273 220.422 11.398 220.693C11.6687 220.954 11.874 221.262 12.014 221.617C12.1633 221.971 12.238 222.349 12.238 222.751C12.238 223.339 12.0933 223.908 11.804 224.459C11.5147 225 11.0573 225.555 10.432 226.125C9.80667 226.694 8.98533 227.305 7.968 227.959V227.987C8.08 227.968 8.234 227.959 8.43 227.959C8.626 227.949 8.822 227.945 9.018 227.945C9.214 227.935 9.37267 227.931 9.494 227.931H12.406V229.219H5.98ZM17.6128 229.359C16.5021 229.359 15.6295 228.957 14.9948 228.155C14.3695 227.343 14.0568 226.157 14.0568 224.599C14.0568 223.04 14.3695 221.859 14.9948 221.057C15.6295 220.245 16.5021 219.839 17.6128 219.839C18.7328 219.839 19.6055 220.245 20.2308 221.057C20.8655 221.859 21.1828 223.04 21.1828 224.599C21.1828 226.157 20.8655 227.343 20.2308 228.155C19.6055 228.957 18.7328 229.359 17.6128 229.359ZM17.6128 228.085C18.0608 228.085 18.4341 227.959 18.7328 227.707C19.0408 227.445 19.2695 227.058 19.4188 226.545C19.5775 226.022 19.6568 225.373 19.6568 224.599C19.6568 223.824 19.5775 223.18 19.4188 222.667C19.2695 222.144 19.0408 221.757 18.7328 221.505C18.4341 221.243 18.0608 221.113 17.6128 221.113C17.1648 221.113 16.7868 221.243 16.4788 221.505C16.1801 221.757 15.9561 222.144 15.8068 222.667C15.6575 223.18 15.5828 223.824 15.5828 224.599C15.5828 225.373 15.6575 226.022 15.8068 226.545C15.9561 227.058 16.1801 227.445 16.4788 227.707C16.7868 227.959 17.1648 228.085 17.6128 228.085Z" fill="#332E2E"/>
<path d="M10.102 179.359C9.234 179.359 8.478 179.167 7.834 178.785C7.19933 178.393 6.76533 177.847 6.532 177.147L7.988 176.461C8.072 176.797 8.20267 177.086 8.38 177.329C8.55733 177.571 8.79067 177.758 9.08 177.889C9.36933 178.01 9.72867 178.071 10.158 178.071C10.522 178.071 10.83 178.005 11.082 177.875C11.334 177.744 11.5253 177.562 11.656 177.329C11.796 177.095 11.866 176.829 11.866 176.531C11.866 176.223 11.8053 175.966 11.684 175.761C11.572 175.555 11.39 175.406 11.138 175.313C10.8953 175.219 10.5827 175.173 10.2 175.173C10.088 175.173 9.97133 175.177 9.85 175.187C9.738 175.187 9.61667 175.196 9.486 175.215V173.955C9.57 173.964 9.64933 173.973 9.724 173.983C9.808 173.983 9.88733 173.983 9.962 173.983C10.5687 173.983 11.0027 173.861 11.264 173.619C11.5253 173.376 11.656 172.998 11.656 172.485C11.656 172.046 11.5207 171.71 11.25 171.477C10.9887 171.243 10.6107 171.127 10.116 171.127C9.60267 171.127 9.20133 171.248 8.912 171.491C8.632 171.724 8.41733 172.065 8.268 172.513L6.896 171.939C7.02667 171.509 7.246 171.136 7.554 170.819C7.862 170.501 8.24 170.259 8.688 170.091C9.14533 169.913 9.64467 169.825 10.186 169.825C10.8487 169.825 11.3993 169.932 11.838 170.147C12.286 170.361 12.6173 170.655 12.832 171.029C13.056 171.402 13.168 171.817 13.168 172.275C13.168 172.629 13.1167 172.942 13.014 173.213C12.9113 173.474 12.7713 173.703 12.594 173.899C12.426 174.085 12.2393 174.23 12.034 174.333C11.838 174.435 11.6373 174.505 11.432 174.543V174.571C11.7027 174.58 11.95 174.636 12.174 174.739C12.4073 174.832 12.6127 174.967 12.79 175.145C12.9767 175.313 13.1213 175.518 13.224 175.761C13.3267 176.003 13.378 176.269 13.378 176.559C13.378 177.119 13.238 177.609 12.958 178.029C12.678 178.449 12.2907 178.775 11.796 179.009C11.3107 179.242 10.746 179.359 10.102 179.359ZM18.5991 179.359C17.4885 179.359 16.6158 178.957 15.9811 178.155C15.3558 177.343 15.0431 176.157 15.0431 174.599C15.0431 173.04 15.3558 171.859 15.9811 171.057C16.6158 170.245 17.4885 169.839 18.5991 169.839C19.7191 169.839 20.5918 170.245 21.2171 171.057C21.8518 171.859 22.1691 173.04 22.1691 174.599C22.1691 176.157 21.8518 177.343 21.2171 178.155C20.5918 178.957 19.7191 179.359 18.5991 179.359ZM18.5991 178.085C19.0471 178.085 19.4205 177.959 19.7191 177.707C20.0271 177.445 20.2558 177.058 20.4051 176.545C20.5638 176.022 20.6431 175.373 20.6431 174.599C20.6431 173.824 20.5638 173.18 20.4051 172.667C20.2558 172.144 20.0271 171.757 19.7191 171.505C19.4205 171.243 19.0471 171.113 18.5991 171.113C18.1511 171.113 17.7731 171.243 17.4651 171.505C17.1665 171.757 16.9425 172.144 16.7931 172.667C16.6438 173.18 16.5691 173.824 16.5691 174.599C16.5691 175.373 16.6438 176.022 16.7931 176.545C16.9425 177.058 17.1665 177.445 17.4651 177.707C17.7731 177.959 18.1511 178.085 18.5991 178.085Z" fill="#332E2E"/>
<path d="M10.124 129.219V126.909H5.616V125.887C5.63467 125.84 5.66267 125.784 5.7 125.719C5.74667 125.653 5.798 125.579 5.854 125.495L9.704 119.979H11.538V125.747H13.106V126.909H11.538V129.219H10.124ZM7.016 125.747H10.124V122.485C10.124 122.261 10.1287 122.032 10.138 121.799C10.1567 121.556 10.1707 121.318 10.18 121.085H10.152C10.0493 121.309 9.914 121.556 9.746 121.827C9.58733 122.088 9.438 122.317 9.298 122.513L7.114 125.621C7.09533 125.639 7.07667 125.658 7.058 125.677C7.04867 125.695 7.03467 125.719 7.016 125.747ZM18.105 129.359C16.9943 129.359 16.1217 128.957 15.487 128.155C14.8617 127.343 14.549 126.157 14.549 124.599C14.549 123.04 14.8617 121.859 15.487 121.057C16.1217 120.245 16.9943 119.839 18.105 119.839C19.225 119.839 20.0977 120.245 20.723 121.057C21.3577 121.859 21.675 123.04 21.675 124.599C21.675 126.157 21.3577 127.343 20.723 128.155C20.0977 128.957 19.225 129.359 18.105 129.359ZM18.105 128.085C18.553 128.085 18.9263 127.959 19.225 127.707C19.533 127.445 19.7617 127.058 19.911 126.545C20.0697 126.022 20.149 125.373 20.149 124.599C20.149 123.824 20.0697 123.18 19.911 122.667C19.7617 122.144 19.533 121.757 19.225 121.505C18.9263 121.243 18.553 121.113 18.105 121.113C17.657 121.113 17.279 121.243 16.971 121.505C16.6723 121.757 16.4483 122.144 16.299 122.667C16.1497 123.18 16.075 123.824 16.075 124.599C16.075 125.373 16.1497 126.022 16.299 126.545C16.4483 127.058 16.6723 127.445 16.971 127.707C17.279 127.959 17.657 128.085 18.105 128.085Z" fill="#332E2E"/>
<path d="M10.018 79.3588C9.19667 79.3588 8.52 79.1814 7.988 78.8267C7.46533 78.4721 7.05 77.9587 6.742 77.2867L8.142 76.5587C8.282 77.0067 8.492 77.3754 8.772 77.6647C9.06133 77.9447 9.486 78.0847 10.046 78.0847C10.438 78.0847 10.7693 78.0147 11.04 77.8747C11.32 77.7254 11.5347 77.5201 11.684 77.2587C11.8333 76.9881 11.908 76.6661 11.908 76.2927C11.908 75.9007 11.838 75.5741 11.698 75.3127C11.558 75.0514 11.3573 74.8554 11.096 74.7247C10.8347 74.5847 10.508 74.5147 10.116 74.5147C9.84533 74.5147 9.59333 74.5427 9.36 74.5987C9.12667 74.6547 8.91667 74.7434 8.73 74.8647C8.54333 74.9767 8.38 75.1261 8.24 75.3127L7.008 75.0747L7.568 69.9787H12.944V71.2667H8.758L8.422 73.8707L8.394 74.0247H8.422C8.63667 73.7914 8.912 73.6094 9.248 73.4787C9.59333 73.3481 9.99933 73.2827 10.466 73.2827C11.0633 73.2827 11.5767 73.4087 12.006 73.6607C12.4353 73.9034 12.7713 74.2441 13.014 74.6827C13.2567 75.1214 13.378 75.6301 13.378 76.2087C13.378 76.7127 13.294 77.1607 13.126 77.5527C12.958 77.9447 12.72 78.2761 12.412 78.5467C12.104 78.8174 11.7447 79.0227 11.334 79.1627C10.9327 79.2934 10.494 79.3588 10.018 79.3588ZM18.5444 79.3588C17.4338 79.3588 16.5611 78.9574 15.9264 78.1547C15.3011 77.3427 14.9884 76.1574 14.9884 74.5987C14.9884 73.0401 15.3011 71.8594 15.9264 71.0567C16.5611 70.2447 17.4338 69.8387 18.5444 69.8387C19.6644 69.8387 20.5371 70.2447 21.1624 71.0567C21.7971 71.8594 22.1144 73.0401 22.1144 74.5987C22.1144 76.1574 21.7971 77.3427 21.1624 78.1547C20.5371 78.9574 19.6644 79.3588 18.5444 79.3588ZM18.5444 78.0847C18.9924 78.0847 19.3658 77.9587 19.6644 77.7067C19.9724 77.4454 20.2011 77.0581 20.3504 76.5447C20.5091 76.0221 20.5884 75.3734 20.5884 74.5987C20.5884 73.8241 20.5091 73.1801 20.3504 72.6667C20.2011 72.1441 19.9724 71.7567 19.6644 71.5048C19.3658 71.2434 18.9924 71.1127 18.5444 71.1127C18.0964 71.1127 17.7184 71.2434 17.4104 71.5048C17.1118 71.7567 16.8878 72.1441 16.7384 72.6667C16.5891 73.1801 16.5144 73.8241 16.5144 74.5987C16.5144 75.3734 16.5891 76.0221 16.7384 76.5447C16.8878 77.0581 17.1118 77.4454 17.4104 77.7067C17.7184 77.9587 18.0964 78.0847 18.5444 78.0847Z" fill="#332E2E"/>
<path d="M9.606 19.8387C10.1007 19.8387 10.5393 19.9087 10.922 20.0487C11.3047 20.1794 11.636 20.3894 11.916 20.6787C12.2053 20.9681 12.4433 21.3461 12.63 21.8127L11.314 22.4427C11.1833 22.0414 10.9733 21.7241 10.684 21.4907C10.404 21.2574 10.012 21.1407 9.508 21.1407C9.144 21.1407 8.822 21.2294 8.542 21.4067C8.262 21.5841 8.024 21.8361 7.828 22.1627C7.632 22.4801 7.48267 22.8581 7.38 23.2967C7.27733 23.7261 7.226 24.1927 7.226 24.6967C7.226 24.7247 7.226 24.7574 7.226 24.7947C7.226 24.8227 7.226 24.8741 7.226 24.9487L7.282 24.9767C7.38467 24.6034 7.56667 24.3047 7.828 24.0807C8.09867 23.8474 8.402 23.6747 8.738 23.5627C9.074 23.4507 9.40533 23.3947 9.732 23.3947C10.348 23.3947 10.8847 23.5161 11.342 23.7587C11.7993 23.9921 12.154 24.3281 12.406 24.7667C12.6673 25.2054 12.798 25.7281 12.798 26.3347C12.798 26.9507 12.6627 27.4874 12.392 27.9447C12.1213 28.3927 11.7433 28.7427 11.258 28.9947C10.782 29.2374 10.208 29.3588 9.536 29.3588C8.752 29.3588 8.08467 29.1627 7.534 28.7707C6.98333 28.3787 6.56333 27.8281 6.274 27.1187C5.98467 26.4094 5.84 25.5787 5.84 24.6267C5.84 23.5721 6.00333 22.6901 6.33 21.9807C6.666 21.2714 7.11867 20.7394 7.688 20.3847C8.25733 20.0207 8.89667 19.8387 9.606 19.8387ZM9.508 24.6407C9.15333 24.6407 8.84067 24.7154 8.57 24.8647C8.29933 25.0047 8.08467 25.2007 7.926 25.4527C7.77667 25.7047 7.702 25.9987 7.702 26.3347C7.702 26.6614 7.78133 26.9554 7.94 27.2167C8.108 27.4781 8.32733 27.6881 8.598 27.8467C8.86867 27.9961 9.172 28.0707 9.508 28.0707C10.0773 28.0707 10.5207 27.9167 10.838 27.6087C11.1553 27.3007 11.314 26.8761 11.314 26.3347C11.314 25.9894 11.244 25.6907 11.104 25.4387C10.964 25.1774 10.7587 24.9814 10.488 24.8507C10.2267 24.7107 9.9 24.6407 9.508 24.6407ZM17.9546 29.3588C16.8439 29.3588 15.9713 28.9574 15.3366 28.1547C14.7113 27.3427 14.3986 26.1574 14.3986 24.5987C14.3986 23.0401 14.7113 21.8594 15.3366 21.0567C15.9713 20.2447 16.8439 19.8387 17.9546 19.8387C19.0746 19.8387 19.9473 20.2447 20.5726 21.0567C21.2073 21.8594 21.5246 23.0401 21.5246 24.5987C21.5246 26.1574 21.2073 27.3427 20.5726 28.1547C19.9473 28.9574 19.0746 29.3588 17.9546 29.3588ZM17.9546 28.0847C18.4026 28.0847 18.7759 27.9587 19.0746 27.7067C19.3826 27.4454 19.6113 27.0581 19.7606 26.5447C19.9193 26.0221 19.9986 25.3734 19.9986 24.5987C19.9986 23.8241 19.9193 23.1801 19.7606 22.6667C19.6113 22.1441 19.3826 21.7567 19.0746 21.5048C18.7759 21.2434 18.4026 21.1127 17.9546 21.1127C17.5066 21.1127 17.1286 21.2434 16.8206 21.5048C16.5219 21.7567 16.2979 22.1441 16.1486 22.6667C15.9993 23.1801 15.9246 23.8241 15.9246 24.5987C15.9246 25.3734 15.9993 26.0221 16.1486 26.5447C16.2979 27.0581 16.5219 27.4454 16.8206 27.7067C17.1286 27.9587 17.5066 28.0847 17.9546 28.0847Z" fill="#332E2E"/>
<path d="M83.668 334.299V342.219H82.144L79.084 337.227L78.316 335.823H78.304L78.352 337.107V342.219H77.176V334.299H78.688L81.736 339.279L82.516 340.707H82.528L82.48 339.411V334.299H83.668ZM88.2799 342.339C87.5759 342.339 86.9959 342.187 86.5399 341.883C86.0919 341.579 85.7359 341.139 85.4719 340.563L86.6719 339.939C86.7919 340.323 86.9719 340.639 87.2119 340.887C87.4599 341.127 87.8239 341.247 88.3039 341.247C88.6399 341.247 88.9239 341.187 89.1559 341.067C89.3959 340.939 89.5799 340.763 89.7079 340.539C89.8359 340.307 89.8999 340.031 89.8999 339.711C89.8999 339.375 89.8399 339.095 89.7199 338.871C89.5999 338.647 89.4279 338.479 89.2039 338.367C88.9799 338.247 88.6999 338.187 88.3639 338.187C88.1319 338.187 87.9159 338.211 87.7159 338.259C87.5159 338.307 87.3359 338.383 87.1759 338.487C87.0159 338.583 86.8759 338.711 86.7559 338.871L85.6999 338.667L86.1799 334.299H90.7879V335.403H87.1999L86.9119 337.635L86.8879 337.767H86.9119C87.0959 337.567 87.3319 337.411 87.6199 337.299C87.9159 337.187 88.2639 337.131 88.6639 337.131C89.1759 337.131 89.6159 337.239 89.9839 337.455C90.3519 337.663 90.6399 337.955 90.8479 338.331C91.0559 338.707 91.1599 339.143 91.1599 339.639C91.1599 340.071 91.0879 340.455 90.9439 340.791C90.7999 341.127 90.5959 341.411 90.3319 341.643C90.0679 341.875 89.7599 342.051 89.4079 342.171C89.0639 342.283 88.6879 342.339 88.2799 342.339ZM95.5883 342.339C94.6363 342.339 93.8883 341.995 93.3443 341.307C92.8083 340.611 92.5403 339.595 92.5403 338.259C92.5403 336.923 92.8083 335.911 93.3443 335.223C93.8883 334.527 94.6363 334.179 95.5883 334.179C96.5483 334.179 97.2963 334.527 97.8323 335.223C98.3763 335.911 98.6483 336.923 98.6483 338.259C98.6483 339.595 98.3763 340.611 97.8323 341.307C97.2963 341.995 96.5483 342.339 95.5883 342.339ZM95.5883 341.247C95.9723 341.247 96.2923 341.139 96.5483 340.923C96.8123 340.699 97.0083 340.367 97.1363 339.927C97.2723 339.479 97.3403 338.923 97.3403 338.259C97.3403 337.595 97.2723 337.043 97.1363 336.603C97.0083 336.155 96.8123 335.823 96.5483 335.607C96.2923 335.383 95.9723 335.271 95.5883 335.271C95.2043 335.271 94.8803 335.383 94.6163 335.607C94.3603 335.823 94.1683 336.155 94.0403 336.603C93.9123 337.043 93.8483 337.595 93.8483 338.259C93.8483 338.923 93.9123 339.479 94.0403 339.927C94.1683 340.367 94.3603 340.699 94.6163 340.923C94.8803 341.139 95.2043 341.247 95.5883 341.247ZM100.753 340.599C100.977 340.599 101.161 340.655 101.305 340.767C101.457 340.871 101.573 341.019 101.653 341.211C101.733 341.395 101.773 341.607 101.773 341.847C101.773 342.143 101.717 342.427 101.605 342.699C101.493 342.979 101.329 343.231 101.113 343.455C100.905 343.687 100.653 343.875 100.357 344.019L99.7571 343.503C99.9731 343.423 100.165 343.319 100.333 343.191C100.501 343.063 100.641 342.919 100.753 342.759C100.873 342.599 100.957 342.435 101.005 342.267L100.957 342.243C100.917 342.267 100.869 342.287 100.813 342.303C100.765 342.319 100.693 342.327 100.597 342.327C100.485 342.327 100.369 342.295 100.249 342.231C100.137 342.175 100.041 342.087 99.9611 341.967C99.8811 341.847 99.8411 341.691 99.8411 341.499C99.8411 341.323 99.8811 341.167 99.9611 341.031C100.049 340.895 100.161 340.791 100.297 340.719C100.433 340.639 100.585 340.599 100.753 340.599ZM105.936 342.339C104.984 342.339 104.236 341.995 103.692 341.307C103.156 340.611 102.888 339.595 102.888 338.259C102.888 336.923 103.156 335.911 103.692 335.223C104.236 334.527 104.984 334.179 105.936 334.179C106.896 334.179 107.644 334.527 108.18 335.223C108.724 335.911 108.996 336.923 108.996 338.259C108.996 339.595 108.724 340.611 108.18 341.307C107.644 341.995 106.896 342.339 105.936 342.339ZM105.936 341.247C106.32 341.247 106.64 341.139 106.896 340.923C107.16 340.699 107.356 340.367 107.484 339.927C107.62 339.479 107.688 338.923 107.688 338.259C107.688 337.595 107.62 337.043 107.484 336.603C107.356 336.155 107.16 335.823 106.896 335.607C106.64 335.383 106.32 335.271 105.936 335.271C105.552 335.271 105.228 335.383 104.964 335.607C104.708 335.823 104.516 336.155 104.388 336.603C104.26 337.043 104.196 337.595 104.196 338.259C104.196 338.923 104.26 339.479 104.388 339.927C104.516 340.367 104.708 340.699 104.964 340.923C105.228 341.139 105.552 341.247 105.936 341.247ZM113.471 342.339C112.519 342.339 111.771 341.995 111.227 341.307C110.691 340.611 110.423 339.595 110.423 338.259C110.423 336.923 110.691 335.911 111.227 335.223C111.771 334.527 112.519 334.179 113.471 334.179C114.431 334.179 115.179 334.527 115.715 335.223C116.259 335.911 116.531 336.923 116.531 338.259C116.531 339.595 116.259 340.611 115.715 341.307C115.179 341.995 114.431 342.339 113.471 342.339ZM113.471 341.247C113.855 341.247 114.175 341.139 114.431 340.923C114.695 340.699 114.891 340.367 115.019 339.927C115.155 339.479 115.223 338.923 115.223 338.259C115.223 337.595 115.155 337.043 115.019 336.603C114.891 336.155 114.695 335.823 114.431 335.607C114.175 335.383 113.855 335.271 113.471 335.271C113.087 335.271 112.763 335.383 112.499 335.607C112.243 335.823 112.051 336.155 111.923 336.603C111.795 337.043 111.731 337.595 111.731 338.259C111.731 338.923 111.795 339.479 111.923 339.927C112.051 340.367 112.243 340.699 112.499 340.923C112.763 341.139 113.087 341.247 113.471 341.247ZM121.006 342.339C120.054 342.339 119.306 341.995 118.762 341.307C118.226 340.611 117.958 339.595 117.958 338.259C117.958 336.923 118.226 335.911 118.762 335.223C119.306 334.527 120.054 334.179 121.006 334.179C121.966 334.179 122.714 334.527 123.25 335.223C123.794 335.911 124.066 336.923 124.066 338.259C124.066 339.595 123.794 340.611 123.25 341.307C122.714 341.995 121.966 342.339 121.006 342.339ZM121.006 341.247C121.39 341.247 121.71 341.139 121.966 340.923C122.23 340.699 122.426 340.367 122.554 339.927C122.69 339.479 122.758 338.923 122.758 338.259C122.758 337.595 122.69 337.043 122.554 336.603C122.426 336.155 122.23 335.823 121.966 335.607C121.71 335.383 121.39 335.271 121.006 335.271C120.622 335.271 120.298 335.383 120.034 335.607C119.778 335.823 119.586 336.155 119.458 336.603C119.33 337.043 119.266 337.595 119.266 338.259C119.266 338.923 119.33 339.479 119.458 339.927C119.586 340.367 119.778 340.699 120.034 340.923C120.298 341.139 120.622 341.247 121.006 341.247ZM129.909 338.463V339.651H125.817V338.463H129.909ZM132.893 342.219V336.783C132.893 336.623 132.893 336.459 132.893 336.291C132.901 336.115 132.909 335.931 132.917 335.739C132.645 336.003 132.333 336.231 131.981 336.423C131.637 336.607 131.281 336.739 130.913 336.819L130.673 335.703C130.841 335.679 131.037 335.623 131.261 335.535C131.485 335.447 131.717 335.335 131.957 335.199C132.197 335.063 132.417 334.919 132.617 334.767C132.817 334.607 132.973 334.451 133.085 334.299H134.165V342.219H132.893ZM138.729 342.339C138.025 342.339 137.445 342.187 136.989 341.883C136.541 341.579 136.185 341.139 135.921 340.563L137.121 339.939C137.241 340.323 137.421 340.639 137.661 340.887C137.909 341.127 138.273 341.247 138.753 341.247C139.089 341.247 139.373 341.187 139.605 341.067C139.845 340.939 140.029 340.763 140.157 340.539C140.285 340.307 140.349 340.031 140.349 339.711C140.349 339.375 140.289 339.095 140.169 338.871C140.049 338.647 139.877 338.479 139.653 338.367C139.429 338.247 139.149 338.187 138.813 338.187C138.581 338.187 138.365 338.211 138.165 338.259C137.965 338.307 137.785 338.383 137.625 338.487C137.465 338.583 137.325 338.711 137.205 338.871L136.149 338.667L136.629 334.299H141.237V335.403H137.649L137.361 337.635L137.337 337.767H137.361C137.545 337.567 137.781 337.411 138.069 337.299C138.365 337.187 138.713 337.131 139.113 337.131C139.625 337.131 140.065 337.239 140.433 337.455C140.801 337.663 141.089 337.955 141.297 338.331C141.505 338.707 141.609 339.143 141.609 339.639C141.609 340.071 141.537 340.455 141.393 340.791C141.249 341.127 141.045 341.411 140.781 341.643C140.517 341.875 140.209 342.051 139.857 342.171C139.513 342.283 139.137 342.339 138.729 342.339ZM146.038 342.339C145.086 342.339 144.338 341.995 143.794 341.307C143.258 340.611 142.99 339.595 142.99 338.259C142.99 336.923 143.258 335.911 143.794 335.223C144.338 334.527 145.086 334.179 146.038 334.179C146.998 334.179 147.746 334.527 148.282 335.223C148.826 335.911 149.098 336.923 149.098 338.259C149.098 339.595 148.826 340.611 148.282 341.307C147.746 341.995 146.998 342.339 146.038 342.339ZM146.038 341.247C146.422 341.247 146.742 341.139 146.998 340.923C147.262 340.699 147.458 340.367 147.586 339.927C147.722 339.479 147.79 338.923 147.79 338.259C147.79 337.595 147.722 337.043 147.586 336.603C147.458 336.155 147.262 335.823 146.998 335.607C146.742 335.383 146.422 335.271 146.038 335.271C145.654 335.271 145.33 335.383 145.066 335.607C144.81 335.823 144.618 336.155 144.49 336.603C144.362 337.043 144.298 337.595 144.298 338.259C144.298 338.923 144.362 339.479 144.49 339.927C144.618 340.367 144.81 340.699 145.066 340.923C145.33 341.139 145.654 341.247 146.038 341.247Z" fill="#525252"/>
<g filter="url(#filter0_ii_467_1060)">
<rect x="82" y="82.2188" width="62" height="242" fill="#1472CC"/>
</g>
<path d="M191.668 334.299V342.219H190.144L187.084 337.227L186.316 335.823H186.304L186.352 337.107V342.219H185.176V334.299H186.688L189.736 339.279L190.516 340.707H190.528L190.48 339.411V334.299H191.668ZM195.272 342.219V336.783C195.272 336.623 195.272 336.459 195.272 336.291C195.28 336.115 195.288 335.931 195.296 335.739C195.024 336.003 194.712 336.231 194.36 336.423C194.016 336.607 193.66 336.739 193.292 336.819L193.052 335.703C193.22 335.679 193.416 335.623 193.64 335.535C193.864 335.447 194.096 335.335 194.336 335.199C194.576 335.063 194.796 334.919 194.996 334.767C195.196 334.607 195.352 334.451 195.464 334.299H196.544V342.219H195.272ZM201.108 342.339C200.404 342.339 199.824 342.187 199.368 341.883C198.92 341.579 198.564 341.139 198.3 340.563L199.5 339.939C199.62 340.323 199.8 340.639 200.04 340.887C200.288 341.127 200.652 341.247 201.132 341.247C201.468 341.247 201.752 341.187 201.984 341.067C202.224 340.939 202.408 340.763 202.536 340.539C202.664 340.307 202.728 340.031 202.728 339.711C202.728 339.375 202.668 339.095 202.548 338.871C202.428 338.647 202.256 338.479 202.032 338.367C201.808 338.247 201.528 338.187 201.192 338.187C200.96 338.187 200.744 338.211 200.544 338.259C200.344 338.307 200.164 338.383 200.004 338.487C199.844 338.583 199.704 338.711 199.584 338.871L198.528 338.667L199.008 334.299H203.616V335.403H200.028L199.74 337.635L199.716 337.767H199.74C199.924 337.567 200.16 337.411 200.448 337.299C200.744 337.187 201.092 337.131 201.492 337.131C202.004 337.131 202.444 337.239 202.812 337.455C203.18 337.663 203.468 337.955 203.676 338.331C203.884 338.707 203.988 339.143 203.988 339.639C203.988 340.071 203.916 340.455 203.772 340.791C203.628 341.127 203.424 341.411 203.16 341.643C202.896 341.875 202.588 342.051 202.236 342.171C201.892 342.283 201.516 342.339 201.108 342.339ZM208.416 342.339C207.464 342.339 206.716 341.995 206.172 341.307C205.636 340.611 205.368 339.595 205.368 338.259C205.368 336.923 205.636 335.911 206.172 335.223C206.716 334.527 207.464 334.179 208.416 334.179C209.376 334.179 210.124 334.527 210.66 335.223C211.204 335.911 211.476 336.923 211.476 338.259C211.476 339.595 211.204 340.611 210.66 341.307C210.124 341.995 209.376 342.339 208.416 342.339ZM208.416 341.247C208.8 341.247 209.12 341.139 209.376 340.923C209.64 340.699 209.836 340.367 209.964 339.927C210.1 339.479 210.168 338.923 210.168 338.259C210.168 337.595 210.1 337.043 209.964 336.603C209.836 336.155 209.64 335.823 209.376 335.607C209.12 335.383 208.8 335.271 208.416 335.271C208.032 335.271 207.708 335.383 207.444 335.607C207.188 335.823 206.996 336.155 206.868 336.603C206.74 337.043 206.676 337.595 206.676 338.259C206.676 338.923 206.74 339.479 206.868 339.927C206.996 340.367 207.188 340.699 207.444 340.923C207.708 341.139 208.032 341.247 208.416 341.247ZM213.581 340.599C213.805 340.599 213.989 340.655 214.133 340.767C214.285 340.871 214.401 341.019 214.481 341.211C214.561 341.395 214.601 341.607 214.601 341.847C214.601 342.143 214.545 342.427 214.433 342.699C214.321 342.979 214.157 343.231 213.941 343.455C213.733 343.687 213.481 343.875 213.185 344.019L212.585 343.503C212.801 343.423 212.993 343.319 213.161 343.191C213.329 343.063 213.469 342.919 213.581 342.759C213.701 342.599 213.785 342.435 213.833 342.267L213.785 342.243C213.745 342.267 213.697 342.287 213.641 342.303C213.593 342.319 213.521 342.327 213.425 342.327C213.313 342.327 213.197 342.295 213.077 342.231C212.965 342.175 212.869 342.087 212.789 341.967C212.709 341.847 212.669 341.691 212.669 341.499C212.669 341.323 212.709 341.167 212.789 341.031C212.877 340.895 212.989 340.791 213.125 340.719C213.261 340.639 213.413 340.599 213.581 340.599ZM218.764 342.339C217.812 342.339 217.064 341.995 216.52 341.307C215.984 340.611 215.716 339.595 215.716 338.259C215.716 336.923 215.984 335.911 216.52 335.223C217.064 334.527 217.812 334.179 218.764 334.179C219.724 334.179 220.472 334.527 221.008 335.223C221.552 335.911 221.824 336.923 221.824 338.259C221.824 339.595 221.552 340.611 221.008 341.307C220.472 341.995 219.724 342.339 218.764 342.339ZM218.764 341.247C219.148 341.247 219.468 341.139 219.724 340.923C219.988 340.699 220.184 340.367 220.312 339.927C220.448 339.479 220.516 338.923 220.516 338.259C220.516 337.595 220.448 337.043 220.312 336.603C220.184 336.155 219.988 335.823 219.724 335.607C219.468 335.383 219.148 335.271 218.764 335.271C218.38 335.271 218.056 335.383 217.792 335.607C217.536 335.823 217.344 336.155 217.216 336.603C217.088 337.043 217.024 337.595 217.024 338.259C217.024 338.923 217.088 339.479 217.216 339.927C217.344 340.367 217.536 340.699 217.792 340.923C218.056 341.139 218.38 341.247 218.764 341.247ZM226.299 342.339C225.347 342.339 224.599 341.995 224.055 341.307C223.519 340.611 223.251 339.595 223.251 338.259C223.251 336.923 223.519 335.911 224.055 335.223C224.599 334.527 225.347 334.179 226.299 334.179C227.259 334.179 228.007 334.527 228.543 335.223C229.087 335.911 229.359 336.923 229.359 338.259C229.359 339.595 229.087 340.611 228.543 341.307C228.007 341.995 227.259 342.339 226.299 342.339ZM226.299 341.247C226.683 341.247 227.003 341.139 227.259 340.923C227.523 340.699 227.719 340.367 227.847 339.927C227.983 339.479 228.051 338.923 228.051 338.259C228.051 337.595 227.983 337.043 227.847 336.603C227.719 336.155 227.523 335.823 227.259 335.607C227.003 335.383 226.683 335.271 226.299 335.271C225.915 335.271 225.591 335.383 225.327 335.607C225.071 335.823 224.879 336.155 224.751 336.603C224.623 337.043 224.559 337.595 224.559 338.259C224.559 338.923 224.623 339.479 224.751 339.927C224.879 340.367 225.071 340.699 225.327 340.923C225.591 341.139 225.915 341.247 226.299 341.247ZM233.834 342.339C232.882 342.339 232.134 341.995 231.59 341.307C231.054 340.611 230.786 339.595 230.786 338.259C230.786 336.923 231.054 335.911 231.59 335.223C232.134 334.527 232.882 334.179 233.834 334.179C234.794 334.179 235.542 334.527 236.078 335.223C236.622 335.911 236.894 336.923 236.894 338.259C236.894 339.595 236.622 340.611 236.078 341.307C235.542 341.995 234.794 342.339 233.834 342.339ZM233.834 341.247C234.218 341.247 234.538 341.139 234.794 340.923C235.058 340.699 235.254 340.367 235.382 339.927C235.518 339.479 235.586 338.923 235.586 338.259C235.586 337.595 235.518 337.043 235.382 336.603C235.254 336.155 235.058 335.823 234.794 335.607C234.538 335.383 234.218 335.271 233.834 335.271C233.45 335.271 233.126 335.383 232.862 335.607C232.606 335.823 232.414 336.155 232.286 336.603C232.158 337.043 232.094 337.595 232.094 338.259C232.094 338.923 232.158 339.479 232.286 339.927C232.414 340.367 232.606 340.699 232.862 340.923C233.126 341.139 233.45 341.247 233.834 341.247ZM242.738 338.463V339.651H238.646V338.463H242.738ZM247.071 342.339C246.327 342.339 245.679 342.175 245.127 341.847C244.583 341.511 244.211 341.043 244.011 340.443L245.259 339.855C245.331 340.143 245.443 340.391 245.595 340.599C245.747 340.807 245.947 340.967 246.195 341.079C246.443 341.183 246.751 341.235 247.119 341.235C247.431 341.235 247.695 341.179 247.911 341.067C248.127 340.955 248.291 340.799 248.403 340.599C248.523 340.399 248.583 340.171 248.583 339.915C248.583 339.651 248.531 339.431 248.427 339.255C248.331 339.079 248.175 338.951 247.959 338.871C247.751 338.791 247.483 338.751 247.155 338.751C247.059 338.751 246.959 338.755 246.855 338.763C246.759 338.763 246.655 338.771 246.543 338.787V337.707C246.615 337.715 246.683 337.723 246.747 337.731C246.819 337.731 246.887 337.731 246.951 337.731C247.471 337.731 247.843 337.627 248.067 337.419C248.291 337.211 248.403 336.887 248.403 336.447C248.403 336.071 248.287 335.783 248.055 335.583C247.831 335.383 247.507 335.283 247.083 335.283C246.643 335.283 246.299 335.387 246.051 335.595C245.811 335.795 245.627 336.087 245.499 336.471L244.323 335.979C244.435 335.611 244.623 335.291 244.887 335.019C245.151 334.747 245.475 334.539 245.859 334.395C246.251 334.243 246.679 334.167 247.143 334.167C247.711 334.167 248.183 334.259 248.559 334.443C248.943 334.627 249.227 334.879 249.411 335.199C249.603 335.519 249.699 335.875 249.699 336.267C249.699 336.571 249.655 336.839 249.567 337.071C249.479 337.295 249.359 337.491 249.207 337.659C249.063 337.819 248.903 337.943 248.727 338.031C248.559 338.119 248.387 338.179 248.211 338.211V338.235C248.443 338.243 248.655 338.291 248.847 338.379C249.047 338.459 249.223 338.575 249.375 338.727C249.535 338.871 249.659 339.047 249.747 339.255C249.835 339.463 249.879 339.691 249.879 339.939C249.879 340.419 249.759 340.839 249.519 341.199C249.279 341.559 248.947 341.839 248.523 342.039C248.107 342.239 247.623 342.339 247.071 342.339ZM254.03 342.339C253.326 342.339 252.746 342.187 252.29 341.883C251.842 341.579 251.486 341.139 251.222 340.563L252.422 339.939C252.542 340.323 252.722 340.639 252.962 340.887C253.21 341.127 253.574 341.247 254.054 341.247C254.39 341.247 254.674 341.187 254.906 341.067C255.146 340.939 255.33 340.763 255.458 340.539C255.586 340.307 255.65 340.031 255.65 339.711C255.65 339.375 255.59 339.095 255.47 338.871C255.35 338.647 255.178 338.479 254.954 338.367C254.73 338.247 254.45 338.187 254.114 338.187C253.882 338.187 253.666 338.211 253.466 338.259C253.266 338.307 253.086 338.383 252.926 338.487C252.766 338.583 252.626 338.711 252.506 338.871L251.45 338.667L251.93 334.299H256.538V335.403H252.95L252.662 337.635L252.638 337.767H252.662C252.846 337.567 253.082 337.411 253.37 337.299C253.666 337.187 254.014 337.131 254.414 337.131C254.926 337.131 255.366 337.239 255.734 337.455C256.102 337.663 256.39 337.955 256.598 338.331C256.806 338.707 256.91 339.143 256.91 339.639C256.91 340.071 256.838 340.455 256.694 340.791C256.55 341.127 256.346 341.411 256.082 341.643C255.818 341.875 255.51 342.051 255.158 342.171C254.814 342.283 254.438 342.339 254.03 342.339ZM261.338 342.339C260.386 342.339 259.638 341.995 259.094 341.307C258.558 340.611 258.29 339.595 258.29 338.259C258.29 336.923 258.558 335.911 259.094 335.223C259.638 334.527 260.386 334.179 261.338 334.179C262.298 334.179 263.046 334.527 263.582 335.223C264.126 335.911 264.398 336.923 264.398 338.259C264.398 339.595 264.126 340.611 263.582 341.307C263.046 341.995 262.298 342.339 261.338 342.339ZM261.338 341.247C261.722 341.247 262.042 341.139 262.298 340.923C262.562 340.699 262.758 340.367 262.886 339.927C263.022 339.479 263.09 338.923 263.09 338.259C263.09 337.595 263.022 337.043 262.886 336.603C262.758 336.155 262.562 335.823 262.298 335.607C262.042 335.383 261.722 335.271 261.338 335.271C260.954 335.271 260.63 335.383 260.366 335.607C260.11 335.823 259.918 336.155 259.79 336.603C259.662 337.043 259.598 337.595 259.598 338.259C259.598 338.923 259.662 339.479 259.79 339.927C259.918 340.367 260.11 340.699 260.366 340.923C260.63 341.139 260.954 341.247 261.338 341.247Z" fill="#525252"/>
<g filter="url(#filter1_ii_467_1060)">
<rect x="194" y="145.219" width="62" height="179" fill="#00BFA1"/>
</g>
<path d="M307.668 334.299V342.219H306.144L303.084 337.227L302.316 335.823H302.304L302.352 337.107V342.219H301.176V334.299H302.688L305.736 339.279L306.516 340.707H306.528L306.48 339.411V334.299H307.668ZM312.352 342.339C311.608 342.339 310.96 342.175 310.408 341.847C309.864 341.511 309.492 341.043 309.292 340.443L310.54 339.855C310.612 340.143 310.724 340.391 310.876 340.599C311.028 340.807 311.228 340.967 311.476 341.079C311.724 341.183 312.032 341.235 312.4 341.235C312.712 341.235 312.976 341.179 313.192 341.067C313.408 340.955 313.572 340.799 313.684 340.599C313.804 340.399 313.864 340.171 313.864 339.915C313.864 339.651 313.812 339.431 313.708 339.255C313.612 339.079 313.456 338.951 313.24 338.871C313.032 338.791 312.764 338.751 312.436 338.751C312.34 338.751 312.24 338.755 312.136 338.763C312.04 338.763 311.936 338.771 311.824 338.787V337.707C311.896 337.715 311.964 337.723 312.028 337.731C312.1 337.731 312.168 337.731 312.232 337.731C312.752 337.731 313.124 337.627 313.348 337.419C313.572 337.211 313.684 336.887 313.684 336.447C313.684 336.071 313.568 335.783 313.336 335.583C313.112 335.383 312.788 335.283 312.364 335.283C311.924 335.283 311.58 335.387 311.332 335.595C311.092 335.795 310.908 336.087 310.78 336.471L309.604 335.979C309.716 335.611 309.904 335.291 310.168 335.019C310.432 334.747 310.756 334.539 311.14 334.395C311.532 334.243 311.96 334.167 312.424 334.167C312.992 334.167 313.464 334.259 313.84 334.443C314.224 334.627 314.508 334.879 314.692 335.199C314.884 335.519 314.98 335.875 314.98 336.267C314.98 336.571 314.936 336.839 314.848 337.071C314.76 337.295 314.64 337.491 314.488 337.659C314.344 337.819 314.184 337.943 314.008 338.031C313.84 338.119 313.668 338.179 313.492 338.211V338.235C313.724 338.243 313.936 338.291 314.128 338.379C314.328 338.459 314.504 338.575 314.656 338.727C314.816 338.871 314.94 339.047 315.028 339.255C315.116 339.463 315.16 339.691 315.16 339.939C315.16 340.419 315.04 340.839 314.8 341.199C314.56 341.559 314.228 341.839 313.804 342.039C313.388 342.239 312.904 342.339 312.352 342.339ZM319.311 342.339C318.607 342.339 318.027 342.187 317.571 341.883C317.123 341.579 316.767 341.139 316.503 340.563L317.703 339.939C317.823 340.323 318.003 340.639 318.243 340.887C318.491 341.127 318.855 341.247 319.335 341.247C319.671 341.247 319.955 341.187 320.187 341.067C320.427 340.939 320.611 340.763 320.739 340.539C320.867 340.307 320.931 340.031 320.931 339.711C320.931 339.375 320.871 339.095 320.751 338.871C320.631 338.647 320.459 338.479 320.235 338.367C320.011 338.247 319.731 338.187 319.395 338.187C319.163 338.187 318.947 338.211 318.747 338.259C318.547 338.307 318.367 338.383 318.207 338.487C318.047 338.583 317.907 338.711 317.787 338.871L316.731 338.667L317.211 334.299H321.819V335.403H318.231L317.943 337.635L317.919 337.767H317.943C318.127 337.567 318.363 337.411 318.651 337.299C318.947 337.187 319.295 337.131 319.695 337.131C320.207 337.131 320.647 337.239 321.015 337.455C321.383 337.663 321.671 337.955 321.879 338.331C322.087 338.707 322.191 339.143 322.191 339.639C322.191 340.071 322.119 340.455 321.975 340.791C321.831 341.127 321.627 341.411 321.363 341.643C321.099 341.875 320.791 342.051 320.439 342.171C320.095 342.283 319.719 342.339 319.311 342.339ZM326.62 342.339C325.668 342.339 324.92 341.995 324.376 341.307C323.84 340.611 323.572 339.595 323.572 338.259C323.572 336.923 323.84 335.911 324.376 335.223C324.92 334.527 325.668 334.179 326.62 334.179C327.58 334.179 328.328 334.527 328.864 335.223C329.408 335.911 329.68 336.923 329.68 338.259C329.68 339.595 329.408 340.611 328.864 341.307C328.328 341.995 327.58 342.339 326.62 342.339ZM326.62 341.247C327.004 341.247 327.324 341.139 327.58 340.923C327.844 340.699 328.04 340.367 328.168 339.927C328.304 339.479 328.372 338.923 328.372 338.259C328.372 337.595 328.304 337.043 328.168 336.603C328.04 336.155 327.844 335.823 327.58 335.607C327.324 335.383 327.004 335.271 326.62 335.271C326.236 335.271 325.912 335.383 325.648 335.607C325.392 335.823 325.2 336.155 325.072 336.603C324.944 337.043 324.88 337.595 324.88 338.259C324.88 338.923 324.944 339.479 325.072 339.927C325.2 340.367 325.392 340.699 325.648 340.923C325.912 341.139 326.236 341.247 326.62 341.247ZM331.784 340.599C332.008 340.599 332.192 340.655 332.336 340.767C332.488 340.871 332.604 341.019 332.684 341.211C332.764 341.395 332.804 341.607 332.804 341.847C332.804 342.143 332.748 342.427 332.636 342.699C332.524 342.979 332.36 343.231 332.144 343.455C331.936 343.687 331.684 343.875 331.388 344.019L330.788 343.503C331.004 343.423 331.196 343.319 331.364 343.191C331.532 343.063 331.672 342.919 331.784 342.759C331.904 342.599 331.988 342.435 332.036 342.267L331.988 342.243C331.948 342.267 331.9 342.287 331.844 342.303C331.796 342.319 331.724 342.327 331.628 342.327C331.516 342.327 331.4 342.295 331.28 342.231C331.168 342.175 331.072 342.087 330.992 341.967C330.912 341.847 330.872 341.691 330.872 341.499C330.872 341.323 330.912 341.167 330.992 341.031C331.08 340.895 331.192 340.791 331.328 340.719C331.464 340.639 331.616 340.599 331.784 340.599ZM336.967 342.339C336.015 342.339 335.267 341.995 334.723 341.307C334.187 340.611 333.919 339.595 333.919 338.259C333.919 336.923 334.187 335.911 334.723 335.223C335.267 334.527 336.015 334.179 336.967 334.179C337.927 334.179 338.675 334.527 339.211 335.223C339.755 335.911 340.027 336.923 340.027 338.259C340.027 339.595 339.755 340.611 339.211 341.307C338.675 341.995 337.927 342.339 336.967 342.339ZM336.967 341.247C337.351 341.247 337.671 341.139 337.927 340.923C338.191 340.699 338.387 340.367 338.515 339.927C338.651 339.479 338.719 338.923 338.719 338.259C338.719 337.595 338.651 337.043 338.515 336.603C338.387 336.155 338.191 335.823 337.927 335.607C337.671 335.383 337.351 335.271 336.967 335.271C336.583 335.271 336.259 335.383 335.995 335.607C335.739 335.823 335.547 336.155 335.419 336.603C335.291 337.043 335.227 337.595 335.227 338.259C335.227 338.923 335.291 339.479 335.419 339.927C335.547 340.367 335.739 340.699 335.995 340.923C336.259 341.139 336.583 341.247 336.967 341.247ZM344.502 342.339C343.55 342.339 342.802 341.995 342.258 341.307C341.722 340.611 341.454 339.595 341.454 338.259C341.454 336.923 341.722 335.911 342.258 335.223C342.802 334.527 343.55 334.179 344.502 334.179C345.462 334.179 346.21 334.527 346.746 335.223C347.29 335.911 347.562 336.923 347.562 338.259C347.562 339.595 347.29 340.611 346.746 341.307C346.21 341.995 345.462 342.339 344.502 342.339ZM344.502 341.247C344.886 341.247 345.206 341.139 345.462 340.923C345.726 340.699 345.922 340.367 346.05 339.927C346.186 339.479 346.254 338.923 346.254 338.259C346.254 337.595 346.186 337.043 346.05 336.603C345.922 336.155 345.726 335.823 345.462 335.607C345.206 335.383 344.886 335.271 344.502 335.271C344.118 335.271 343.794 335.383 343.53 335.607C343.274 335.823 343.082 336.155 342.954 336.603C342.826 337.043 342.762 337.595 342.762 338.259C342.762 338.923 342.826 339.479 342.954 339.927C343.082 340.367 343.274 340.699 343.53 340.923C343.794 341.139 344.118 341.247 344.502 341.247ZM352.038 342.339C351.086 342.339 350.338 341.995 349.794 341.307C349.258 340.611 348.99 339.595 348.99 338.259C348.99 336.923 349.258 335.911 349.794 335.223C350.338 334.527 351.086 334.179 352.038 334.179C352.998 334.179 353.746 334.527 354.282 335.223C354.826 335.911 355.098 336.923 355.098 338.259C355.098 339.595 354.826 340.611 354.282 341.307C353.746 341.995 352.998 342.339 352.038 342.339ZM352.038 341.247C352.422 341.247 352.742 341.139 352.998 340.923C353.262 340.699 353.458 340.367 353.586 339.927C353.722 339.479 353.79 338.923 353.79 338.259C353.79 337.595 353.722 337.043 353.586 336.603C353.458 336.155 353.262 335.823 352.998 335.607C352.742 335.383 352.422 335.271 352.038 335.271C351.654 335.271 351.33 335.383 351.066 335.607C350.81 335.823 350.618 336.155 350.49 336.603C350.362 337.043 350.298 337.595 350.298 338.259C350.298 338.923 350.362 339.479 350.49 339.927C350.618 340.367 350.81 340.699 351.066 340.923C351.33 341.139 351.654 341.247 352.038 341.247ZM360.941 338.463V339.651H356.849V338.463H360.941ZM365.928 334.179C366.352 334.179 366.728 334.239 367.056 334.359C367.384 334.471 367.668 334.651 367.908 334.899C368.156 335.147 368.36 335.471 368.52 335.871L367.392 336.411C367.28 336.067 367.1 335.795 366.852 335.595C366.612 335.395 366.276 335.295 365.844 335.295C365.532 335.295 365.256 335.371 365.016 335.523C364.776 335.675 364.572 335.891 364.404 336.171C364.236 336.443 364.108 336.767 364.02 337.143C363.932 337.511 363.888 337.911 363.888 338.343C363.888 338.367 363.888 338.395 363.888 338.427C363.888 338.451 363.888 338.495 363.888 338.559L363.936 338.583C364.024 338.263 364.18 338.007 364.404 337.815C364.636 337.615 364.896 337.467 365.184 337.371C365.472 337.275 365.756 337.227 366.036 337.227C366.564 337.227 367.024 337.331 367.416 337.539C367.808 337.739 368.112 338.027 368.328 338.403C368.552 338.779 368.664 339.227 368.664 339.747C368.664 340.275 368.548 340.735 368.316 341.127C368.084 341.511 367.76 341.811 367.344 342.027C366.936 342.235 366.444 342.339 365.868 342.339C365.196 342.339 364.624 342.171 364.152 341.835C363.68 341.499 363.32 341.027 363.072 340.419C362.824 339.811 362.7 339.099 362.7 338.283C362.7 337.379 362.84 336.623 363.12 336.015C363.408 335.407 363.796 334.951 364.284 334.647C364.772 334.335 365.32 334.179 365.928 334.179ZM365.844 338.295C365.54 338.295 365.272 338.359 365.04 338.487C364.808 338.607 364.624 338.775 364.488 338.991C364.36 339.207 364.296 339.459 364.296 339.747C364.296 340.027 364.364 340.279 364.5 340.503C364.644 340.727 364.832 340.907 365.064 341.043C365.296 341.171 365.556 341.235 365.844 341.235C366.332 341.235 366.712 341.103 366.984 340.839C367.256 340.575 367.392 340.211 367.392 339.747C367.392 339.451 367.332 339.195 367.212 338.979C367.092 338.755 366.916 338.587 366.684 338.475C366.46 338.355 366.18 338.295 365.844 338.295ZM372.76 342.339C372.056 342.339 371.476 342.187 371.02 341.883C370.572 341.579 370.216 341.139 369.952 340.563L371.152 339.939C371.272 340.323 371.452 340.639 371.692 340.887C371.94 341.127 372.304 341.247 372.784 341.247C373.12 341.247 373.404 341.187 373.636 341.067C373.876 340.939 374.06 340.763 374.188 340.539C374.316 340.307 374.38 340.031 374.38 339.711C374.38 339.375 374.32 339.095 374.2 338.871C374.08 338.647 373.908 338.479 373.684 338.367C373.46 338.247 373.18 338.187 372.844 338.187C372.612 338.187 372.396 338.211 372.196 338.259C371.996 338.307 371.816 338.383 371.656 338.487C371.496 338.583 371.356 338.711 371.236 338.871L370.18 338.667L370.66 334.299H375.268V335.403H371.68L371.392 337.635L371.368 337.767H371.392C371.576 337.567 371.812 337.411 372.1 337.299C372.396 337.187 372.744 337.131 373.144 337.131C373.656 337.131 374.096 337.239 374.464 337.455C374.832 337.663 375.12 337.955 375.328 338.331C375.536 338.707 375.64 339.143 375.64 339.639C375.64 340.071 375.568 340.455 375.424 340.791C375.28 341.127 375.076 341.411 374.812 341.643C374.548 341.875 374.24 342.051 373.888 342.171C373.544 342.283 373.168 342.339 372.76 342.339ZM380.069 342.339C379.117 342.339 378.369 341.995 377.825 341.307C377.289 340.611 377.021 339.595 377.021 338.259C377.021 336.923 377.289 335.911 377.825 335.223C378.369 334.527 379.117 334.179 380.069 334.179C381.029 334.179 381.777 334.527 382.313 335.223C382.857 335.911 383.129 336.923 383.129 338.259C383.129 339.595 382.857 340.611 382.313 341.307C381.777 341.995 381.029 342.339 380.069 342.339ZM380.069 341.247C380.453 341.247 380.773 341.139 381.029 340.923C381.293 340.699 381.489 340.367 381.617 339.927C381.753 339.479 381.821 338.923 381.821 338.259C381.821 337.595 381.753 337.043 381.617 336.603C381.489 336.155 381.293 335.823 381.029 335.607C380.773 335.383 380.453 335.271 380.069 335.271C379.685 335.271 379.361 335.383 379.097 335.607C378.841 335.823 378.649 336.155 378.521 336.603C378.393 337.043 378.329 337.595 378.329 338.259C378.329 338.923 378.393 339.479 378.521 339.927C378.649 340.367 378.841 340.699 379.097 340.923C379.361 341.139 379.685 341.247 380.069 341.247Z" fill="#525252"/>
<g filter="url(#filter2_ii_467_1060)">
<rect x="311" y="232.219" width="62" height="92" fill="#FF9900"/>
</g>
<path d="M425.668 334.299V342.219H424.144L421.084 337.227L420.316 335.823H420.304L420.352 337.107V342.219H419.176V334.299H420.688L423.736 339.279L424.516 340.707H424.528L424.48 339.411V334.299H425.668ZM430.784 334.179C431.208 334.179 431.584 334.239 431.912 334.359C432.24 334.471 432.524 334.651 432.764 334.899C433.012 335.147 433.216 335.471 433.376 335.871L432.248 336.411C432.136 336.067 431.956 335.795 431.708 335.595C431.468 335.395 431.132 335.295 430.7 335.295C430.388 335.295 430.112 335.371 429.872 335.523C429.632 335.675 429.428 335.891 429.26 336.171C429.092 336.443 428.964 336.767 428.876 337.143C428.788 337.511 428.744 337.911 428.744 338.343C428.744 338.367 428.744 338.395 428.744 338.427C428.744 338.451 428.744 338.495 428.744 338.559L428.792 338.583C428.88 338.263 429.036 338.007 429.26 337.815C429.492 337.615 429.752 337.467 430.04 337.371C430.328 337.275 430.612 337.227 430.892 337.227C431.42 337.227 431.88 337.331 432.272 337.539C432.664 337.739 432.968 338.027 433.184 338.403C433.408 338.779 433.52 339.227 433.52 339.747C433.52 340.275 433.404 340.735 433.172 341.127C432.94 341.511 432.616 341.811 432.2 342.027C431.792 342.235 431.3 342.339 430.724 342.339C430.052 342.339 429.48 342.171 429.008 341.835C428.536 341.499 428.176 341.027 427.928 340.419C427.68 339.811 427.556 339.099 427.556 338.283C427.556 337.379 427.696 336.623 427.976 336.015C428.264 335.407 428.652 334.951 429.14 334.647C429.628 334.335 430.176 334.179 430.784 334.179ZM430.7 338.295C430.396 338.295 430.128 338.359 429.896 338.487C429.664 338.607 429.48 338.775 429.344 338.991C429.216 339.207 429.152 339.459 429.152 339.747C429.152 340.027 429.22 340.279 429.356 340.503C429.5 340.727 429.688 340.907 429.92 341.043C430.152 341.171 430.412 341.235 430.7 341.235C431.188 341.235 431.568 341.103 431.84 340.839C432.112 340.575 432.248 340.211 432.248 339.747C432.248 339.451 432.188 339.195 432.068 338.979C431.948 338.755 431.772 338.587 431.54 338.475C431.316 338.355 431.036 338.295 430.7 338.295ZM437.616 342.339C436.912 342.339 436.332 342.187 435.876 341.883C435.428 341.579 435.072 341.139 434.808 340.563L436.008 339.939C436.128 340.323 436.308 340.639 436.548 340.887C436.796 341.127 437.16 341.247 437.64 341.247C437.976 341.247 438.26 341.187 438.492 341.067C438.732 340.939 438.916 340.763 439.044 340.539C439.172 340.307 439.236 340.031 439.236 339.711C439.236 339.375 439.176 339.095 439.056 338.871C438.936 338.647 438.764 338.479 438.54 338.367C438.316 338.247 438.036 338.187 437.7 338.187C437.468 338.187 437.252 338.211 437.052 338.259C436.852 338.307 436.672 338.383 436.512 338.487C436.352 338.583 436.212 338.711 436.092 338.871L435.036 338.667L435.516 334.299H440.124V335.403H436.536L436.248 337.635L436.224 337.767H436.248C436.432 337.567 436.668 337.411 436.956 337.299C437.252 337.187 437.6 337.131 438 337.131C438.512 337.131 438.952 337.239 439.32 337.455C439.688 337.663 439.976 337.955 440.184 338.331C440.392 338.707 440.496 339.143 440.496 339.639C440.496 340.071 440.424 340.455 440.28 340.791C440.136 341.127 439.932 341.411 439.668 341.643C439.404 341.875 439.096 342.051 438.744 342.171C438.4 342.283 438.024 342.339 437.616 342.339ZM444.924 342.339C443.972 342.339 443.224 341.995 442.68 341.307C442.144 340.611 441.876 339.595 441.876 338.259C441.876 336.923 442.144 335.911 442.68 335.223C443.224 334.527 443.972 334.179 444.924 334.179C445.884 334.179 446.632 334.527 447.168 335.223C447.712 335.911 447.984 336.923 447.984 338.259C447.984 339.595 447.712 340.611 447.168 341.307C446.632 341.995 445.884 342.339 444.924 342.339ZM444.924 341.247C445.308 341.247 445.628 341.139 445.884 340.923C446.148 340.699 446.344 340.367 446.472 339.927C446.608 339.479 446.676 338.923 446.676 338.259C446.676 337.595 446.608 337.043 446.472 336.603C446.344 336.155 446.148 335.823 445.884 335.607C445.628 335.383 445.308 335.271 444.924 335.271C444.54 335.271 444.216 335.383 443.952 335.607C443.696 335.823 443.504 336.155 443.376 336.603C443.248 337.043 443.184 337.595 443.184 338.259C443.184 338.923 443.248 339.479 443.376 339.927C443.504 340.367 443.696 340.699 443.952 340.923C444.216 341.139 444.54 341.247 444.924 341.247ZM450.089 340.599C450.313 340.599 450.497 340.655 450.641 340.767C450.793 340.871 450.909 341.019 450.989 341.211C451.069 341.395 451.109 341.607 451.109 341.847C451.109 342.143 451.053 342.427 450.941 342.699C450.829 342.979 450.665 343.231 450.449 343.455C450.241 343.687 449.989 343.875 449.693 344.019L449.093 343.503C449.309 343.423 449.501 343.319 449.669 343.191C449.837 343.063 449.977 342.919 450.089 342.759C450.209 342.599 450.293 342.435 450.341 342.267L450.293 342.243C450.253 342.267 450.205 342.287 450.149 342.303C450.101 342.319 450.029 342.327 449.933 342.327C449.821 342.327 449.705 342.295 449.585 342.231C449.473 342.175 449.377 342.087 449.297 341.967C449.217 341.847 449.177 341.691 449.177 341.499C449.177 341.323 449.217 341.167 449.297 341.031C449.385 340.895 449.497 340.791 449.633 340.719C449.769 340.639 449.921 340.599 450.089 340.599ZM455.272 342.339C454.32 342.339 453.572 341.995 453.028 341.307C452.492 340.611 452.224 339.595 452.224 338.259C452.224 336.923 452.492 335.911 453.028 335.223C453.572 334.527 454.32 334.179 455.272 334.179C456.232 334.179 456.98 334.527 457.516 335.223C458.06 335.911 458.332 336.923 458.332 338.259C458.332 339.595 458.06 340.611 457.516 341.307C456.98 341.995 456.232 342.339 455.272 342.339ZM455.272 341.247C455.656 341.247 455.976 341.139 456.232 340.923C456.496 340.699 456.692 340.367 456.82 339.927C456.956 339.479 457.024 338.923 457.024 338.259C457.024 337.595 456.956 337.043 456.82 336.603C456.692 336.155 456.496 335.823 456.232 335.607C455.976 335.383 455.656 335.271 455.272 335.271C454.888 335.271 454.564 335.383 454.3 335.607C454.044 335.823 453.852 336.155 453.724 336.603C453.596 337.043 453.532 337.595 453.532 338.259C453.532 338.923 453.596 339.479 453.724 339.927C453.852 340.367 454.044 340.699 454.3 340.923C454.564 341.139 454.888 341.247 455.272 341.247ZM462.807 342.339C461.855 342.339 461.107 341.995 460.563 341.307C460.027 340.611 459.759 339.595 459.759 338.259C459.759 336.923 460.027 335.911 460.563 335.223C461.107 334.527 461.855 334.179 462.807 334.179C463.767 334.179 464.515 334.527 465.051 335.223C465.595 335.911 465.867 336.923 465.867 338.259C465.867 339.595 465.595 340.611 465.051 341.307C464.515 341.995 463.767 342.339 462.807 342.339ZM462.807 341.247C463.191 341.247 463.511 341.139 463.767 340.923C464.031 340.699 464.227 340.367 464.355 339.927C464.491 339.479 464.559 338.923 464.559 338.259C464.559 337.595 464.491 337.043 464.355 336.603C464.227 336.155 464.031 335.823 463.767 335.607C463.511 335.383 463.191 335.271 462.807 335.271C462.423 335.271 462.099 335.383 461.835 335.607C461.579 335.823 461.387 336.155 461.259 336.603C461.131 337.043 461.067 337.595 461.067 338.259C461.067 338.923 461.131 339.479 461.259 339.927C461.387 340.367 461.579 340.699 461.835 340.923C462.099 341.139 462.423 341.247 462.807 341.247ZM470.342 342.339C469.39 342.339 468.642 341.995 468.098 341.307C467.562 340.611 467.294 339.595 467.294 338.259C467.294 336.923 467.562 335.911 468.098 335.223C468.642 334.527 469.39 334.179 470.342 334.179C471.302 334.179 472.05 334.527 472.586 335.223C473.13 335.911 473.402 336.923 473.402 338.259C473.402 339.595 473.13 340.611 472.586 341.307C472.05 341.995 471.302 342.339 470.342 342.339ZM470.342 341.247C470.726 341.247 471.046 341.139 471.302 340.923C471.566 340.699 471.762 340.367 471.89 339.927C472.026 339.479 472.094 338.923 472.094 338.259C472.094 337.595 472.026 337.043 471.89 336.603C471.762 336.155 471.566 335.823 471.302 335.607C471.046 335.383 470.726 335.271 470.342 335.271C469.958 335.271 469.634 335.383 469.37 335.607C469.114 335.823 468.922 336.155 468.794 336.603C468.666 337.043 468.602 337.595 468.602 338.259C468.602 338.923 468.666 339.479 468.794 339.927C468.922 340.367 469.114 340.699 469.37 340.923C469.634 341.139 469.958 341.247 470.342 341.247ZM479.245 338.463V339.651H475.153V338.463H479.245ZM482.229 342.219V336.783C482.229 336.623 482.229 336.459 482.229 336.291C482.237 336.115 482.245 335.931 482.253 335.739C481.981 336.003 481.669 336.231 481.317 336.423C480.973 336.607 480.617 336.739 480.249 336.819L480.009 335.703C480.177 335.679 480.373 335.623 480.597 335.535C480.821 335.447 481.053 335.335 481.293 335.199C481.533 335.063 481.753 334.919 481.953 334.767C482.153 334.607 482.309 334.451 482.421 334.299H483.501V342.219H482.229ZM486.265 340.599C486.537 340.599 486.753 340.679 486.913 340.839C487.081 340.991 487.165 341.199 487.165 341.463C487.165 341.727 487.081 341.939 486.913 342.099C486.753 342.259 486.537 342.339 486.265 342.339C485.985 342.339 485.761 342.259 485.593 342.099C485.433 341.939 485.353 341.727 485.353 341.463C485.353 341.199 485.433 340.991 485.593 340.839C485.761 340.679 485.985 340.599 486.265 340.599ZM491.346 342.339C490.642 342.339 490.062 342.187 489.606 341.883C489.158 341.579 488.802 341.139 488.538 340.563L489.738 339.939C489.858 340.323 490.038 340.639 490.278 340.887C490.526 341.127 490.89 341.247 491.37 341.247C491.706 341.247 491.99 341.187 492.222 341.067C492.462 340.939 492.646 340.763 492.774 340.539C492.902 340.307 492.966 340.031 492.966 339.711C492.966 339.375 492.906 339.095 492.786 338.871C492.666 338.647 492.494 338.479 492.27 338.367C492.046 338.247 491.766 338.187 491.43 338.187C491.198 338.187 490.982 338.211 490.782 338.259C490.582 338.307 490.402 338.383 490.242 338.487C490.082 338.583 489.942 338.711 489.822 338.871L488.766 338.667L489.246 334.299H493.854V335.403H490.266L489.978 337.635L489.954 337.767H489.978C490.162 337.567 490.398 337.411 490.686 337.299C490.982 337.187 491.33 337.131 491.73 337.131C492.242 337.131 492.682 337.239 493.05 337.455C493.418 337.663 493.706 337.955 493.914 338.331C494.122 338.707 494.226 339.143 494.226 339.639C494.226 340.071 494.154 340.455 494.01 340.791C493.866 341.127 493.662 341.411 493.398 341.643C493.134 341.875 492.826 342.051 492.474 342.171C492.13 342.283 491.754 342.339 491.346 342.339Z" fill="#525252"/>
<g filter="url(#filter3_ii_467_1060)">
<rect x="426" y="279.219" width="62" height="45" fill="#D2601A"/>
</g>
<defs>
<filter id="filter0_ii_467_1060" x="80" y="80.2188" width="69" height="249" filterUnits="userSpaceOnUse" color-interpolation-filters="sRGB">
<feFlood flood-opacity="0" result="BackgroundImageFix"/>
<feBlend mode="normal" in="SourceGraphic" in2="BackgroundImageFix" result="shape"/>
<feColorMatrix in="SourceAlpha" type="matrix" values="0 0 0 0 0 0 0 0 0 0 0 0 0 0 0 0 0 0 127 0" result="hardAlpha"/>
<feOffset dx="-2" dy="-2"/>
<feGaussianBlur stdDeviation="7.5"/>
<feComposite in2="hardAlpha" operator="arithmetic" k2="-1" k3="1"/>
<feColorMatrix type="matrix" values="0 0 0 0 0 0 0 0 0 0 0 0 0 0 0 0 0 0 0.2 0"/>
<feBlend mode="normal" in2="shape" result="effect1_innerShadow_467_1060"/>
<feColorMatrix in="SourceAlpha" type="matrix" values="0 0 0 0 0 0 0 0 0 0 0 0 0 0 0 0 0 0 127 0" result="hardAlpha"/>
<feOffset dx="5" dy="5"/>
<feGaussianBlur stdDeviation="5"/>
<feComposite in2="hardAlpha" operator="arithmetic" k2="-1" k3="1"/>
<feColorMatrix type="matrix" values="0 0 0 0 1 0 0 0 0 1 0 0 0 0 1 0 0 0 0.35 0"/>
<feBlend mode="normal" in2="effect1_innerShadow_467_1060" result="effect2_innerShadow_467_1060"/>
</filter>
<filter id="filter1_ii_467_1060" x="192" y="143.219" width="69" height="186" filterUnits="userSpaceOnUse" color-interpolation-filters="sRGB">
<feFlood flood-opacity="0" result="BackgroundImageFix"/>
<feBlend mode="normal" in="SourceGraphic" in2="BackgroundImageFix" result="shape"/>
<feColorMatrix in="SourceAlpha" type="matrix" values="0 0 0 0 0 0 0 0 0 0 0 0 0 0 0 0 0 0 127 0" result="hardAlpha"/>
<feOffset dx="-2" dy="-2"/>
<feGaussianBlur stdDeviation="7.5"/>
<feComposite in2="hardAlpha" operator="arithmetic" k2="-1" k3="1"/>
<feColorMatrix type="matrix" values="0 0 0 0 0 0 0 0 0 0 0 0 0 0 0 0 0 0 0.2 0"/>
<feBlend mode="normal" in2="shape" result="effect1_innerShadow_467_1060"/>
<feColorMatrix in="SourceAlpha" type="matrix" values="0 0 0 0 0 0 0 0 0 0 0 0 0 0 0 0 0 0 127 0" result="hardAlpha"/>
<feOffset dx="5" dy="5"/>
<feGaussianBlur stdDeviation="5"/>
<feComposite in2="hardAlpha" operator="arithmetic" k2="-1" k3="1"/>
<feColorMatrix type="matrix" values="0 0 0 0 1 0 0 0 0 1 0 0 0 0 1 0 0 0 0.35 0"/>
<feBlend mode="normal" in2="effect1_innerShadow_467_1060" result="effect2_innerShadow_467_1060"/>
</filter>
<filter id="filter2_ii_467_1060" x="309" y="230.219" width="69" height="99" filterUnits="userSpaceOnUse" color-interpolation-filters="sRGB">
<feFlood flood-opacity="0" result="BackgroundImageFix"/>
<feBlend mode="normal" in="SourceGraphic" in2="BackgroundImageFix" result="shape"/>
<feColorMatrix in="SourceAlpha" type="matrix" values="0 0 0 0 0 0 0 0 0 0 0 0 0 0 0 0 0 0 127 0" result="hardAlpha"/>
<feOffset dx="-2" dy="-2"/>
<feGaussianBlur stdDeviation="7.5"/>
<feComposite in2="hardAlpha" operator="arithmetic" k2="-1" k3="1"/>
<feColorMatrix type="matrix" values="0 0 0 0 0 0 0 0 0 0 0 0 0 0 0 0 0 0 0.2 0"/>
<feBlend mode="normal" in2="shape" result="effect1_innerShadow_467_1060"/>
<feColorMatrix in="SourceAlpha" type="matrix" values="0 0 0 0 0 0 0 0 0 0 0 0 0 0 0 0 0 0 127 0" result="hardAlpha"/>
<feOffset dx="5" dy="5"/>
<feGaussianBlur stdDeviation="5"/>
<feComposite in2="hardAlpha" operator="arithmetic" k2="-1" k3="1"/>
<feColorMatrix type="matrix" values="0 0 0 0 1 0 0 0 0 1 0 0 0 0 1 0 0 0 0.35 0"/>
<feBlend mode="normal" in2="effect1_innerShadow_467_1060" result="effect2_innerShadow_467_1060"/>
</filter>
<filter id="filter3_ii_467_1060" x="424" y="277.219" width="69" height="52" filterUnits="userSpaceOnUse" color-interpolation-filters="sRGB">
<feFlood flood-opacity="0" result="BackgroundImageFix"/>
<feBlend mode="normal" in="SourceGraphic" in2="BackgroundImageFix" result="shape"/>
<feColorMatrix in="SourceAlpha" type="matrix" values="0 0 0 0 0 0 0 0 0 0 0 0 0 0 0 0 0 0 127 0" result="hardAlpha"/>
<feOffset dx="-2" dy="-2"/>
<feGaussianBlur stdDeviation="7.5"/>
<feComposite in2="hardAlpha" operator="arithmetic" k2="-1" k3="1"/>
<feColorMatrix type="matrix" values="0 0 0 0 0 0 0 0 0 0 0 0 0 0 0 0 0 0 0.2 0"/>
<feBlend mode="normal" in2="shape" result="effect1_innerShadow_467_1060"/>
<feColorMatrix in="SourceAlpha" type="matrix" values="0 0 0 0 0 0 0 0 0 0 0 0 0 0 0 0 0 0 127 0" result="hardAlpha"/>
<feOffset dx="5" dy="5"/>
<feGaussianBlur stdDeviation="5"/>
<feComposite in2="hardAlpha" operator="arithmetic" k2="-1" k3="1"/>
<feColorMatrix type="matrix" values="0 0 0 0 1 0 0 0 0 1 0 0 0 0 1 0 0 0 0.35 0"/>
<feBlend mode="normal" in2="effect1_innerShadow_467_1060" result="effect2_innerShadow_467_1060"/>
</filter>
</defs>
</svg>
