<svg width="320" height="186" viewBox="0 0 320 186" fill="none" xmlns="http://www.w3.org/2000/svg">
<path d="M217.984 56.4987C218.987 56.4987 219.851 56.7227 220.576 57.1707C221.312 57.6081 221.877 58.2321 222.272 59.0427C222.677 59.8534 222.88 60.8187 222.88 61.9387C222.88 63.0587 222.677 64.0241 222.272 64.8347C221.877 65.6454 221.312 66.2747 220.576 66.7227C219.851 67.1601 218.987 67.3788 217.984 67.3788C216.981 67.3788 216.112 67.1601 215.376 66.7227C214.651 66.2747 214.085 65.6454 213.68 64.8347C213.285 64.0241 213.088 63.0587 213.088 61.9387C213.088 60.8187 213.285 59.8534 213.68 59.0427C214.085 58.2321 214.651 57.6081 215.376 57.1707C216.112 56.7227 216.981 56.4987 217.984 56.4987ZM217.984 57.6987C217.259 57.6987 216.629 57.8694 216.096 58.2107C215.563 58.5414 215.152 59.0267 214.864 59.6667C214.576 60.2961 214.432 61.0534 214.432 61.9387C214.432 62.8241 214.576 63.5867 214.864 64.2267C215.152 64.8561 215.563 65.3414 216.096 65.6827C216.629 66.0134 217.259 66.1787 217.984 66.1787C218.72 66.1787 219.349 66.0134 219.872 65.6827C220.405 65.3414 220.816 64.8561 221.104 64.2267C221.392 63.5867 221.536 62.8241 221.536 61.9387C221.536 61.0534 221.392 60.2961 221.104 59.6667C220.816 59.0267 220.405 58.5414 219.872 58.2107C219.349 57.8694 218.72 57.6987 217.984 57.6987ZM235.333 59.2188H236.757L233.973 67.2188H232.693L230.437 60.8507L228.309 67.2188H227.029L224.245 59.2188H225.669L227.685 65.7307L229.861 59.2188H231.141L233.317 65.7307L235.333 59.2188ZM238.676 67.2188V59.2188H239.796L239.908 61.0107L239.7 60.8347C239.87 60.4081 240.1 60.0667 240.388 59.8107C240.676 59.5441 241.006 59.3521 241.38 59.2347C241.764 59.1174 242.158 59.0587 242.564 59.0587C243.14 59.0587 243.662 59.1707 244.132 59.3947C244.601 59.6081 244.974 59.9387 245.252 60.3867C245.54 60.8347 245.684 61.4054 245.684 62.0987V67.2188H244.404V62.5467C244.404 61.6614 244.212 61.0481 243.828 60.7067C243.454 60.3547 242.99 60.1787 242.436 60.1787C242.052 60.1787 241.668 60.2694 241.284 60.4507C240.9 60.6321 240.58 60.9254 240.324 61.3307C240.078 61.7361 239.956 62.2801 239.956 62.9627V67.2188H238.676ZM254.035 67.2188V55.5387H255.315V60.4187C255.592 59.9387 255.96 59.5921 256.419 59.3787C256.878 59.1654 257.379 59.0587 257.923 59.0587C258.499 59.0587 259.022 59.1707 259.491 59.3947C259.96 59.6081 260.334 59.9387 260.611 60.3867C260.899 60.8347 261.043 61.4054 261.043 62.0987V67.2188H259.763V62.5467C259.763 61.6614 259.571 61.0481 259.187 60.7067C258.814 60.3547 258.35 60.1787 257.795 60.1787C257.411 60.1787 257.027 60.2694 256.643 60.4507C256.259 60.6321 255.939 60.9307 255.683 61.3467C255.438 61.7521 255.315 62.2961 255.315 62.9787V67.2188H254.035ZM267.253 59.0587C268.01 59.0587 268.677 59.2241 269.253 59.5547C269.84 59.8854 270.298 60.3654 270.629 60.9947C270.96 61.6134 271.125 62.3547 271.125 63.2188C271.125 64.0827 270.96 64.8294 270.629 65.4587C270.298 66.0774 269.84 66.5521 269.253 66.8827C268.677 67.2134 268.01 67.3788 267.253 67.3788C266.506 67.3788 265.84 67.2134 265.253 66.8827C264.666 66.5521 264.208 66.0774 263.877 65.4587C263.546 64.8294 263.381 64.0827 263.381 63.2188C263.381 62.3547 263.546 61.6134 263.877 60.9947C264.208 60.3654 264.666 59.8854 265.253 59.5547C265.84 59.2241 266.506 59.0587 267.253 59.0587ZM267.253 60.1627C266.709 60.1627 266.245 60.2854 265.861 60.5307C265.477 60.7761 265.178 61.1281 264.965 61.5867C264.762 62.0347 264.661 62.5787 264.661 63.2188C264.661 63.8481 264.762 64.3921 264.965 64.8507C265.178 65.3094 265.477 65.6614 265.861 65.9067C266.245 66.1521 266.709 66.2747 267.253 66.2747C267.797 66.2747 268.261 66.1521 268.645 65.9067C269.029 65.6614 269.322 65.3094 269.525 64.8507C269.738 64.3921 269.845 63.8481 269.845 63.2188C269.845 62.5787 269.738 62.0347 269.525 61.5867C269.322 61.1281 269.029 60.7761 268.645 60.5307C268.261 60.2854 267.797 60.1627 267.253 60.1627ZM276.431 67.3788C275.919 67.3788 275.434 67.2828 274.975 67.0907C274.527 66.8987 274.159 66.5894 273.871 66.1628C273.594 65.7254 273.455 65.1601 273.455 64.4667V59.2188H274.735V64.1307C274.735 64.9414 274.911 65.5014 275.263 65.8107C275.615 66.1094 276.111 66.2587 276.751 66.2587C277.05 66.2587 277.343 66.2107 277.631 66.1147C277.919 66.0081 278.175 65.8481 278.399 65.6347C278.634 65.4107 278.815 65.1281 278.943 64.7867C279.082 64.4454 279.151 64.0401 279.151 63.5707V59.2188H280.431V67.2188H279.311L279.231 66.0027C278.954 66.4827 278.575 66.8347 278.095 67.0587C277.626 67.2721 277.071 67.3788 276.431 67.3788ZM286.29 67.3788C285.511 67.3788 284.791 67.2134 284.13 66.8827C283.479 66.5521 282.978 66.0827 282.626 65.4747L283.714 64.6907C283.949 65.1814 284.29 65.5654 284.738 65.8427C285.197 66.1201 285.746 66.2587 286.386 66.2587C286.951 66.2587 287.394 66.1521 287.714 65.9387C288.034 65.7147 288.194 65.4267 288.194 65.0747C288.194 64.8507 288.119 64.6481 287.97 64.4667C287.831 64.2747 287.559 64.1361 287.154 64.0507L285.234 63.6507C284.455 63.4907 283.895 63.2241 283.554 62.8507C283.223 62.4774 283.058 62.0134 283.058 61.4587C283.058 61.0214 283.181 60.6214 283.426 60.2587C283.682 59.8961 284.039 59.6081 284.498 59.3947C284.967 59.1707 285.517 59.0587 286.146 59.0587C286.935 59.0587 287.602 59.2134 288.146 59.5227C288.69 59.8321 289.095 60.2694 289.362 60.8347L288.29 61.5387C288.109 61.0694 287.815 60.7281 287.41 60.5147C287.005 60.2907 286.583 60.1787 286.146 60.1787C285.762 60.1787 285.431 60.2321 285.154 60.3387C284.887 60.4454 284.679 60.5947 284.53 60.7867C284.391 60.9681 284.322 61.1761 284.322 61.4107C284.322 61.6454 284.402 61.8641 284.562 62.0667C284.722 62.2587 285.021 62.3974 285.458 62.4827L287.458 62.8987C288.205 63.0481 288.727 63.2934 289.026 63.6347C289.325 63.9761 289.474 64.3921 289.474 64.8827C289.474 65.3841 289.341 65.8267 289.074 66.2107C288.807 66.5841 288.434 66.8721 287.954 67.0747C287.474 67.2774 286.919 67.3788 286.29 67.3788ZM295.191 67.3788C294.434 67.3788 293.757 67.2134 293.159 66.8827C292.573 66.5521 292.114 66.0774 291.783 65.4587C291.453 64.8294 291.287 64.0827 291.287 63.2188C291.287 62.3547 291.453 61.6134 291.783 60.9947C292.114 60.3654 292.567 59.8854 293.143 59.5547C293.719 59.2241 294.375 59.0587 295.111 59.0587C295.858 59.0587 296.493 59.2187 297.015 59.5387C297.549 59.8587 297.954 60.2961 298.231 60.8507C298.509 61.3947 298.647 62.0081 298.647 62.6907C298.647 62.8721 298.642 63.0374 298.631 63.1867C298.621 63.3361 298.605 63.4694 298.583 63.5867H292.119V62.4507H298.023L297.367 62.5787C297.367 61.8107 297.154 61.2187 296.727 60.8027C296.311 60.3867 295.762 60.1787 295.079 60.1787C294.557 60.1787 294.103 60.3014 293.719 60.5467C293.346 60.7814 293.053 61.1281 292.839 61.5867C292.637 62.0347 292.535 62.5787 292.535 63.2188C292.535 63.8481 292.642 64.3921 292.855 64.8507C293.069 65.3094 293.367 65.6614 293.751 65.9067C294.146 66.1414 294.615 66.2587 295.159 66.2587C295.746 66.2587 296.221 66.1467 296.583 65.9227C296.957 65.6987 297.255 65.3947 297.479 65.0107L298.487 65.6027C298.285 65.9654 298.023 66.2801 297.703 66.5467C297.394 66.8134 297.026 67.0214 296.599 67.1707C296.183 67.3094 295.714 67.3788 295.191 67.3788Z" fill="#454545"/>
<g filter="url(#filter0_dii_467_963)">
<circle cx="199" cy="62.2188" r="6" fill="#1472CC"/>
</g>
<path d="M217.728 85.6587C218.805 85.6587 219.669 85.9361 220.32 86.4907C220.971 87.0454 221.296 87.7974 221.296 88.7467C221.296 89.6961 220.965 90.4374 220.304 90.9707C219.653 91.4934 218.789 91.7547 217.712 91.7547L217.6 91.8347H215.008V96.2188H213.728V85.6587H217.728ZM217.712 90.6347C218.469 90.6347 219.029 90.4801 219.392 90.1707C219.765 89.8507 219.952 89.3761 219.952 88.7467C219.952 88.1174 219.765 87.6481 219.392 87.3387C219.029 87.0187 218.469 86.8587 217.712 86.8587H215.008V90.6347H217.712ZM218.448 90.8907L221.936 96.2188H220.416L217.376 91.5947L218.448 90.8907ZM227.207 96.3788C226.45 96.3788 225.772 96.2134 225.175 95.8827C224.588 95.5521 224.13 95.0774 223.799 94.4587C223.468 93.8294 223.303 93.0827 223.303 92.2188C223.303 91.3547 223.468 90.6134 223.799 89.9947C224.13 89.3654 224.583 88.8854 225.159 88.5547C225.735 88.2241 226.391 88.0587 227.127 88.0587C227.874 88.0587 228.508 88.2187 229.031 88.5387C229.564 88.8587 229.97 89.2961 230.247 89.8507C230.524 90.3947 230.663 91.0081 230.663 91.6907C230.663 91.8721 230.658 92.0374 230.647 92.1867C230.636 92.3361 230.62 92.4694 230.599 92.5867H224.135V91.4507H230.039L229.383 91.5787C229.383 90.8107 229.17 90.2187 228.743 89.8027C228.327 89.3867 227.778 89.1787 227.095 89.1787C226.572 89.1787 226.119 89.3014 225.735 89.5467C225.362 89.7814 225.068 90.1281 224.855 90.5867C224.652 91.0347 224.551 91.5787 224.551 92.2188C224.551 92.8481 224.658 93.3921 224.871 93.8507C225.084 94.3094 225.383 94.6614 225.767 94.9067C226.162 95.1414 226.631 95.2587 227.175 95.2587C227.762 95.2587 228.236 95.1467 228.599 94.9227C228.972 94.6987 229.271 94.3947 229.495 94.0107L230.503 94.6027C230.3 94.9654 230.039 95.2801 229.719 95.5467C229.41 95.8134 229.042 96.0214 228.615 96.1707C228.199 96.3094 227.73 96.3788 227.207 96.3788ZM233.097 96.2188V88.2188H234.217L234.329 90.0107L234.121 89.8347C234.292 89.4081 234.521 89.0667 234.809 88.8107C235.097 88.5441 235.428 88.3521 235.801 88.2347C236.185 88.1174 236.58 88.0587 236.985 88.0587C237.561 88.0587 238.084 88.1707 238.553 88.3947C239.023 88.6081 239.396 88.9387 239.673 89.3867C239.961 89.8347 240.105 90.4054 240.105 91.0987V96.2188H238.825V91.5467C238.825 90.6614 238.633 90.0481 238.249 89.7067C237.876 89.3547 237.412 89.1787 236.857 89.1787C236.473 89.1787 236.089 89.2694 235.705 89.4507C235.321 89.6321 235.001 89.9254 234.745 90.3307C234.5 90.7361 234.377 91.2801 234.377 91.9627V96.2188H233.097ZM244.782 85.9467V94.0107C244.782 94.4054 244.894 94.6987 245.118 94.8907C245.342 95.0827 245.63 95.1787 245.982 95.1787C246.292 95.1787 246.558 95.1254 246.782 95.0187C247.006 94.9121 247.209 94.7681 247.39 94.5867L247.838 95.6587C247.593 95.8827 247.3 96.0587 246.958 96.1867C246.628 96.3148 246.244 96.3788 245.806 96.3788C245.401 96.3788 245.022 96.3094 244.67 96.1707C244.318 96.0214 244.036 95.7921 243.822 95.4827C243.62 95.1627 243.513 94.7467 243.502 94.2347V86.2987L244.782 85.9467ZM247.694 88.2188V89.3227H241.902V88.2188H247.694ZM252.941 96.3788C252.184 96.3788 251.507 96.2134 250.909 95.8827C250.323 95.5521 249.864 95.0774 249.533 94.4587C249.203 93.8294 249.037 93.0827 249.037 92.2188C249.037 91.3547 249.203 90.6134 249.533 89.9947C249.864 89.3654 250.317 88.8854 250.893 88.5547C251.469 88.2241 252.125 88.0587 252.861 88.0587C253.608 88.0587 254.243 88.2187 254.765 88.5387C255.299 88.8587 255.704 89.2961 255.981 89.8507C256.259 90.3947 256.397 91.0081 256.397 91.6907C256.397 91.8721 256.392 92.0374 256.381 92.1867C256.371 92.3361 256.355 92.4694 256.333 92.5867H249.869V91.4507H255.773L255.117 91.5787C255.117 90.8107 254.904 90.2187 254.477 89.8027C254.061 89.3867 253.512 89.1787 252.829 89.1787C252.307 89.1787 251.853 89.3014 251.469 89.5467C251.096 89.7814 250.803 90.1281 250.589 90.5867C250.387 91.0347 250.285 91.5787 250.285 92.2188C250.285 92.8481 250.392 93.3921 250.605 93.8507C250.819 94.3094 251.117 94.6614 251.501 94.9067C251.896 95.1414 252.365 95.2587 252.909 95.2587C253.496 95.2587 253.971 95.1467 254.333 94.9227C254.707 94.6987 255.005 94.3947 255.229 94.0107L256.237 94.6027C256.035 94.9654 255.773 95.2801 255.453 95.5467C255.144 95.8134 254.776 96.0214 254.349 96.1707C253.933 96.3094 253.464 96.3788 252.941 96.3788ZM261.952 96.3788C261.29 96.3788 260.682 96.2134 260.128 95.8827C259.573 95.5521 259.13 95.0774 258.8 94.4587C258.469 93.8294 258.304 93.0827 258.304 92.2188C258.304 91.3334 258.48 90.5814 258.832 89.9627C259.184 89.3441 259.648 88.8747 260.224 88.5547C260.8 88.2241 261.418 88.0587 262.08 88.0587C262.741 88.0587 263.312 88.2294 263.792 88.5707C264.282 88.9121 264.608 89.3654 264.768 89.9307L264.608 90.0427V84.5387H265.888V96.2188H264.768L264.656 94.2827L264.832 94.1867C264.757 94.6561 264.576 95.0561 264.288 95.3867C264.01 95.7067 263.664 95.9521 263.248 96.1227C262.842 96.2934 262.41 96.3788 261.952 96.3788ZM262.08 95.2587C262.592 95.2587 263.034 95.1307 263.408 94.8747C263.792 94.6187 264.085 94.2561 264.288 93.7867C264.501 93.3067 264.608 92.7467 264.608 92.1068C264.608 91.4987 264.501 90.9761 264.288 90.5387C264.085 90.1014 263.797 89.7654 263.424 89.5307C263.061 89.2961 262.634 89.1787 262.144 89.1787C261.333 89.1787 260.704 89.4561 260.256 90.0107C259.808 90.5654 259.584 91.3014 259.584 92.2188C259.584 93.1361 259.802 93.8721 260.24 94.4267C260.677 94.9814 261.29 95.2587 262.08 95.2587ZM274.316 96.2188V84.5387H275.596V89.4187C275.873 88.9387 276.241 88.5921 276.7 88.3787C277.159 88.1654 277.66 88.0587 278.204 88.0587C278.78 88.0587 279.303 88.1707 279.772 88.3947C280.241 88.6081 280.615 88.9387 280.892 89.3867C281.18 89.8347 281.324 90.4054 281.324 91.0987V96.2188H280.044V91.5467C280.044 90.6614 279.852 90.0481 279.468 89.7067C279.095 89.3547 278.631 89.1787 278.076 89.1787C277.692 89.1787 277.308 89.2694 276.924 89.4507C276.54 89.6321 276.22 89.9307 275.964 90.3467C275.719 90.7521 275.596 91.2961 275.596 91.9787V96.2188H274.316ZM287.534 88.0587C288.292 88.0587 288.958 88.2241 289.534 88.5547C290.121 88.8854 290.58 89.3654 290.91 89.9947C291.241 90.6134 291.406 91.3547 291.406 92.2188C291.406 93.0827 291.241 93.8294 290.91 94.4587C290.58 95.0774 290.121 95.5521 289.534 95.8827C288.958 96.2134 288.292 96.3788 287.534 96.3788C286.788 96.3788 286.121 96.2134 285.534 95.8827C284.948 95.5521 284.489 95.0774 284.158 94.4587C283.828 93.8294 283.662 93.0827 283.662 92.2188C283.662 91.3547 283.828 90.6134 284.158 89.9947C284.489 89.3654 284.948 88.8854 285.534 88.5547C286.121 88.2241 286.788 88.0587 287.534 88.0587ZM287.534 89.1627C286.99 89.1627 286.526 89.2854 286.142 89.5307C285.758 89.7761 285.46 90.1281 285.246 90.5867C285.044 91.0347 284.942 91.5787 284.942 92.2188C284.942 92.8481 285.044 93.3921 285.246 93.8507C285.46 94.3094 285.758 94.6614 286.142 94.9067C286.526 95.1521 286.99 95.2747 287.534 95.2747C288.078 95.2747 288.542 95.1521 288.926 94.9067C289.31 94.6614 289.604 94.3094 289.806 93.8507C290.02 93.3921 290.126 92.8481 290.126 92.2188C290.126 91.5787 290.02 91.0347 289.806 90.5867C289.604 90.1281 289.31 89.7761 288.926 89.5307C288.542 89.2854 288.078 89.1627 287.534 89.1627ZM296.712 96.3788C296.2 96.3788 295.715 96.2828 295.256 96.0907C294.808 95.8987 294.44 95.5894 294.152 95.1628C293.875 94.7254 293.736 94.1601 293.736 93.4667V88.2188H295.016V93.1307C295.016 93.9414 295.192 94.5014 295.544 94.8107C295.896 95.1094 296.392 95.2587 297.032 95.2587C297.331 95.2587 297.624 95.2107 297.912 95.1147C298.2 95.0081 298.456 94.8481 298.68 94.6347C298.915 94.4107 299.096 94.1281 299.224 93.7867C299.363 93.4454 299.432 93.0401 299.432 92.5707V88.2188H300.712V96.2188H299.592L299.512 95.0027C299.235 95.4827 298.856 95.8347 298.376 96.0587C297.907 96.2721 297.352 96.3788 296.712 96.3788ZM306.571 96.3788C305.792 96.3788 305.072 96.2134 304.411 95.8827C303.76 95.5521 303.259 95.0827 302.907 94.4747L303.995 93.6907C304.23 94.1814 304.571 94.5654 305.019 94.8427C305.478 95.1201 306.027 95.2587 306.667 95.2587C307.232 95.2587 307.675 95.1521 307.995 94.9387C308.315 94.7147 308.475 94.4267 308.475 94.0747C308.475 93.8507 308.4 93.6481 308.251 93.4667C308.112 93.2747 307.84 93.1361 307.435 93.0507L305.515 92.6507C304.736 92.4907 304.176 92.2241 303.835 91.8507C303.504 91.4774 303.339 91.0134 303.339 90.4587C303.339 90.0214 303.462 89.6214 303.707 89.2587C303.963 88.8961 304.32 88.6081 304.779 88.3947C305.248 88.1707 305.798 88.0587 306.427 88.0587C307.216 88.0587 307.883 88.2134 308.427 88.5227C308.971 88.8321 309.376 89.2694 309.643 89.8347L308.571 90.5387C308.39 90.0694 308.096 89.7281 307.691 89.5147C307.286 89.2907 306.864 89.1787 306.427 89.1787C306.043 89.1787 305.712 89.2321 305.435 89.3387C305.168 89.4454 304.96 89.5947 304.811 89.7867C304.672 89.9681 304.603 90.1761 304.603 90.4107C304.603 90.6454 304.683 90.8641 304.843 91.0667C305.003 91.2587 305.302 91.3974 305.739 91.4827L307.739 91.8987C308.486 92.0481 309.008 92.2934 309.307 92.6347C309.606 92.9761 309.755 93.3921 309.755 93.8827C309.755 94.3841 309.622 94.8267 309.355 95.2107C309.088 95.5841 308.715 95.8721 308.235 96.0747C307.755 96.2774 307.2 96.3788 306.571 96.3788ZM315.473 96.3788C314.715 96.3788 314.038 96.2134 313.441 95.8827C312.854 95.5521 312.395 95.0774 312.065 94.4587C311.734 93.8294 311.569 93.0827 311.569 92.2188C311.569 91.3547 311.734 90.6134 312.065 89.9947C312.395 89.3654 312.849 88.8854 313.425 88.5547C314.001 88.2241 314.657 88.0587 315.393 88.0587C316.139 88.0587 316.774 88.2187 317.297 88.5387C317.83 88.8587 318.235 89.2961 318.513 89.8507C318.79 90.3947 318.929 91.0081 318.929 91.6907C318.929 91.8721 318.923 92.0374 318.913 92.1867C318.902 92.3361 318.886 92.4694 318.865 92.5867H312.401V91.4507H318.305L317.649 91.5787C317.649 90.8107 317.435 90.2187 317.009 89.8027C316.593 89.3867 316.043 89.1787 315.361 89.1787C314.838 89.1787 314.385 89.3014 314.001 89.5467C313.627 89.7814 313.334 90.1281 313.121 90.5867C312.918 91.0347 312.817 91.5787 312.817 92.2188C312.817 92.8481 312.923 93.3921 313.137 93.8507C313.35 94.3094 313.649 94.6614 314.033 94.9067C314.427 95.1414 314.897 95.2587 315.441 95.2587C316.027 95.2587 316.502 95.1467 316.865 94.9227C317.238 94.6987 317.537 94.3947 317.761 94.0107L318.769 94.6027C318.566 94.9654 318.305 95.2801 317.985 95.5467C317.675 95.8134 317.307 96.0214 316.881 96.1707C316.465 96.3094 315.995 96.3788 315.473 96.3788Z" fill="#454545"/>
<g filter="url(#filter1_dii_467_963)">
<circle cx="199" cy="91.2188" r="6" fill="#00BFA1"/>
</g>
<path d="M222.016 114.659V125.219H220.736V114.659H222.016ZM215.008 114.659V125.219H213.728V114.659H215.008ZM221.328 119.267V120.467H214.4V119.267H221.328ZM228.425 117.059C229.182 117.059 229.849 117.224 230.425 117.555C231.012 117.885 231.47 118.365 231.801 118.995C232.132 119.613 232.297 120.355 232.297 121.219C232.297 122.083 232.132 122.829 231.801 123.459C231.47 124.077 231.012 124.552 230.425 124.883C229.849 125.213 229.182 125.379 228.425 125.379C227.678 125.379 227.012 125.213 226.425 124.883C225.838 124.552 225.38 124.077 225.049 123.459C224.718 122.829 224.553 122.083 224.553 121.219C224.553 120.355 224.718 119.613 225.049 118.995C225.38 118.365 225.838 117.885 226.425 117.555C227.012 117.224 227.678 117.059 228.425 117.059ZM228.425 118.163C227.881 118.163 227.417 118.285 227.033 118.531C226.649 118.776 226.35 119.128 226.137 119.587C225.934 120.035 225.833 120.579 225.833 121.219C225.833 121.848 225.934 122.392 226.137 122.851C226.35 123.309 226.649 123.661 227.033 123.907C227.417 124.152 227.881 124.275 228.425 124.275C228.969 124.275 229.433 124.152 229.817 123.907C230.201 123.661 230.494 123.309 230.697 122.851C230.91 122.392 231.017 121.848 231.017 121.219C231.017 120.579 230.91 120.035 230.697 119.587C230.494 119.128 230.201 118.776 229.817 118.531C229.433 118.285 228.969 118.163 228.425 118.163ZM237.587 125.379C236.808 125.379 236.088 125.213 235.427 124.883C234.776 124.552 234.275 124.083 233.923 123.475L235.011 122.691C235.245 123.181 235.587 123.565 236.035 123.843C236.493 124.12 237.043 124.259 237.683 124.259C238.248 124.259 238.691 124.152 239.011 123.939C239.331 123.715 239.491 123.427 239.491 123.075C239.491 122.851 239.416 122.648 239.267 122.467C239.128 122.275 238.856 122.136 238.451 122.051L236.531 121.651C235.752 121.491 235.192 121.224 234.851 120.851C234.52 120.477 234.355 120.013 234.355 119.459C234.355 119.021 234.477 118.621 234.723 118.259C234.979 117.896 235.336 117.608 235.795 117.395C236.264 117.171 236.813 117.059 237.443 117.059C238.232 117.059 238.899 117.213 239.443 117.523C239.987 117.832 240.392 118.269 240.659 118.835L239.587 119.539C239.405 119.069 239.112 118.728 238.707 118.515C238.301 118.291 237.88 118.179 237.443 118.179C237.059 118.179 236.728 118.232 236.451 118.339C236.184 118.445 235.976 118.595 235.827 118.787C235.688 118.968 235.619 119.176 235.619 119.411C235.619 119.645 235.699 119.864 235.859 120.067C236.019 120.259 236.317 120.397 236.755 120.483L238.755 120.899C239.501 121.048 240.024 121.293 240.323 121.635C240.621 121.976 240.771 122.392 240.771 122.883C240.771 123.384 240.637 123.827 240.371 124.211C240.104 124.584 239.731 124.872 239.251 125.075C238.771 125.277 238.216 125.379 237.587 125.379ZM245.032 114.947V123.011C245.032 123.405 245.144 123.699 245.368 123.891C245.592 124.083 245.88 124.179 246.232 124.179C246.542 124.179 246.808 124.125 247.032 124.019C247.256 123.912 247.459 123.768 247.64 123.587L248.088 124.659C247.843 124.883 247.55 125.059 247.208 125.187C246.878 125.315 246.494 125.379 246.056 125.379C245.651 125.379 245.272 125.309 244.92 125.171C244.568 125.021 244.286 124.792 244.072 124.483C243.87 124.163 243.763 123.747 243.752 123.235V115.299L245.032 114.947ZM247.944 117.219V118.323H242.152V117.219H247.944ZM253.191 125.379C252.434 125.379 251.757 125.213 251.159 124.883C250.573 124.552 250.114 124.077 249.783 123.459C249.453 122.829 249.287 122.083 249.287 121.219C249.287 120.355 249.453 119.613 249.783 118.995C250.114 118.365 250.567 117.885 251.143 117.555C251.719 117.224 252.375 117.059 253.111 117.059C253.858 117.059 254.493 117.219 255.015 117.539C255.549 117.859 255.954 118.296 256.231 118.851C256.509 119.395 256.647 120.008 256.647 120.691C256.647 120.872 256.642 121.037 256.631 121.187C256.621 121.336 256.605 121.469 256.583 121.587H250.119V120.451H256.023L255.367 120.579C255.367 119.811 255.154 119.219 254.727 118.803C254.311 118.387 253.762 118.179 253.079 118.179C252.557 118.179 252.103 118.301 251.719 118.547C251.346 118.781 251.053 119.128 250.839 119.587C250.637 120.035 250.535 120.579 250.535 121.219C250.535 121.848 250.642 122.392 250.855 122.851C251.069 123.309 251.367 123.661 251.751 123.907C252.146 124.141 252.615 124.259 253.159 124.259C253.746 124.259 254.221 124.147 254.583 123.923C254.957 123.699 255.255 123.395 255.479 123.011L256.487 123.603C256.285 123.965 256.023 124.28 255.703 124.547C255.394 124.813 255.026 125.021 254.599 125.171C254.183 125.309 253.714 125.379 253.191 125.379ZM260.298 113.539V123.187C260.298 123.592 260.372 123.875 260.522 124.035C260.671 124.184 260.911 124.259 261.242 124.259C261.455 124.259 261.631 124.243 261.77 124.211C261.908 124.179 262.095 124.12 262.33 124.035L262.122 125.155C261.951 125.229 261.764 125.283 261.562 125.315C261.359 125.357 261.151 125.379 260.938 125.379C260.287 125.379 259.802 125.203 259.482 124.851C259.172 124.499 259.018 123.96 259.018 123.235V113.539H260.298Z" fill="#454545"/>
<g filter="url(#filter2_dii_467_963)">
<circle cx="199" cy="120.219" r="6" fill="#FF9900"/>
</g>
<g filter="url(#filter3_dii_467_963)">
<path d="M92.5 167.219C112.789 167.219 132.247 159.159 146.594 144.812C160.94 130.466 169 111.008 169 90.7188C169 70.4298 160.94 50.9717 146.594 36.6251C132.247 22.2786 112.789 14.2188 92.5001 14.2188L92.5 90.7188V167.219Z" fill="#00BFA1"/>
</g>
<g filter="url(#filter4_dii_467_963)">
<path d="M15.5591 105.084C13.264 93.8912 13.5055 82.326 16.2658 71.2383C19.026 60.1506 24.235 49.822 31.51 41.0112C38.785 32.2004 47.9413 25.1311 58.3064 20.3226C68.6715 15.5142 79.982 13.0886 91.4074 13.2241L90.5 89.7188L15.5591 105.084Z" fill="#1472CC"/>
</g>
<g filter="url(#filter5_dii_467_963)">
<path d="M90.5 168.219C72.7246 168.219 55.504 162.029 41.7965 150.712C28.0889 139.395 18.75 123.659 15.3841 106.205L90.5 91.7187L90.5 168.219Z" fill="#FF9900"/>
</g>
<path d="M112.248 95.2188V87.9707C112.248 87.7574 112.248 87.5387 112.248 87.3147C112.259 87.0801 112.269 86.8347 112.28 86.5787C111.917 86.9307 111.501 87.2347 111.032 87.4907C110.573 87.7361 110.099 87.9121 109.608 88.0187L109.288 86.5307C109.512 86.4987 109.773 86.4241 110.072 86.3067C110.371 86.1894 110.68 86.0401 111 85.8587C111.32 85.6774 111.613 85.4854 111.88 85.2827C112.147 85.0694 112.355 84.8614 112.504 84.6587H113.944V95.2188H112.248ZM120.398 84.5147C121.112 84.5147 121.731 84.6321 122.254 84.8667C122.787 85.0907 123.198 85.4107 123.486 85.8267C123.774 86.2427 123.918 86.7441 123.918 87.3307C123.918 87.8747 123.784 88.3547 123.517 88.7707C123.262 89.1761 122.883 89.4854 122.382 89.6987V89.7147C122.99 89.9387 123.47 90.2747 123.822 90.7227C124.184 91.1601 124.366 91.7041 124.366 92.3547C124.366 92.9841 124.2 93.5227 123.87 93.9707C123.55 94.4187 123.091 94.7654 122.494 95.0107C121.907 95.2561 121.208 95.3788 120.398 95.3788C119.587 95.3788 118.883 95.2561 118.286 95.0107C117.699 94.7654 117.24 94.4187 116.91 93.9707C116.579 93.5227 116.414 92.9841 116.414 92.3547C116.414 91.7147 116.59 91.1707 116.942 90.7227C117.294 90.2747 117.784 89.9387 118.414 89.7147V89.6987C117.934 89.4961 117.555 89.1921 117.278 88.7867C117 88.3707 116.862 87.8854 116.862 87.3307C116.862 86.7441 117.006 86.2427 117.294 85.8267C117.582 85.4107 117.992 85.0907 118.526 84.8667C119.059 84.6321 119.683 84.5147 120.398 84.5147ZM120.398 85.9547C119.832 85.9547 119.379 86.0934 119.038 86.3707C118.707 86.6481 118.542 87.0267 118.542 87.5067C118.542 87.9867 118.712 88.3654 119.054 88.6427C119.395 88.9094 119.843 89.0427 120.398 89.0427C120.952 89.0427 121.395 88.9094 121.726 88.6427C122.067 88.3654 122.238 87.9867 122.238 87.5067C122.238 87.0267 122.072 86.6481 121.742 86.3707C121.411 86.0934 120.963 85.9547 120.398 85.9547ZM120.398 93.9387C120.867 93.9387 121.267 93.8694 121.598 93.7307C121.928 93.5921 122.184 93.3894 122.366 93.1227C122.547 92.8561 122.638 92.5467 122.638 92.1947C122.638 91.8214 122.542 91.5067 122.35 91.2507C122.168 90.9841 121.912 90.7814 121.582 90.6427C121.251 90.5041 120.856 90.4347 120.398 90.4347C119.95 90.4347 119.555 90.5041 119.214 90.6427C118.872 90.7814 118.606 90.9841 118.414 91.2507C118.232 91.5067 118.142 91.8214 118.142 92.1947C118.142 92.5467 118.232 92.8561 118.414 93.1227C118.595 93.3894 118.856 93.5921 119.198 93.7307C119.539 93.8694 119.939 93.9387 120.398 93.9387ZM130.368 95.3788C129.098 95.3788 128.101 94.9201 127.376 94.0027C126.661 93.0747 126.304 91.7201 126.304 89.9387C126.304 88.1574 126.661 86.8081 127.376 85.8907C128.101 84.9627 129.098 84.4987 130.368 84.4987C131.648 84.4987 132.645 84.9627 133.36 85.8907C134.085 86.8081 134.448 88.1574 134.448 89.9387C134.448 91.7201 134.085 93.0747 133.36 94.0027C132.645 94.9201 131.648 95.3788 130.368 95.3788ZM130.368 93.9227C130.88 93.9227 131.306 93.7787 131.648 93.4907C132 93.1921 132.261 92.7494 132.432 92.1627C132.613 91.5654 132.704 90.8241 132.704 89.9387C132.704 89.0534 132.613 88.3174 132.432 87.7307C132.261 87.1334 132 86.6907 131.648 86.4028C131.306 86.1041 130.88 85.9547 130.368 85.9547C129.856 85.9547 129.424 86.1041 129.072 86.4028C128.73 86.6907 128.474 87.1334 128.304 87.7307C128.133 88.3174 128.048 89.0534 128.048 89.9387C128.048 90.8241 128.133 91.5654 128.304 92.1627C128.474 92.7494 128.73 93.1921 129.072 93.4907C129.424 93.7787 129.856 93.9227 130.368 93.9227ZM138.239 95.2188L145.151 84.6587H146.623L139.727 95.2188H138.239ZM138.655 84.4987C139.199 84.4987 139.668 84.6214 140.063 84.8667C140.468 85.1121 140.777 85.4534 140.991 85.8907C141.215 86.3281 141.327 86.8454 141.327 87.4427C141.327 88.0294 141.215 88.5467 140.991 88.9947C140.777 89.4321 140.468 89.7734 140.063 90.0187C139.668 90.2641 139.199 90.3867 138.655 90.3867C138.121 90.3867 137.652 90.2641 137.247 90.0187C136.841 89.7734 136.527 89.4321 136.303 88.9947C136.089 88.5467 135.983 88.0294 135.983 87.4427C135.983 86.8454 136.089 86.3281 136.303 85.8907C136.527 85.4534 136.841 85.1121 137.247 84.8667C137.652 84.6214 138.121 84.4987 138.655 84.4987ZM138.655 85.7467C138.388 85.7467 138.159 85.8161 137.967 85.9547C137.775 86.0827 137.631 86.2747 137.535 86.5307C137.439 86.7761 137.391 87.0801 137.391 87.4427C137.391 87.7947 137.439 88.0987 137.535 88.3547C137.631 88.6107 137.775 88.8027 137.967 88.9307C138.159 89.0587 138.388 89.1227 138.655 89.1227C138.932 89.1227 139.167 89.0587 139.359 88.9307C139.551 88.8027 139.695 88.6107 139.791 88.3547C139.887 88.0987 139.935 87.7947 139.935 87.4427C139.935 87.0801 139.887 86.7761 139.791 86.5307C139.695 86.2747 139.551 86.0827 139.359 85.9547C139.167 85.8161 138.932 85.7467 138.655 85.7467ZM146.207 89.4907C146.751 89.4907 147.22 89.6134 147.615 89.8587C148.02 90.1041 148.329 90.4507 148.543 90.8987C148.767 91.3361 148.879 91.8481 148.879 92.4347C148.879 93.0321 148.767 93.5494 148.543 93.9867C148.329 94.4241 148.02 94.7654 147.615 95.0107C147.22 95.2561 146.751 95.3788 146.207 95.3788C145.673 95.3788 145.204 95.2561 144.799 95.0107C144.393 94.7654 144.079 94.4241 143.855 93.9867C143.641 93.5494 143.535 93.0321 143.535 92.4347C143.535 91.8481 143.641 91.3361 143.855 90.8987C144.079 90.4507 144.393 90.1041 144.799 89.8587C145.204 89.6134 145.673 89.4907 146.207 89.4907ZM146.207 90.7547C145.94 90.7547 145.711 90.8187 145.519 90.9467C145.327 91.0747 145.183 91.2667 145.087 91.5227C144.991 91.7681 144.943 92.0721 144.943 92.4347C144.943 92.7867 144.991 93.0907 145.087 93.3467C145.183 93.6027 145.327 93.8001 145.519 93.9387C145.711 94.0667 145.94 94.1307 146.207 94.1307C146.484 94.1307 146.719 94.0667 146.911 93.9387C147.103 93.8001 147.247 93.6027 147.343 93.3467C147.439 93.0907 147.487 92.7867 147.487 92.4347C147.487 92.0827 147.439 91.7787 147.343 91.5227C147.247 91.2667 147.103 91.0747 146.911 90.9467C146.719 90.8187 146.484 90.7547 146.207 90.7547Z" fill="white"/>
<path d="M42.248 66.2188V58.9707C42.248 58.7574 42.248 58.5387 42.248 58.3147C42.2587 58.0801 42.2693 57.8347 42.28 57.5787C41.9173 57.9307 41.5013 58.2347 41.032 58.4907C40.5733 58.7361 40.0987 58.9121 39.608 59.0187L39.288 57.5307C39.512 57.4987 39.7733 57.4241 40.072 57.3067C40.3707 57.1894 40.68 57.0401 41 56.8587C41.32 56.6774 41.6133 56.4854 41.88 56.2827C42.1467 56.0694 42.3547 55.8614 42.504 55.6587H43.944V66.2188H42.248ZM48.6855 66.2188V58.9707C48.6855 58.7574 48.6855 58.5387 48.6855 58.3147C48.6962 58.0801 48.7068 57.8347 48.7175 57.5787C48.3548 57.9307 47.9388 58.2347 47.4695 58.4907C47.0108 58.7361 46.5362 58.9121 46.0455 59.0187L45.7255 57.5307C45.9495 57.4987 46.2108 57.4241 46.5095 57.3067C46.8082 57.1894 47.1175 57.0401 47.4375 56.8587C47.7575 56.6774 48.0508 56.4854 48.3175 56.2827C48.5842 56.0694 48.7922 55.8614 48.9415 55.6587H50.3815V66.2188H48.6855ZM56.467 66.3788C55.5283 66.3788 54.755 66.1761 54.147 65.7707C53.5497 65.3654 53.075 64.7787 52.723 64.0107L54.323 63.1787C54.483 63.6907 54.723 64.1121 55.043 64.4427C55.3737 64.7627 55.859 64.9227 56.499 64.9227C56.947 64.9227 57.3257 64.8427 57.635 64.6827C57.955 64.5121 58.2003 64.2774 58.371 63.9787C58.5417 63.6694 58.627 63.3014 58.627 62.8747C58.627 62.4267 58.547 62.0534 58.387 61.7547C58.227 61.4561 57.9977 61.2321 57.699 61.0827C57.4003 60.9227 57.027 60.8427 56.579 60.8427C56.2697 60.8427 55.9817 60.8747 55.715 60.9387C55.4483 61.0027 55.2083 61.1041 54.995 61.2427C54.7817 61.3707 54.595 61.5414 54.435 61.7547L53.027 61.4827L53.667 55.6587H59.811V57.1307H55.027L54.643 60.1067L54.611 60.2827H54.643C54.8883 60.0161 55.203 59.8081 55.587 59.6587C55.9817 59.5094 56.4457 59.4347 56.979 59.4347C57.6617 59.4347 58.2483 59.5787 58.739 59.8667C59.2297 60.1441 59.6137 60.5334 59.891 61.0347C60.1683 61.5361 60.307 62.1174 60.307 62.7787C60.307 63.3547 60.211 63.8667 60.019 64.3147C59.827 64.7627 59.555 65.1414 59.203 65.4507C58.851 65.7601 58.4403 65.9947 57.971 66.1547C57.5123 66.3041 57.011 66.3788 56.467 66.3788ZM64.0355 66.2188L70.9475 55.6587H72.4195L65.5235 66.2188H64.0355ZM64.4515 55.4987C64.9955 55.4987 65.4648 55.6214 65.8595 55.8667C66.2648 56.1121 66.5742 56.4534 66.7875 56.8907C67.0115 57.3281 67.1235 57.8454 67.1235 58.4427C67.1235 59.0294 67.0115 59.5467 66.7875 59.9947C66.5742 60.4321 66.2648 60.7734 65.8595 61.0187C65.4648 61.2641 64.9955 61.3867 64.4515 61.3867C63.9182 61.3867 63.4488 61.2641 63.0435 61.0187C62.6382 60.7734 62.3235 60.4321 62.0995 59.9947C61.8862 59.5467 61.7795 59.0294 61.7795 58.4427C61.7795 57.8454 61.8862 57.3281 62.0995 56.8907C62.3235 56.4534 62.6382 56.1121 63.0435 55.8667C63.4488 55.6214 63.9182 55.4987 64.4515 55.4987ZM64.4515 56.7467C64.1848 56.7467 63.9555 56.8161 63.7635 56.9547C63.5715 57.0827 63.4275 57.2747 63.3315 57.5307C63.2355 57.7761 63.1875 58.0801 63.1875 58.4427C63.1875 58.7947 63.2355 59.0987 63.3315 59.3547C63.4275 59.6107 63.5715 59.8027 63.7635 59.9307C63.9555 60.0587 64.1848 60.1227 64.4515 60.1227C64.7288 60.1227 64.9635 60.0587 65.1555 59.9307C65.3475 59.8027 65.4915 59.6107 65.5875 59.3547C65.6835 59.0987 65.7315 58.7947 65.7315 58.4427C65.7315 58.0801 65.6835 57.7761 65.5875 57.5307C65.4915 57.2747 65.3475 57.0827 65.1555 56.9547C64.9635 56.8161 64.7288 56.7467 64.4515 56.7467ZM72.0035 60.4907C72.5475 60.4907 73.0168 60.6134 73.4115 60.8587C73.8168 61.1041 74.1262 61.4507 74.3395 61.8987C74.5635 62.3361 74.6755 62.8481 74.6755 63.4347C74.6755 64.0321 74.5635 64.5494 74.3395 64.9867C74.1262 65.4241 73.8168 65.7654 73.4115 66.0107C73.0168 66.2561 72.5475 66.3788 72.0035 66.3788C71.4702 66.3788 71.0008 66.2561 70.5955 66.0107C70.1902 65.7654 69.8755 65.4241 69.6515 64.9867C69.4382 64.5494 69.3315 64.0321 69.3315 63.4347C69.3315 62.8481 69.4382 62.3361 69.6515 61.8987C69.8755 61.4507 70.1902 61.1041 70.5955 60.8587C71.0008 60.6134 71.4702 60.4907 72.0035 60.4907ZM72.0035 61.7547C71.7368 61.7547 71.5075 61.8187 71.3155 61.9467C71.1235 62.0747 70.9795 62.2667 70.8835 62.5227C70.7875 62.7681 70.7395 63.0721 70.7395 63.4347C70.7395 63.7867 70.7875 64.0907 70.8835 64.3467C70.9795 64.6027 71.1235 64.8001 71.3155 64.9387C71.5075 65.0667 71.7368 65.1307 72.0035 65.1307C72.2808 65.1307 72.5155 65.0667 72.7075 64.9387C72.8995 64.8001 73.0435 64.6027 73.1395 64.3467C73.2355 64.0907 73.2835 63.7867 73.2835 63.4347C73.2835 63.0827 73.2355 62.7787 73.1395 62.5227C73.0435 62.2667 72.8995 62.0747 72.7075 61.9467C72.5155 61.8187 72.2808 61.7547 72.0035 61.7547Z" fill="white"/>
<path d="M51.264 121.499C51.8293 121.499 52.3307 121.579 52.768 121.739C53.2053 121.888 53.584 122.128 53.904 122.459C54.2347 122.789 54.5067 123.221 54.72 123.755L53.216 124.475C53.0667 124.016 52.8267 123.653 52.496 123.387C52.176 123.12 51.728 122.987 51.152 122.987C50.736 122.987 50.368 123.088 50.048 123.291C49.728 123.493 49.456 123.781 49.232 124.155C49.008 124.517 48.8373 124.949 48.72 125.451C48.6027 125.941 48.544 126.475 48.544 127.051C48.544 127.083 48.544 127.12 48.544 127.163C48.544 127.195 48.544 127.253 48.544 127.339L48.608 127.371C48.7253 126.944 48.9333 126.603 49.232 126.347C49.5413 126.08 49.888 125.883 50.272 125.755C50.656 125.627 51.0347 125.563 51.408 125.563C52.112 125.563 52.7253 125.701 53.248 125.979C53.7707 126.245 54.176 126.629 54.464 127.131C54.7627 127.632 54.912 128.229 54.912 128.923C54.912 129.627 54.7573 130.24 54.448 130.763C54.1387 131.275 53.7067 131.675 53.152 131.963C52.608 132.24 51.952 132.379 51.184 132.379C50.288 132.379 49.5253 132.155 48.896 131.707C48.2667 131.259 47.7867 130.629 47.456 129.819C47.1253 129.008 46.96 128.059 46.96 126.971C46.96 125.765 47.1467 124.757 47.52 123.947C47.904 123.136 48.4213 122.528 49.072 122.123C49.7227 121.707 50.4533 121.499 51.264 121.499ZM51.152 126.987C50.7467 126.987 50.3893 127.072 50.08 127.243C49.7707 127.403 49.5253 127.627 49.344 127.915C49.1733 128.203 49.088 128.539 49.088 128.923C49.088 129.296 49.1787 129.632 49.36 129.931C49.552 130.229 49.8027 130.469 50.112 130.651C50.4213 130.821 50.768 130.907 51.152 130.907C51.8027 130.907 52.3093 130.731 52.672 130.379C53.0347 130.027 53.216 129.541 53.216 128.923C53.216 128.528 53.136 128.187 52.976 127.899C52.816 127.6 52.5813 127.376 52.272 127.227C51.9733 127.067 51.6 126.987 51.152 126.987ZM60.3733 132.379C59.4346 132.379 58.6613 132.176 58.0533 131.771C57.4559 131.365 56.9813 130.779 56.6293 130.011L58.2293 129.179C58.3893 129.691 58.6293 130.112 58.9493 130.443C59.2799 130.763 59.7653 130.923 60.4053 130.923C60.8533 130.923 61.2319 130.843 61.5413 130.683C61.8613 130.512 62.1066 130.277 62.2773 129.979C62.4479 129.669 62.5333 129.301 62.5333 128.875C62.5333 128.427 62.4533 128.053 62.2933 127.755C62.1333 127.456 61.9039 127.232 61.6053 127.083C61.3066 126.923 60.9333 126.843 60.4852 126.843C60.1759 126.843 59.8879 126.875 59.6213 126.939C59.3546 127.003 59.1146 127.104 58.9013 127.243C58.6879 127.371 58.5013 127.541 58.3413 127.755L56.9333 127.483L57.5733 121.659H63.7173V123.131H58.9333L58.5493 126.107L58.5173 126.283H58.5493C58.7946 126.016 59.1093 125.808 59.4933 125.659C59.8879 125.509 60.3519 125.435 60.8853 125.435C61.5679 125.435 62.1546 125.579 62.6453 125.867C63.1359 126.144 63.5199 126.533 63.7973 127.035C64.0746 127.536 64.2133 128.117 64.2133 128.779C64.2133 129.355 64.1173 129.867 63.9253 130.315C63.7333 130.763 63.4613 131.141 63.1093 131.451C62.7573 131.76 62.3466 131.995 61.8773 132.155C61.4186 132.304 60.9173 132.379 60.3733 132.379ZM67.9418 132.219L74.8538 121.659H76.3258L69.4298 132.219H67.9418ZM68.3578 121.499C68.9018 121.499 69.3711 121.621 69.7658 121.867C70.1711 122.112 70.4804 122.453 70.6938 122.891C70.9178 123.328 71.0298 123.845 71.0298 124.443C71.0298 125.029 70.9178 125.547 70.6938 125.995C70.4804 126.432 70.1711 126.773 69.7658 127.019C69.3711 127.264 68.9018 127.387 68.3578 127.387C67.8244 127.387 67.3551 127.264 66.9498 127.019C66.5444 126.773 66.2298 126.432 66.0058 125.995C65.7924 125.547 65.6858 125.029 65.6858 124.443C65.6858 123.845 65.7924 123.328 66.0058 122.891C66.2298 122.453 66.5444 122.112 66.9498 121.867C67.3551 121.621 67.8244 121.499 68.3578 121.499ZM68.3578 122.747C68.0911 122.747 67.8618 122.816 67.6698 122.955C67.4778 123.083 67.3338 123.275 67.2378 123.531C67.1418 123.776 67.0938 124.08 67.0938 124.443C67.0938 124.795 67.1418 125.099 67.2378 125.355C67.3338 125.611 67.4778 125.803 67.6698 125.931C67.8618 126.059 68.0911 126.123 68.3578 126.123C68.6351 126.123 68.8698 126.059 69.0618 125.931C69.2538 125.803 69.3978 125.611 69.4938 125.355C69.5898 125.099 69.6378 124.795 69.6378 124.443C69.6378 124.08 69.5898 123.776 69.4938 123.531C69.3978 123.275 69.2538 123.083 69.0618 122.955C68.8698 122.816 68.6351 122.747 68.3578 122.747ZM75.9098 126.491C76.4538 126.491 76.9231 126.613 77.3178 126.859C77.7231 127.104 78.0324 127.451 78.2458 127.899C78.4698 128.336 78.5818 128.848 78.5818 129.435C78.5818 130.032 78.4698 130.549 78.2458 130.987C78.0324 131.424 77.7231 131.765 77.3178 132.011C76.9231 132.256 76.4538 132.379 75.9098 132.379C75.3764 132.379 74.9071 132.256 74.5017 132.011C74.0964 131.765 73.7818 131.424 73.5578 130.987C73.3444 130.549 73.2378 130.032 73.2378 129.435C73.2378 128.848 73.3444 128.336 73.5578 127.899C73.7818 127.451 74.0964 127.104 74.5017 126.859C74.9071 126.613 75.3764 126.491 75.9098 126.491ZM75.9098 127.755C75.6431 127.755 75.4138 127.819 75.2218 127.947C75.0298 128.075 74.8858 128.267 74.7898 128.523C74.6938 128.768 74.6458 129.072 74.6458 129.435C74.6458 129.787 74.6938 130.091 74.7898 130.347C74.8858 130.603 75.0298 130.8 75.2218 130.939C75.4138 131.067 75.6431 131.131 75.9098 131.131C76.1871 131.131 76.4218 131.067 76.6138 130.939C76.8058 130.8 76.9498 130.603 77.0458 130.347C77.1418 130.091 77.1898 129.787 77.1898 129.435C77.1898 129.083 77.1418 128.779 77.0458 128.523C76.9498 128.267 76.8058 128.075 76.6138 127.947C76.4218 127.819 76.1871 127.755 75.9098 127.755Z" fill="white"/>
<defs>
<filter id="filter0_dii_467_963" x="179" y="43.2188" width="42" height="42" filterUnits="userSpaceOnUse" color-interpolation-filters="sRGB">
<feFlood flood-opacity="0" result="BackgroundImageFix"/>
<feColorMatrix in="SourceAlpha" type="matrix" values="0 0 0 0 0 0 0 0 0 0 0 0 0 0 0 0 0 0 127 0" result="hardAlpha"/>
<feOffset dx="1" dy="2"/>
<feGaussianBlur stdDeviation="7.5"/>
<feComposite in2="hardAlpha" operator="out"/>
<feColorMatrix type="matrix" values="0 0 0 0 0 0 0 0 0 0 0 0 0 0 0 0 0 0 0.1 0"/>
<feBlend mode="normal" in2="BackgroundImageFix" result="effect1_dropShadow_467_963"/>
<feBlend mode="normal" in="SourceGraphic" in2="effect1_dropShadow_467_963" result="shape"/>
<feColorMatrix in="SourceAlpha" type="matrix" values="0 0 0 0 0 0 0 0 0 0 0 0 0 0 0 0 0 0 127 0" result="hardAlpha"/>
<feOffset dx="5" dy="5"/>
<feGaussianBlur stdDeviation="5"/>
<feComposite in2="hardAlpha" operator="arithmetic" k2="-1" k3="1"/>
<feColorMatrix type="matrix" values="0 0 0 0 1 0 0 0 0 1 0 0 0 0 1 0 0 0 0.35 0"/>
<feBlend mode="normal" in2="shape" result="effect2_innerShadow_467_963"/>
<feColorMatrix in="SourceAlpha" type="matrix" values="0 0 0 0 0 0 0 0 0 0 0 0 0 0 0 0 0 0 127 0" result="hardAlpha"/>
<feOffset dx="-2" dy="-2"/>
<feGaussianBlur stdDeviation="7.5"/>
<feComposite in2="hardAlpha" operator="arithmetic" k2="-1" k3="1"/>
<feColorMatrix type="matrix" values="0 0 0 0 0 0 0 0 0 0 0 0 0 0 0 0 0 0 0.2 0"/>
<feBlend mode="normal" in2="effect2_innerShadow_467_963" result="effect3_innerShadow_467_963"/>
</filter>
<filter id="filter1_dii_467_963" x="179" y="72.2188" width="42" height="42" filterUnits="userSpaceOnUse" color-interpolation-filters="sRGB">
<feFlood flood-opacity="0" result="BackgroundImageFix"/>
<feColorMatrix in="SourceAlpha" type="matrix" values="0 0 0 0 0 0 0 0 0 0 0 0 0 0 0 0 0 0 127 0" result="hardAlpha"/>
<feOffset dx="1" dy="2"/>
<feGaussianBlur stdDeviation="7.5"/>
<feComposite in2="hardAlpha" operator="out"/>
<feColorMatrix type="matrix" values="0 0 0 0 0 0 0 0 0 0 0 0 0 0 0 0 0 0 0.1 0"/>
<feBlend mode="normal" in2="BackgroundImageFix" result="effect1_dropShadow_467_963"/>
<feBlend mode="normal" in="SourceGraphic" in2="effect1_dropShadow_467_963" result="shape"/>
<feColorMatrix in="SourceAlpha" type="matrix" values="0 0 0 0 0 0 0 0 0 0 0 0 0 0 0 0 0 0 127 0" result="hardAlpha"/>
<feOffset dx="5" dy="5"/>
<feGaussianBlur stdDeviation="5"/>
<feComposite in2="hardAlpha" operator="arithmetic" k2="-1" k3="1"/>
<feColorMatrix type="matrix" values="0 0 0 0 1 0 0 0 0 1 0 0 0 0 1 0 0 0 0.35 0"/>
<feBlend mode="normal" in2="shape" result="effect2_innerShadow_467_963"/>
<feColorMatrix in="SourceAlpha" type="matrix" values="0 0 0 0 0 0 0 0 0 0 0 0 0 0 0 0 0 0 127 0" result="hardAlpha"/>
<feOffset dx="-2" dy="-2"/>
<feGaussianBlur stdDeviation="7.5"/>
<feComposite in2="hardAlpha" operator="arithmetic" k2="-1" k3="1"/>
<feColorMatrix type="matrix" values="0 0 0 0 0 0 0 0 0 0 0 0 0 0 0 0 0 0 0.2 0"/>
<feBlend mode="normal" in2="effect2_innerShadow_467_963" result="effect3_innerShadow_467_963"/>
</filter>
<filter id="filter2_dii_467_963" x="179" y="101.219" width="42" height="42" filterUnits="userSpaceOnUse" color-interpolation-filters="sRGB">
<feFlood flood-opacity="0" result="BackgroundImageFix"/>
<feColorMatrix in="SourceAlpha" type="matrix" values="0 0 0 0 0 0 0 0 0 0 0 0 0 0 0 0 0 0 127 0" result="hardAlpha"/>
<feOffset dx="1" dy="2"/>
<feGaussianBlur stdDeviation="7.5"/>
<feComposite in2="hardAlpha" operator="out"/>
<feColorMatrix type="matrix" values="0 0 0 0 0 0 0 0 0 0 0 0 0 0 0 0 0 0 0.1 0"/>
<feBlend mode="normal" in2="BackgroundImageFix" result="effect1_dropShadow_467_963"/>
<feBlend mode="normal" in="SourceGraphic" in2="effect1_dropShadow_467_963" result="shape"/>
<feColorMatrix in="SourceAlpha" type="matrix" values="0 0 0 0 0 0 0 0 0 0 0 0 0 0 0 0 0 0 127 0" result="hardAlpha"/>
<feOffset dx="5" dy="5"/>
<feGaussianBlur stdDeviation="5"/>
<feComposite in2="hardAlpha" operator="arithmetic" k2="-1" k3="1"/>
<feColorMatrix type="matrix" values="0 0 0 0 1 0 0 0 0 1 0 0 0 0 1 0 0 0 0.35 0"/>
<feBlend mode="normal" in2="shape" result="effect2_innerShadow_467_963"/>
<feColorMatrix in="SourceAlpha" type="matrix" values="0 0 0 0 0 0 0 0 0 0 0 0 0 0 0 0 0 0 127 0" result="hardAlpha"/>
<feOffset dx="-2" dy="-2"/>
<feGaussianBlur stdDeviation="7.5"/>
<feComposite in2="hardAlpha" operator="arithmetic" k2="-1" k3="1"/>
<feColorMatrix type="matrix" values="0 0 0 0 0 0 0 0 0 0 0 0 0 0 0 0 0 0 0.2 0"/>
<feBlend mode="normal" in2="effect2_innerShadow_467_963" result="effect3_innerShadow_467_963"/>
</filter>
<filter id="filter3_dii_467_963" x="78.5" y="1.21875" width="106.5" height="183" filterUnits="userSpaceOnUse" color-interpolation-filters="sRGB">
<feFlood flood-opacity="0" result="BackgroundImageFix"/>
<feColorMatrix in="SourceAlpha" type="matrix" values="0 0 0 0 0 0 0 0 0 0 0 0 0 0 0 0 0 0 127 0" result="hardAlpha"/>
<feOffset dx="1" dy="2"/>
<feGaussianBlur stdDeviation="7.5"/>
<feComposite in2="hardAlpha" operator="out"/>
<feColorMatrix type="matrix" values="0 0 0 0 0 0 0 0 0 0 0 0 0 0 0 0 0 0 0.1 0"/>
<feBlend mode="normal" in2="BackgroundImageFix" result="effect1_dropShadow_467_963"/>
<feBlend mode="normal" in="SourceGraphic" in2="effect1_dropShadow_467_963" result="shape"/>
<feColorMatrix in="SourceAlpha" type="matrix" values="0 0 0 0 0 0 0 0 0 0 0 0 0 0 0 0 0 0 127 0" result="hardAlpha"/>
<feOffset dx="5" dy="5"/>
<feGaussianBlur stdDeviation="5"/>
<feComposite in2="hardAlpha" operator="arithmetic" k2="-1" k3="1"/>
<feColorMatrix type="matrix" values="0 0 0 0 1 0 0 0 0 1 0 0 0 0 1 0 0 0 0.35 0"/>
<feBlend mode="normal" in2="shape" result="effect2_innerShadow_467_963"/>
<feColorMatrix in="SourceAlpha" type="matrix" values="0 0 0 0 0 0 0 0 0 0 0 0 0 0 0 0 0 0 127 0" result="hardAlpha"/>
<feOffset dx="-2" dy="-2"/>
<feGaussianBlur stdDeviation="7.5"/>
<feComposite in2="hardAlpha" operator="arithmetic" k2="-1" k3="1"/>
<feColorMatrix type="matrix" values="0 0 0 0 0 0 0 0 0 0 0 0 0 0 0 0 0 0 0.2 0"/>
<feBlend mode="normal" in2="effect2_innerShadow_467_963" result="effect3_innerShadow_467_963"/>
</filter>
<filter id="filter4_dii_467_963" x="0" y="0.21875" width="107.407" height="121.866" filterUnits="userSpaceOnUse" color-interpolation-filters="sRGB">
<feFlood flood-opacity="0" result="BackgroundImageFix"/>
<feColorMatrix in="SourceAlpha" type="matrix" values="0 0 0 0 0 0 0 0 0 0 0 0 0 0 0 0 0 0 127 0" result="hardAlpha"/>
<feOffset dx="1" dy="2"/>
<feGaussianBlur stdDeviation="7.5"/>
<feComposite in2="hardAlpha" operator="out"/>
<feColorMatrix type="matrix" values="0 0 0 0 0 0 0 0 0 0 0 0 0 0 0 0 0 0 0.1 0"/>
<feBlend mode="normal" in2="BackgroundImageFix" result="effect1_dropShadow_467_963"/>
<feBlend mode="normal" in="SourceGraphic" in2="effect1_dropShadow_467_963" result="shape"/>
<feColorMatrix in="SourceAlpha" type="matrix" values="0 0 0 0 0 0 0 0 0 0 0 0 0 0 0 0 0 0 127 0" result="hardAlpha"/>
<feOffset dx="5" dy="5"/>
<feGaussianBlur stdDeviation="5"/>
<feComposite in2="hardAlpha" operator="arithmetic" k2="-1" k3="1"/>
<feColorMatrix type="matrix" values="0 0 0 0 1 0 0 0 0 1 0 0 0 0 1 0 0 0 0.35 0"/>
<feBlend mode="normal" in2="shape" result="effect2_innerShadow_467_963"/>
<feColorMatrix in="SourceAlpha" type="matrix" values="0 0 0 0 0 0 0 0 0 0 0 0 0 0 0 0 0 0 127 0" result="hardAlpha"/>
<feOffset dx="-2" dy="-2"/>
<feGaussianBlur stdDeviation="7.5"/>
<feComposite in2="hardAlpha" operator="arithmetic" k2="-1" k3="1"/>
<feColorMatrix type="matrix" values="0 0 0 0 0 0 0 0 0 0 0 0 0 0 0 0 0 0 0.2 0"/>
<feBlend mode="normal" in2="effect2_innerShadow_467_963" result="effect3_innerShadow_467_963"/>
</filter>
<filter id="filter5_dii_467_963" x="1.38428" y="78.7188" width="105.116" height="106.5" filterUnits="userSpaceOnUse" color-interpolation-filters="sRGB">
<feFlood flood-opacity="0" result="BackgroundImageFix"/>
<feColorMatrix in="SourceAlpha" type="matrix" values="0 0 0 0 0 0 0 0 0 0 0 0 0 0 0 0 0 0 127 0" result="hardAlpha"/>
<feOffset dx="1" dy="2"/>
<feGaussianBlur stdDeviation="7.5"/>
<feComposite in2="hardAlpha" operator="out"/>
<feColorMatrix type="matrix" values="0 0 0 0 0 0 0 0 0 0 0 0 0 0 0 0 0 0 0.1 0"/>
<feBlend mode="normal" in2="BackgroundImageFix" result="effect1_dropShadow_467_963"/>
<feBlend mode="normal" in="SourceGraphic" in2="effect1_dropShadow_467_963" result="shape"/>
<feColorMatrix in="SourceAlpha" type="matrix" values="0 0 0 0 0 0 0 0 0 0 0 0 0 0 0 0 0 0 127 0" result="hardAlpha"/>
<feOffset dx="5" dy="5"/>
<feGaussianBlur stdDeviation="5"/>
<feComposite in2="hardAlpha" operator="arithmetic" k2="-1" k3="1"/>
<feColorMatrix type="matrix" values="0 0 0 0 1 0 0 0 0 1 0 0 0 0 1 0 0 0 0.35 0"/>
<feBlend mode="normal" in2="shape" result="effect2_innerShadow_467_963"/>
<feColorMatrix in="SourceAlpha" type="matrix" values="0 0 0 0 0 0 0 0 0 0 0 0 0 0 0 0 0 0 127 0" result="hardAlpha"/>
<feOffset dx="-2" dy="-2"/>
<feGaussianBlur stdDeviation="7.5"/>
<feComposite in2="hardAlpha" operator="arithmetic" k2="-1" k3="1"/>
<feColorMatrix type="matrix" values="0 0 0 0 0 0 0 0 0 0 0 0 0 0 0 0 0 0 0.2 0"/>
<feBlend mode="normal" in2="effect2_innerShadow_467_963" result="effect3_innerShadow_467_963"/>
</filter>
</defs>
</svg>
