<svg width="349" height="186" viewBox="0 0 349 186" fill="none" xmlns="http://www.w3.org/2000/svg">
<path d="M221.152 55.6587V56.8587H217.472V66.2188H216.192V56.8587H212.512V55.6587H221.152ZM222.832 66.2188V54.5387H224.112V59.4187C224.389 58.9387 224.757 58.5921 225.216 58.3787C225.674 58.1654 226.176 58.0587 226.72 58.0587C227.296 58.0587 227.818 58.1707 228.288 58.3947C228.757 58.6081 229.13 58.9387 229.408 59.3867C229.696 59.8347 229.84 60.4054 229.84 61.0987V66.2188H228.56V61.5467C228.56 60.6614 228.368 60.0481 227.984 59.7067C227.61 59.3547 227.146 59.1787 226.592 59.1787C226.208 59.1787 225.824 59.2694 225.44 59.4507C225.056 59.6321 224.736 59.9307 224.48 60.3467C224.234 60.7521 224.112 61.2961 224.112 61.9787V66.2188H222.832ZM232.738 66.2188V58.2188H233.778L233.954 59.5307C234.178 59.0401 234.503 58.6721 234.93 58.4267C235.367 58.1814 235.895 58.0587 236.514 58.0587C236.653 58.0587 236.802 58.0694 236.962 58.0907C237.133 58.1121 237.277 58.1547 237.394 58.2188L237.17 59.3867C237.053 59.3441 236.925 59.3121 236.786 59.2907C236.647 59.2694 236.45 59.2587 236.194 59.2587C235.863 59.2587 235.527 59.3547 235.186 59.5467C234.855 59.7387 234.578 60.0321 234.354 60.4267C234.13 60.8107 234.018 61.3014 234.018 61.8987V66.2188H232.738ZM242.331 58.0587C243.089 58.0587 243.755 58.2241 244.331 58.5547C244.918 58.8854 245.377 59.3654 245.707 59.9947C246.038 60.6134 246.203 61.3547 246.203 62.2188C246.203 63.0827 246.038 63.8294 245.707 64.4587C245.377 65.0774 244.918 65.5521 244.331 65.8827C243.755 66.2134 243.089 66.3788 242.331 66.3788C241.585 66.3788 240.918 66.2134 240.331 65.8827C239.745 65.5521 239.286 65.0774 238.955 64.4587C238.625 63.8294 238.459 63.0827 238.459 62.2188C238.459 61.3547 238.625 60.6134 238.955 59.9947C239.286 59.3654 239.745 58.8854 240.331 58.5547C240.918 58.2241 241.585 58.0587 242.331 58.0587ZM242.331 59.1627C241.787 59.1627 241.323 59.2854 240.939 59.5307C240.555 59.7761 240.257 60.1281 240.043 60.5867C239.841 61.0347 239.739 61.5787 239.739 62.2188C239.739 62.8481 239.841 63.3921 240.043 63.8507C240.257 64.3094 240.555 64.6614 240.939 64.9067C241.323 65.1521 241.787 65.2747 242.331 65.2747C242.875 65.2747 243.339 65.1521 243.723 64.9067C244.107 64.6614 244.401 64.3094 244.603 63.8507C244.817 63.3921 244.923 62.8481 244.923 62.2188C244.923 61.5787 244.817 61.0347 244.603 60.5867C244.401 60.1281 244.107 59.7761 243.723 59.5307C243.339 59.2854 242.875 59.1627 242.331 59.1627ZM251.509 66.3788C250.997 66.3788 250.512 66.2828 250.053 66.0907C249.605 65.8987 249.237 65.5894 248.949 65.1628C248.672 64.7254 248.533 64.1601 248.533 63.4667V58.2188H249.813V63.1307C249.813 63.9414 249.989 64.5014 250.341 64.8107C250.693 65.1094 251.189 65.2587 251.829 65.2587C252.128 65.2587 252.421 65.2107 252.709 65.1147C252.997 65.0081 253.253 64.8481 253.477 64.6347C253.712 64.4107 253.893 64.1281 254.021 63.7867C254.16 63.4454 254.229 63.0401 254.229 62.5707V58.2188H255.509V66.2188H254.389L254.309 65.0027C254.032 65.4827 253.653 65.8347 253.173 66.0587C252.704 66.2721 252.149 66.3788 251.509 66.3788ZM265.224 56.7467L265.512 57.8827C265.501 57.8827 265.485 57.8827 265.464 57.8827C265.443 57.8827 265.421 57.8827 265.4 57.8827C264.877 57.8827 264.472 57.9894 264.184 58.2027C263.907 58.4054 263.768 58.7361 263.768 59.1947L262.984 58.7947C262.984 58.3787 263.08 58.0161 263.272 57.7067C263.464 57.3974 263.725 57.1627 264.056 57.0027C264.387 56.8321 264.749 56.7467 265.144 56.7467C265.155 56.7467 265.165 56.7467 265.176 56.7467C265.197 56.7467 265.213 56.7467 265.224 56.7467ZM262.792 65.1947C263.549 65.1947 264.141 65.3707 264.568 65.7227C264.995 66.0641 265.208 66.5228 265.208 67.0988C265.208 67.6214 265.032 68.0748 264.68 68.4588C264.339 68.8428 263.875 69.1361 263.288 69.3388C262.712 69.5521 262.061 69.6588 261.336 69.6588C260.077 69.6588 259.133 69.4454 258.504 69.0188C257.885 68.5921 257.576 68.0801 257.576 67.4828C257.576 67.0561 257.715 66.6721 257.992 66.3308C258.28 66.0001 258.76 65.8134 259.432 65.7707L259.32 66.0107C258.957 65.9147 258.648 65.7547 258.392 65.5307C258.147 65.2961 258.024 64.9601 258.024 64.5227C258.024 64.0854 258.184 63.7121 258.504 63.4027C258.835 63.0827 259.32 62.8854 259.96 62.8107L260.808 63.2427H260.648C260.125 63.2961 259.752 63.4294 259.528 63.6427C259.315 63.8454 259.208 64.0694 259.208 64.3147C259.208 64.6134 259.315 64.8374 259.528 64.9867C259.752 65.1254 260.061 65.1947 260.456 65.1947H262.792ZM261.32 68.5868C261.939 68.5868 262.445 68.5228 262.84 68.3948C263.245 68.2668 263.544 68.1014 263.736 67.8988C263.928 67.6961 264.024 67.4774 264.024 67.2428C264.024 66.9548 263.907 66.7254 263.672 66.5548C263.448 66.3841 263.037 66.2988 262.44 66.2988H259.976C259.635 66.2988 259.347 66.3841 259.112 66.5548C258.877 66.7361 258.76 66.9814 258.76 67.2908C258.76 67.6854 258.984 68.0001 259.432 68.2348C259.891 68.4694 260.52 68.5868 261.32 68.5868ZM261.208 58.0587C261.848 58.0587 262.413 58.1761 262.904 58.4107C263.405 58.6347 263.795 58.9494 264.072 59.3547C264.349 59.7601 264.488 60.2294 264.488 60.7627C264.488 61.2854 264.349 61.7547 264.072 62.1707C263.795 62.5761 263.405 62.8961 262.904 63.1307C262.413 63.3547 261.848 63.4667 261.208 63.4667C260.152 63.4667 259.341 63.2161 258.776 62.7147C258.211 62.2027 257.928 61.5521 257.928 60.7627C257.928 60.2294 258.067 59.7601 258.344 59.3547C258.632 58.9494 259.021 58.6347 259.512 58.4107C260.003 58.1761 260.568 58.0587 261.208 58.0587ZM261.208 59.0987C260.653 59.0987 260.189 59.2534 259.816 59.5627C259.443 59.8614 259.256 60.2614 259.256 60.7627C259.256 61.2534 259.443 61.6534 259.816 61.9627C260.189 62.2721 260.653 62.4267 261.208 62.4267C261.763 62.4267 262.227 62.2721 262.6 61.9627C262.973 61.6534 263.16 61.2534 263.16 60.7627C263.16 60.2614 262.973 59.8614 262.6 59.5627C262.227 59.2534 261.763 59.0987 261.208 59.0987ZM267.004 66.2188V54.5387H268.284V59.4187C268.561 58.9387 268.929 58.5921 269.388 58.3787C269.846 58.1654 270.348 58.0587 270.892 58.0587C271.468 58.0587 271.99 58.1707 272.46 58.3947C272.929 58.6081 273.302 58.9387 273.58 59.3867C273.868 59.8347 274.012 60.4054 274.012 61.0987V66.2188H272.732V61.5467C272.732 60.6614 272.54 60.0481 272.156 59.7067C271.782 59.3547 271.318 59.1787 270.764 59.1787C270.38 59.1787 269.996 59.2694 269.612 59.4507C269.228 59.6321 268.908 59.9307 268.652 60.3467C268.406 60.7521 268.284 61.2961 268.284 61.9787V66.2188H267.004ZM287.035 61.0507C287.035 60.4534 286.875 59.9947 286.555 59.6747C286.235 59.3441 285.782 59.1787 285.195 59.1787C284.64 59.1787 284.171 59.3014 283.787 59.5467C283.403 59.7814 283.12 60.1654 282.939 60.6987L281.899 60.0587C282.112 59.4614 282.507 58.9814 283.083 58.6187C283.659 58.2454 284.374 58.0587 285.227 58.0587C285.803 58.0587 286.326 58.1601 286.795 58.3627C287.264 58.5547 287.632 58.8534 287.899 59.2587C288.176 59.6534 288.315 60.1654 288.315 60.7947V64.6667C288.315 65.0507 288.518 65.2427 288.923 65.2427C289.126 65.2427 289.323 65.2161 289.515 65.1628L289.451 66.1707C289.238 66.2774 288.96 66.3308 288.619 66.3308C288.31 66.3308 288.032 66.2721 287.787 66.1547C287.542 66.0374 287.35 65.8614 287.211 65.6267C287.072 65.3814 287.003 65.0774 287.003 64.7147V64.5547L287.323 64.6027C287.195 65.0187 286.976 65.3601 286.667 65.6267C286.358 65.8827 286.011 66.0747 285.627 66.2027C285.243 66.3201 284.864 66.3788 284.491 66.3788C284.022 66.3788 283.584 66.2988 283.179 66.1387C282.774 65.9787 282.448 65.7387 282.203 65.4187C281.968 65.0881 281.851 64.6827 281.851 64.2027C281.851 63.6054 282.048 63.1147 282.443 62.7307C282.848 62.3361 283.408 62.0694 284.123 61.9307L287.291 61.3067V62.3627L284.715 62.8907C284.192 62.9974 283.803 63.1467 283.547 63.3387C283.291 63.5307 283.163 63.7974 283.163 64.1387C283.163 64.4694 283.291 64.7414 283.547 64.9547C283.814 65.1574 284.187 65.2587 284.667 65.2587C284.976 65.2587 285.27 65.2214 285.547 65.1467C285.835 65.0614 286.091 64.9387 286.315 64.7787C286.539 64.6081 286.715 64.4001 286.843 64.1547C286.971 63.8987 287.035 63.6001 287.035 63.2587V61.0507ZM291.426 66.2188V58.2188H292.546L292.658 60.0107L292.45 59.8347C292.62 59.4081 292.85 59.0667 293.138 58.8107C293.426 58.5441 293.756 58.3521 294.13 58.2347C294.514 58.1174 294.908 58.0587 295.314 58.0587C295.89 58.0587 296.412 58.1707 296.882 58.3947C297.351 58.6081 297.724 58.9387 298.002 59.3867C298.29 59.8347 298.434 60.4054 298.434 61.0987V66.2188H297.154V61.5467C297.154 60.6614 296.962 60.0481 296.578 59.7067C296.204 59.3547 295.74 59.1787 295.186 59.1787C294.802 59.1787 294.418 59.2694 294.034 59.4507C293.65 59.6321 293.33 59.9254 293.074 60.3307C292.828 60.7361 292.706 61.2801 292.706 61.9627V66.2188H291.426ZM311.457 61.0507C311.457 60.4534 311.297 59.9947 310.977 59.6747C310.657 59.3441 310.204 59.1787 309.617 59.1787C309.062 59.1787 308.593 59.3014 308.209 59.5467C307.825 59.7814 307.542 60.1654 307.361 60.6987L306.321 60.0587C306.534 59.4614 306.929 58.9814 307.505 58.6187C308.081 58.2454 308.796 58.0587 309.649 58.0587C310.225 58.0587 310.748 58.1601 311.217 58.3627C311.686 58.5547 312.054 58.8534 312.321 59.2587C312.598 59.6534 312.737 60.1654 312.737 60.7947V64.6667C312.737 65.0507 312.94 65.2427 313.345 65.2427C313.548 65.2427 313.745 65.2161 313.937 65.1628L313.873 66.1707C313.66 66.2774 313.382 66.3308 313.041 66.3308C312.732 66.3308 312.454 66.2721 312.209 66.1547C311.964 66.0374 311.772 65.8614 311.633 65.6267C311.494 65.3814 311.425 65.0774 311.425 64.7147V64.5547L311.745 64.6027C311.617 65.0187 311.398 65.3601 311.089 65.6267C310.78 65.8827 310.433 66.0747 310.049 66.2027C309.665 66.3201 309.286 66.3788 308.913 66.3788C308.444 66.3788 308.006 66.2988 307.601 66.1387C307.196 65.9787 306.87 65.7387 306.625 65.4187C306.39 65.0881 306.273 64.6827 306.273 64.2027C306.273 63.6054 306.47 63.1147 306.865 62.7307C307.27 62.3361 307.83 62.0694 308.545 61.9307L311.713 61.3067V62.3627L309.137 62.8907C308.614 62.9974 308.225 63.1467 307.969 63.3387C307.713 63.5307 307.585 63.7974 307.585 64.1387C307.585 64.4694 307.713 64.7414 307.969 64.9547C308.236 65.1574 308.609 65.2587 309.089 65.2587C309.398 65.2587 309.692 65.2214 309.969 65.1467C310.257 65.0614 310.513 64.9387 310.737 64.7787C310.961 64.6081 311.137 64.4001 311.265 64.1547C311.393 63.8987 311.457 63.6001 311.457 63.2587V61.0507ZM322.583 56.7467L322.871 57.8827C322.861 57.8827 322.845 57.8827 322.823 57.8827C322.802 57.8827 322.781 57.8827 322.759 57.8827C322.237 57.8827 321.831 57.9894 321.543 58.2027C321.266 58.4054 321.127 58.7361 321.127 59.1947L320.343 58.7947C320.343 58.3787 320.439 58.0161 320.631 57.7067C320.823 57.3974 321.085 57.1627 321.415 57.0027C321.746 56.8321 322.109 56.7467 322.503 56.7467C322.514 56.7467 322.525 56.7467 322.535 56.7467C322.557 56.7467 322.573 56.7467 322.583 56.7467ZM320.151 65.1947C320.909 65.1947 321.501 65.3707 321.927 65.7227C322.354 66.0641 322.567 66.5228 322.567 67.0988C322.567 67.6214 322.391 68.0748 322.039 68.4588C321.698 68.8428 321.234 69.1361 320.647 69.3388C320.071 69.5521 319.421 69.6588 318.695 69.6588C317.437 69.6588 316.493 69.4454 315.863 69.0188C315.245 68.5921 314.935 68.0801 314.935 67.4828C314.935 67.0561 315.074 66.6721 315.351 66.3308C315.639 66.0001 316.119 65.8134 316.791 65.7707L316.679 66.0107C316.317 65.9147 316.007 65.7547 315.751 65.5307C315.506 65.2961 315.383 64.9601 315.383 64.5227C315.383 64.0854 315.543 63.7121 315.863 63.4027C316.194 63.0827 316.679 62.8854 317.319 62.8107L318.167 63.2427H318.007C317.485 63.2961 317.111 63.4294 316.887 63.6427C316.674 63.8454 316.567 64.0694 316.567 64.3147C316.567 64.6134 316.674 64.8374 316.887 64.9867C317.111 65.1254 317.421 65.1947 317.815 65.1947H320.151ZM318.679 68.5868C319.298 68.5868 319.805 68.5228 320.199 68.3948C320.605 68.2668 320.903 68.1014 321.095 67.8988C321.287 67.6961 321.383 67.4774 321.383 67.2428C321.383 66.9548 321.266 66.7254 321.031 66.5548C320.807 66.3841 320.397 66.2988 319.799 66.2988H317.335C316.994 66.2988 316.706 66.3841 316.471 66.5548C316.237 66.7361 316.119 66.9814 316.119 67.2908C316.119 67.6854 316.343 68.0001 316.791 68.2348C317.25 68.4694 317.879 68.5868 318.679 68.5868ZM318.567 58.0587C319.207 58.0587 319.773 58.1761 320.263 58.4107C320.765 58.6347 321.154 58.9494 321.431 59.3547C321.709 59.7601 321.847 60.2294 321.847 60.7627C321.847 61.2854 321.709 61.7547 321.431 62.1707C321.154 62.5761 320.765 62.8961 320.263 63.1307C319.773 63.3547 319.207 63.4667 318.567 63.4667C317.511 63.4667 316.701 63.2161 316.135 62.7147C315.57 62.2027 315.287 61.5521 315.287 60.7627C315.287 60.2294 315.426 59.7601 315.703 59.3547C315.991 58.9494 316.381 58.6347 316.871 58.4107C317.362 58.1761 317.927 58.0587 318.567 58.0587ZM318.567 59.0987C318.013 59.0987 317.549 59.2534 317.175 59.5627C316.802 59.8614 316.615 60.2614 316.615 60.7627C316.615 61.2534 316.802 61.6534 317.175 61.9627C317.549 62.2721 318.013 62.4267 318.567 62.4267C319.122 62.4267 319.586 62.2721 319.959 61.9627C320.333 61.6534 320.519 61.2534 320.519 60.7627C320.519 60.2614 320.333 59.8614 319.959 59.5627C319.586 59.2534 319.122 59.0987 318.567 59.0987ZM327.707 66.3788C326.95 66.3788 326.272 66.2134 325.675 65.8827C325.088 65.5521 324.63 65.0774 324.299 64.4587C323.968 63.8294 323.803 63.0827 323.803 62.2188C323.803 61.3547 323.968 60.6134 324.299 59.9947C324.63 59.3654 325.083 58.8854 325.659 58.5547C326.235 58.2241 326.891 58.0587 327.627 58.0587C328.374 58.0587 329.008 58.2187 329.531 58.5387C330.064 58.8587 330.47 59.2961 330.747 59.8507C331.024 60.3947 331.163 61.0081 331.163 61.6907C331.163 61.8721 331.158 62.0374 331.147 62.1867C331.136 62.3361 331.12 62.4694 331.099 62.5867H324.635V61.4507H330.539L329.883 61.5787C329.883 60.8107 329.67 60.2187 329.243 59.8027C328.827 59.3867 328.278 59.1787 327.595 59.1787C327.072 59.1787 326.619 59.3014 326.235 59.5467C325.862 59.7814 325.568 60.1281 325.355 60.5867C325.152 61.0347 325.051 61.5787 325.051 62.2188C325.051 62.8481 325.158 63.3921 325.371 63.8507C325.584 64.3094 325.883 64.6614 326.267 64.9067C326.662 65.1414 327.131 65.2587 327.675 65.2587C328.262 65.2587 328.736 65.1467 329.099 64.9227C329.472 64.6987 329.771 64.3947 329.995 64.0107L331.003 64.6027C330.8 64.9654 330.539 65.2801 330.219 65.5467C329.91 65.8134 329.542 66.0214 329.115 66.1707C328.699 66.3094 328.23 66.3788 327.707 66.3788ZM333.597 66.2188V58.2188H334.717L334.829 60.0107L334.621 59.8347C334.792 59.4081 335.021 59.0667 335.309 58.8107C335.597 58.5441 335.928 58.3521 336.301 58.2347C336.685 58.1174 337.08 58.0587 337.485 58.0587C338.061 58.0587 338.584 58.1707 339.053 58.3947C339.523 58.6081 339.896 58.9387 340.173 59.3867C340.461 59.8347 340.605 60.4054 340.605 61.0987V66.2188H339.325V61.5467C339.325 60.6614 339.133 60.0481 338.749 59.7067C338.376 59.3547 337.912 59.1787 337.357 59.1787C336.973 59.1787 336.589 59.2694 336.205 59.4507C335.821 59.6321 335.501 59.9254 335.245 60.3307C335 60.7361 334.877 61.2801 334.877 61.9627V66.2188H333.597ZM345.282 55.9467V64.0107C345.282 64.4054 345.394 64.6987 345.618 64.8907C345.842 65.0827 346.13 65.1787 346.482 65.1787C346.792 65.1787 347.058 65.1254 347.282 65.0187C347.506 64.9121 347.709 64.7681 347.89 64.5867L348.338 65.6587C348.093 65.8827 347.8 66.0587 347.458 66.1867C347.128 66.3148 346.744 66.3788 346.306 66.3788C345.901 66.3788 345.522 66.3094 345.17 66.1707C344.818 66.0214 344.536 65.7921 344.322 65.4827C344.12 65.1627 344.013 64.7467 344.002 64.2347V56.2987L345.282 55.9467ZM348.194 58.2188V59.3227H342.402V58.2188H348.194Z" fill="#454545"/>
<g filter="url(#filter0_dii_467_983)">
<circle cx="199" cy="61.2188" r="6" fill="#1472CC"/>
</g>
<path d="M215.696 95.2188L212.576 84.6587H213.904L216.512 94.0507L218.992 84.6587H220.448L222.928 94.0827L225.536 84.6587H226.8L223.696 95.2188H222.112L220.24 88.3707L219.696 85.9867H219.68L219.136 88.3707L217.28 95.2188H215.696ZM231.628 87.0587C232.385 87.0587 233.052 87.2241 233.628 87.5547C234.215 87.8854 234.673 88.3654 235.004 88.9947C235.335 89.6134 235.5 90.3547 235.5 91.2188C235.5 92.0827 235.335 92.8294 235.004 93.4587C234.673 94.0774 234.215 94.5521 233.628 94.8827C233.052 95.2134 232.385 95.3788 231.628 95.3788C230.881 95.3788 230.215 95.2134 229.628 94.8827C229.041 94.5521 228.583 94.0774 228.252 93.4587C227.921 92.8294 227.756 92.0827 227.756 91.2188C227.756 90.3547 227.921 89.6134 228.252 88.9947C228.583 88.3654 229.041 87.8854 229.628 87.5547C230.215 87.2241 230.881 87.0587 231.628 87.0587ZM231.628 88.1627C231.084 88.1627 230.62 88.2854 230.236 88.5307C229.852 88.7761 229.553 89.1281 229.34 89.5867C229.137 90.0347 229.036 90.5787 229.036 91.2188C229.036 91.8481 229.137 92.3921 229.34 92.8507C229.553 93.3094 229.852 93.6614 230.236 93.9067C230.62 94.1521 231.084 94.2747 231.628 94.2747C232.172 94.2747 232.636 94.1521 233.02 93.9067C233.404 93.6614 233.697 93.3094 233.9 92.8507C234.113 92.3921 234.22 91.8481 234.22 91.2188C234.22 90.5787 234.113 90.0347 233.9 89.5867C233.697 89.1281 233.404 88.7761 233.02 88.5307C232.636 88.2854 232.172 88.1627 231.628 88.1627ZM237.91 95.2188V87.2188H238.95L239.126 88.5307C239.35 88.0401 239.675 87.6721 240.102 87.4267C240.539 87.1814 241.067 87.0587 241.686 87.0587C241.825 87.0587 241.974 87.0694 242.134 87.0907C242.305 87.1121 242.449 87.1547 242.566 87.2188L242.342 88.3867C242.225 88.3441 242.097 88.3121 241.958 88.2907C241.819 88.2694 241.622 88.2587 241.366 88.2587C241.035 88.2587 240.699 88.3547 240.358 88.5467C240.027 88.7387 239.75 89.0321 239.526 89.4267C239.302 89.8107 239.19 90.3014 239.19 90.8987V95.2188H237.91ZM247.311 95.3788C246.65 95.3788 246.042 95.2134 245.487 94.8827C244.932 94.5521 244.49 94.0774 244.159 93.4587C243.828 92.8294 243.663 92.0827 243.663 91.2188C243.663 90.3334 243.839 89.5814 244.191 88.9627C244.543 88.3441 245.007 87.8747 245.583 87.5547C246.159 87.2241 246.778 87.0587 247.439 87.0587C248.1 87.0587 248.671 87.2294 249.151 87.5707C249.642 87.9121 249.967 88.3654 250.127 88.9307L249.967 89.0427V83.5387H251.247V95.2188H250.127L250.015 93.2827L250.191 93.1867C250.116 93.6561 249.935 94.0561 249.647 94.3867C249.37 94.7067 249.023 94.9521 248.607 95.1227C248.202 95.2934 247.77 95.3788 247.311 95.3788ZM247.439 94.2587C247.951 94.2587 248.394 94.1307 248.767 93.8747C249.151 93.6187 249.444 93.2561 249.647 92.7867C249.86 92.3067 249.967 91.7467 249.967 91.1068C249.967 90.4987 249.86 89.9761 249.647 89.5387C249.444 89.1014 249.156 88.7654 248.783 88.5307C248.42 88.2961 247.994 88.1787 247.503 88.1787C246.692 88.1787 246.063 88.4561 245.615 89.0107C245.167 89.5654 244.943 90.3014 244.943 91.2188C244.943 92.1361 245.162 92.8721 245.599 93.4267C246.036 93.9814 246.65 94.2587 247.439 94.2587ZM262.988 87.0587C263.745 87.0587 264.412 87.2241 264.988 87.5547C265.574 87.8854 266.033 88.3654 266.364 88.9947C266.694 89.6134 266.86 90.3547 266.86 91.2188C266.86 92.0827 266.694 92.8294 266.364 93.4587C266.033 94.0774 265.574 94.5521 264.988 94.8827C264.412 95.2134 263.745 95.3788 262.988 95.3788C262.241 95.3788 261.574 95.2134 260.988 94.8827C260.401 94.5521 259.942 94.0774 259.612 93.4587C259.281 92.8294 259.116 92.0827 259.116 91.2188C259.116 90.3547 259.281 89.6134 259.612 88.9947C259.942 88.3654 260.401 87.8854 260.988 87.5547C261.574 87.2241 262.241 87.0587 262.988 87.0587ZM262.988 88.1627C262.444 88.1627 261.98 88.2854 261.596 88.5307C261.212 88.7761 260.913 89.1281 260.7 89.5867C260.497 90.0347 260.396 90.5787 260.396 91.2188C260.396 91.8481 260.497 92.3921 260.7 92.8507C260.913 93.3094 261.212 93.6614 261.596 93.9067C261.98 94.1521 262.444 94.2747 262.988 94.2747C263.532 94.2747 263.996 94.1521 264.38 93.9067C264.764 93.6614 265.057 93.3094 265.26 92.8507C265.473 92.3921 265.58 91.8481 265.58 91.2188C265.58 90.5787 265.473 90.0347 265.26 89.5867C265.057 89.1281 264.764 88.7761 264.38 88.5307C263.996 88.2854 263.532 88.1627 262.988 88.1627ZM272.377 83.4587C272.654 83.4587 272.915 83.4907 273.161 83.5547C273.406 83.6187 273.598 83.7094 273.737 83.8267L273.401 84.8667C273.273 84.7814 273.134 84.7227 272.985 84.6907C272.835 84.6481 272.67 84.6267 272.489 84.6267C272.03 84.6267 271.673 84.7387 271.417 84.9627C271.161 85.1761 271.033 85.5227 271.033 86.0027V87.2188V87.6347V95.2188H269.753V85.8747C269.753 85.5227 269.806 85.1974 269.913 84.8987C270.019 84.6001 270.179 84.3441 270.393 84.1307C270.617 83.9174 270.894 83.7521 271.225 83.6347C271.555 83.5174 271.939 83.4587 272.377 83.4587ZM273.705 87.2188V88.3227H268.153V87.2188H273.705ZM280.222 95.2188V87.2188H281.342L281.422 88.4667C281.71 87.9761 282.084 87.6187 282.542 87.3947C283.012 87.1707 283.492 87.0587 283.982 87.0587C284.548 87.0587 285.081 87.1867 285.582 87.4427C286.084 87.6987 286.468 88.0934 286.734 88.6267C286.905 88.2641 287.145 87.9707 287.454 87.7467C287.764 87.5121 288.1 87.3414 288.462 87.2347C288.836 87.1174 289.188 87.0587 289.518 87.0587C290.03 87.0587 290.516 87.1654 290.974 87.3787C291.444 87.5921 291.828 87.9227 292.126 88.3707C292.425 88.8187 292.574 89.3947 292.574 90.0987V95.2188H291.294V90.2267C291.294 89.5014 291.113 88.9787 290.75 88.6587C290.388 88.3387 289.94 88.1787 289.406 88.1787C288.99 88.1787 288.601 88.2801 288.238 88.4827C287.876 88.6854 287.582 88.9841 287.358 89.3787C287.145 89.7734 287.038 90.2587 287.038 90.8347V95.2188H285.758V90.2267C285.758 89.5014 285.577 88.9787 285.214 88.6587C284.852 88.3387 284.404 88.1787 283.87 88.1787C283.518 88.1787 283.156 88.2747 282.782 88.4667C282.42 88.6481 282.116 88.9414 281.87 89.3467C281.625 89.7521 281.502 90.2854 281.502 90.9467V95.2188H280.222ZM298.784 87.0587C299.542 87.0587 300.208 87.2241 300.784 87.5547C301.371 87.8854 301.83 88.3654 302.16 88.9947C302.491 89.6134 302.656 90.3547 302.656 91.2188C302.656 92.0827 302.491 92.8294 302.16 93.4587C301.83 94.0774 301.371 94.5521 300.784 94.8827C300.208 95.2134 299.542 95.3788 298.784 95.3788C298.038 95.3788 297.371 95.2134 296.784 94.8827C296.198 94.5521 295.739 94.0774 295.408 93.4587C295.078 92.8294 294.912 92.0827 294.912 91.2188C294.912 90.3547 295.078 89.6134 295.408 88.9947C295.739 88.3654 296.198 87.8854 296.784 87.5547C297.371 87.2241 298.038 87.0587 298.784 87.0587ZM298.784 88.1627C298.24 88.1627 297.776 88.2854 297.392 88.5307C297.008 88.7761 296.71 89.1281 296.496 89.5867C296.294 90.0347 296.192 90.5787 296.192 91.2188C296.192 91.8481 296.294 92.3921 296.496 92.8507C296.71 93.3094 297.008 93.6614 297.392 93.9067C297.776 94.1521 298.24 94.2747 298.784 94.2747C299.328 94.2747 299.792 94.1521 300.176 93.9067C300.56 93.6614 300.854 93.3094 301.056 92.8507C301.27 92.3921 301.376 91.8481 301.376 91.2188C301.376 90.5787 301.27 90.0347 301.056 89.5867C300.854 89.1281 300.56 88.7761 300.176 88.5307C299.792 88.2854 299.328 88.1627 298.784 88.1627ZM307.962 95.3788C307.45 95.3788 306.965 95.2828 306.506 95.0907C306.058 94.8987 305.69 94.5894 305.402 94.1628C305.125 93.7254 304.986 93.1601 304.986 92.4667V87.2188H306.266V92.1307C306.266 92.9414 306.442 93.5014 306.794 93.8107C307.146 94.1094 307.642 94.2587 308.282 94.2587C308.581 94.2587 308.874 94.2107 309.162 94.1147C309.45 94.0081 309.706 93.8481 309.93 93.6347C310.165 93.4107 310.346 93.1281 310.474 92.7867C310.613 92.4454 310.682 92.0401 310.682 91.5707V87.2188H311.962V95.2188H310.842L310.762 94.0027C310.485 94.4827 310.106 94.8347 309.626 95.0587C309.157 95.2721 308.602 95.3788 307.962 95.3788ZM316.829 84.9467V93.0107C316.829 93.4054 316.941 93.6987 317.165 93.8907C317.389 94.0827 317.677 94.1787 318.029 94.1787C318.338 94.1787 318.605 94.1254 318.829 94.0187C319.053 93.9121 319.256 93.7681 319.437 93.5867L319.885 94.6587C319.64 94.8827 319.346 95.0587 319.005 95.1867C318.674 95.3148 318.29 95.3788 317.853 95.3788C317.448 95.3788 317.069 95.3094 316.717 95.1707C316.365 95.0214 316.082 94.7921 315.869 94.4827C315.666 94.1627 315.56 93.7467 315.549 93.2347V85.2987L316.829 84.9467ZM319.741 87.2188V88.3227H313.949V87.2188H319.741ZM321.644 95.2188V83.5387H322.924V88.4187C323.202 87.9387 323.57 87.5921 324.028 87.3787C324.487 87.1654 324.988 87.0587 325.532 87.0587C326.108 87.0587 326.631 87.1707 327.1 87.3947C327.57 87.6081 327.943 87.9387 328.22 88.3867C328.508 88.8347 328.652 89.4054 328.652 90.0987V95.2188H327.372V90.5467C327.372 89.6614 327.18 89.0481 326.796 88.7067C326.423 88.3547 325.959 88.1787 325.404 88.1787C325.02 88.1787 324.636 88.2694 324.252 88.4507C323.868 88.6321 323.548 88.9307 323.292 89.3467C323.047 89.7521 322.924 90.2961 322.924 90.9787V95.2188H321.644Z" fill="#454545"/>
<g filter="url(#filter1_dii_467_983)">
<circle cx="199" cy="90.2188" r="6" fill="#00BFA1"/>
</g>
<path d="M215.008 113.659V124.219H213.728V113.659H215.008ZM218.144 124.219V116.219H219.264L219.376 118.011L219.168 117.835C219.339 117.408 219.568 117.067 219.856 116.811C220.144 116.544 220.475 116.352 220.848 116.235C221.232 116.117 221.627 116.059 222.032 116.059C222.608 116.059 223.131 116.171 223.6 116.395C224.07 116.608 224.443 116.939 224.72 117.387C225.008 117.835 225.152 118.405 225.152 119.099V124.219H223.872V119.547C223.872 118.661 223.68 118.048 223.296 117.707C222.923 117.355 222.459 117.179 221.904 117.179C221.52 117.179 221.136 117.269 220.752 117.451C220.368 117.632 220.048 117.925 219.792 118.331C219.547 118.736 219.424 119.28 219.424 119.963V124.219H218.144ZM233.283 119.371V120.699H228.003V119.371H233.283ZM236.207 127.579V116.219H237.327L237.439 118.171L237.263 117.947C237.401 117.573 237.609 117.248 237.887 116.971C238.164 116.683 238.5 116.459 238.895 116.299C239.289 116.139 239.716 116.059 240.175 116.059C240.825 116.059 241.423 116.224 241.967 116.555C242.521 116.885 242.964 117.36 243.295 117.979C243.625 118.597 243.791 119.344 243.791 120.219C243.791 121.083 243.62 121.829 243.279 122.459C242.948 123.077 242.505 123.552 241.951 123.883C241.396 124.213 240.788 124.379 240.127 124.379C239.465 124.379 238.884 124.219 238.383 123.899C237.892 123.568 237.54 123.152 237.327 122.651L237.487 122.411V127.579H236.207ZM239.999 123.259C240.788 123.259 241.401 122.981 241.839 122.427C242.287 121.872 242.511 121.136 242.511 120.219C242.511 119.301 242.292 118.565 241.855 118.011C241.428 117.456 240.825 117.179 240.047 117.179C239.535 117.179 239.087 117.307 238.703 117.563C238.319 117.808 238.02 118.16 237.807 118.619C237.593 119.067 237.487 119.6 237.487 120.219C237.487 120.827 237.588 121.36 237.791 121.819C238.004 122.277 238.297 122.635 238.671 122.891C239.055 123.136 239.497 123.259 239.999 123.259ZM249.582 124.379C248.825 124.379 248.147 124.213 247.55 123.883C246.963 123.552 246.505 123.077 246.174 122.459C245.843 121.829 245.678 121.083 245.678 120.219C245.678 119.355 245.843 118.613 246.174 117.995C246.505 117.365 246.958 116.885 247.534 116.555C248.11 116.224 248.766 116.059 249.502 116.059C250.249 116.059 250.883 116.219 251.406 116.539C251.939 116.859 252.345 117.296 252.622 117.851C252.899 118.395 253.038 119.008 253.038 119.691C253.038 119.872 253.033 120.037 253.022 120.187C253.011 120.336 252.995 120.469 252.974 120.587H246.51V119.451H252.414L251.758 119.579C251.758 118.811 251.545 118.219 251.118 117.803C250.702 117.387 250.153 117.179 249.47 117.179C248.947 117.179 248.494 117.301 248.11 117.547C247.737 117.781 247.443 118.128 247.23 118.587C247.027 119.035 246.926 119.579 246.926 120.219C246.926 120.848 247.033 121.392 247.246 121.851C247.459 122.309 247.758 122.661 248.142 122.907C248.537 123.141 249.006 123.259 249.55 123.259C250.137 123.259 250.611 123.147 250.974 122.923C251.347 122.699 251.646 122.395 251.87 122.011L252.878 122.603C252.675 122.965 252.414 123.28 252.094 123.547C251.785 123.813 251.417 124.021 250.99 124.171C250.574 124.309 250.105 124.379 249.582 124.379ZM255.472 124.219V116.219H256.512L256.688 117.531C256.912 117.04 257.238 116.672 257.664 116.427C258.102 116.181 258.63 116.059 259.248 116.059C259.387 116.059 259.536 116.069 259.696 116.091C259.867 116.112 260.011 116.155 260.128 116.219L259.904 117.387C259.787 117.344 259.659 117.312 259.52 117.291C259.382 117.269 259.184 117.259 258.928 117.259C258.598 117.259 258.262 117.355 257.92 117.547C257.59 117.739 257.312 118.032 257.088 118.427C256.864 118.811 256.752 119.301 256.752 119.899V124.219H255.472ZM264.54 124.379C263.761 124.379 263.041 124.213 262.38 123.883C261.729 123.552 261.228 123.083 260.876 122.475L261.964 121.691C262.199 122.181 262.54 122.565 262.988 122.843C263.447 123.12 263.996 123.259 264.636 123.259C265.201 123.259 265.644 123.152 265.964 122.939C266.284 122.715 266.444 122.427 266.444 122.075C266.444 121.851 266.369 121.648 266.22 121.467C266.081 121.275 265.809 121.136 265.404 121.051L263.484 120.651C262.705 120.491 262.145 120.224 261.804 119.851C261.473 119.477 261.308 119.013 261.308 118.459C261.308 118.021 261.431 117.621 261.676 117.259C261.932 116.896 262.289 116.608 262.748 116.395C263.217 116.171 263.767 116.059 264.396 116.059C265.185 116.059 265.852 116.213 266.396 116.523C266.94 116.832 267.345 117.269 267.612 117.835L266.54 118.539C266.359 118.069 266.065 117.728 265.66 117.515C265.255 117.291 264.833 117.179 264.396 117.179C264.012 117.179 263.681 117.232 263.404 117.339C263.137 117.445 262.929 117.595 262.78 117.787C262.641 117.968 262.572 118.176 262.572 118.411C262.572 118.645 262.652 118.864 262.812 119.067C262.972 119.259 263.271 119.397 263.708 119.483L265.708 119.899C266.455 120.048 266.977 120.293 267.276 120.635C267.575 120.976 267.724 121.392 267.724 121.883C267.724 122.384 267.591 122.827 267.324 123.211C267.057 123.584 266.684 123.872 266.204 124.075C265.724 124.277 265.169 124.379 264.54 124.379ZM273.409 116.059C274.167 116.059 274.833 116.224 275.409 116.555C275.996 116.885 276.455 117.365 276.785 117.995C277.116 118.613 277.281 119.355 277.281 120.219C277.281 121.083 277.116 121.829 276.785 122.459C276.455 123.077 275.996 123.552 275.409 123.883C274.833 124.213 274.167 124.379 273.409 124.379C272.663 124.379 271.996 124.213 271.409 123.883C270.823 123.552 270.364 123.077 270.033 122.459C269.703 121.829 269.537 121.083 269.537 120.219C269.537 119.355 269.703 118.613 270.033 117.995C270.364 117.365 270.823 116.885 271.409 116.555C271.996 116.224 272.663 116.059 273.409 116.059ZM273.409 117.163C272.865 117.163 272.401 117.285 272.017 117.531C271.633 117.776 271.335 118.128 271.121 118.587C270.919 119.035 270.817 119.579 270.817 120.219C270.817 120.848 270.919 121.392 271.121 121.851C271.335 122.309 271.633 122.661 272.017 122.907C272.401 123.152 272.865 123.275 273.409 123.275C273.953 123.275 274.417 123.152 274.801 122.907C275.185 122.661 275.479 122.309 275.681 121.851C275.895 121.392 276.001 120.848 276.001 120.219C276.001 119.579 275.895 119.035 275.681 118.587C275.479 118.128 275.185 117.776 274.801 117.531C274.417 117.285 273.953 117.163 273.409 117.163ZM279.691 124.219V116.219H280.811L280.923 118.011L280.715 117.835C280.886 117.408 281.115 117.067 281.403 116.811C281.691 116.544 282.022 116.352 282.395 116.235C282.779 116.117 283.174 116.059 283.579 116.059C284.155 116.059 284.678 116.171 285.147 116.395C285.616 116.608 285.99 116.939 286.267 117.387C286.555 117.835 286.699 118.405 286.699 119.099V124.219H285.419V119.547C285.419 118.661 285.227 118.048 284.843 117.707C284.47 117.355 284.006 117.179 283.451 117.179C283.067 117.179 282.683 117.269 282.299 117.451C281.915 117.632 281.595 117.925 281.339 118.331C281.094 118.736 280.971 119.28 280.971 119.963V124.219H279.691Z" fill="#454545"/>
<g filter="url(#filter2_dii_467_983)">
<circle cx="199" cy="119.219" r="6" fill="#FF9900"/>
</g>
<g filter="url(#filter3_dii_467_983)">
<path d="M164.263 116.22C168.843 103.819 170.13 90.4423 168.001 77.3951C165.871 64.3478 160.397 52.0752 152.111 41.7738C143.826 31.4724 133.013 23.4938 120.726 18.6162C108.438 13.7386 95.0969 12.1283 82.0021 13.9425L92.5 89.7188L164.263 116.22Z" fill="#00BFA1"/>
</g>
<g filter="url(#filter4_dii_467_983)">
<path d="M100.23 167.589C90.2652 168.884 80.1466 168.177 70.4516 165.51C60.7566 162.843 51.6751 158.267 43.7256 152.044C35.7761 145.822 29.1144 138.074 24.1206 129.243C19.1269 120.411 15.899 110.671 14.6213 100.576C13.3435 90.4809 14.041 80.23 16.6738 70.4083C19.3066 60.5866 23.8231 51.3863 29.9656 43.3329C36.1081 35.2795 43.7563 28.5307 52.4733 23.4717C61.1904 18.4127 70.8057 15.1426 80.7702 13.8481L90.5 90.7188L100.23 167.589Z" fill="#1472CC"/>
</g>
<g filter="url(#filter5_dii_467_983)">
<path d="M162.805 116.704C158.229 129.946 150.104 141.678 139.317 150.618C128.53 159.559 115.494 165.365 101.633 167.404L90.5 91.7187L162.805 116.704Z" fill="#FF9900"/>
</g>
<path d="M109.248 75.2188V67.9707C109.248 67.7574 109.248 67.5387 109.248 67.3147C109.259 67.0801 109.269 66.8347 109.28 66.5787C108.917 66.9307 108.501 67.2347 108.032 67.4907C107.573 67.7361 107.099 67.9121 106.608 68.0187L106.288 66.5307C106.512 66.4987 106.773 66.4241 107.072 66.3067C107.371 66.1894 107.68 66.0401 108 65.8587C108.32 65.6774 108.613 65.4854 108.88 65.2827C109.147 65.0694 109.355 64.8614 109.504 64.6587H110.944V75.2188H109.248ZM115.686 75.2188V67.9707C115.686 67.7574 115.686 67.5387 115.686 67.3147C115.696 67.0801 115.707 66.8347 115.718 66.5787C115.355 66.9307 114.939 67.2347 114.47 67.4907C114.011 67.7361 113.536 67.9121 113.046 68.0187L112.726 66.5307C112.95 66.4987 113.211 66.4241 113.51 66.3067C113.808 66.1894 114.118 66.0401 114.438 65.8587C114.758 65.6774 115.051 65.4854 115.318 65.2827C115.584 65.0694 115.792 64.8614 115.942 64.6587H117.382V75.2188H115.686ZM124.139 64.4987C124.704 64.4987 125.206 64.5787 125.643 64.7387C126.08 64.8881 126.459 65.1281 126.779 65.4587C127.11 65.7894 127.382 66.2214 127.595 66.7547L126.091 67.4747C125.942 67.0161 125.702 66.6534 125.371 66.3867C125.051 66.1201 124.603 65.9867 124.027 65.9867C123.611 65.9867 123.243 66.0881 122.923 66.2907C122.603 66.4934 122.331 66.7814 122.107 67.1547C121.883 67.5174 121.712 67.9494 121.595 68.4507C121.478 68.9414 121.419 69.4747 121.419 70.0507C121.419 70.0827 121.419 70.1201 121.419 70.1627C121.419 70.1947 121.419 70.2534 121.419 70.3387L121.483 70.3707C121.6 69.9441 121.808 69.6027 122.107 69.3467C122.416 69.0801 122.763 68.8827 123.147 68.7547C123.531 68.6267 123.91 68.5627 124.283 68.5627C124.987 68.5627 125.6 68.7014 126.123 68.9787C126.646 69.2454 127.051 69.6294 127.339 70.1307C127.638 70.6321 127.787 71.2294 127.787 71.9227C127.787 72.6267 127.632 73.2401 127.323 73.7627C127.014 74.2747 126.582 74.6747 126.027 74.9627C125.483 75.2401 124.827 75.3788 124.059 75.3788C123.163 75.3788 122.4 75.1547 121.771 74.7067C121.142 74.2587 120.662 73.6294 120.331 72.8187C120 72.0081 119.835 71.0587 119.835 69.9707C119.835 68.7654 120.022 67.7574 120.395 66.9467C120.779 66.1361 121.296 65.5281 121.947 65.1227C122.598 64.7067 123.328 64.4987 124.139 64.4987ZM124.027 69.9867C123.622 69.9867 123.264 70.0721 122.955 70.2427C122.646 70.4027 122.4 70.6267 122.219 70.9147C122.048 71.2027 121.963 71.5387 121.963 71.9227C121.963 72.2961 122.054 72.6321 122.235 72.9307C122.427 73.2294 122.678 73.4694 122.987 73.6507C123.296 73.8214 123.643 73.9067 124.027 73.9067C124.678 73.9067 125.184 73.7307 125.547 73.3787C125.91 73.0267 126.091 72.5414 126.091 71.9227C126.091 71.5281 126.011 71.1867 125.851 70.8987C125.691 70.6001 125.456 70.3761 125.147 70.2267C124.848 70.0667 124.475 69.9867 124.027 69.9867ZM131.504 75.2188L138.416 64.6587H139.888L132.992 75.2188H131.504ZM131.92 64.4987C132.464 64.4987 132.934 64.6214 133.328 64.8667C133.734 65.1121 134.043 65.4534 134.256 65.8907C134.48 66.3281 134.592 66.8454 134.592 67.4427C134.592 68.0294 134.48 68.5467 134.256 68.9947C134.043 69.4321 133.734 69.7734 133.328 70.0187C132.934 70.2641 132.464 70.3867 131.92 70.3867C131.387 70.3867 130.918 70.2641 130.512 70.0187C130.107 69.7734 129.792 69.4321 129.568 68.9947C129.355 68.5467 129.248 68.0294 129.248 67.4427C129.248 66.8454 129.355 66.3281 129.568 65.8907C129.792 65.4534 130.107 65.1121 130.512 64.8667C130.918 64.6214 131.387 64.4987 131.92 64.4987ZM131.92 65.7467C131.654 65.7467 131.424 65.8161 131.232 65.9547C131.04 66.0827 130.896 66.2747 130.8 66.5307C130.704 66.7761 130.656 67.0801 130.656 67.4427C130.656 67.7947 130.704 68.0987 130.8 68.3547C130.896 68.6107 131.04 68.8027 131.232 68.9307C131.424 69.0587 131.654 69.1227 131.92 69.1227C132.198 69.1227 132.432 69.0587 132.624 68.9307C132.816 68.8027 132.96 68.6107 133.056 68.3547C133.152 68.0987 133.2 67.7947 133.2 67.4427C133.2 67.0801 133.152 66.7761 133.056 66.5307C132.96 66.2747 132.816 66.0827 132.624 65.9547C132.432 65.8161 132.198 65.7467 131.92 65.7467ZM139.472 69.4907C140.016 69.4907 140.486 69.6134 140.88 69.8587C141.286 70.1041 141.595 70.4507 141.808 70.8987C142.032 71.3361 142.144 71.8481 142.144 72.4347C142.144 73.0321 142.032 73.5494 141.808 73.9867C141.595 74.4241 141.286 74.7654 140.88 75.0107C140.486 75.2561 140.016 75.3788 139.472 75.3788C138.939 75.3788 138.47 75.2561 138.064 75.0107C137.659 74.7654 137.344 74.4241 137.12 73.9867C136.907 73.5494 136.8 73.0321 136.8 72.4347C136.8 71.8481 136.907 71.3361 137.12 70.8987C137.344 70.4507 137.659 70.1041 138.064 69.8587C138.47 69.6134 138.939 69.4907 139.472 69.4907ZM139.472 70.7547C139.206 70.7547 138.976 70.8187 138.784 70.9467C138.592 71.0747 138.448 71.2667 138.352 71.5227C138.256 71.7681 138.208 72.0721 138.208 72.4347C138.208 72.7867 138.256 73.0907 138.352 73.3467C138.448 73.6027 138.592 73.8001 138.784 73.9387C138.976 74.0667 139.206 74.1307 139.472 74.1307C139.75 74.1307 139.984 74.0667 140.176 73.9387C140.368 73.8001 140.512 73.6027 140.608 73.3467C140.704 73.0907 140.752 72.7867 140.752 72.4347C140.752 72.0827 140.704 71.7787 140.608 71.5227C140.512 71.2667 140.368 71.0747 140.176 70.9467C139.984 70.8187 139.75 70.7547 139.472 70.7547Z" fill="white"/>
<path d="M37.248 96.2188V88.9707C37.248 88.7574 37.248 88.5387 37.248 88.3147C37.2587 88.0801 37.2693 87.8347 37.28 87.5787C36.9173 87.9307 36.5013 88.2347 36.032 88.4907C35.5733 88.7361 35.0987 88.9121 34.608 89.0187L34.288 87.5307C34.512 87.4987 34.7733 87.4241 35.072 87.3067C35.3707 87.1894 35.68 87.0401 36 86.8587C36.32 86.6774 36.6133 86.4854 36.88 86.2827C37.1467 86.0694 37.3547 85.8614 37.504 85.6587H38.944V96.2188H37.248ZM45.3975 85.5147C46.1122 85.5147 46.7308 85.6321 47.2535 85.8667C47.7868 86.0907 48.1975 86.4107 48.4855 86.8267C48.7735 87.2427 48.9175 87.7441 48.9175 88.3307C48.9175 88.8747 48.7842 89.3547 48.5175 89.7707C48.2615 90.1761 47.8828 90.4854 47.3815 90.6987V90.7147C47.9895 90.9387 48.4695 91.2747 48.8215 91.7227C49.1842 92.1601 49.3655 92.7041 49.3655 93.3547C49.3655 93.9841 49.2002 94.5227 48.8695 94.9707C48.5495 95.4187 48.0908 95.7654 47.4935 96.0107C46.9068 96.2561 46.2082 96.3788 45.3975 96.3788C44.5868 96.3788 43.8828 96.2561 43.2855 96.0107C42.6988 95.7654 42.2402 95.4187 41.9095 94.9707C41.5788 94.5227 41.4135 93.9841 41.4135 93.3547C41.4135 92.7147 41.5895 92.1707 41.9415 91.7227C42.2935 91.2747 42.7842 90.9387 43.4135 90.7147V90.6987C42.9335 90.4961 42.5548 90.1921 42.2775 89.7867C42.0002 89.3707 41.8615 88.8854 41.8615 88.3307C41.8615 87.7441 42.0055 87.2427 42.2935 86.8267C42.5815 86.4107 42.9922 86.0907 43.5255 85.8667C44.0588 85.6321 44.6828 85.5147 45.3975 85.5147ZM45.3975 86.9547C44.8322 86.9547 44.3788 87.0934 44.0375 87.3707C43.7068 87.6481 43.5415 88.0267 43.5415 88.5067C43.5415 88.9867 43.7122 89.3654 44.0535 89.6427C44.3948 89.9094 44.8428 90.0427 45.3975 90.0427C45.9522 90.0427 46.3948 89.9094 46.7255 89.6427C47.0668 89.3654 47.2375 88.9867 47.2375 88.5067C47.2375 88.0267 47.0722 87.6481 46.7415 87.3707C46.4108 87.0934 45.9628 86.9547 45.3975 86.9547ZM45.3975 94.9387C45.8668 94.9387 46.2668 94.8694 46.5975 94.7307C46.9282 94.5921 47.1842 94.3894 47.3655 94.1227C47.5468 93.8561 47.6375 93.5467 47.6375 93.1947C47.6375 92.8214 47.5415 92.5067 47.3495 92.2507C47.1682 91.9841 46.9122 91.7814 46.5815 91.6427C46.2508 91.5041 45.8562 91.4347 45.3975 91.4347C44.9495 91.4347 44.5548 91.5041 44.2135 91.6427C43.8722 91.7814 43.6055 91.9841 43.4135 92.2507C43.2322 92.5067 43.1415 92.8214 43.1415 93.1947C43.1415 93.5467 43.2322 93.8561 43.4135 94.1227C43.5948 94.3894 43.8562 94.5921 44.1975 94.7307C44.5388 94.8694 44.9388 94.9387 45.3975 94.9387ZM55.3678 96.3788C54.0984 96.3788 53.1011 95.9201 52.3758 95.0027C51.6611 94.0747 51.3038 92.7201 51.3038 90.9387C51.3038 89.1574 51.6611 87.8081 52.3758 86.8907C53.1011 85.9627 54.0984 85.4987 55.3678 85.4987C56.6478 85.4987 57.6451 85.9627 58.3598 86.8907C59.0851 87.8081 59.4478 89.1574 59.4478 90.9387C59.4478 92.7201 59.0851 94.0747 58.3598 95.0027C57.6451 95.9201 56.6478 96.3788 55.3678 96.3788ZM55.3678 94.9227C55.8798 94.9227 56.3064 94.7787 56.6478 94.4907C56.9998 94.1921 57.2611 93.7494 57.4318 93.1627C57.6131 92.5654 57.7038 91.8241 57.7038 90.9387C57.7038 90.0534 57.6131 89.3174 57.4318 88.7307C57.2611 88.1334 56.9998 87.6907 56.6478 87.4028C56.3064 87.1041 55.8798 86.9547 55.3678 86.9547C54.8558 86.9547 54.4238 87.1041 54.0718 87.4028C53.7304 87.6907 53.4744 88.1334 53.3038 88.7307C53.1331 89.3174 53.0478 90.0534 53.0478 90.9387C53.0478 91.8241 53.1331 92.5654 53.3038 93.1627C53.4744 93.7494 53.7304 94.1921 54.0718 94.4907C54.4238 94.7787 54.8558 94.9227 55.3678 94.9227ZM63.2386 96.2188L70.1506 85.6587H71.6226L64.7266 96.2188H63.2386ZM63.6546 85.4987C64.1986 85.4987 64.668 85.6214 65.0626 85.8667C65.468 86.1121 65.7773 86.4534 65.9906 86.8907C66.2146 87.3281 66.3266 87.8454 66.3266 88.4427C66.3266 89.0294 66.2146 89.5467 65.9906 89.9947C65.7773 90.4321 65.468 90.7734 65.0626 91.0187C64.668 91.2641 64.1986 91.3867 63.6546 91.3867C63.1213 91.3867 62.652 91.2641 62.2466 91.0187C61.8413 90.7734 61.5266 90.4321 61.3026 89.9947C61.0893 89.5467 60.9826 89.0294 60.9826 88.4427C60.9826 87.8454 61.0893 87.3281 61.3026 86.8907C61.5266 86.4534 61.8413 86.1121 62.2466 85.8667C62.652 85.6214 63.1213 85.4987 63.6546 85.4987ZM63.6546 86.7467C63.388 86.7467 63.1586 86.8161 62.9666 86.9547C62.7746 87.0827 62.6306 87.2747 62.5346 87.5307C62.4386 87.7761 62.3906 88.0801 62.3906 88.4427C62.3906 88.7947 62.4386 89.0987 62.5346 89.3547C62.6306 89.6107 62.7746 89.8027 62.9666 89.9307C63.1586 90.0587 63.388 90.1227 63.6546 90.1227C63.932 90.1227 64.1666 90.0587 64.3586 89.9307C64.5506 89.8027 64.6946 89.6107 64.7906 89.3547C64.8866 89.0987 64.9346 88.7947 64.9346 88.4427C64.9346 88.0801 64.8866 87.7761 64.7906 87.5307C64.6946 87.2747 64.5506 87.0827 64.3586 86.9547C64.1666 86.8161 63.932 86.7467 63.6546 86.7467ZM71.2066 90.4907C71.7506 90.4907 72.22 90.6134 72.6146 90.8587C73.02 91.1041 73.3293 91.4507 73.5426 91.8987C73.7666 92.3361 73.8786 92.8481 73.8786 93.4347C73.8786 94.0321 73.7666 94.5494 73.5426 94.9867C73.3293 95.4241 73.02 95.7654 72.6146 96.0107C72.22 96.2561 71.7506 96.3788 71.2066 96.3788C70.6733 96.3788 70.204 96.2561 69.7986 96.0107C69.3933 95.7654 69.0786 95.4241 68.8546 94.9867C68.6413 94.5494 68.5346 94.0321 68.5346 93.4347C68.5346 92.8481 68.6413 92.3361 68.8546 91.8987C69.0786 91.4507 69.3933 91.1041 69.7986 90.8587C70.204 90.6134 70.6733 90.4907 71.2066 90.4907ZM71.2066 91.7547C70.94 91.7547 70.7106 91.8187 70.5186 91.9467C70.3266 92.0747 70.1826 92.2667 70.0866 92.5227C69.9906 92.7681 69.9426 93.0721 69.9426 93.4347C69.9426 93.7867 69.9906 94.0907 70.0866 94.3467C70.1826 94.6027 70.3266 94.8001 70.5186 94.9387C70.7106 95.0667 70.94 95.1307 71.2066 95.1307C71.484 95.1307 71.7186 95.0667 71.9106 94.9387C72.1026 94.8001 72.2466 94.6027 72.3426 94.3467C72.4386 94.0907 72.4866 93.7867 72.4866 93.4347C72.4866 93.0827 72.4386 92.7787 72.3426 92.5227C72.2466 92.2667 72.1026 92.0747 71.9106 91.9467C71.7186 91.8187 71.484 91.7547 71.2066 91.7547Z" fill="white"/>
<path d="M109.264 123.499C109.829 123.499 110.331 123.579 110.768 123.739C111.205 123.888 111.584 124.128 111.904 124.459C112.235 124.789 112.507 125.221 112.72 125.755L111.216 126.475C111.067 126.016 110.827 125.653 110.496 125.387C110.176 125.12 109.728 124.987 109.152 124.987C108.736 124.987 108.368 125.088 108.048 125.291C107.728 125.493 107.456 125.781 107.232 126.155C107.008 126.517 106.837 126.949 106.72 127.451C106.603 127.941 106.544 128.475 106.544 129.051C106.544 129.083 106.544 129.12 106.544 129.163C106.544 129.195 106.544 129.253 106.544 129.339L106.608 129.371C106.725 128.944 106.933 128.603 107.232 128.347C107.541 128.08 107.888 127.883 108.272 127.755C108.656 127.627 109.035 127.563 109.408 127.563C110.112 127.563 110.725 127.701 111.248 127.979C111.771 128.245 112.176 128.629 112.464 129.131C112.763 129.632 112.912 130.229 112.912 130.923C112.912 131.627 112.757 132.24 112.448 132.763C112.139 133.275 111.707 133.675 111.152 133.963C110.608 134.24 109.952 134.379 109.184 134.379C108.288 134.379 107.525 134.155 106.896 133.707C106.267 133.259 105.787 132.629 105.456 131.819C105.125 131.008 104.96 130.059 104.96 128.971C104.96 127.765 105.147 126.757 105.52 125.947C105.904 125.136 106.421 124.528 107.072 124.123C107.723 123.707 108.453 123.499 109.264 123.499ZM109.152 128.987C108.747 128.987 108.389 129.072 108.08 129.243C107.771 129.403 107.525 129.627 107.344 129.915C107.173 130.203 107.088 130.539 107.088 130.923C107.088 131.296 107.179 131.632 107.36 131.931C107.552 132.229 107.803 132.469 108.112 132.651C108.421 132.821 108.768 132.907 109.152 132.907C109.803 132.907 110.309 132.731 110.672 132.379C111.035 132.027 111.216 131.541 111.216 130.923C111.216 130.528 111.136 130.187 110.976 129.899C110.816 129.6 110.581 129.376 110.272 129.227C109.973 129.067 109.6 128.987 109.152 128.987ZM119.637 134.219V131.579H114.485V130.411C114.507 130.357 114.539 130.293 114.581 130.219C114.635 130.144 114.693 130.059 114.757 129.963L119.157 123.659H121.253V130.251H123.045V131.579H121.253V134.219H119.637ZM116.085 130.251H119.637V126.523C119.637 126.267 119.643 126.005 119.653 125.739C119.675 125.461 119.691 125.189 119.701 124.923H119.669C119.552 125.179 119.397 125.461 119.205 125.771C119.024 126.069 118.853 126.331 118.693 126.555L116.197 130.107C116.176 130.128 116.155 130.149 116.133 130.171C116.123 130.192 116.107 130.219 116.085 130.251ZM126.582 134.219L133.494 123.659H134.966L128.07 134.219H126.582ZM126.998 123.499C127.542 123.499 128.012 123.621 128.406 123.867C128.812 124.112 129.121 124.453 129.334 124.891C129.558 125.328 129.67 125.845 129.67 126.443C129.67 127.029 129.558 127.547 129.334 127.995C129.121 128.432 128.812 128.773 128.406 129.019C128.012 129.264 127.542 129.387 126.998 129.387C126.465 129.387 125.996 129.264 125.59 129.019C125.185 128.773 124.87 128.432 124.646 127.995C124.433 127.547 124.326 127.029 124.326 126.443C124.326 125.845 124.433 125.328 124.646 124.891C124.87 124.453 125.185 124.112 125.59 123.867C125.996 123.621 126.465 123.499 126.998 123.499ZM126.998 124.747C126.732 124.747 126.502 124.816 126.31 124.955C126.118 125.083 125.974 125.275 125.878 125.531C125.782 125.776 125.734 126.08 125.734 126.443C125.734 126.795 125.782 127.099 125.878 127.355C125.974 127.611 126.118 127.803 126.31 127.931C126.502 128.059 126.732 128.123 126.998 128.123C127.276 128.123 127.51 128.059 127.702 127.931C127.894 127.803 128.038 127.611 128.134 127.355C128.23 127.099 128.278 126.795 128.278 126.443C128.278 126.08 128.23 125.776 128.134 125.531C128.038 125.275 127.894 125.083 127.702 124.955C127.51 124.816 127.276 124.747 126.998 124.747ZM134.55 128.491C135.094 128.491 135.564 128.613 135.958 128.859C136.364 129.104 136.673 129.451 136.886 129.899C137.11 130.336 137.222 130.848 137.222 131.435C137.222 132.032 137.11 132.549 136.886 132.987C136.673 133.424 136.364 133.765 135.958 134.011C135.564 134.256 135.094 134.379 134.55 134.379C134.017 134.379 133.548 134.256 133.142 134.011C132.737 133.765 132.422 133.424 132.198 132.987C131.985 132.549 131.878 132.032 131.878 131.435C131.878 130.848 131.985 130.336 132.198 129.899C132.422 129.451 132.737 129.104 133.142 128.859C133.548 128.613 134.017 128.491 134.55 128.491ZM134.55 129.755C134.284 129.755 134.054 129.819 133.862 129.947C133.67 130.075 133.526 130.267 133.43 130.523C133.334 130.768 133.286 131.072 133.286 131.435C133.286 131.787 133.334 132.091 133.43 132.347C133.526 132.603 133.67 132.8 133.862 132.939C134.054 133.067 134.284 133.131 134.55 133.131C134.828 133.131 135.062 133.067 135.254 132.939C135.446 132.8 135.59 132.603 135.686 132.347C135.782 132.091 135.83 131.787 135.83 131.435C135.83 131.083 135.782 130.779 135.686 130.523C135.59 130.267 135.446 130.075 135.254 129.947C135.062 129.819 134.828 129.755 134.55 129.755Z" fill="white"/>
<defs>
<filter id="filter0_dii_467_983" x="179" y="42.2188" width="42" height="42" filterUnits="userSpaceOnUse" color-interpolation-filters="sRGB">
<feFlood flood-opacity="0" result="BackgroundImageFix"/>
<feColorMatrix in="SourceAlpha" type="matrix" values="0 0 0 0 0 0 0 0 0 0 0 0 0 0 0 0 0 0 127 0" result="hardAlpha"/>
<feOffset dx="1" dy="2"/>
<feGaussianBlur stdDeviation="7.5"/>
<feComposite in2="hardAlpha" operator="out"/>
<feColorMatrix type="matrix" values="0 0 0 0 0 0 0 0 0 0 0 0 0 0 0 0 0 0 0.1 0"/>
<feBlend mode="normal" in2="BackgroundImageFix" result="effect1_dropShadow_467_983"/>
<feBlend mode="normal" in="SourceGraphic" in2="effect1_dropShadow_467_983" result="shape"/>
<feColorMatrix in="SourceAlpha" type="matrix" values="0 0 0 0 0 0 0 0 0 0 0 0 0 0 0 0 0 0 127 0" result="hardAlpha"/>
<feOffset dx="5" dy="5"/>
<feGaussianBlur stdDeviation="5"/>
<feComposite in2="hardAlpha" operator="arithmetic" k2="-1" k3="1"/>
<feColorMatrix type="matrix" values="0 0 0 0 1 0 0 0 0 1 0 0 0 0 1 0 0 0 0.35 0"/>
<feBlend mode="normal" in2="shape" result="effect2_innerShadow_467_983"/>
<feColorMatrix in="SourceAlpha" type="matrix" values="0 0 0 0 0 0 0 0 0 0 0 0 0 0 0 0 0 0 127 0" result="hardAlpha"/>
<feOffset dx="-2" dy="-2"/>
<feGaussianBlur stdDeviation="7.5"/>
<feComposite in2="hardAlpha" operator="arithmetic" k2="-1" k3="1"/>
<feColorMatrix type="matrix" values="0 0 0 0 0 0 0 0 0 0 0 0 0 0 0 0 0 0 0.2 0"/>
<feBlend mode="normal" in2="effect2_innerShadow_467_983" result="effect3_innerShadow_467_983"/>
</filter>
<filter id="filter1_dii_467_983" x="179" y="71.2188" width="42" height="42" filterUnits="userSpaceOnUse" color-interpolation-filters="sRGB">
<feFlood flood-opacity="0" result="BackgroundImageFix"/>
<feColorMatrix in="SourceAlpha" type="matrix" values="0 0 0 0 0 0 0 0 0 0 0 0 0 0 0 0 0 0 127 0" result="hardAlpha"/>
<feOffset dx="1" dy="2"/>
<feGaussianBlur stdDeviation="7.5"/>
<feComposite in2="hardAlpha" operator="out"/>
<feColorMatrix type="matrix" values="0 0 0 0 0 0 0 0 0 0 0 0 0 0 0 0 0 0 0.1 0"/>
<feBlend mode="normal" in2="BackgroundImageFix" result="effect1_dropShadow_467_983"/>
<feBlend mode="normal" in="SourceGraphic" in2="effect1_dropShadow_467_983" result="shape"/>
<feColorMatrix in="SourceAlpha" type="matrix" values="0 0 0 0 0 0 0 0 0 0 0 0 0 0 0 0 0 0 127 0" result="hardAlpha"/>
<feOffset dx="5" dy="5"/>
<feGaussianBlur stdDeviation="5"/>
<feComposite in2="hardAlpha" operator="arithmetic" k2="-1" k3="1"/>
<feColorMatrix type="matrix" values="0 0 0 0 1 0 0 0 0 1 0 0 0 0 1 0 0 0 0.35 0"/>
<feBlend mode="normal" in2="shape" result="effect2_innerShadow_467_983"/>
<feColorMatrix in="SourceAlpha" type="matrix" values="0 0 0 0 0 0 0 0 0 0 0 0 0 0 0 0 0 0 127 0" result="hardAlpha"/>
<feOffset dx="-2" dy="-2"/>
<feGaussianBlur stdDeviation="7.5"/>
<feComposite in2="hardAlpha" operator="arithmetic" k2="-1" k3="1"/>
<feColorMatrix type="matrix" values="0 0 0 0 0 0 0 0 0 0 0 0 0 0 0 0 0 0 0.2 0"/>
<feBlend mode="normal" in2="effect2_innerShadow_467_983" result="effect3_innerShadow_467_983"/>
</filter>
<filter id="filter2_dii_467_983" x="179" y="100.219" width="42" height="42" filterUnits="userSpaceOnUse" color-interpolation-filters="sRGB">
<feFlood flood-opacity="0" result="BackgroundImageFix"/>
<feColorMatrix in="SourceAlpha" type="matrix" values="0 0 0 0 0 0 0 0 0 0 0 0 0 0 0 0 0 0 127 0" result="hardAlpha"/>
<feOffset dx="1" dy="2"/>
<feGaussianBlur stdDeviation="7.5"/>
<feComposite in2="hardAlpha" operator="out"/>
<feColorMatrix type="matrix" values="0 0 0 0 0 0 0 0 0 0 0 0 0 0 0 0 0 0 0.1 0"/>
<feBlend mode="normal" in2="BackgroundImageFix" result="effect1_dropShadow_467_983"/>
<feBlend mode="normal" in="SourceGraphic" in2="effect1_dropShadow_467_983" result="shape"/>
<feColorMatrix in="SourceAlpha" type="matrix" values="0 0 0 0 0 0 0 0 0 0 0 0 0 0 0 0 0 0 127 0" result="hardAlpha"/>
<feOffset dx="5" dy="5"/>
<feGaussianBlur stdDeviation="5"/>
<feComposite in2="hardAlpha" operator="arithmetic" k2="-1" k3="1"/>
<feColorMatrix type="matrix" values="0 0 0 0 1 0 0 0 0 1 0 0 0 0 1 0 0 0 0.35 0"/>
<feBlend mode="normal" in2="shape" result="effect2_innerShadow_467_983"/>
<feColorMatrix in="SourceAlpha" type="matrix" values="0 0 0 0 0 0 0 0 0 0 0 0 0 0 0 0 0 0 127 0" result="hardAlpha"/>
<feOffset dx="-2" dy="-2"/>
<feGaussianBlur stdDeviation="7.5"/>
<feComposite in2="hardAlpha" operator="arithmetic" k2="-1" k3="1"/>
<feColorMatrix type="matrix" values="0 0 0 0 0 0 0 0 0 0 0 0 0 0 0 0 0 0 0.2 0"/>
<feBlend mode="normal" in2="effect2_innerShadow_467_983" result="effect3_innerShadow_467_983"/>
</filter>
<filter id="filter3_dii_467_983" x="68.002" y="0.21875" width="116.998" height="133.001" filterUnits="userSpaceOnUse" color-interpolation-filters="sRGB">
<feFlood flood-opacity="0" result="BackgroundImageFix"/>
<feColorMatrix in="SourceAlpha" type="matrix" values="0 0 0 0 0 0 0 0 0 0 0 0 0 0 0 0 0 0 127 0" result="hardAlpha"/>
<feOffset dx="1" dy="2"/>
<feGaussianBlur stdDeviation="7.5"/>
<feComposite in2="hardAlpha" operator="out"/>
<feColorMatrix type="matrix" values="0 0 0 0 0 0 0 0 0 0 0 0 0 0 0 0 0 0 0.1 0"/>
<feBlend mode="normal" in2="BackgroundImageFix" result="effect1_dropShadow_467_983"/>
<feBlend mode="normal" in="SourceGraphic" in2="effect1_dropShadow_467_983" result="shape"/>
<feColorMatrix in="SourceAlpha" type="matrix" values="0 0 0 0 0 0 0 0 0 0 0 0 0 0 0 0 0 0 127 0" result="hardAlpha"/>
<feOffset dx="5" dy="5"/>
<feGaussianBlur stdDeviation="5"/>
<feComposite in2="hardAlpha" operator="arithmetic" k2="-1" k3="1"/>
<feColorMatrix type="matrix" values="0 0 0 0 1 0 0 0 0 1 0 0 0 0 1 0 0 0 0.35 0"/>
<feBlend mode="normal" in2="shape" result="effect2_innerShadow_467_983"/>
<feColorMatrix in="SourceAlpha" type="matrix" values="0 0 0 0 0 0 0 0 0 0 0 0 0 0 0 0 0 0 127 0" result="hardAlpha"/>
<feOffset dx="-2" dy="-2"/>
<feGaussianBlur stdDeviation="7.5"/>
<feComposite in2="hardAlpha" operator="arithmetic" k2="-1" k3="1"/>
<feColorMatrix type="matrix" values="0 0 0 0 0 0 0 0 0 0 0 0 0 0 0 0 0 0 0.2 0"/>
<feBlend mode="normal" in2="effect2_innerShadow_467_983" result="effect3_innerShadow_467_983"/>
</filter>
<filter id="filter4_dii_467_983" x="0" y="0.848145" width="116.23" height="184.371" filterUnits="userSpaceOnUse" color-interpolation-filters="sRGB">
<feFlood flood-opacity="0" result="BackgroundImageFix"/>
<feColorMatrix in="SourceAlpha" type="matrix" values="0 0 0 0 0 0 0 0 0 0 0 0 0 0 0 0 0 0 127 0" result="hardAlpha"/>
<feOffset dx="1" dy="2"/>
<feGaussianBlur stdDeviation="7.5"/>
<feComposite in2="hardAlpha" operator="out"/>
<feColorMatrix type="matrix" values="0 0 0 0 0 0 0 0 0 0 0 0 0 0 0 0 0 0 0.1 0"/>
<feBlend mode="normal" in2="BackgroundImageFix" result="effect1_dropShadow_467_983"/>
<feBlend mode="normal" in="SourceGraphic" in2="effect1_dropShadow_467_983" result="shape"/>
<feColorMatrix in="SourceAlpha" type="matrix" values="0 0 0 0 0 0 0 0 0 0 0 0 0 0 0 0 0 0 127 0" result="hardAlpha"/>
<feOffset dx="5" dy="5"/>
<feGaussianBlur stdDeviation="5"/>
<feComposite in2="hardAlpha" operator="arithmetic" k2="-1" k3="1"/>
<feColorMatrix type="matrix" values="0 0 0 0 1 0 0 0 0 1 0 0 0 0 1 0 0 0 0.35 0"/>
<feBlend mode="normal" in2="shape" result="effect2_innerShadow_467_983"/>
<feColorMatrix in="SourceAlpha" type="matrix" values="0 0 0 0 0 0 0 0 0 0 0 0 0 0 0 0 0 0 127 0" result="hardAlpha"/>
<feOffset dx="-2" dy="-2"/>
<feGaussianBlur stdDeviation="7.5"/>
<feComposite in2="hardAlpha" operator="arithmetic" k2="-1" k3="1"/>
<feColorMatrix type="matrix" values="0 0 0 0 0 0 0 0 0 0 0 0 0 0 0 0 0 0 0.2 0"/>
<feBlend mode="normal" in2="effect2_innerShadow_467_983" result="effect3_innerShadow_467_983"/>
</filter>
<filter id="filter5_dii_467_983" x="76.5" y="78.7188" width="102.305" height="105.686" filterUnits="userSpaceOnUse" color-interpolation-filters="sRGB">
<feFlood flood-opacity="0" result="BackgroundImageFix"/>
<feColorMatrix in="SourceAlpha" type="matrix" values="0 0 0 0 0 0 0 0 0 0 0 0 0 0 0 0 0 0 127 0" result="hardAlpha"/>
<feOffset dx="1" dy="2"/>
<feGaussianBlur stdDeviation="7.5"/>
<feComposite in2="hardAlpha" operator="out"/>
<feColorMatrix type="matrix" values="0 0 0 0 0 0 0 0 0 0 0 0 0 0 0 0 0 0 0.1 0"/>
<feBlend mode="normal" in2="BackgroundImageFix" result="effect1_dropShadow_467_983"/>
<feBlend mode="normal" in="SourceGraphic" in2="effect1_dropShadow_467_983" result="shape"/>
<feColorMatrix in="SourceAlpha" type="matrix" values="0 0 0 0 0 0 0 0 0 0 0 0 0 0 0 0 0 0 127 0" result="hardAlpha"/>
<feOffset dx="5" dy="5"/>
<feGaussianBlur stdDeviation="5"/>
<feComposite in2="hardAlpha" operator="arithmetic" k2="-1" k3="1"/>
<feColorMatrix type="matrix" values="0 0 0 0 1 0 0 0 0 1 0 0 0 0 1 0 0 0 0.35 0"/>
<feBlend mode="normal" in2="shape" result="effect2_innerShadow_467_983"/>
<feColorMatrix in="SourceAlpha" type="matrix" values="0 0 0 0 0 0 0 0 0 0 0 0 0 0 0 0 0 0 127 0" result="hardAlpha"/>
<feOffset dx="-2" dy="-2"/>
<feGaussianBlur stdDeviation="7.5"/>
<feComposite in2="hardAlpha" operator="arithmetic" k2="-1" k3="1"/>
<feColorMatrix type="matrix" values="0 0 0 0 0 0 0 0 0 0 0 0 0 0 0 0 0 0 0.2 0"/>
<feBlend mode="normal" in2="effect2_innerShadow_467_983" result="effect3_innerShadow_467_983"/>
</filter>
</defs>
</svg>
