<svg width="321" height="184" viewBox="0 0 321 184" fill="none" xmlns="http://www.w3.org/2000/svg">
<path d="M220.992 69.6587L217.216 76.0907V80.2188H215.936V76.0907L212.16 69.6587H213.68L215.728 73.2747L216.576 74.7787L217.424 73.2747L219.472 69.6587H220.992ZM224.832 80.3788C224.075 80.3788 223.397 80.2134 222.8 79.8827C222.213 79.5521 221.755 79.0774 221.424 78.4587C221.093 77.8294 220.928 77.0827 220.928 76.2188C220.928 75.3547 221.093 74.6134 221.424 73.9947C221.755 73.3654 222.208 72.8854 222.784 72.5547C223.36 72.2241 224.016 72.0587 224.752 72.0587C225.499 72.0587 226.133 72.2187 226.656 72.5387C227.189 72.8587 227.595 73.2961 227.872 73.8507C228.149 74.3947 228.288 75.0081 228.288 75.6907C228.288 75.8721 228.283 76.0374 228.272 76.1867C228.261 76.3361 228.245 76.4694 228.224 76.5867H221.76V75.4507H227.664L227.008 75.5787C227.008 74.8107 226.795 74.2187 226.368 73.8027C225.952 73.3867 225.403 73.1787 224.72 73.1787C224.197 73.1787 223.744 73.3014 223.36 73.5467C222.987 73.7814 222.693 74.1281 222.48 74.5867C222.277 75.0347 222.176 75.5787 222.176 76.2188C222.176 76.8481 222.283 77.3921 222.496 77.8507C222.709 78.3094 223.008 78.6614 223.392 78.9067C223.787 79.1414 224.256 79.2587 224.8 79.2587C225.387 79.2587 225.861 79.1467 226.224 78.9227C226.597 78.6987 226.896 78.3947 227.12 78.0107L228.128 78.6027C227.925 78.9654 227.664 79.2801 227.344 79.5467C227.035 79.8134 226.667 80.0214 226.24 80.1707C225.824 80.3094 225.355 80.3788 224.832 80.3788ZM233.602 80.3788C232.824 80.3788 232.104 80.2134 231.442 79.8827C230.792 79.5521 230.29 79.0827 229.938 78.4747L231.026 77.6907C231.261 78.1814 231.602 78.5654 232.05 78.8427C232.509 79.1201 233.058 79.2587 233.698 79.2587C234.264 79.2587 234.706 79.1521 235.026 78.9387C235.346 78.7147 235.506 78.4267 235.506 78.0747C235.506 77.8507 235.432 77.6481 235.282 77.4667C235.144 77.2747 234.872 77.1361 234.466 77.0507L232.546 76.6507C231.768 76.4907 231.208 76.2241 230.866 75.8507C230.536 75.4774 230.37 75.0134 230.37 74.4587C230.37 74.0214 230.493 73.6214 230.738 73.2587C230.994 72.8961 231.352 72.6081 231.81 72.3947C232.28 72.1707 232.829 72.0587 233.458 72.0587C234.248 72.0587 234.914 72.2134 235.458 72.5227C236.002 72.8321 236.408 73.2694 236.674 73.8347L235.602 74.5387C235.421 74.0694 235.128 73.7281 234.722 73.5147C234.317 73.2907 233.896 73.1787 233.458 73.1787C233.074 73.1787 232.744 73.2321 232.466 73.3387C232.2 73.4454 231.992 73.5947 231.842 73.7867C231.704 73.9681 231.634 74.1761 231.634 74.4107C231.634 74.6454 231.714 74.8641 231.874 75.0667C232.034 75.2587 232.333 75.3974 232.77 75.4827L234.77 75.8987C235.517 76.0481 236.04 76.2934 236.338 76.6347C236.637 76.9761 236.786 77.3921 236.786 77.8827C236.786 78.3841 236.653 78.8267 236.386 79.2107C236.12 79.5841 235.746 79.8721 235.266 80.0747C234.786 80.2774 234.232 80.3788 233.602 80.3788ZM239.8 78.2987C240.056 78.2987 240.269 78.3681 240.44 78.5067C240.621 78.6347 240.76 78.8161 240.856 79.0507C240.952 79.2747 241 79.5414 241 79.8507C241 80.2027 240.936 80.5494 240.808 80.8908C240.691 81.2321 240.504 81.5468 240.248 81.8348C239.992 82.1228 239.661 82.3628 239.256 82.5548L238.584 81.9308C238.872 81.8348 239.123 81.7014 239.336 81.5308C239.56 81.3601 239.741 81.1681 239.88 80.9548C240.019 80.7414 240.109 80.5228 240.152 80.2988L240.088 80.2668C240.045 80.2988 239.992 80.3254 239.928 80.3468C239.864 80.3681 239.768 80.3788 239.64 80.3788C239.512 80.3788 239.379 80.3414 239.24 80.2668C239.112 80.1921 239 80.0854 238.904 79.9467C238.808 79.7974 238.76 79.6054 238.76 79.3707C238.76 79.1787 238.808 79.0027 238.904 78.8427C239 78.6721 239.123 78.5387 239.272 78.4427C239.432 78.3467 239.608 78.2987 239.8 78.2987ZM250.383 69.6587V80.2188H249.103V69.6587H250.383ZM259.051 80.2188V68.5387H260.331V73.4187C260.608 72.9387 260.976 72.5921 261.435 72.3787C261.893 72.1654 262.395 72.0587 262.939 72.0587C263.515 72.0587 264.037 72.1707 264.507 72.3947C264.976 72.6081 265.349 72.9387 265.627 73.3867C265.915 73.8347 266.059 74.4054 266.059 75.0987V80.2188H264.779V75.5467C264.779 74.6614 264.587 74.0481 264.203 73.7067C263.829 73.3547 263.365 73.1787 262.811 73.1787C262.427 73.1787 262.043 73.2694 261.659 73.4507C261.275 73.6321 260.955 73.9307 260.699 74.3467C260.453 74.7521 260.331 75.2961 260.331 75.9787V80.2188H259.051ZM273.629 75.0507C273.629 74.4534 273.469 73.9947 273.149 73.6747C272.829 73.3441 272.375 73.1787 271.789 73.1787C271.234 73.1787 270.765 73.3014 270.381 73.5467C269.997 73.7814 269.714 74.1654 269.533 74.6987L268.493 74.0587C268.706 73.4614 269.101 72.9814 269.677 72.6187C270.253 72.2454 270.967 72.0587 271.821 72.0587C272.397 72.0587 272.919 72.1601 273.389 72.3627C273.858 72.5547 274.226 72.8534 274.493 73.2587C274.77 73.6534 274.909 74.1654 274.909 74.7947V78.6667C274.909 79.0507 275.111 79.2427 275.517 79.2427C275.719 79.2427 275.917 79.2161 276.109 79.1628L276.045 80.1707C275.831 80.2774 275.554 80.3308 275.213 80.3308C274.903 80.3308 274.626 80.2721 274.381 80.1547C274.135 80.0374 273.943 79.8614 273.805 79.6267C273.666 79.3814 273.597 79.0774 273.597 78.7147V78.5547L273.917 78.6027C273.789 79.0187 273.57 79.3601 273.261 79.6267C272.951 79.8827 272.605 80.0747 272.221 80.2027C271.837 80.3201 271.458 80.3788 271.085 80.3788C270.615 80.3788 270.178 80.2988 269.773 80.1387C269.367 79.9787 269.042 79.7387 268.797 79.4187C268.562 79.0881 268.445 78.6827 268.445 78.2027C268.445 77.6054 268.642 77.1147 269.037 76.7307C269.442 76.3361 270.002 76.0694 270.717 75.9307L273.885 75.3067V76.3627L271.309 76.8907C270.786 76.9974 270.397 77.1467 270.141 77.3387C269.885 77.5307 269.757 77.7974 269.757 78.1387C269.757 78.4694 269.885 78.7414 270.141 78.9547C270.407 79.1574 270.781 79.2587 271.261 79.2587C271.57 79.2587 271.863 79.2214 272.141 79.1467C272.429 79.0614 272.685 78.9387 272.909 78.7787C273.133 78.6081 273.309 78.4001 273.437 78.1547C273.565 77.8987 273.629 77.6001 273.629 77.2587V75.0507ZM283.05 72.2188H284.394L281.066 80.2188H279.786L276.458 72.2188H277.914L280.442 78.9227L283.05 72.2188ZM289.41 80.3788C288.653 80.3788 287.975 80.2134 287.378 79.8827C286.791 79.5521 286.333 79.0774 286.002 78.4587C285.671 77.8294 285.506 77.0827 285.506 76.2188C285.506 75.3547 285.671 74.6134 286.002 73.9947C286.333 73.3654 286.786 72.8854 287.362 72.5547C287.938 72.2241 288.594 72.0587 289.33 72.0587C290.077 72.0587 290.711 72.2187 291.234 72.5387C291.767 72.8587 292.173 73.2961 292.45 73.8507C292.727 74.3947 292.866 75.0081 292.866 75.6907C292.866 75.8721 292.861 76.0374 292.85 76.1867C292.839 76.3361 292.823 76.4694 292.802 76.5867H286.338V75.4507H292.242L291.586 75.5787C291.586 74.8107 291.373 74.2187 290.946 73.8027C290.53 73.3867 289.981 73.1787 289.298 73.1787C288.775 73.1787 288.322 73.3014 287.938 73.5467C287.565 73.7814 287.271 74.1281 287.058 74.5867C286.855 75.0347 286.754 75.5787 286.754 76.2188C286.754 76.8481 286.861 77.3921 287.074 77.8507C287.287 78.3094 287.586 78.6614 287.97 78.9067C288.365 79.1414 288.834 79.2587 289.378 79.2587C289.965 79.2587 290.439 79.1467 290.802 78.9227C291.175 78.6987 291.474 78.3947 291.698 78.0107L292.706 78.6027C292.503 78.9654 292.242 79.2801 291.922 79.5467C291.613 79.8134 291.245 80.0214 290.818 80.1707C290.402 80.3094 289.933 80.3788 289.41 80.3788Z" fill="#454545"/>
<g filter="url(#filter0_dii_467_1024)">
<circle cx="199" cy="75.2188" r="6" fill="#00BFA1"/>
</g>
<path d="M222.016 98.6587V109.219H220.432L216.016 102.147L214.896 100.163H214.88L214.944 101.763V109.219H213.728V98.6587H215.312L219.712 105.699L220.848 107.731H220.864L220.8 106.115V98.6587H222.016ZM228.425 101.059C229.182 101.059 229.849 101.224 230.425 101.555C231.012 101.885 231.47 102.365 231.801 102.995C232.132 103.613 232.297 104.355 232.297 105.219C232.297 106.083 232.132 106.829 231.801 107.459C231.47 108.077 231.012 108.552 230.425 108.883C229.849 109.213 229.182 109.379 228.425 109.379C227.678 109.379 227.012 109.213 226.425 108.883C225.838 108.552 225.38 108.077 225.049 107.459C224.718 106.829 224.553 106.083 224.553 105.219C224.553 104.355 224.718 103.613 225.049 102.995C225.38 102.365 225.838 101.885 226.425 101.555C227.012 101.224 227.678 101.059 228.425 101.059ZM228.425 102.163C227.881 102.163 227.417 102.285 227.033 102.531C226.649 102.776 226.35 103.128 226.137 103.587C225.934 104.035 225.833 104.579 225.833 105.219C225.833 105.848 225.934 106.392 226.137 106.851C226.35 107.309 226.649 107.661 227.033 107.907C227.417 108.152 227.881 108.275 228.425 108.275C228.969 108.275 229.433 108.152 229.817 107.907C230.201 107.661 230.494 107.309 230.697 106.851C230.91 106.392 231.017 105.848 231.017 105.219C231.017 104.579 230.91 104.035 230.697 103.587C230.494 103.128 230.201 102.776 229.817 102.531C229.433 102.285 228.969 102.163 228.425 102.163ZM235.034 107.299C235.29 107.299 235.504 107.368 235.674 107.507C235.856 107.635 235.994 107.816 236.09 108.051C236.186 108.275 236.234 108.541 236.234 108.851C236.234 109.203 236.17 109.549 236.042 109.891C235.925 110.232 235.738 110.547 235.482 110.835C235.226 111.123 234.896 111.363 234.49 111.555L233.818 110.931C234.106 110.835 234.357 110.701 234.57 110.531C234.794 110.36 234.976 110.168 235.114 109.955C235.253 109.741 235.344 109.523 235.386 109.299L235.322 109.267C235.28 109.299 235.226 109.325 235.162 109.347C235.098 109.368 235.002 109.379 234.874 109.379C234.746 109.379 234.613 109.341 234.474 109.267C234.346 109.192 234.234 109.085 234.138 108.947C234.042 108.797 233.994 108.605 233.994 108.371C233.994 108.179 234.042 108.003 234.138 107.843C234.234 107.672 234.357 107.539 234.506 107.443C234.666 107.347 234.842 107.299 235.034 107.299ZM245.617 98.6587V109.219H244.337V98.6587H245.617ZM254.285 109.219V97.5387H255.565V102.419C255.842 101.939 256.21 101.592 256.669 101.379C257.128 101.165 257.629 101.059 258.173 101.059C258.749 101.059 259.272 101.171 259.741 101.395C260.21 101.608 260.584 101.939 260.861 102.387C261.149 102.835 261.293 103.405 261.293 104.099V109.219H260.013V104.547C260.013 103.661 259.821 103.048 259.437 102.707C259.064 102.355 258.6 102.179 258.045 102.179C257.661 102.179 257.277 102.269 256.893 102.451C256.509 102.632 256.189 102.931 255.933 103.347C255.688 103.752 255.565 104.296 255.565 104.979V109.219H254.285ZM268.863 104.051C268.863 103.453 268.703 102.995 268.383 102.675C268.063 102.344 267.61 102.179 267.023 102.179C266.468 102.179 265.999 102.301 265.615 102.547C265.231 102.781 264.948 103.165 264.767 103.699L263.727 103.059C263.94 102.461 264.335 101.981 264.911 101.619C265.487 101.245 266.202 101.059 267.055 101.059C267.631 101.059 268.154 101.16 268.623 101.363C269.092 101.555 269.46 101.853 269.727 102.259C270.004 102.653 270.143 103.165 270.143 103.795V107.667C270.143 108.051 270.346 108.243 270.751 108.243C270.954 108.243 271.151 108.216 271.343 108.163L271.279 109.171C271.066 109.277 270.788 109.331 270.447 109.331C270.138 109.331 269.86 109.272 269.615 109.155C269.37 109.037 269.178 108.861 269.039 108.627C268.9 108.381 268.831 108.077 268.831 107.715V107.555L269.151 107.603C269.023 108.019 268.804 108.36 268.495 108.627C268.186 108.883 267.839 109.075 267.455 109.203C267.071 109.32 266.692 109.379 266.319 109.379C265.85 109.379 265.412 109.299 265.007 109.139C264.602 108.979 264.276 108.739 264.031 108.419C263.796 108.088 263.679 107.683 263.679 107.203C263.679 106.605 263.876 106.115 264.271 105.731C264.676 105.336 265.236 105.069 265.951 104.931L269.119 104.307V105.363L266.543 105.891C266.02 105.997 265.631 106.147 265.375 106.339C265.119 106.531 264.991 106.797 264.991 107.139C264.991 107.469 265.119 107.741 265.375 107.955C265.642 108.157 266.015 108.259 266.495 108.259C266.804 108.259 267.098 108.221 267.375 108.147C267.663 108.061 267.919 107.939 268.143 107.779C268.367 107.608 268.543 107.4 268.671 107.155C268.799 106.899 268.863 106.6 268.863 106.259V104.051ZM278.284 101.219H279.628L276.3 109.219H275.02L271.692 101.219H273.148L275.676 107.923L278.284 101.219ZM284.645 109.379C283.887 109.379 283.21 109.213 282.613 108.883C282.026 108.552 281.567 108.077 281.237 107.459C280.906 106.829 280.741 106.083 280.741 105.219C280.741 104.355 280.906 103.613 281.237 102.995C281.567 102.365 282.021 101.885 282.597 101.555C283.173 101.224 283.829 101.059 284.565 101.059C285.311 101.059 285.946 101.219 286.469 101.539C287.002 101.859 287.407 102.296 287.685 102.851C287.962 103.395 288.101 104.008 288.101 104.691C288.101 104.872 288.095 105.037 288.085 105.187C288.074 105.336 288.058 105.469 288.036 105.587H281.573V104.451H287.477L286.821 104.579C286.821 103.811 286.607 103.219 286.181 102.803C285.765 102.387 285.215 102.179 284.533 102.179C284.01 102.179 283.557 102.301 283.173 102.547C282.799 102.781 282.506 103.128 282.293 103.587C282.09 104.035 281.989 104.579 281.989 105.219C281.989 105.848 282.095 106.392 282.309 106.851C282.522 107.309 282.821 107.661 283.205 107.907C283.599 108.141 284.069 108.259 284.613 108.259C285.199 108.259 285.674 108.147 286.037 107.923C286.41 107.699 286.709 107.395 286.933 107.011L287.941 107.603C287.738 107.965 287.477 108.28 287.157 108.547C286.847 108.813 286.479 109.021 286.053 109.171C285.637 109.309 285.167 109.379 284.645 109.379ZM295.988 109.219V101.219H297.108L297.22 103.011L297.012 102.835C297.183 102.408 297.412 102.067 297.7 101.811C297.988 101.544 298.319 101.352 298.692 101.235C299.076 101.117 299.471 101.059 299.876 101.059C300.452 101.059 300.975 101.171 301.444 101.395C301.913 101.608 302.287 101.939 302.564 102.387C302.852 102.835 302.996 103.405 302.996 104.099V109.219H301.716V104.547C301.716 103.661 301.524 103.048 301.14 102.707C300.767 102.355 300.303 102.179 299.748 102.179C299.364 102.179 298.98 102.269 298.596 102.451C298.212 102.632 297.892 102.925 297.636 103.331C297.391 103.736 297.268 104.28 297.268 104.963V109.219H295.988ZM309.206 101.059C309.964 101.059 310.63 101.224 311.206 101.555C311.793 101.885 312.252 102.365 312.582 102.995C312.913 103.613 313.078 104.355 313.078 105.219C313.078 106.083 312.913 106.829 312.582 107.459C312.252 108.077 311.793 108.552 311.206 108.883C310.63 109.213 309.964 109.379 309.206 109.379C308.46 109.379 307.793 109.213 307.206 108.883C306.62 108.552 306.161 108.077 305.83 107.459C305.5 106.829 305.334 106.083 305.334 105.219C305.334 104.355 305.5 103.613 305.83 102.995C306.161 102.365 306.62 101.885 307.206 101.555C307.793 101.224 308.46 101.059 309.206 101.059ZM309.206 102.163C308.662 102.163 308.198 102.285 307.814 102.531C307.43 102.776 307.132 103.128 306.918 103.587C306.716 104.035 306.614 104.579 306.614 105.219C306.614 105.848 306.716 106.392 306.918 106.851C307.132 107.309 307.43 107.661 307.814 107.907C308.198 108.152 308.662 108.275 309.206 108.275C309.75 108.275 310.214 108.152 310.598 107.907C310.982 107.661 311.276 107.309 311.478 106.851C311.692 106.392 311.798 105.848 311.798 105.219C311.798 104.579 311.692 104.035 311.478 103.587C311.276 103.128 310.982 102.776 310.598 102.531C310.214 102.285 309.75 102.163 309.206 102.163ZM317.235 98.9467V107.011C317.235 107.405 317.347 107.699 317.571 107.891C317.795 108.083 318.083 108.179 318.435 108.179C318.745 108.179 319.011 108.125 319.235 108.019C319.459 107.912 319.662 107.768 319.843 107.587L320.291 108.659C320.046 108.883 319.753 109.059 319.411 109.187C319.081 109.315 318.697 109.379 318.259 109.379C317.854 109.379 317.475 109.309 317.123 109.171C316.771 109.021 316.489 108.792 316.275 108.483C316.073 108.163 315.966 107.747 315.955 107.235V99.2987L317.235 98.9467ZM320.147 101.219V102.323H314.355V101.219H320.147Z" fill="#454545"/>
<g filter="url(#filter1_dii_467_1024)">
<circle cx="199" cy="104.219" r="6" fill="#FF9900"/>
</g>
<g filter="url(#filter2_dii_467_1024)">
<path d="M90.5 13.2188C77.0285 13.2187 63.7959 16.7761 52.1405 23.5312C40.485 30.2862 30.82 39.9993 24.1229 51.6881C17.4258 63.377 13.9341 76.6271 14.0009 90.0984C14.0678 103.57 17.6908 116.784 24.5036 128.406L90.5 89.7188V13.2188Z" fill="#FF9900"/>
</g>
<g filter="url(#filter3_dii_467_1024)">
<path d="M92.5 13.2188C105.848 13.2187 118.963 16.7112 130.543 23.349C142.124 29.9869 151.766 39.5391 158.511 51.0568C165.257 62.5746 168.872 75.6568 168.997 89.004C169.121 102.351 165.752 115.499 159.222 127.14C152.693 138.782 143.231 148.513 131.777 155.366C120.323 162.219 107.275 165.956 93.9294 166.205C80.584 166.455 67.4055 163.208 55.7033 156.788C44.001 150.367 34.1823 140.997 27.2225 129.607L92.5 89.7188V13.2188Z" fill="#00BFA1"/>
</g>
<path d="M105.12 105.219V103.971C106.133 103.245 106.981 102.605 107.664 102.051C108.357 101.496 108.912 100.984 109.328 100.515C109.744 100.045 110.043 99.6027 110.224 99.1867C110.416 98.7601 110.512 98.3281 110.512 97.8907C110.512 97.3254 110.336 96.8667 109.984 96.5147C109.632 96.1627 109.141 95.9867 108.512 95.9867C107.851 95.9867 107.323 96.2107 106.928 96.6587C106.544 97.0961 106.325 97.6987 106.272 98.4667L104.784 97.7787C104.859 97.1067 105.056 96.5254 105.376 96.0347C105.696 95.5441 106.128 95.1654 106.672 94.8987C107.227 94.6321 107.867 94.4987 108.592 94.4987C109.189 94.4987 109.712 94.5841 110.16 94.7547C110.619 94.9254 111.003 95.1654 111.312 95.4747C111.621 95.7734 111.856 96.1254 112.016 96.5307C112.187 96.9361 112.272 97.3681 112.272 97.8267C112.272 98.4987 112.107 99.1494 111.776 99.7787C111.445 100.397 110.923 101.032 110.208 101.683C109.493 102.333 108.555 103.032 107.392 103.779V103.811C107.52 103.789 107.696 103.779 107.92 103.779C108.144 103.768 108.368 103.763 108.592 103.763C108.816 103.752 108.997 103.747 109.136 103.747H112.464V105.219H105.12ZM113.702 94.6587H121.75V96.0827C120.864 97.0001 120.15 97.9441 119.606 98.9147C119.062 99.8747 118.667 100.877 118.422 101.923C118.187 102.957 118.07 104.056 118.07 105.219H116.342C116.342 104.045 116.486 102.904 116.774 101.795C117.072 100.675 117.52 99.6081 118.118 98.5947C118.726 97.5707 119.488 96.6107 120.406 95.7147L120.726 96.1467H113.702V94.6587ZM126.962 105.379C125.692 105.379 124.695 104.92 123.97 104.003C123.255 103.075 122.898 101.72 122.898 99.9387C122.898 98.1574 123.255 96.8081 123.97 95.8907C124.695 94.9627 125.692 94.4987 126.962 94.4987C128.242 94.4987 129.239 94.9627 129.954 95.8907C130.679 96.8081 131.042 98.1574 131.042 99.9387C131.042 101.72 130.679 103.075 129.954 104.003C129.239 104.92 128.242 105.379 126.962 105.379ZM126.962 103.923C127.474 103.923 127.9 103.779 128.242 103.491C128.594 103.192 128.855 102.749 129.026 102.163C129.207 101.565 129.298 100.824 129.298 99.9387C129.298 99.0534 129.207 98.3174 129.026 97.7307C128.855 97.1334 128.594 96.6907 128.242 96.4028C127.9 96.1041 127.474 95.9547 126.962 95.9547C126.45 95.9547 126.018 96.1041 125.666 96.4028C125.324 96.6907 125.068 97.1334 124.898 97.7307C124.727 98.3174 124.642 99.0534 124.642 99.9387C124.642 100.824 124.727 101.565 124.898 102.163C125.068 102.749 125.324 103.192 125.666 103.491C126.018 103.779 126.45 103.923 126.962 103.923ZM134.832 105.219L141.744 94.6587H143.216L136.32 105.219H134.832ZM135.248 94.4987C135.792 94.4987 136.262 94.6214 136.656 94.8667C137.062 95.1121 137.371 95.4534 137.584 95.8907C137.808 96.3281 137.92 96.8454 137.92 97.4427C137.92 98.0294 137.808 98.5467 137.584 98.9947C137.371 99.4321 137.062 99.7734 136.656 100.019C136.262 100.264 135.792 100.387 135.248 100.387C134.715 100.387 134.246 100.264 133.84 100.019C133.435 99.7734 133.12 99.4321 132.896 98.9947C132.683 98.5467 132.576 98.0294 132.576 97.4427C132.576 96.8454 132.683 96.3281 132.896 95.8907C133.12 95.4534 133.435 95.1121 133.84 94.8667C134.246 94.6214 134.715 94.4987 135.248 94.4987ZM135.248 95.7467C134.982 95.7467 134.752 95.8161 134.56 95.9547C134.368 96.0827 134.224 96.2747 134.128 96.5307C134.032 96.7761 133.984 97.0801 133.984 97.4427C133.984 97.7947 134.032 98.0987 134.128 98.3547C134.224 98.6107 134.368 98.8027 134.56 98.9307C134.752 99.0587 134.982 99.1227 135.248 99.1227C135.526 99.1227 135.76 99.0587 135.952 98.9307C136.144 98.8027 136.288 98.6107 136.384 98.3547C136.48 98.0987 136.528 97.7947 136.528 97.4427C136.528 97.0801 136.48 96.7761 136.384 96.5307C136.288 96.2747 136.144 96.0827 135.952 95.9547C135.76 95.8161 135.526 95.7467 135.248 95.7467ZM142.8 99.4907C143.344 99.4907 143.814 99.6134 144.208 99.8587C144.614 100.104 144.923 100.451 145.136 100.899C145.36 101.336 145.472 101.848 145.472 102.435C145.472 103.032 145.36 103.549 145.136 103.987C144.923 104.424 144.614 104.765 144.208 105.011C143.814 105.256 143.344 105.379 142.8 105.379C142.267 105.379 141.798 105.256 141.392 105.011C140.987 104.765 140.672 104.424 140.448 103.987C140.235 103.549 140.128 103.032 140.128 102.435C140.128 101.848 140.235 101.336 140.448 100.899C140.672 100.451 140.987 100.104 141.392 99.8587C141.798 99.6134 142.267 99.4907 142.8 99.4907ZM142.8 100.755C142.534 100.755 142.304 100.819 142.112 100.947C141.92 101.075 141.776 101.267 141.68 101.523C141.584 101.768 141.536 102.072 141.536 102.435C141.536 102.787 141.584 103.091 141.68 103.347C141.776 103.603 141.92 103.8 142.112 103.939C142.304 104.067 142.534 104.131 142.8 104.131C143.078 104.131 143.312 104.067 143.504 103.939C143.696 103.8 143.84 103.603 143.936 103.347C144.032 103.091 144.08 102.787 144.08 102.435C144.08 102.083 144.032 101.779 143.936 101.523C143.84 101.267 143.696 101.075 143.504 100.947C143.312 100.819 143.078 100.755 142.8 100.755Z" fill="white"/>
<path d="M42.736 65.4987C43.6427 65.4987 44.4053 65.7227 45.024 66.1707C45.6533 66.6187 46.1227 67.2481 46.432 68.0587C46.752 68.8694 46.912 69.8241 46.912 70.9227C46.912 72.1387 46.7467 73.1521 46.416 73.9627C46.0853 74.7627 45.6107 75.3654 44.992 75.7707C44.3733 76.1761 43.6267 76.3788 42.752 76.3788C41.856 76.3788 41.088 76.1814 40.448 75.7867C39.808 75.3921 39.328 74.8001 39.008 74.0107L40.624 73.2587C40.7733 73.7601 41.0187 74.1601 41.36 74.4587C41.712 74.7574 42.1867 74.9067 42.784 74.9067C43.2747 74.9067 43.6853 74.8107 44.016 74.6187C44.3467 74.4267 44.608 74.1494 44.8 73.7867C45.0027 73.4241 45.1467 72.9867 45.232 72.4747C45.3173 71.9627 45.36 71.3867 45.36 70.7467C45.36 70.7147 45.36 70.6881 45.36 70.6667C45.36 70.6347 45.36 70.6027 45.36 70.5707H45.296C45.1787 70.9974 44.9653 71.3441 44.656 71.6107C44.3573 71.8774 44.016 72.0747 43.632 72.2027C43.248 72.3201 42.864 72.3787 42.48 72.3787C41.7973 72.3787 41.1893 72.2454 40.656 71.9787C40.1333 71.7014 39.7227 71.3174 39.424 70.8267C39.1253 70.3361 38.976 69.7547 38.976 69.0827C38.976 68.3467 39.1253 67.7121 39.424 67.1788C39.7333 66.6454 40.1653 66.2347 40.72 65.9467C41.2853 65.6481 41.9573 65.4987 42.736 65.4987ZM42.752 67.0027C42.08 67.0027 41.5627 67.1841 41.2 67.5467C40.848 67.9094 40.672 68.4161 40.672 69.0667C40.672 69.6427 40.8587 70.0961 41.232 70.4267C41.616 70.7467 42.1227 70.9067 42.752 70.9067C43.1573 70.9067 43.5147 70.8267 43.824 70.6667C44.1333 70.4961 44.3733 70.2667 44.544 69.9787C44.7253 69.6907 44.816 69.3547 44.816 68.9707C44.816 68.5654 44.7253 68.2187 44.544 67.9307C44.3733 67.6321 44.1333 67.4027 43.824 67.2427C43.5147 67.0827 43.1573 67.0027 42.752 67.0027ZM52.899 76.3788C51.6297 76.3788 50.6323 75.9201 49.907 75.0027C49.1923 74.0747 48.835 72.7201 48.835 70.9387C48.835 69.1574 49.1923 67.8081 49.907 66.8907C50.6323 65.9627 51.6297 65.4987 52.899 65.4987C54.179 65.4987 55.1763 65.9627 55.891 66.8907C56.6163 67.8081 56.979 69.1574 56.979 70.9387C56.979 72.7201 56.6163 74.0747 55.891 75.0027C55.1763 75.9201 54.179 76.3788 52.899 76.3788ZM52.899 74.9227C53.411 74.9227 53.8377 74.7787 54.179 74.4907C54.531 74.1921 54.7923 73.7494 54.963 73.1627C55.1443 72.5654 55.235 71.8241 55.235 70.9387C55.235 70.0534 55.1443 69.3174 54.963 68.7307C54.7923 68.1334 54.531 67.6907 54.179 67.4028C53.8377 67.1041 53.411 66.9547 52.899 66.9547C52.387 66.9547 51.955 67.1041 51.603 67.4028C51.2617 67.6907 51.0057 68.1334 50.835 68.7307C50.6643 69.3174 50.579 70.0534 50.579 70.9387C50.579 71.8241 50.6643 72.5654 50.835 73.1627C51.0057 73.7494 51.2617 74.1921 51.603 74.4907C51.955 74.7787 52.387 74.9227 52.899 74.9227ZM60.7699 76.2188L67.6819 65.6587H69.1539L62.2579 76.2188H60.7699ZM61.1859 65.4987C61.7299 65.4987 62.1992 65.6214 62.5939 65.8667C62.9992 66.1121 63.3085 66.4534 63.5219 66.8907C63.7459 67.3281 63.8579 67.8454 63.8579 68.4427C63.8579 69.0294 63.7459 69.5467 63.5219 69.9947C63.3085 70.4321 62.9992 70.7734 62.5939 71.0187C62.1992 71.2641 61.7299 71.3867 61.1859 71.3867C60.6525 71.3867 60.1832 71.2641 59.7779 71.0187C59.3725 70.7734 59.0579 70.4321 58.8339 69.9947C58.6205 69.5467 58.5139 69.0294 58.5139 68.4427C58.5139 67.8454 58.6205 67.3281 58.8339 66.8907C59.0579 66.4534 59.3725 66.1121 59.7779 65.8667C60.1832 65.6214 60.6525 65.4987 61.1859 65.4987ZM61.1859 66.7467C60.9192 66.7467 60.6899 66.8161 60.4979 66.9547C60.3059 67.0827 60.1619 67.2747 60.0659 67.5307C59.9699 67.7761 59.9219 68.0801 59.9219 68.4427C59.9219 68.7947 59.9699 69.0987 60.0659 69.3547C60.1619 69.6107 60.3059 69.8027 60.4979 69.9307C60.6899 70.0587 60.9192 70.1227 61.1859 70.1227C61.4632 70.1227 61.6979 70.0587 61.8899 69.9307C62.0819 69.8027 62.2259 69.6107 62.3219 69.3547C62.4179 69.0987 62.4659 68.7947 62.4659 68.4427C62.4659 68.0801 62.4179 67.7761 62.3219 67.5307C62.2259 67.2747 62.0819 67.0827 61.8899 66.9547C61.6979 66.8161 61.4632 66.7467 61.1859 66.7467ZM68.7379 70.4907C69.2819 70.4907 69.7512 70.6134 70.1459 70.8587C70.5512 71.1041 70.8605 71.4507 71.0739 71.8987C71.2979 72.3361 71.4099 72.8481 71.4099 73.4347C71.4099 74.0321 71.2979 74.5494 71.0739 74.9867C70.8605 75.4241 70.5512 75.7654 70.1459 76.0107C69.7512 76.2561 69.2819 76.3788 68.7379 76.3788C68.2045 76.3788 67.7352 76.2561 67.3299 76.0107C66.9245 75.7654 66.6099 75.4241 66.3859 74.9867C66.1725 74.5494 66.0659 74.0321 66.0659 73.4347C66.0659 72.8481 66.1725 72.3361 66.3859 71.8987C66.6099 71.4507 66.9245 71.1041 67.3299 70.8587C67.7352 70.6134 68.2045 70.4907 68.7379 70.4907ZM68.7379 71.7547C68.4712 71.7547 68.2419 71.8187 68.0499 71.9467C67.8579 72.0747 67.7139 72.2667 67.6179 72.5227C67.5219 72.7681 67.4739 73.0721 67.4739 73.4347C67.4739 73.7867 67.5219 74.0907 67.6179 74.3467C67.7139 74.6027 67.8579 74.8001 68.0499 74.9387C68.2419 75.0667 68.4712 75.1307 68.7379 75.1307C69.0152 75.1307 69.2499 75.0667 69.4419 74.9387C69.6339 74.8001 69.7779 74.6027 69.8739 74.3467C69.9699 74.0907 70.0179 73.7867 70.0179 73.4347C70.0179 73.0827 69.9699 72.7787 69.8739 72.5227C69.7779 72.2667 69.6339 72.0747 69.4419 71.9467C69.2499 71.8187 69.0152 71.7547 68.7379 71.7547Z" fill="white"/>
<defs>
<filter id="filter0_dii_467_1024" x="179" y="56.2188" width="42" height="42" filterUnits="userSpaceOnUse" color-interpolation-filters="sRGB">
<feFlood flood-opacity="0" result="BackgroundImageFix"/>
<feColorMatrix in="SourceAlpha" type="matrix" values="0 0 0 0 0 0 0 0 0 0 0 0 0 0 0 0 0 0 127 0" result="hardAlpha"/>
<feOffset dx="1" dy="2"/>
<feGaussianBlur stdDeviation="7.5"/>
<feComposite in2="hardAlpha" operator="out"/>
<feColorMatrix type="matrix" values="0 0 0 0 0 0 0 0 0 0 0 0 0 0 0 0 0 0 0.1 0"/>
<feBlend mode="normal" in2="BackgroundImageFix" result="effect1_dropShadow_467_1024"/>
<feBlend mode="normal" in="SourceGraphic" in2="effect1_dropShadow_467_1024" result="shape"/>
<feColorMatrix in="SourceAlpha" type="matrix" values="0 0 0 0 0 0 0 0 0 0 0 0 0 0 0 0 0 0 127 0" result="hardAlpha"/>
<feOffset dx="5" dy="5"/>
<feGaussianBlur stdDeviation="5"/>
<feComposite in2="hardAlpha" operator="arithmetic" k2="-1" k3="1"/>
<feColorMatrix type="matrix" values="0 0 0 0 1 0 0 0 0 1 0 0 0 0 1 0 0 0 0.35 0"/>
<feBlend mode="normal" in2="shape" result="effect2_innerShadow_467_1024"/>
<feColorMatrix in="SourceAlpha" type="matrix" values="0 0 0 0 0 0 0 0 0 0 0 0 0 0 0 0 0 0 127 0" result="hardAlpha"/>
<feOffset dx="-2" dy="-2"/>
<feGaussianBlur stdDeviation="7.5"/>
<feComposite in2="hardAlpha" operator="arithmetic" k2="-1" k3="1"/>
<feColorMatrix type="matrix" values="0 0 0 0 0 0 0 0 0 0 0 0 0 0 0 0 0 0 0.2 0"/>
<feBlend mode="normal" in2="effect2_innerShadow_467_1024" result="effect3_innerShadow_467_1024"/>
</filter>
<filter id="filter1_dii_467_1024" x="179" y="85.2188" width="42" height="42" filterUnits="userSpaceOnUse" color-interpolation-filters="sRGB">
<feFlood flood-opacity="0" result="BackgroundImageFix"/>
<feColorMatrix in="SourceAlpha" type="matrix" values="0 0 0 0 0 0 0 0 0 0 0 0 0 0 0 0 0 0 127 0" result="hardAlpha"/>
<feOffset dx="1" dy="2"/>
<feGaussianBlur stdDeviation="7.5"/>
<feComposite in2="hardAlpha" operator="out"/>
<feColorMatrix type="matrix" values="0 0 0 0 0 0 0 0 0 0 0 0 0 0 0 0 0 0 0.1 0"/>
<feBlend mode="normal" in2="BackgroundImageFix" result="effect1_dropShadow_467_1024"/>
<feBlend mode="normal" in="SourceGraphic" in2="effect1_dropShadow_467_1024" result="shape"/>
<feColorMatrix in="SourceAlpha" type="matrix" values="0 0 0 0 0 0 0 0 0 0 0 0 0 0 0 0 0 0 127 0" result="hardAlpha"/>
<feOffset dx="5" dy="5"/>
<feGaussianBlur stdDeviation="5"/>
<feComposite in2="hardAlpha" operator="arithmetic" k2="-1" k3="1"/>
<feColorMatrix type="matrix" values="0 0 0 0 1 0 0 0 0 1 0 0 0 0 1 0 0 0 0.35 0"/>
<feBlend mode="normal" in2="shape" result="effect2_innerShadow_467_1024"/>
<feColorMatrix in="SourceAlpha" type="matrix" values="0 0 0 0 0 0 0 0 0 0 0 0 0 0 0 0 0 0 127 0" result="hardAlpha"/>
<feOffset dx="-2" dy="-2"/>
<feGaussianBlur stdDeviation="7.5"/>
<feComposite in2="hardAlpha" operator="arithmetic" k2="-1" k3="1"/>
<feColorMatrix type="matrix" values="0 0 0 0 0 0 0 0 0 0 0 0 0 0 0 0 0 0 0.2 0"/>
<feBlend mode="normal" in2="effect2_innerShadow_467_1024" result="effect3_innerShadow_467_1024"/>
</filter>
<filter id="filter2_dii_467_1024" x="0" y="0.21875" width="106.5" height="145.188" filterUnits="userSpaceOnUse" color-interpolation-filters="sRGB">
<feFlood flood-opacity="0" result="BackgroundImageFix"/>
<feColorMatrix in="SourceAlpha" type="matrix" values="0 0 0 0 0 0 0 0 0 0 0 0 0 0 0 0 0 0 127 0" result="hardAlpha"/>
<feOffset dx="1" dy="2"/>
<feGaussianBlur stdDeviation="7.5"/>
<feComposite in2="hardAlpha" operator="out"/>
<feColorMatrix type="matrix" values="0 0 0 0 0 0 0 0 0 0 0 0 0 0 0 0 0 0 0.1 0"/>
<feBlend mode="normal" in2="BackgroundImageFix" result="effect1_dropShadow_467_1024"/>
<feBlend mode="normal" in="SourceGraphic" in2="effect1_dropShadow_467_1024" result="shape"/>
<feColorMatrix in="SourceAlpha" type="matrix" values="0 0 0 0 0 0 0 0 0 0 0 0 0 0 0 0 0 0 127 0" result="hardAlpha"/>
<feOffset dx="5" dy="5"/>
<feGaussianBlur stdDeviation="5"/>
<feComposite in2="hardAlpha" operator="arithmetic" k2="-1" k3="1"/>
<feColorMatrix type="matrix" values="0 0 0 0 1 0 0 0 0 1 0 0 0 0 1 0 0 0 0.35 0"/>
<feBlend mode="normal" in2="shape" result="effect2_innerShadow_467_1024"/>
<feColorMatrix in="SourceAlpha" type="matrix" values="0 0 0 0 0 0 0 0 0 0 0 0 0 0 0 0 0 0 127 0" result="hardAlpha"/>
<feOffset dx="-2" dy="-2"/>
<feGaussianBlur stdDeviation="7.5"/>
<feComposite in2="hardAlpha" operator="arithmetic" k2="-1" k3="1"/>
<feColorMatrix type="matrix" values="0 0 0 0 0 0 0 0 0 0 0 0 0 0 0 0 0 0 0.2 0"/>
<feBlend mode="normal" in2="effect2_innerShadow_467_1024" result="effect3_innerShadow_467_1024"/>
</filter>
<filter id="filter3_dii_467_1024" x="13.2227" y="0.21875" width="171.777" height="183" filterUnits="userSpaceOnUse" color-interpolation-filters="sRGB">
<feFlood flood-opacity="0" result="BackgroundImageFix"/>
<feColorMatrix in="SourceAlpha" type="matrix" values="0 0 0 0 0 0 0 0 0 0 0 0 0 0 0 0 0 0 127 0" result="hardAlpha"/>
<feOffset dx="1" dy="2"/>
<feGaussianBlur stdDeviation="7.5"/>
<feComposite in2="hardAlpha" operator="out"/>
<feColorMatrix type="matrix" values="0 0 0 0 0 0 0 0 0 0 0 0 0 0 0 0 0 0 0.1 0"/>
<feBlend mode="normal" in2="BackgroundImageFix" result="effect1_dropShadow_467_1024"/>
<feBlend mode="normal" in="SourceGraphic" in2="effect1_dropShadow_467_1024" result="shape"/>
<feColorMatrix in="SourceAlpha" type="matrix" values="0 0 0 0 0 0 0 0 0 0 0 0 0 0 0 0 0 0 127 0" result="hardAlpha"/>
<feOffset dx="5" dy="5"/>
<feGaussianBlur stdDeviation="5"/>
<feComposite in2="hardAlpha" operator="arithmetic" k2="-1" k3="1"/>
<feColorMatrix type="matrix" values="0 0 0 0 1 0 0 0 0 1 0 0 0 0 1 0 0 0 0.35 0"/>
<feBlend mode="normal" in2="shape" result="effect2_innerShadow_467_1024"/>
<feColorMatrix in="SourceAlpha" type="matrix" values="0 0 0 0 0 0 0 0 0 0 0 0 0 0 0 0 0 0 127 0" result="hardAlpha"/>
<feOffset dx="-2" dy="-2"/>
<feGaussianBlur stdDeviation="7.5"/>
<feComposite in2="hardAlpha" operator="arithmetic" k2="-1" k3="1"/>
<feColorMatrix type="matrix" values="0 0 0 0 0 0 0 0 0 0 0 0 0 0 0 0 0 0 0.2 0"/>
<feBlend mode="normal" in2="effect2_innerShadow_467_1024" result="effect3_innerShadow_467_1024"/>
</filter>
</defs>
</svg>
