<svg width="372" height="186" viewBox="0 0 372 186" fill="none" xmlns="http://www.w3.org/2000/svg">
<path d="M215.008 66.0187H221.056V67.2188H213.728V56.6587H215.008V66.0187ZM226.16 67.3788C225.403 67.3788 224.725 67.2134 224.128 66.8827C223.541 66.5521 223.083 66.0774 222.752 65.4587C222.421 64.8294 222.256 64.0827 222.256 63.2188C222.256 62.3547 222.421 61.6134 222.752 60.9947C223.083 60.3654 223.536 59.8854 224.112 59.5547C224.688 59.2241 225.344 59.0587 226.08 59.0587C226.827 59.0587 227.461 59.2187 227.984 59.5387C228.517 59.8587 228.923 60.2961 229.2 60.8507C229.477 61.3947 229.616 62.0081 229.616 62.6907C229.616 62.8721 229.611 63.0374 229.6 63.1867C229.589 63.3361 229.573 63.4694 229.552 63.5867H223.088V62.4507H228.992L228.336 62.5787C228.336 61.8107 228.123 61.2187 227.696 60.8027C227.28 60.3867 226.731 60.1787 226.048 60.1787C225.525 60.1787 225.072 60.3014 224.688 60.5467C224.315 60.7814 224.021 61.1281 223.808 61.5867C223.605 62.0347 223.504 62.5787 223.504 63.2188C223.504 63.8481 223.611 64.3921 223.824 64.8507C224.037 65.3094 224.336 65.6614 224.72 65.9067C225.115 66.1414 225.584 66.2587 226.128 66.2587C226.715 66.2587 227.189 66.1467 227.552 65.9227C227.925 65.6987 228.224 65.3947 228.448 65.0107L229.456 65.6027C229.253 65.9654 228.992 66.2801 228.672 66.5467C228.363 66.8134 227.995 67.0214 227.568 67.1707C227.152 67.3094 226.683 67.3788 226.16 67.3788ZM234.931 67.3788C234.152 67.3788 233.432 67.2134 232.771 66.8827C232.12 66.5521 231.619 66.0827 231.267 65.4747L232.355 64.6907C232.589 65.1814 232.931 65.5654 233.379 65.8427C233.837 66.1201 234.387 66.2587 235.027 66.2587C235.592 66.2587 236.035 66.1521 236.355 65.9387C236.675 65.7147 236.835 65.4267 236.835 65.0747C236.835 64.8507 236.76 64.6481 236.611 64.4667C236.472 64.2747 236.2 64.1361 235.795 64.0507L233.875 63.6507C233.096 63.4907 232.536 63.2241 232.195 62.8507C231.864 62.4774 231.699 62.0134 231.699 61.4587C231.699 61.0214 231.821 60.6214 232.067 60.2587C232.323 59.8961 232.68 59.6081 233.139 59.3947C233.608 59.1707 234.157 59.0587 234.786 59.0587C235.576 59.0587 236.243 59.2134 236.787 59.5227C237.331 59.8321 237.736 60.2694 238.003 60.8347L236.931 61.5387C236.749 61.0694 236.456 60.7281 236.051 60.5147C235.645 60.2907 235.224 60.1787 234.786 60.1787C234.403 60.1787 234.072 60.2321 233.795 60.3387C233.528 60.4454 233.32 60.5947 233.171 60.7867C233.032 60.9681 232.963 61.1761 232.963 61.4107C232.963 61.6454 233.043 61.8641 233.203 62.0667C233.363 62.2587 233.661 62.3974 234.099 62.4827L236.099 62.8987C236.845 63.0481 237.368 63.2934 237.667 63.6347C237.965 63.9761 238.115 64.3921 238.115 64.8827C238.115 65.3841 237.981 65.8267 237.715 66.2107C237.448 66.5841 237.075 66.8721 236.595 67.0747C236.115 67.2774 235.56 67.3788 234.931 67.3788ZM243.368 67.3788C242.589 67.3788 241.869 67.2134 241.208 66.8827C240.557 66.5521 240.056 66.0827 239.704 65.4747L240.792 64.6907C241.027 65.1814 241.368 65.5654 241.816 65.8427C242.275 66.1201 242.824 66.2587 243.464 66.2587C244.029 66.2587 244.472 66.1521 244.792 65.9387C245.112 65.7147 245.272 65.4267 245.272 65.0747C245.272 64.8507 245.197 64.6481 245.048 64.4667C244.909 64.2747 244.637 64.1361 244.232 64.0507L242.312 63.6507C241.533 63.4907 240.973 63.2241 240.632 62.8507C240.301 62.4774 240.136 62.0134 240.136 61.4587C240.136 61.0214 240.259 60.6214 240.504 60.2587C240.76 59.8961 241.117 59.6081 241.576 59.3947C242.045 59.1707 242.595 59.0587 243.224 59.0587C244.013 59.0587 244.68 59.2134 245.224 59.5227C245.768 59.8321 246.173 60.2694 246.44 60.8347L245.368 61.5387C245.187 61.0694 244.893 60.7281 244.488 60.5147C244.083 60.2907 243.661 60.1787 243.224 60.1787C242.84 60.1787 242.509 60.2321 242.232 60.3387C241.965 60.4454 241.757 60.5947 241.608 60.7867C241.469 60.9681 241.4 61.1761 241.4 61.4107C241.4 61.6454 241.48 61.8641 241.64 62.0667C241.8 62.2587 242.099 62.3974 242.536 62.4827L244.536 62.8987C245.283 63.0481 245.805 63.2934 246.104 63.6347C246.403 63.9761 246.552 64.3921 246.552 64.8827C246.552 65.3841 246.419 65.8267 246.152 66.2107C245.885 66.5841 245.512 66.8721 245.032 67.0747C244.552 67.2774 243.997 67.3788 243.368 67.3788ZM255.954 56.9467V65.0107C255.954 65.4054 256.066 65.6987 256.29 65.8907C256.514 66.0827 256.802 66.1787 257.154 66.1787C257.463 66.1787 257.73 66.1254 257.954 66.0187C258.178 65.9121 258.381 65.7681 258.562 65.5867L259.01 66.6587C258.765 66.8827 258.471 67.0587 258.13 67.1867C257.799 67.3148 257.415 67.3788 256.978 67.3788C256.573 67.3788 256.194 67.3094 255.842 67.1707C255.49 67.0214 255.207 66.7921 254.994 66.4827C254.791 66.1627 254.685 65.7467 254.674 65.2347V57.2987L255.954 56.9467ZM258.866 59.2188V60.3227H253.074V59.2188H258.866ZM260.769 67.2188V55.5387H262.049V60.4187C262.327 59.9387 262.695 59.5921 263.153 59.3787C263.612 59.1654 264.113 59.0587 264.657 59.0587C265.233 59.0587 265.756 59.1707 266.225 59.3947C266.695 59.6081 267.068 59.9387 267.345 60.3867C267.633 60.8347 267.777 61.4054 267.777 62.0987V67.2188H266.497V62.5467C266.497 61.6614 266.305 61.0481 265.921 60.7067C265.548 60.3547 265.084 60.1787 264.529 60.1787C264.145 60.1787 263.761 60.2694 263.377 60.4507C262.993 60.6321 262.673 60.9307 262.417 61.3467C262.172 61.7521 262.049 62.2961 262.049 62.9787V67.2188H260.769ZM275.348 62.0507C275.348 61.4534 275.188 60.9947 274.868 60.6747C274.548 60.3441 274.094 60.1787 273.508 60.1787C272.953 60.1787 272.484 60.3014 272.1 60.5467C271.716 60.7814 271.433 61.1654 271.252 61.6987L270.212 61.0587C270.425 60.4614 270.82 59.9814 271.396 59.6187C271.972 59.2454 272.686 59.0587 273.54 59.0587C274.116 59.0587 274.638 59.1601 275.108 59.3627C275.577 59.5547 275.945 59.8534 276.212 60.2587C276.489 60.6534 276.628 61.1654 276.628 61.7947V65.6667C276.628 66.0507 276.83 66.2427 277.236 66.2427C277.438 66.2427 277.636 66.2161 277.828 66.1628L277.764 67.1707C277.55 67.2774 277.273 67.3308 276.932 67.3308C276.622 67.3308 276.345 67.2721 276.1 67.1547C275.854 67.0374 275.662 66.8614 275.524 66.6267C275.385 66.3814 275.316 66.0774 275.316 65.7147V65.5547L275.636 65.6027C275.508 66.0187 275.289 66.3601 274.98 66.6267C274.67 66.8827 274.324 67.0747 273.94 67.2027C273.556 67.3201 273.177 67.3788 272.804 67.3788C272.334 67.3788 271.897 67.2988 271.492 67.1387C271.086 66.9787 270.761 66.7387 270.516 66.4187C270.281 66.0881 270.164 65.6827 270.164 65.2027C270.164 64.6054 270.361 64.1147 270.756 63.7307C271.161 63.3361 271.721 63.0694 272.436 62.9307L275.604 62.3067V63.3627L273.028 63.8907C272.505 63.9974 272.116 64.1467 271.86 64.3387C271.604 64.5307 271.476 64.7974 271.476 65.1387C271.476 65.4694 271.604 65.7414 271.86 65.9547C272.126 66.1574 272.5 66.2587 272.98 66.2587C273.289 66.2587 273.582 66.2214 273.86 66.1467C274.148 66.0614 274.404 65.9387 274.628 65.7787C274.852 65.6081 275.028 65.4001 275.156 65.1547C275.284 64.8987 275.348 64.6001 275.348 64.2587V62.0507ZM279.738 67.2188V59.2188H280.858L280.97 61.0107L280.762 60.8347C280.933 60.4081 281.162 60.0667 281.45 59.8107C281.738 59.5441 282.069 59.3521 282.442 59.2347C282.826 59.1174 283.221 59.0587 283.626 59.0587C284.202 59.0587 284.725 59.1707 285.194 59.3947C285.663 59.6081 286.037 59.9387 286.314 60.3867C286.602 60.8347 286.746 61.4054 286.746 62.0987V67.2188H285.466V62.5467C285.466 61.6614 285.274 61.0481 284.89 60.7067C284.517 60.3547 284.053 60.1787 283.498 60.1787C283.114 60.1787 282.73 60.2694 282.346 60.4507C281.962 60.6321 281.642 60.9254 281.386 61.3307C281.141 61.7361 281.018 62.2801 281.018 62.9627V67.2188H279.738ZM299.769 62.0507C299.769 61.4534 299.609 60.9947 299.289 60.6747C298.969 60.3441 298.516 60.1787 297.929 60.1787C297.375 60.1787 296.905 60.3014 296.521 60.5467C296.137 60.7814 295.855 61.1654 295.673 61.6987L294.633 61.0587C294.847 60.4614 295.241 59.9814 295.817 59.6187C296.393 59.2454 297.108 59.0587 297.961 59.0587C298.537 59.0587 299.06 59.1601 299.529 59.3627C299.999 59.5547 300.367 59.8534 300.633 60.2587C300.911 60.6534 301.049 61.1654 301.049 61.7947V65.6667C301.049 66.0507 301.252 66.2427 301.657 66.2427C301.86 66.2427 302.057 66.2161 302.249 66.1628L302.185 67.1707C301.972 67.2774 301.695 67.3308 301.353 67.3308C301.044 67.3308 300.767 67.2721 300.521 67.1547C300.276 67.0374 300.084 66.8614 299.945 66.6267C299.807 66.3814 299.737 66.0774 299.737 65.7147V65.5547L300.057 65.6027C299.929 66.0187 299.711 66.3601 299.401 66.6267C299.092 66.8827 298.745 67.0747 298.361 67.2027C297.977 67.3201 297.599 67.3788 297.225 67.3788C296.756 67.3788 296.319 67.2988 295.913 67.1387C295.508 66.9787 295.183 66.7387 294.937 66.4187C294.703 66.0881 294.585 65.6827 294.585 65.2027C294.585 64.6054 294.783 64.1147 295.177 63.7307C295.583 63.3361 296.143 63.0694 296.857 62.9307L300.025 62.3067V63.3627L297.449 63.8907C296.927 63.9974 296.537 64.1467 296.281 64.3387C296.025 64.5307 295.897 64.7974 295.897 65.1387C295.897 65.4694 296.025 65.7414 296.281 65.9547C296.548 66.1574 296.921 66.2587 297.401 66.2587C297.711 66.2587 298.004 66.2214 298.281 66.1467C298.569 66.0614 298.825 65.9387 299.049 65.7787C299.273 65.6081 299.449 65.4001 299.577 65.1547C299.705 64.8987 299.769 64.6001 299.769 64.2587V62.0507ZM309.238 67.2188V59.2188H310.358L310.438 60.4667C310.726 59.9761 311.099 59.6187 311.558 59.3947C312.027 59.1707 312.507 59.0587 312.998 59.0587C313.563 59.0587 314.097 59.1867 314.598 59.4427C315.099 59.6987 315.483 60.0934 315.75 60.6267C315.921 60.2641 316.161 59.9707 316.47 59.7467C316.779 59.5121 317.115 59.3414 317.478 59.2347C317.851 59.1174 318.203 59.0587 318.534 59.0587C319.046 59.0587 319.531 59.1654 319.99 59.3787C320.459 59.5921 320.843 59.9227 321.142 60.3707C321.441 60.8187 321.59 61.3947 321.59 62.0987V67.2188H320.31V62.2267C320.31 61.5014 320.129 60.9787 319.766 60.6587C319.403 60.3387 318.955 60.1787 318.422 60.1787C318.006 60.1787 317.617 60.2801 317.254 60.4827C316.891 60.6854 316.598 60.9841 316.374 61.3787C316.161 61.7734 316.054 62.2587 316.054 62.8347V67.2188H314.774V62.2267C314.774 61.5014 314.593 60.9787 314.23 60.6587C313.867 60.3387 313.419 60.1787 312.886 60.1787C312.534 60.1787 312.171 60.2747 311.798 60.4667C311.435 60.6481 311.131 60.9414 310.886 61.3467C310.641 61.7521 310.518 62.2854 310.518 62.9467V67.2188H309.238ZM327.8 59.0587C328.557 59.0587 329.224 59.2241 329.8 59.5547C330.387 59.8854 330.845 60.3654 331.176 60.9947C331.507 61.6134 331.672 62.3547 331.672 63.2188C331.672 64.0827 331.507 64.8294 331.176 65.4587C330.845 66.0774 330.387 66.5521 329.8 66.8827C329.224 67.2134 328.557 67.3788 327.8 67.3788C327.053 67.3788 326.387 67.2134 325.8 66.8827C325.213 66.5521 324.755 66.0774 324.424 65.4587C324.093 64.8294 323.928 64.0827 323.928 63.2188C323.928 62.3547 324.093 61.6134 324.424 60.9947C324.755 60.3654 325.213 59.8854 325.8 59.5547C326.387 59.2241 327.053 59.0587 327.8 59.0587ZM327.8 60.1627C327.256 60.1627 326.792 60.2854 326.408 60.5307C326.024 60.7761 325.725 61.1281 325.512 61.5867C325.309 62.0347 325.208 62.5787 325.208 63.2188C325.208 63.8481 325.309 64.3921 325.512 64.8507C325.725 65.3094 326.024 65.6614 326.408 65.9067C326.792 66.1521 327.256 66.2747 327.8 66.2747C328.344 66.2747 328.808 66.1521 329.192 65.9067C329.576 65.6614 329.869 65.3094 330.072 64.8507C330.285 64.3921 330.392 63.8481 330.392 63.2188C330.392 62.5787 330.285 62.0347 330.072 61.5867C329.869 61.1281 329.576 60.7761 329.192 60.5307C328.808 60.2854 328.344 60.1627 327.8 60.1627ZM334.082 67.2188V59.2188H335.202L335.314 61.0107L335.106 60.8347C335.276 60.4081 335.506 60.0667 335.794 59.8107C336.082 59.5441 336.412 59.3521 336.786 59.2347C337.17 59.1174 337.564 59.0587 337.97 59.0587C338.546 59.0587 339.068 59.1707 339.538 59.3947C340.007 59.6081 340.38 59.9387 340.658 60.3867C340.946 60.8347 341.09 61.4054 341.09 62.0987V67.2188H339.81V62.5467C339.81 61.6614 339.618 61.0481 339.234 60.7067C338.86 60.3547 338.396 60.1787 337.842 60.1787C337.458 60.1787 337.074 60.2694 336.69 60.4507C336.306 60.6321 335.986 60.9254 335.73 61.3307C335.484 61.7361 335.362 62.2801 335.362 62.9627V67.2188H334.082ZM345.767 56.9467V65.0107C345.767 65.4054 345.879 65.6987 346.103 65.8907C346.327 66.0827 346.615 66.1787 346.967 66.1787C347.276 66.1787 347.543 66.1254 347.767 66.0187C347.991 65.9121 348.193 65.7681 348.375 65.5867L348.823 66.6587C348.577 66.8827 348.284 67.0587 347.943 67.1867C347.612 67.3148 347.228 67.3788 346.791 67.3788C346.385 67.3788 346.007 67.3094 345.655 67.1707C345.303 67.0214 345.02 66.7921 344.807 66.4827C344.604 66.1627 344.497 65.7467 344.487 65.2347V57.2987L345.767 56.9467ZM348.679 59.2188V60.3227H342.887V59.2188H348.679ZM350.582 67.2188V55.5387H351.862V60.4187C352.139 59.9387 352.507 59.5921 352.966 59.3787C353.424 59.1654 353.926 59.0587 354.47 59.0587C355.046 59.0587 355.568 59.1707 356.038 59.3947C356.507 59.6081 356.88 59.9387 357.158 60.3867C357.446 60.8347 357.59 61.4054 357.59 62.0987V67.2188H356.31V62.5467C356.31 61.6614 356.118 61.0481 355.734 60.7067C355.36 60.3547 354.896 60.1787 354.342 60.1787C353.958 60.1787 353.574 60.2694 353.19 60.4507C352.806 60.6321 352.486 60.9307 352.23 61.3467C351.984 61.7521 351.862 62.2961 351.862 62.9787V67.2188H350.582Z" fill="#454545"/>
<g filter="url(#filter0_dii_467_1004)">
<circle cx="199" cy="62.2188" r="6" fill="#1472CC"/>
</g>
<path d="M215.008 95.0187H221.056V96.2188H213.728V85.6587H215.008V95.0187ZM226.16 96.3788C225.403 96.3788 224.725 96.2134 224.128 95.8827C223.541 95.5521 223.083 95.0774 222.752 94.4587C222.421 93.8294 222.256 93.0827 222.256 92.2188C222.256 91.3547 222.421 90.6134 222.752 89.9947C223.083 89.3654 223.536 88.8854 224.112 88.5547C224.688 88.2241 225.344 88.0587 226.08 88.0587C226.827 88.0587 227.461 88.2187 227.984 88.5387C228.517 88.8587 228.923 89.2961 229.2 89.8507C229.477 90.3947 229.616 91.0081 229.616 91.6907C229.616 91.8721 229.611 92.0374 229.6 92.1867C229.589 92.3361 229.573 92.4694 229.552 92.5867H223.088V91.4507H228.992L228.336 91.5787C228.336 90.8107 228.123 90.2187 227.696 89.8027C227.28 89.3867 226.731 89.1787 226.048 89.1787C225.525 89.1787 225.072 89.3014 224.688 89.5467C224.315 89.7814 224.021 90.1281 223.808 90.5867C223.605 91.0347 223.504 91.5787 223.504 92.2188C223.504 92.8481 223.611 93.3921 223.824 93.8507C224.037 94.3094 224.336 94.6614 224.72 94.9067C225.115 95.1414 225.584 95.2587 226.128 95.2587C226.715 95.2587 227.189 95.1467 227.552 94.9227C227.925 94.6987 228.224 94.3947 228.448 94.0107L229.456 94.6027C229.253 94.9654 228.992 95.2801 228.672 95.5467C228.363 95.8134 227.995 96.0214 227.568 96.1707C227.152 96.3094 226.683 96.3788 226.16 96.3788ZM234.931 96.3788C234.152 96.3788 233.432 96.2134 232.771 95.8827C232.12 95.5521 231.619 95.0827 231.267 94.4747L232.355 93.6907C232.589 94.1814 232.931 94.5654 233.379 94.8427C233.837 95.1201 234.387 95.2587 235.027 95.2587C235.592 95.2587 236.035 95.1521 236.355 94.9387C236.675 94.7147 236.835 94.4267 236.835 94.0747C236.835 93.8507 236.76 93.6481 236.611 93.4667C236.472 93.2747 236.2 93.1361 235.795 93.0507L233.875 92.6507C233.096 92.4907 232.536 92.2241 232.195 91.8507C231.864 91.4774 231.699 91.0134 231.699 90.4587C231.699 90.0214 231.821 89.6214 232.067 89.2587C232.323 88.8961 232.68 88.6081 233.139 88.3947C233.608 88.1707 234.157 88.0587 234.786 88.0587C235.576 88.0587 236.243 88.2134 236.787 88.5227C237.331 88.8321 237.736 89.2694 238.003 89.8347L236.931 90.5387C236.749 90.0694 236.456 89.7281 236.051 89.5147C235.645 89.2907 235.224 89.1787 234.786 89.1787C234.403 89.1787 234.072 89.2321 233.795 89.3387C233.528 89.4454 233.32 89.5947 233.171 89.7867C233.032 89.9681 232.963 90.1761 232.963 90.4107C232.963 90.6454 233.043 90.8641 233.203 91.0667C233.363 91.2587 233.661 91.3974 234.099 91.4827L236.099 91.8987C236.845 92.0481 237.368 92.2934 237.667 92.6347C237.965 92.9761 238.115 93.3921 238.115 93.8827C238.115 94.3841 237.981 94.8267 237.715 95.2107C237.448 95.5841 237.075 95.8721 236.595 96.0747C236.115 96.2774 235.56 96.3788 234.931 96.3788ZM243.368 96.3788C242.589 96.3788 241.869 96.2134 241.208 95.8827C240.557 95.5521 240.056 95.0827 239.704 94.4747L240.792 93.6907C241.027 94.1814 241.368 94.5654 241.816 94.8427C242.275 95.1201 242.824 95.2587 243.464 95.2587C244.029 95.2587 244.472 95.1521 244.792 94.9387C245.112 94.7147 245.272 94.4267 245.272 94.0747C245.272 93.8507 245.197 93.6481 245.048 93.4667C244.909 93.2747 244.637 93.1361 244.232 93.0507L242.312 92.6507C241.533 92.4907 240.973 92.2241 240.632 91.8507C240.301 91.4774 240.136 91.0134 240.136 90.4587C240.136 90.0214 240.259 89.6214 240.504 89.2587C240.76 88.8961 241.117 88.6081 241.576 88.3947C242.045 88.1707 242.595 88.0587 243.224 88.0587C244.013 88.0587 244.68 88.2134 245.224 88.5227C245.768 88.8321 246.173 89.2694 246.44 89.8347L245.368 90.5387C245.187 90.0694 244.893 89.7281 244.488 89.5147C244.083 89.2907 243.661 89.1787 243.224 89.1787C242.84 89.1787 242.509 89.2321 242.232 89.3387C241.965 89.4454 241.757 89.5947 241.608 89.7867C241.469 89.9681 241.4 90.1761 241.4 90.4107C241.4 90.6454 241.48 90.8641 241.64 91.0667C241.8 91.2587 242.099 91.3974 242.536 91.4827L244.536 91.8987C245.283 92.0481 245.805 92.2934 246.104 92.6347C246.403 92.9761 246.552 93.3921 246.552 93.8827C246.552 94.3841 246.419 94.8267 246.152 95.2107C245.885 95.5841 245.512 95.8721 245.032 96.0747C244.552 96.2774 243.997 96.3788 243.368 96.3788ZM255.954 85.9467V94.0107C255.954 94.4054 256.066 94.6987 256.29 94.8907C256.514 95.0827 256.802 95.1787 257.154 95.1787C257.463 95.1787 257.73 95.1254 257.954 95.0187C258.178 94.9121 258.381 94.7681 258.562 94.5867L259.01 95.6587C258.765 95.8827 258.471 96.0587 258.13 96.1867C257.799 96.3148 257.415 96.3788 256.978 96.3788C256.573 96.3788 256.194 96.3094 255.842 96.1707C255.49 96.0214 255.207 95.7921 254.994 95.4827C254.791 95.1627 254.685 94.7467 254.674 94.2347V86.2987L255.954 85.9467ZM258.866 88.2188V89.3227H253.074V88.2188H258.866ZM260.769 96.2188V84.5387H262.049V89.4187C262.327 88.9387 262.695 88.5921 263.153 88.3787C263.612 88.1654 264.113 88.0587 264.657 88.0587C265.233 88.0587 265.756 88.1707 266.225 88.3947C266.695 88.6081 267.068 88.9387 267.345 89.3867C267.633 89.8347 267.777 90.4054 267.777 91.0987V96.2188H266.497V91.5467C266.497 90.6614 266.305 90.0481 265.921 89.7067C265.548 89.3547 265.084 89.1787 264.529 89.1787C264.145 89.1787 263.761 89.2694 263.377 89.4507C262.993 89.6321 262.673 89.9307 262.417 90.3467C262.172 90.7521 262.049 91.2961 262.049 91.9787V96.2188H260.769ZM275.348 91.0507C275.348 90.4534 275.188 89.9947 274.868 89.6747C274.548 89.3441 274.094 89.1787 273.508 89.1787C272.953 89.1787 272.484 89.3014 272.1 89.5467C271.716 89.7814 271.433 90.1654 271.252 90.6987L270.212 90.0587C270.425 89.4614 270.82 88.9814 271.396 88.6187C271.972 88.2454 272.686 88.0587 273.54 88.0587C274.116 88.0587 274.638 88.1601 275.108 88.3627C275.577 88.5547 275.945 88.8534 276.212 89.2587C276.489 89.6534 276.628 90.1654 276.628 90.7947V94.6667C276.628 95.0507 276.83 95.2427 277.236 95.2427C277.438 95.2427 277.636 95.2161 277.828 95.1628L277.764 96.1707C277.55 96.2774 277.273 96.3308 276.932 96.3308C276.622 96.3308 276.345 96.2721 276.1 96.1547C275.854 96.0374 275.662 95.8614 275.524 95.6267C275.385 95.3814 275.316 95.0774 275.316 94.7147V94.5547L275.636 94.6027C275.508 95.0187 275.289 95.3601 274.98 95.6267C274.67 95.8827 274.324 96.0747 273.94 96.2027C273.556 96.3201 273.177 96.3788 272.804 96.3788C272.334 96.3788 271.897 96.2988 271.492 96.1387C271.086 95.9787 270.761 95.7387 270.516 95.4187C270.281 95.0881 270.164 94.6827 270.164 94.2027C270.164 93.6054 270.361 93.1147 270.756 92.7307C271.161 92.3361 271.721 92.0694 272.436 91.9307L275.604 91.3067V92.3627L273.028 92.8907C272.505 92.9974 272.116 93.1467 271.86 93.3387C271.604 93.5307 271.476 93.7974 271.476 94.1387C271.476 94.4694 271.604 94.7414 271.86 94.9547C272.126 95.1574 272.5 95.2587 272.98 95.2587C273.289 95.2587 273.582 95.2214 273.86 95.1467C274.148 95.0614 274.404 94.9387 274.628 94.7787C274.852 94.6081 275.028 94.4001 275.156 94.1547C275.284 93.8987 275.348 93.6001 275.348 93.2587V91.0507ZM279.738 96.2188V88.2188H280.858L280.97 90.0107L280.762 89.8347C280.933 89.4081 281.162 89.0667 281.45 88.8107C281.738 88.5441 282.069 88.3521 282.442 88.2347C282.826 88.1174 283.221 88.0587 283.626 88.0587C284.202 88.0587 284.725 88.1707 285.194 88.3947C285.663 88.6081 286.037 88.9387 286.314 89.3867C286.602 89.8347 286.746 90.4054 286.746 91.0987V96.2188H285.466V91.5467C285.466 90.6614 285.274 90.0481 284.89 89.7067C284.517 89.3547 284.053 89.1787 283.498 89.1787C283.114 89.1787 282.73 89.2694 282.346 89.4507C281.962 89.6321 281.642 89.9254 281.386 90.3307C281.141 90.7361 281.018 91.2801 281.018 91.9627V96.2188H279.738ZM298.249 96.3788C297.311 96.3788 296.479 96.1601 295.753 95.7227C295.039 95.2747 294.553 94.6614 294.297 93.8827L295.577 93.2267C295.705 93.6214 295.881 93.9681 296.105 94.2667C296.329 94.5547 296.623 94.7787 296.985 94.9387C297.359 95.0987 297.823 95.1787 298.377 95.1787C298.847 95.1787 299.241 95.0934 299.561 94.9227C299.881 94.7521 300.127 94.5227 300.297 94.2347C300.468 93.9361 300.553 93.5947 300.553 93.2107C300.553 92.8267 300.479 92.5067 300.329 92.2507C300.191 91.9947 299.967 91.8081 299.657 91.6907C299.348 91.5627 298.943 91.4987 298.441 91.4987C298.324 91.4987 298.196 91.5041 298.057 91.5148C297.919 91.5148 297.775 91.5254 297.625 91.5467V90.2667C297.721 90.2774 297.812 90.2827 297.897 90.2827C297.993 90.2827 298.079 90.2827 298.153 90.2827C298.932 90.2827 299.487 90.1334 299.817 89.8347C300.148 89.5254 300.313 89.0454 300.313 88.3947C300.313 87.8401 300.143 87.4187 299.801 87.1307C299.46 86.8427 298.975 86.6987 298.345 86.6987C297.673 86.6987 297.161 86.8481 296.809 87.1467C296.457 87.4347 296.18 87.8294 295.977 88.3307L294.761 87.7547C294.932 87.3067 295.188 86.9121 295.529 86.5707C295.871 86.2294 296.281 85.9627 296.761 85.7707C297.252 85.5787 297.791 85.4827 298.377 85.4827C299.113 85.4827 299.721 85.6107 300.201 85.8667C300.681 86.1121 301.039 86.4427 301.273 86.8587C301.519 87.2747 301.641 87.7334 301.641 88.2347C301.641 88.6187 301.588 88.9654 301.481 89.2747C301.375 89.5734 301.225 89.8347 301.033 90.0587C300.852 90.2827 300.644 90.4641 300.409 90.6027C300.175 90.7307 299.924 90.8161 299.657 90.8587V90.8907C300.009 90.9014 300.319 90.9707 300.585 91.0987C300.863 91.2267 301.097 91.3974 301.289 91.6107C301.481 91.8241 301.625 92.0694 301.721 92.3467C301.828 92.6134 301.881 92.8961 301.881 93.1947C301.881 93.8134 301.727 94.3627 301.417 94.8427C301.119 95.3227 300.697 95.7014 300.153 95.9787C299.609 96.2454 298.975 96.3788 298.249 96.3788ZM309.879 96.2188V88.2188H310.999L311.079 89.4667C311.367 88.9761 311.74 88.6187 312.199 88.3947C312.668 88.1707 313.148 88.0587 313.639 88.0587C314.204 88.0587 314.737 88.1867 315.239 88.4427C315.74 88.6987 316.124 89.0934 316.391 89.6267C316.561 89.2641 316.801 88.9707 317.111 88.7467C317.42 88.5121 317.756 88.3414 318.119 88.2347C318.492 88.1174 318.844 88.0587 319.175 88.0587C319.687 88.0587 320.172 88.1654 320.631 88.3787C321.1 88.5921 321.484 88.9227 321.783 89.3707C322.081 89.8187 322.231 90.3947 322.231 91.0987V96.2188H320.951V91.2267C320.951 90.5014 320.769 89.9787 320.407 89.6587C320.044 89.3387 319.596 89.1787 319.063 89.1787C318.647 89.1787 318.257 89.2801 317.895 89.4827C317.532 89.6854 317.239 89.9841 317.015 90.3787C316.801 90.7734 316.695 91.2587 316.695 91.8347V96.2188H315.415V91.2267C315.415 90.5014 315.233 89.9787 314.871 89.6587C314.508 89.3387 314.06 89.1787 313.527 89.1787C313.175 89.1787 312.812 89.2747 312.439 89.4667C312.076 89.6481 311.772 89.9414 311.527 90.3467C311.281 90.7521 311.159 91.2854 311.159 91.9467V96.2188H309.879ZM328.441 88.0587C329.198 88.0587 329.865 88.2241 330.441 88.5547C331.027 88.8854 331.486 89.3654 331.817 89.9947C332.147 90.6134 332.313 91.3547 332.313 92.2188C332.313 93.0827 332.147 93.8294 331.817 94.4587C331.486 95.0774 331.027 95.5521 330.441 95.8827C329.865 96.2134 329.198 96.3788 328.441 96.3788C327.694 96.3788 327.027 96.2134 326.441 95.8827C325.854 95.5521 325.395 95.0774 325.065 94.4587C324.734 93.8294 324.569 93.0827 324.569 92.2188C324.569 91.3547 324.734 90.6134 325.065 89.9947C325.395 89.3654 325.854 88.8854 326.441 88.5547C327.027 88.2241 327.694 88.0587 328.441 88.0587ZM328.441 89.1627C327.897 89.1627 327.433 89.2854 327.049 89.5307C326.665 89.7761 326.366 90.1281 326.153 90.5867C325.95 91.0347 325.849 91.5787 325.849 92.2188C325.849 92.8481 325.95 93.3921 326.153 93.8507C326.366 94.3094 326.665 94.6614 327.049 94.9067C327.433 95.1521 327.897 95.2747 328.441 95.2747C328.985 95.2747 329.449 95.1521 329.833 94.9067C330.217 94.6614 330.51 94.3094 330.713 93.8507C330.926 93.3921 331.033 92.8481 331.033 92.2188C331.033 91.5787 330.926 91.0347 330.713 90.5867C330.51 90.1281 330.217 89.7761 329.833 89.5307C329.449 89.2854 328.985 89.1627 328.441 89.1627ZM334.722 96.2188V88.2188H335.842L335.954 90.0107L335.746 89.8347C335.917 89.4081 336.146 89.0667 336.434 88.8107C336.722 88.5441 337.053 88.3521 337.426 88.2347C337.81 88.1174 338.205 88.0587 338.61 88.0587C339.186 88.0587 339.709 88.1707 340.178 88.3947C340.648 88.6081 341.021 88.9387 341.298 89.3867C341.586 89.8347 341.73 90.4054 341.73 91.0987V96.2188H340.45V91.5467C340.45 90.6614 340.258 90.0481 339.874 89.7067C339.501 89.3547 339.037 89.1787 338.482 89.1787C338.098 89.1787 337.714 89.2694 337.33 89.4507C336.946 89.6321 336.626 89.9254 336.37 90.3307C336.125 90.7361 336.002 91.2801 336.002 91.9627V96.2188H334.722ZM346.407 85.9467V94.0107C346.407 94.4054 346.519 94.6987 346.743 94.8907C346.967 95.0827 347.255 95.1787 347.607 95.1787C347.917 95.1787 348.183 95.1254 348.407 95.0187C348.631 94.9121 348.834 94.7681 349.015 94.5867L349.463 95.6587C349.218 95.8827 348.925 96.0587 348.583 96.1867C348.253 96.3148 347.869 96.3788 347.431 96.3788C347.026 96.3788 346.647 96.3094 346.295 96.1707C345.943 96.0214 345.661 95.7921 345.447 95.4827C345.245 95.1627 345.138 94.7467 345.127 94.2347V86.2987L346.407 85.9467ZM349.319 88.2188V89.3227H343.527V88.2188H349.319ZM351.222 96.2188V84.5387H352.502V89.4187C352.78 88.9387 353.148 88.5921 353.606 88.3787C354.065 88.1654 354.566 88.0587 355.11 88.0587C355.686 88.0587 356.209 88.1707 356.678 88.3947C357.148 88.6081 357.521 88.9387 357.798 89.3867C358.086 89.8347 358.23 90.4054 358.23 91.0987V96.2188H356.95V91.5467C356.95 90.6614 356.758 90.0481 356.374 89.7067C356.001 89.3547 355.537 89.1787 354.982 89.1787C354.598 89.1787 354.214 89.2694 353.83 89.4507C353.446 89.6321 353.126 89.9307 352.87 90.3467C352.625 90.7521 352.502 91.2961 352.502 91.9787V96.2188H351.222ZM364.009 96.3788C363.23 96.3788 362.51 96.2134 361.849 95.8827C361.198 95.5521 360.697 95.0827 360.345 94.4747L361.433 93.6907C361.667 94.1814 362.009 94.5654 362.457 94.8427C362.915 95.1201 363.465 95.2587 364.105 95.2587C364.67 95.2587 365.113 95.1521 365.433 94.9387C365.753 94.7147 365.913 94.4267 365.913 94.0747C365.913 93.8507 365.838 93.6481 365.689 93.4667C365.55 93.2747 365.278 93.1361 364.873 93.0507L362.953 92.6507C362.174 92.4907 361.614 92.2241 361.273 91.8507C360.942 91.4774 360.777 91.0134 360.777 90.4587C360.777 90.0214 360.899 89.6214 361.145 89.2587C361.401 88.8961 361.758 88.6081 362.217 88.3947C362.686 88.1707 363.235 88.0587 363.865 88.0587C364.654 88.0587 365.321 88.2134 365.865 88.5227C366.409 88.8321 366.814 89.2694 367.081 89.8347L366.009 90.5387C365.827 90.0694 365.534 89.7281 365.129 89.5147C364.723 89.2907 364.302 89.1787 363.865 89.1787C363.481 89.1787 363.15 89.2321 362.873 89.3387C362.606 89.4454 362.398 89.5947 362.249 89.7867C362.11 89.9681 362.041 90.1761 362.041 90.4107C362.041 90.6454 362.121 90.8641 362.281 91.0667C362.441 91.2587 362.739 91.3974 363.177 91.4827L365.177 91.8987C365.923 92.0481 366.446 92.2934 366.745 92.6347C367.043 92.9761 367.193 93.3921 367.193 93.8827C367.193 94.3841 367.059 94.8267 366.793 95.2107C366.526 95.5841 366.153 95.8721 365.673 96.0747C365.193 96.2774 364.638 96.3788 364.009 96.3788Z" fill="#454545"/>
<g filter="url(#filter1_dii_467_1004)">
<circle cx="199" cy="91.2188" r="6" fill="#00BFA1"/>
</g>
<path d="M223.936 114.659V125.219H222.72V118.579L222.864 115.795H222.848L219.376 125.219H218.288L214.816 115.795H214.8L214.944 118.579V125.219H213.728V114.659H215.696L218.016 121.075L218.816 123.715H218.848L219.664 121.091L221.968 114.659H223.936ZM230.331 117.059C231.089 117.059 231.755 117.224 232.331 117.555C232.918 117.885 233.377 118.365 233.707 118.995C234.038 119.613 234.203 120.355 234.203 121.219C234.203 122.083 234.038 122.829 233.707 123.459C233.377 124.077 232.918 124.552 232.331 124.883C231.755 125.213 231.089 125.379 230.331 125.379C229.585 125.379 228.918 125.213 228.331 124.883C227.745 124.552 227.286 124.077 226.955 123.459C226.625 122.829 226.459 122.083 226.459 121.219C226.459 120.355 226.625 119.613 226.955 118.995C227.286 118.365 227.745 117.885 228.331 117.555C228.918 117.224 229.585 117.059 230.331 117.059ZM230.331 118.163C229.787 118.163 229.323 118.285 228.939 118.531C228.555 118.776 228.257 119.128 228.043 119.587C227.841 120.035 227.739 120.579 227.739 121.219C227.739 121.848 227.841 122.392 228.043 122.851C228.257 123.309 228.555 123.661 228.939 123.907C229.323 124.152 229.787 124.275 230.331 124.275C230.875 124.275 231.339 124.152 231.723 123.907C232.107 123.661 232.401 123.309 232.603 122.851C232.817 122.392 232.923 121.848 232.923 121.219C232.923 120.579 232.817 120.035 232.603 119.587C232.401 119.128 232.107 118.776 231.723 118.531C231.339 118.285 230.875 118.163 230.331 118.163ZM236.613 125.219V117.219H237.653L237.829 118.531C238.053 118.04 238.378 117.672 238.805 117.427C239.242 117.181 239.77 117.059 240.389 117.059C240.528 117.059 240.677 117.069 240.837 117.091C241.008 117.112 241.152 117.155 241.269 117.219L241.045 118.387C240.928 118.344 240.8 118.312 240.661 118.291C240.522 118.269 240.325 118.259 240.069 118.259C239.738 118.259 239.402 118.355 239.061 118.547C238.73 118.739 238.453 119.032 238.229 119.427C238.005 119.811 237.893 120.301 237.893 120.899V125.219H236.613ZM246.238 125.379C245.481 125.379 244.804 125.213 244.206 124.883C243.62 124.552 243.161 124.077 242.83 123.459C242.5 122.829 242.334 122.083 242.334 121.219C242.334 120.355 242.5 119.613 242.83 118.995C243.161 118.365 243.614 117.885 244.19 117.555C244.766 117.224 245.422 117.059 246.158 117.059C246.905 117.059 247.54 117.219 248.062 117.539C248.596 117.859 249.001 118.296 249.278 118.851C249.556 119.395 249.694 120.008 249.694 120.691C249.694 120.872 249.689 121.037 249.678 121.187C249.668 121.336 249.652 121.469 249.63 121.587H243.166V120.451H249.07L248.414 120.579C248.414 119.811 248.201 119.219 247.774 118.803C247.358 118.387 246.809 118.179 246.126 118.179C245.604 118.179 245.15 118.301 244.766 118.547C244.393 118.781 244.1 119.128 243.886 119.587C243.684 120.035 243.582 120.579 243.582 121.219C243.582 121.848 243.689 122.392 243.902 122.851C244.116 123.309 244.414 123.661 244.798 123.907C245.193 124.141 245.662 124.259 246.206 124.259C246.793 124.259 247.268 124.147 247.63 123.923C248.004 123.699 248.302 123.395 248.526 123.011L249.534 123.603C249.332 123.965 249.07 124.28 248.75 124.547C248.441 124.813 248.073 125.021 247.646 125.171C247.23 125.309 246.761 125.379 246.238 125.379ZM259.157 114.947V123.011C259.157 123.405 259.269 123.699 259.493 123.891C259.717 124.083 260.005 124.179 260.357 124.179C260.667 124.179 260.933 124.125 261.157 124.019C261.381 123.912 261.584 123.768 261.765 123.587L262.213 124.659C261.968 124.883 261.675 125.059 261.333 125.187C261.003 125.315 260.619 125.379 260.181 125.379C259.776 125.379 259.397 125.309 259.045 125.171C258.693 125.021 258.411 124.792 258.197 124.483C257.995 124.163 257.888 123.747 257.877 123.235V115.299L259.157 114.947ZM262.069 117.219V118.323H256.277V117.219H262.069ZM263.972 125.219V113.539H265.252V118.419C265.53 117.939 265.898 117.592 266.356 117.379C266.815 117.165 267.316 117.059 267.86 117.059C268.436 117.059 268.959 117.171 269.428 117.395C269.898 117.608 270.271 117.939 270.548 118.387C270.836 118.835 270.98 119.405 270.98 120.099V125.219H269.7V120.547C269.7 119.661 269.508 119.048 269.124 118.707C268.751 118.355 268.287 118.179 267.732 118.179C267.348 118.179 266.964 118.269 266.58 118.451C266.196 118.632 265.876 118.931 265.62 119.347C265.375 119.752 265.252 120.296 265.252 120.979V125.219H263.972ZM278.551 120.051C278.551 119.453 278.391 118.995 278.071 118.675C277.751 118.344 277.297 118.179 276.711 118.179C276.156 118.179 275.687 118.301 275.303 118.547C274.919 118.781 274.636 119.165 274.455 119.699L273.415 119.059C273.628 118.461 274.023 117.981 274.599 117.619C275.175 117.245 275.889 117.059 276.743 117.059C277.319 117.059 277.841 117.16 278.311 117.363C278.78 117.555 279.148 117.853 279.415 118.259C279.692 118.653 279.831 119.165 279.831 119.795V123.667C279.831 124.051 280.033 124.243 280.439 124.243C280.641 124.243 280.839 124.216 281.031 124.163L280.967 125.171C280.753 125.277 280.476 125.331 280.135 125.331C279.825 125.331 279.548 125.272 279.303 125.155C279.057 125.037 278.865 124.861 278.727 124.627C278.588 124.381 278.519 124.077 278.519 123.715V123.555L278.839 123.603C278.711 124.019 278.492 124.36 278.183 124.627C277.873 124.883 277.527 125.075 277.143 125.203C276.759 125.32 276.38 125.379 276.007 125.379C275.537 125.379 275.1 125.299 274.695 125.139C274.289 124.979 273.964 124.739 273.719 124.419C273.484 124.088 273.367 123.683 273.367 123.203C273.367 122.605 273.564 122.115 273.959 121.731C274.364 121.336 274.924 121.069 275.639 120.931L278.807 120.307V121.363L276.231 121.891C275.708 121.997 275.319 122.147 275.063 122.339C274.807 122.531 274.679 122.797 274.679 123.139C274.679 123.469 274.807 123.741 275.063 123.955C275.329 124.157 275.703 124.259 276.183 124.259C276.492 124.259 276.785 124.221 277.063 124.147C277.351 124.061 277.607 123.939 277.831 123.779C278.055 123.608 278.231 123.4 278.359 123.155C278.487 122.899 278.551 122.6 278.551 122.259V120.051ZM282.941 125.219V117.219H284.061L284.173 119.011L283.965 118.835C284.136 118.408 284.365 118.067 284.653 117.811C284.941 117.544 285.272 117.352 285.645 117.235C286.029 117.117 286.424 117.059 286.829 117.059C287.405 117.059 287.928 117.171 288.397 117.395C288.866 117.608 289.24 117.939 289.517 118.387C289.805 118.835 289.949 119.405 289.949 120.099V125.219H288.669V120.547C288.669 119.661 288.477 119.048 288.093 118.707C287.72 118.355 287.256 118.179 286.701 118.179C286.317 118.179 285.933 118.269 285.549 118.451C285.165 118.632 284.845 118.925 284.589 119.331C284.344 119.736 284.221 120.28 284.221 120.963V125.219H282.941ZM301.453 125.379C300.514 125.379 299.682 125.16 298.957 124.723C298.242 124.275 297.757 123.661 297.501 122.883L298.781 122.227C298.909 122.621 299.085 122.968 299.309 123.267C299.533 123.555 299.826 123.779 300.189 123.939C300.562 124.099 301.026 124.179 301.581 124.179C302.05 124.179 302.445 124.093 302.765 123.923C303.085 123.752 303.33 123.523 303.501 123.235C303.671 122.936 303.757 122.595 303.757 122.211C303.757 121.827 303.682 121.507 303.533 121.251C303.394 120.995 303.17 120.808 302.861 120.691C302.551 120.563 302.146 120.499 301.645 120.499C301.527 120.499 301.399 120.504 301.261 120.515C301.122 120.515 300.978 120.525 300.829 120.547V119.267C300.925 119.277 301.015 119.283 301.101 119.283C301.197 119.283 301.282 119.283 301.357 119.283C302.135 119.283 302.69 119.133 303.021 118.835C303.351 118.525 303.517 118.045 303.517 117.395C303.517 116.84 303.346 116.419 303.005 116.131C302.663 115.843 302.178 115.699 301.549 115.699C300.877 115.699 300.365 115.848 300.013 116.147C299.661 116.435 299.383 116.829 299.181 117.331L297.965 116.755C298.135 116.307 298.391 115.912 298.733 115.571C299.074 115.229 299.485 114.963 299.965 114.771C300.455 114.579 300.994 114.483 301.581 114.483C302.317 114.483 302.925 114.611 303.405 114.867C303.885 115.112 304.242 115.443 304.477 115.859C304.722 116.275 304.845 116.733 304.845 117.235C304.845 117.619 304.791 117.965 304.685 118.275C304.578 118.573 304.429 118.835 304.237 119.059C304.055 119.283 303.847 119.464 303.613 119.603C303.378 119.731 303.127 119.816 302.861 119.859V119.891C303.213 119.901 303.522 119.971 303.789 120.099C304.066 120.227 304.301 120.397 304.493 120.611C304.685 120.824 304.829 121.069 304.925 121.347C305.031 121.613 305.085 121.896 305.085 122.195C305.085 122.813 304.93 123.363 304.621 123.843C304.322 124.323 303.901 124.701 303.357 124.979C302.813 125.245 302.178 125.379 301.453 125.379ZM313.082 125.219V117.219H314.202L314.282 118.467C314.57 117.976 314.943 117.619 315.402 117.395C315.871 117.171 316.351 117.059 316.842 117.059C317.407 117.059 317.94 117.187 318.442 117.443C318.943 117.699 319.327 118.093 319.594 118.627C319.764 118.264 320.004 117.971 320.314 117.747C320.623 117.512 320.959 117.341 321.322 117.235C321.695 117.117 322.047 117.059 322.378 117.059C322.89 117.059 323.375 117.165 323.834 117.379C324.303 117.592 324.687 117.923 324.986 118.371C325.284 118.819 325.434 119.395 325.434 120.099V125.219H324.154V120.227C324.154 119.501 323.972 118.979 323.61 118.659C323.247 118.339 322.799 118.179 322.266 118.179C321.85 118.179 321.46 118.28 321.098 118.483C320.735 118.685 320.442 118.984 320.218 119.379C320.004 119.773 319.898 120.259 319.898 120.835V125.219H318.618V120.227C318.618 119.501 318.436 118.979 318.074 118.659C317.711 118.339 317.263 118.179 316.73 118.179C316.378 118.179 316.015 118.275 315.642 118.467C315.279 118.648 314.975 118.941 314.73 119.347C314.484 119.752 314.362 120.285 314.362 120.947V125.219H313.082ZM331.644 117.059C332.401 117.059 333.068 117.224 333.644 117.555C334.23 117.885 334.689 118.365 335.02 118.995C335.35 119.613 335.516 120.355 335.516 121.219C335.516 122.083 335.35 122.829 335.02 123.459C334.689 124.077 334.23 124.552 333.644 124.883C333.068 125.213 332.401 125.379 331.644 125.379C330.897 125.379 330.23 125.213 329.644 124.883C329.057 124.552 328.598 124.077 328.268 123.459C327.937 122.829 327.772 122.083 327.772 121.219C327.772 120.355 327.937 119.613 328.268 118.995C328.598 118.365 329.057 117.885 329.644 117.555C330.23 117.224 330.897 117.059 331.644 117.059ZM331.644 118.163C331.1 118.163 330.636 118.285 330.252 118.531C329.868 118.776 329.569 119.128 329.356 119.587C329.153 120.035 329.052 120.579 329.052 121.219C329.052 121.848 329.153 122.392 329.356 122.851C329.569 123.309 329.868 123.661 330.252 123.907C330.636 124.152 331.1 124.275 331.644 124.275C332.188 124.275 332.652 124.152 333.036 123.907C333.42 123.661 333.713 123.309 333.916 122.851C334.129 122.392 334.236 121.848 334.236 121.219C334.236 120.579 334.129 120.035 333.916 119.587C333.713 119.128 333.42 118.776 333.036 118.531C332.652 118.285 332.188 118.163 331.644 118.163ZM337.926 125.219V117.219H339.046L339.158 119.011L338.95 118.835C339.12 118.408 339.35 118.067 339.638 117.811C339.926 117.544 340.256 117.352 340.63 117.235C341.014 117.117 341.408 117.059 341.814 117.059C342.39 117.059 342.912 117.171 343.382 117.395C343.851 117.608 344.224 117.939 344.502 118.387C344.79 118.835 344.934 119.405 344.934 120.099V125.219H343.654V120.547C343.654 119.661 343.462 119.048 343.078 118.707C342.704 118.355 342.24 118.179 341.686 118.179C341.302 118.179 340.918 118.269 340.534 118.451C340.15 118.632 339.83 118.925 339.574 119.331C339.328 119.736 339.206 120.28 339.206 120.963V125.219H337.926ZM349.61 114.947V123.011C349.61 123.405 349.722 123.699 349.946 123.891C350.17 124.083 350.458 124.179 350.81 124.179C351.12 124.179 351.386 124.125 351.61 124.019C351.834 123.912 352.037 123.768 352.218 123.587L352.666 124.659C352.421 124.883 352.128 125.059 351.786 125.187C351.456 125.315 351.072 125.379 350.634 125.379C350.229 125.379 349.85 125.309 349.498 125.171C349.146 125.021 348.864 124.792 348.65 124.483C348.448 124.163 348.341 123.747 348.33 123.235V115.299L349.61 114.947ZM352.522 117.219V118.323H346.73V117.219H352.522ZM354.426 125.219V113.539H355.706V118.419C355.983 117.939 356.351 117.592 356.81 117.379C357.268 117.165 357.77 117.059 358.314 117.059C358.89 117.059 359.412 117.171 359.882 117.395C360.351 117.608 360.724 117.939 361.002 118.387C361.29 118.835 361.434 119.405 361.434 120.099V125.219H360.154V120.547C360.154 119.661 359.962 119.048 359.578 118.707C359.204 118.355 358.74 118.179 358.186 118.179C357.802 118.179 357.418 118.269 357.034 118.451C356.65 118.632 356.33 118.931 356.074 119.347C355.828 119.752 355.706 120.296 355.706 120.979V125.219H354.426ZM367.212 125.379C366.433 125.379 365.713 125.213 365.052 124.883C364.401 124.552 363.9 124.083 363.548 123.475L364.636 122.691C364.87 123.181 365.212 123.565 365.66 123.843C366.118 124.12 366.668 124.259 367.308 124.259C367.873 124.259 368.316 124.152 368.636 123.939C368.956 123.715 369.116 123.427 369.116 123.075C369.116 122.851 369.041 122.648 368.892 122.467C368.753 122.275 368.481 122.136 368.076 122.051L366.156 121.651C365.377 121.491 364.817 121.224 364.476 120.851C364.145 120.477 363.98 120.013 363.98 119.459C363.98 119.021 364.102 118.621 364.348 118.259C364.604 117.896 364.961 117.608 365.42 117.395C365.889 117.171 366.438 117.059 367.068 117.059C367.857 117.059 368.524 117.213 369.068 117.523C369.612 117.832 370.017 118.269 370.284 118.835L369.212 119.539C369.03 119.069 368.737 118.728 368.332 118.515C367.926 118.291 367.505 118.179 367.068 118.179C366.684 118.179 366.353 118.232 366.076 118.339C365.809 118.445 365.601 118.595 365.452 118.787C365.313 118.968 365.244 119.176 365.244 119.411C365.244 119.645 365.324 119.864 365.484 120.067C365.644 120.259 365.942 120.397 366.38 120.483L368.38 120.899C369.126 121.048 369.649 121.293 369.948 121.635C370.246 121.976 370.396 122.392 370.396 122.883C370.396 123.384 370.262 123.827 369.996 124.211C369.729 124.584 369.356 124.872 368.876 125.075C368.396 125.277 367.841 125.379 367.212 125.379Z" fill="#454545"/>
<g filter="url(#filter2_dii_467_1004)">
<circle cx="199" cy="120.219" r="6" fill="#FF9900"/>
</g>
<g filter="url(#filter3_dii_467_1004)">
<path d="M157.9 129.406C167.222 114.045 170.839 95.8916 168.117 78.13C165.395 60.3683 156.507 44.1316 143.013 32.2668C129.518 20.4019 112.277 13.6661 94.3129 13.2402C76.3489 12.8144 58.8082 18.7258 44.7663 29.9379L92.5 89.7188L157.9 129.406Z" fill="#00BFA1"/>
</g>
<g filter="url(#filter4_dii_467_1004)">
<path d="M23.6566 126.924C14.7895 110.993 11.9037 92.4188 15.5193 74.5484C19.1348 56.6781 29.0141 40.6866 43.3767 29.4556L90.5 89.7188L23.6566 126.924Z" fill="#1472CC"/>
</g>
<g filter="url(#filter5_dii_467_1004)">
<path d="M156.864 129.773C150.113 141.545 140.353 151.309 128.585 158.065C116.816 164.82 103.462 168.324 89.8926 168.216C76.3232 168.109 63.0266 164.393 51.3666 157.452C39.7066 150.51 30.1029 140.592 23.5405 128.714L90.5 91.7187L156.864 129.773Z" fill="#FF9900"/>
</g>
<path d="M108.248 73.2188V65.9707C108.248 65.7574 108.248 65.5387 108.248 65.3147C108.259 65.0801 108.269 64.8347 108.28 64.5787C107.917 64.9307 107.501 65.2347 107.032 65.4907C106.573 65.7361 106.099 65.9121 105.608 66.0187L105.288 64.5307C105.512 64.4987 105.773 64.4241 106.072 64.3067C106.371 64.1894 106.68 64.0401 107 63.8587C107.32 63.6774 107.613 63.4854 107.88 63.2827C108.147 63.0694 108.355 62.8614 108.504 62.6587H109.944V73.2188H108.248ZM116.702 62.4987C117.267 62.4987 117.768 62.5787 118.206 62.7387C118.643 62.8881 119.022 63.1281 119.342 63.4587C119.672 63.7894 119.944 64.2214 120.158 64.7547L118.654 65.4747C118.504 65.0161 118.264 64.6534 117.934 64.3867C117.614 64.1201 117.166 63.9867 116.59 63.9867C116.174 63.9867 115.806 64.0881 115.486 64.2907C115.166 64.4934 114.894 64.7814 114.67 65.1547C114.446 65.5174 114.275 65.9494 114.158 66.4507C114.04 66.9414 113.982 67.4747 113.982 68.0507C113.982 68.0827 113.982 68.1201 113.982 68.1627C113.982 68.1947 113.982 68.2534 113.982 68.3387L114.046 68.3707C114.163 67.9441 114.371 67.6027 114.67 67.3467C114.979 67.0801 115.326 66.8827 115.71 66.7547C116.094 66.6267 116.472 66.5627 116.846 66.5627C117.55 66.5627 118.163 66.7014 118.686 66.9787C119.208 67.2454 119.614 67.6294 119.902 68.1307C120.2 68.6321 120.35 69.2294 120.35 69.9227C120.35 70.6267 120.195 71.2401 119.885 71.7627C119.576 72.2747 119.144 72.6747 118.59 72.9627C118.046 73.2401 117.39 73.3788 116.622 73.3788C115.726 73.3788 114.963 73.1547 114.334 72.7067C113.704 72.2587 113.224 71.6294 112.894 70.8187C112.563 70.0081 112.398 69.0587 112.398 67.9707C112.398 66.7654 112.584 65.7574 112.958 64.9467C113.342 64.1361 113.859 63.5281 114.51 63.1227C115.16 62.7067 115.891 62.4987 116.702 62.4987ZM116.59 67.9867C116.184 67.9867 115.827 68.0721 115.518 68.2427C115.208 68.4027 114.963 68.6267 114.782 68.9147C114.611 69.2027 114.526 69.5387 114.526 69.9227C114.526 70.2961 114.616 70.6321 114.798 70.9307C114.99 71.2294 115.24 71.4694 115.549 71.6507C115.859 71.8214 116.206 71.9067 116.59 71.9067C117.24 71.9067 117.747 71.7307 118.11 71.3787C118.472 71.0267 118.654 70.5414 118.654 69.9227C118.654 69.5281 118.574 69.1867 118.414 68.8987C118.254 68.6001 118.019 68.3761 117.71 68.2267C117.411 68.0667 117.038 67.9867 116.59 67.9867ZM126.243 73.3788C124.973 73.3788 123.976 72.9201 123.251 72.0027C122.536 71.0747 122.179 69.7201 122.179 67.9387C122.179 66.1574 122.536 64.8081 123.251 63.8907C123.976 62.9627 124.973 62.4987 126.243 62.4987C127.523 62.4987 128.52 62.9627 129.235 63.8907C129.96 64.8081 130.323 66.1574 130.323 67.9387C130.323 69.7201 129.96 71.0747 129.235 72.0027C128.52 72.9201 127.523 73.3788 126.243 73.3788ZM126.243 71.9227C126.755 71.9227 127.181 71.7787 127.523 71.4907C127.875 71.1921 128.136 70.7494 128.307 70.1627C128.488 69.5654 128.579 68.8241 128.579 67.9387C128.579 67.0534 128.488 66.3174 128.307 65.7307C128.136 65.1334 127.875 64.6907 127.523 64.4028C127.181 64.1041 126.755 63.9547 126.243 63.9547C125.731 63.9547 125.299 64.1041 124.947 64.4028C124.605 64.6907 124.349 65.1334 124.179 65.7307C124.008 66.3174 123.923 67.0534 123.923 67.9387C123.923 68.8241 124.008 69.5654 124.179 70.1627C124.349 70.7494 124.605 71.1921 124.947 71.4907C125.299 71.7787 125.731 71.9227 126.243 71.9227ZM134.114 73.2188L141.026 62.6587H142.498L135.602 73.2188H134.114ZM134.53 62.4987C135.074 62.4987 135.543 62.6214 135.938 62.8667C136.343 63.1121 136.652 63.4534 136.866 63.8907C137.09 64.3281 137.202 64.8454 137.202 65.4427C137.202 66.0294 137.09 66.5467 136.866 66.9947C136.652 67.4321 136.343 67.7734 135.938 68.0187C135.543 68.2641 135.074 68.3867 134.53 68.3867C133.996 68.3867 133.527 68.2641 133.122 68.0187C132.716 67.7734 132.402 67.4321 132.178 66.9947C131.964 66.5467 131.858 66.0294 131.858 65.4427C131.858 64.8454 131.964 64.3281 132.178 63.8907C132.402 63.4534 132.716 63.1121 133.122 62.8667C133.527 62.6214 133.996 62.4987 134.53 62.4987ZM134.53 63.7467C134.263 63.7467 134.034 63.8161 133.842 63.9547C133.65 64.0827 133.506 64.2747 133.41 64.5307C133.314 64.7761 133.266 65.0801 133.266 65.4427C133.266 65.7947 133.314 66.0987 133.41 66.3547C133.506 66.6107 133.65 66.8027 133.842 66.9307C134.034 67.0587 134.263 67.1227 134.53 67.1227C134.807 67.1227 135.042 67.0587 135.234 66.9307C135.426 66.8027 135.57 66.6107 135.666 66.3547C135.762 66.0987 135.81 65.7947 135.81 65.4427C135.81 65.0801 135.762 64.7761 135.666 64.5307C135.57 64.2747 135.426 64.0827 135.234 63.9547C135.042 63.8161 134.807 63.7467 134.53 63.7467ZM142.082 67.4907C142.626 67.4907 143.095 67.6134 143.49 67.8587C143.895 68.1041 144.204 68.4507 144.418 68.8987C144.642 69.3361 144.754 69.8481 144.754 70.4347C144.754 71.0321 144.642 71.5494 144.418 71.9867C144.204 72.4241 143.895 72.7654 143.49 73.0107C143.095 73.2561 142.626 73.3788 142.082 73.3788C141.548 73.3788 141.079 73.2561 140.674 73.0107C140.268 72.7654 139.954 72.4241 139.73 71.9867C139.516 71.5494 139.41 71.0321 139.41 70.4347C139.41 69.8481 139.516 69.3361 139.73 68.8987C139.954 68.4507 140.268 68.1041 140.674 67.8587C141.079 67.6134 141.548 67.4907 142.082 67.4907ZM142.082 68.7547C141.815 68.7547 141.586 68.8187 141.394 68.9467C141.202 69.0747 141.058 69.2667 140.962 69.5227C140.866 69.7681 140.818 70.0721 140.818 70.4347C140.818 70.7867 140.866 71.0907 140.962 71.3467C141.058 71.6027 141.202 71.8001 141.394 71.9387C141.586 72.0667 141.815 72.1307 142.082 72.1307C142.359 72.1307 142.594 72.0667 142.786 71.9387C142.978 71.8001 143.122 71.6027 143.218 71.3467C143.314 71.0907 143.362 70.7867 143.362 70.4347C143.362 70.0827 143.314 69.7787 143.218 69.5227C143.122 69.2667 142.978 69.0747 142.786 68.9467C142.594 68.8187 142.359 68.7547 142.082 68.7547Z" fill="white"/>
<path d="M35.264 74.4987C35.8293 74.4987 36.3307 74.5787 36.768 74.7387C37.2053 74.8881 37.584 75.1281 37.904 75.4587C38.2347 75.7894 38.5067 76.2214 38.72 76.7547L37.216 77.4747C37.0667 77.0161 36.8267 76.6534 36.496 76.3867C36.176 76.1201 35.728 75.9867 35.152 75.9867C34.736 75.9867 34.368 76.0881 34.048 76.2907C33.728 76.4934 33.456 76.7814 33.232 77.1547C33.008 77.5174 32.8373 77.9494 32.72 78.4507C32.6027 78.9414 32.544 79.4747 32.544 80.0507C32.544 80.0827 32.544 80.1201 32.544 80.1627C32.544 80.1947 32.544 80.2534 32.544 80.3387L32.608 80.3707C32.7253 79.9441 32.9333 79.6027 33.232 79.3467C33.5413 79.0801 33.888 78.8827 34.272 78.7547C34.656 78.6267 35.0347 78.5627 35.408 78.5627C36.112 78.5627 36.7253 78.7014 37.248 78.9787C37.7707 79.2454 38.176 79.6294 38.464 80.1307C38.7627 80.6321 38.912 81.2294 38.912 81.9227C38.912 82.6267 38.7573 83.2401 38.448 83.7627C38.1387 84.2747 37.7067 84.6747 37.152 84.9627C36.608 85.2401 35.952 85.3788 35.184 85.3788C34.288 85.3788 33.5253 85.1547 32.896 84.7067C32.2667 84.2587 31.7867 83.6294 31.456 82.8187C31.1253 82.0081 30.96 81.0587 30.96 79.9707C30.96 78.7654 31.1467 77.7574 31.52 76.9467C31.904 76.1361 32.4213 75.5281 33.072 75.1227C33.7227 74.7067 34.4533 74.4987 35.264 74.4987ZM35.152 79.9867C34.7467 79.9867 34.3893 80.0721 34.08 80.2427C33.7707 80.4027 33.5253 80.6267 33.344 80.9147C33.1733 81.2027 33.088 81.5387 33.088 81.9227C33.088 82.2961 33.1787 82.6321 33.36 82.9307C33.552 83.2294 33.8027 83.4694 34.112 83.6507C34.4213 83.8214 34.768 83.9067 35.152 83.9067C35.8027 83.9067 36.3093 83.7307 36.672 83.3787C37.0347 83.0267 37.216 82.5414 37.216 81.9227C37.216 81.5281 37.136 81.1867 36.976 80.8987C36.816 80.6001 36.5813 80.3761 36.272 80.2267C35.9733 80.0667 35.6 79.9867 35.152 79.9867ZM45.6373 85.2188V82.5787H40.4853V81.4107C40.5066 81.3574 40.5386 81.2934 40.5813 81.2188C40.6346 81.1441 40.6933 81.0587 40.7573 80.9627L45.1573 74.6587H47.2533V81.2507H49.0453V82.5787H47.2533V85.2188H45.6373ZM42.0853 81.2507H45.6373V77.5227C45.6373 77.2667 45.6426 77.0054 45.6533 76.7387C45.6746 76.4614 45.6906 76.1894 45.7013 75.9227H45.6693C45.5519 76.1787 45.3973 76.4614 45.2053 76.7708C45.0239 77.0694 44.8533 77.3307 44.6933 77.5547L42.1973 81.1068C42.1759 81.1281 42.1546 81.1494 42.1332 81.1707C42.1226 81.1921 42.1066 81.2187 42.0853 81.2507ZM52.5824 85.2188L59.4944 74.6587H60.9664L54.0704 85.2188H52.5824ZM52.9984 74.4987C53.5424 74.4987 54.0117 74.6214 54.4064 74.8667C54.8117 75.1121 55.121 75.4534 55.3344 75.8907C55.5584 76.3281 55.6704 76.8454 55.6704 77.4427C55.6704 78.0294 55.5584 78.5467 55.3344 78.9947C55.121 79.4321 54.8117 79.7734 54.4064 80.0187C54.0117 80.2641 53.5424 80.3867 52.9984 80.3867C52.465 80.3867 51.9957 80.2641 51.5904 80.0187C51.185 79.7734 50.8704 79.4321 50.6464 78.9947C50.433 78.5467 50.3264 78.0294 50.3264 77.4427C50.3264 76.8454 50.433 76.3281 50.6464 75.8907C50.8704 75.4534 51.185 75.1121 51.5904 74.8667C51.9957 74.6214 52.465 74.4987 52.9984 74.4987ZM52.9984 75.7467C52.7317 75.7467 52.5024 75.8161 52.3104 75.9547C52.1184 76.0827 51.9744 76.2747 51.8784 76.5307C51.7824 76.7761 51.7344 77.0801 51.7344 77.4427C51.7344 77.7947 51.7824 78.0987 51.8784 78.3547C51.9744 78.6107 52.1184 78.8027 52.3104 78.9307C52.5024 79.0587 52.7317 79.1227 52.9984 79.1227C53.2757 79.1227 53.5104 79.0587 53.7024 78.9307C53.8944 78.8027 54.0384 78.6107 54.1344 78.3547C54.2304 78.0987 54.2784 77.7947 54.2784 77.4427C54.2784 77.0801 54.2304 76.7761 54.1344 76.5307C54.0384 76.2747 53.8944 76.0827 53.7024 75.9547C53.5104 75.8161 53.2757 75.7467 52.9984 75.7467ZM60.5504 79.4907C61.0944 79.4907 61.5637 79.6134 61.9584 79.8587C62.3637 80.1041 62.673 80.4507 62.8864 80.8987C63.1104 81.3361 63.2224 81.8481 63.2224 82.4347C63.2224 83.0321 63.1104 83.5494 62.8864 83.9867C62.673 84.4241 62.3637 84.7654 61.9584 85.0107C61.5637 85.2561 61.0944 85.3788 60.5504 85.3788C60.017 85.3788 59.5477 85.2561 59.1424 85.0107C58.737 84.7654 58.4224 84.4241 58.1984 83.9867C57.985 83.5494 57.8784 83.0321 57.8784 82.4347C57.8784 81.8481 57.985 81.3361 58.1984 80.8987C58.4224 80.4507 58.737 80.1041 59.1424 79.8587C59.5477 79.6134 60.017 79.4907 60.5504 79.4907ZM60.5504 80.7547C60.2837 80.7547 60.0544 80.8187 59.8624 80.9467C59.6704 81.0747 59.5264 81.2667 59.4304 81.5227C59.3344 81.7681 59.2864 82.0721 59.2864 82.4347C59.2864 82.7867 59.3344 83.0907 59.4304 83.3467C59.5264 83.6027 59.6704 83.8001 59.8624 83.9387C60.0544 84.0667 60.2837 84.1307 60.5504 84.1307C60.8277 84.1307 61.0624 84.0667 61.2544 83.9387C61.4464 83.8001 61.5904 83.6027 61.6864 83.3467C61.7824 83.0907 61.8304 82.7867 61.8304 82.4347C61.8304 82.0827 61.7824 81.7787 61.6864 81.5227C61.5904 81.2667 61.4464 81.0747 61.2544 80.9467C61.0624 80.8187 60.8277 80.7547 60.5504 80.7547Z" fill="white"/>
<path d="M74.248 137.219V129.971C74.248 129.757 74.248 129.539 74.248 129.315C74.2587 129.08 74.2693 128.835 74.28 128.579C73.9173 128.931 73.5013 129.235 73.032 129.491C72.5733 129.736 72.0987 129.912 71.608 130.019L71.288 128.531C71.512 128.499 71.7733 128.424 72.072 128.307C72.3707 128.189 72.68 128.04 73 127.859C73.32 127.677 73.6133 127.485 73.88 127.283C74.1467 127.069 74.3547 126.861 74.504 126.659H75.944V137.219H74.248ZM82.1255 137.379C81.1335 137.379 80.2695 137.16 79.5335 136.723C78.8082 136.275 78.3122 135.651 78.0455 134.851L79.7095 134.067C79.8055 134.451 79.9548 134.781 80.1575 135.059C80.3602 135.336 80.6268 135.549 80.9575 135.699C81.2882 135.837 81.6988 135.907 82.1895 135.907C82.6055 135.907 82.9575 135.832 83.2455 135.683C83.5335 135.533 83.7522 135.325 83.9015 135.059C84.0615 134.792 84.1415 134.488 84.1415 134.147C84.1415 133.795 84.0722 133.501 83.9335 133.267C83.8055 133.032 83.5975 132.861 83.3095 132.755C83.0322 132.648 82.6748 132.595 82.2375 132.595C82.1095 132.595 81.9762 132.6 81.8375 132.611C81.7095 132.611 81.5708 132.621 81.4215 132.643V131.203C81.5175 131.213 81.6082 131.224 81.6935 131.235C81.7895 131.235 81.8802 131.235 81.9655 131.235C82.6588 131.235 83.1548 131.096 83.4535 130.819C83.7522 130.541 83.9015 130.109 83.9015 129.523C83.9015 129.021 83.7468 128.637 83.4375 128.371C83.1388 128.104 82.7068 127.971 82.1415 127.971C81.5548 127.971 81.0962 128.109 80.7655 128.387C80.4455 128.653 80.2002 129.043 80.0295 129.555L78.4615 128.899C78.6108 128.408 78.8615 127.981 79.2135 127.619C79.5655 127.256 79.9975 126.979 80.5095 126.787C81.0322 126.584 81.6028 126.483 82.2215 126.483C82.9788 126.483 83.6082 126.605 84.1095 126.851C84.6215 127.096 85.0002 127.432 85.2455 127.859C85.5015 128.285 85.6295 128.76 85.6295 129.283C85.6295 129.688 85.5708 130.045 85.4535 130.355C85.3362 130.653 85.1762 130.915 84.9735 131.139C84.7815 131.352 84.5682 131.517 84.3335 131.635C84.1095 131.752 83.8802 131.832 83.6455 131.875V131.907C83.9548 131.917 84.2375 131.981 84.4935 132.099C84.7602 132.205 84.9948 132.36 85.1975 132.563C85.4108 132.755 85.5762 132.989 85.6935 133.267C85.8108 133.544 85.8695 133.848 85.8695 134.179C85.8695 134.819 85.7095 135.379 85.3895 135.859C85.0695 136.339 84.6268 136.712 84.0615 136.979C83.5068 137.245 82.8615 137.379 82.1255 137.379ZM92.0765 126.499C92.6418 126.499 93.1432 126.579 93.5805 126.739C94.0178 126.888 94.3965 127.128 94.7165 127.459C95.0472 127.789 95.3192 128.221 95.5325 128.755L94.0285 129.475C93.8792 129.016 93.6392 128.653 93.3085 128.387C92.9885 128.12 92.5405 127.987 91.9645 127.987C91.5485 127.987 91.1805 128.088 90.8605 128.291C90.5405 128.493 90.2685 128.781 90.0445 129.155C89.8205 129.517 89.6498 129.949 89.5325 130.451C89.4152 130.941 89.3565 131.475 89.3565 132.051C89.3565 132.083 89.3565 132.12 89.3565 132.163C89.3565 132.195 89.3565 132.253 89.3565 132.339L89.4205 132.371C89.5378 131.944 89.7458 131.603 90.0445 131.347C90.3538 131.08 90.7005 130.883 91.0845 130.755C91.4685 130.627 91.8472 130.563 92.2205 130.563C92.9245 130.563 93.5378 130.701 94.0605 130.979C94.5832 131.245 94.9885 131.629 95.2765 132.131C95.5752 132.632 95.7245 133.229 95.7245 133.923C95.7245 134.627 95.5698 135.24 95.2605 135.763C94.9512 136.275 94.5192 136.675 93.9645 136.963C93.4205 137.24 92.7645 137.379 91.9965 137.379C91.1005 137.379 90.3378 137.155 89.7085 136.707C89.0792 136.259 88.5992 135.629 88.2685 134.819C87.9378 134.008 87.7725 133.059 87.7725 131.971C87.7725 130.765 87.9592 129.757 88.3325 128.947C88.7165 128.136 89.2338 127.528 89.8845 127.123C90.5352 126.707 91.2658 126.499 92.0765 126.499ZM91.9645 131.987C91.5592 131.987 91.2018 132.072 90.8925 132.243C90.5832 132.403 90.3378 132.627 90.1565 132.915C89.9858 133.203 89.9005 133.539 89.9005 133.923C89.9005 134.296 89.9912 134.632 90.1725 134.931C90.3645 135.229 90.6152 135.469 90.9245 135.651C91.2338 135.821 91.5805 135.907 91.9645 135.907C92.6152 135.907 93.1218 135.731 93.4845 135.379C93.8472 135.027 94.0285 134.541 94.0285 133.923C94.0285 133.528 93.9485 133.187 93.7885 132.899C93.6285 132.6 93.3938 132.376 93.0845 132.227C92.7858 132.067 92.4125 131.987 91.9645 131.987ZM99.4418 137.219L106.354 126.659H107.826L100.93 137.219H99.4418ZM99.8578 126.499C100.402 126.499 100.871 126.621 101.266 126.867C101.671 127.112 101.98 127.453 102.194 127.891C102.418 128.328 102.53 128.845 102.53 129.443C102.53 130.029 102.418 130.547 102.194 130.995C101.98 131.432 101.671 131.773 101.266 132.019C100.871 132.264 100.402 132.387 99.8578 132.387C99.3244 132.387 98.8551 132.264 98.4498 132.019C98.0444 131.773 97.7298 131.432 97.5058 130.995C97.2924 130.547 97.1858 130.029 97.1858 129.443C97.1858 128.845 97.2924 128.328 97.5058 127.891C97.7298 127.453 98.0444 127.112 98.4498 126.867C98.8551 126.621 99.3244 126.499 99.8578 126.499ZM99.8578 127.747C99.5911 127.747 99.3618 127.816 99.1698 127.955C98.9778 128.083 98.8338 128.275 98.7378 128.531C98.6418 128.776 98.5938 129.08 98.5938 129.443C98.5938 129.795 98.6418 130.099 98.7378 130.355C98.8338 130.611 98.9778 130.803 99.1698 130.931C99.3618 131.059 99.5911 131.123 99.8578 131.123C100.135 131.123 100.37 131.059 100.562 130.931C100.754 130.803 100.898 130.611 100.994 130.355C101.09 130.099 101.138 129.795 101.138 129.443C101.138 129.08 101.09 128.776 100.994 128.531C100.898 128.275 100.754 128.083 100.562 127.955C100.37 127.816 100.135 127.747 99.8578 127.747ZM107.41 131.491C107.954 131.491 108.423 131.613 108.818 131.859C109.223 132.104 109.532 132.451 109.746 132.899C109.97 133.336 110.082 133.848 110.082 134.435C110.082 135.032 109.97 135.549 109.746 135.987C109.532 136.424 109.223 136.765 108.818 137.011C108.423 137.256 107.954 137.379 107.41 137.379C106.876 137.379 106.407 137.256 106.002 137.011C105.596 136.765 105.282 136.424 105.058 135.987C104.844 135.549 104.738 135.032 104.738 134.435C104.738 133.848 104.844 133.336 105.058 132.899C105.282 132.451 105.596 132.104 106.002 131.859C106.407 131.613 106.876 131.491 107.41 131.491ZM107.41 132.755C107.143 132.755 106.914 132.819 106.722 132.947C106.53 133.075 106.386 133.267 106.29 133.523C106.194 133.768 106.146 134.072 106.146 134.435C106.146 134.787 106.194 135.091 106.29 135.347C106.386 135.603 106.53 135.8 106.722 135.939C106.914 136.067 107.143 136.131 107.41 136.131C107.687 136.131 107.922 136.067 108.114 135.939C108.306 135.8 108.45 135.603 108.546 135.347C108.642 135.091 108.69 134.787 108.69 134.435C108.69 134.083 108.642 133.779 108.546 133.523C108.45 133.267 108.306 133.075 108.114 132.947C107.922 132.819 107.687 132.755 107.41 132.755Z" fill="white"/>
<defs>
<filter id="filter0_dii_467_1004" x="179" y="43.2188" width="42" height="42" filterUnits="userSpaceOnUse" color-interpolation-filters="sRGB">
<feFlood flood-opacity="0" result="BackgroundImageFix"/>
<feColorMatrix in="SourceAlpha" type="matrix" values="0 0 0 0 0 0 0 0 0 0 0 0 0 0 0 0 0 0 127 0" result="hardAlpha"/>
<feOffset dx="1" dy="2"/>
<feGaussianBlur stdDeviation="7.5"/>
<feComposite in2="hardAlpha" operator="out"/>
<feColorMatrix type="matrix" values="0 0 0 0 0 0 0 0 0 0 0 0 0 0 0 0 0 0 0.1 0"/>
<feBlend mode="normal" in2="BackgroundImageFix" result="effect1_dropShadow_467_1004"/>
<feBlend mode="normal" in="SourceGraphic" in2="effect1_dropShadow_467_1004" result="shape"/>
<feColorMatrix in="SourceAlpha" type="matrix" values="0 0 0 0 0 0 0 0 0 0 0 0 0 0 0 0 0 0 127 0" result="hardAlpha"/>
<feOffset dx="5" dy="5"/>
<feGaussianBlur stdDeviation="5"/>
<feComposite in2="hardAlpha" operator="arithmetic" k2="-1" k3="1"/>
<feColorMatrix type="matrix" values="0 0 0 0 1 0 0 0 0 1 0 0 0 0 1 0 0 0 0.35 0"/>
<feBlend mode="normal" in2="shape" result="effect2_innerShadow_467_1004"/>
<feColorMatrix in="SourceAlpha" type="matrix" values="0 0 0 0 0 0 0 0 0 0 0 0 0 0 0 0 0 0 127 0" result="hardAlpha"/>
<feOffset dx="-2" dy="-2"/>
<feGaussianBlur stdDeviation="7.5"/>
<feComposite in2="hardAlpha" operator="arithmetic" k2="-1" k3="1"/>
<feColorMatrix type="matrix" values="0 0 0 0 0 0 0 0 0 0 0 0 0 0 0 0 0 0 0.2 0"/>
<feBlend mode="normal" in2="effect2_innerShadow_467_1004" result="effect3_innerShadow_467_1004"/>
</filter>
<filter id="filter1_dii_467_1004" x="179" y="72.2188" width="42" height="42" filterUnits="userSpaceOnUse" color-interpolation-filters="sRGB">
<feFlood flood-opacity="0" result="BackgroundImageFix"/>
<feColorMatrix in="SourceAlpha" type="matrix" values="0 0 0 0 0 0 0 0 0 0 0 0 0 0 0 0 0 0 127 0" result="hardAlpha"/>
<feOffset dx="1" dy="2"/>
<feGaussianBlur stdDeviation="7.5"/>
<feComposite in2="hardAlpha" operator="out"/>
<feColorMatrix type="matrix" values="0 0 0 0 0 0 0 0 0 0 0 0 0 0 0 0 0 0 0.1 0"/>
<feBlend mode="normal" in2="BackgroundImageFix" result="effect1_dropShadow_467_1004"/>
<feBlend mode="normal" in="SourceGraphic" in2="effect1_dropShadow_467_1004" result="shape"/>
<feColorMatrix in="SourceAlpha" type="matrix" values="0 0 0 0 0 0 0 0 0 0 0 0 0 0 0 0 0 0 127 0" result="hardAlpha"/>
<feOffset dx="5" dy="5"/>
<feGaussianBlur stdDeviation="5"/>
<feComposite in2="hardAlpha" operator="arithmetic" k2="-1" k3="1"/>
<feColorMatrix type="matrix" values="0 0 0 0 1 0 0 0 0 1 0 0 0 0 1 0 0 0 0.35 0"/>
<feBlend mode="normal" in2="shape" result="effect2_innerShadow_467_1004"/>
<feColorMatrix in="SourceAlpha" type="matrix" values="0 0 0 0 0 0 0 0 0 0 0 0 0 0 0 0 0 0 127 0" result="hardAlpha"/>
<feOffset dx="-2" dy="-2"/>
<feGaussianBlur stdDeviation="7.5"/>
<feComposite in2="hardAlpha" operator="arithmetic" k2="-1" k3="1"/>
<feColorMatrix type="matrix" values="0 0 0 0 0 0 0 0 0 0 0 0 0 0 0 0 0 0 0.2 0"/>
<feBlend mode="normal" in2="effect2_innerShadow_467_1004" result="effect3_innerShadow_467_1004"/>
</filter>
<filter id="filter2_dii_467_1004" x="179" y="101.219" width="42" height="42" filterUnits="userSpaceOnUse" color-interpolation-filters="sRGB">
<feFlood flood-opacity="0" result="BackgroundImageFix"/>
<feColorMatrix in="SourceAlpha" type="matrix" values="0 0 0 0 0 0 0 0 0 0 0 0 0 0 0 0 0 0 127 0" result="hardAlpha"/>
<feOffset dx="1" dy="2"/>
<feGaussianBlur stdDeviation="7.5"/>
<feComposite in2="hardAlpha" operator="out"/>
<feColorMatrix type="matrix" values="0 0 0 0 0 0 0 0 0 0 0 0 0 0 0 0 0 0 0.1 0"/>
<feBlend mode="normal" in2="BackgroundImageFix" result="effect1_dropShadow_467_1004"/>
<feBlend mode="normal" in="SourceGraphic" in2="effect1_dropShadow_467_1004" result="shape"/>
<feColorMatrix in="SourceAlpha" type="matrix" values="0 0 0 0 0 0 0 0 0 0 0 0 0 0 0 0 0 0 127 0" result="hardAlpha"/>
<feOffset dx="5" dy="5"/>
<feGaussianBlur stdDeviation="5"/>
<feComposite in2="hardAlpha" operator="arithmetic" k2="-1" k3="1"/>
<feColorMatrix type="matrix" values="0 0 0 0 1 0 0 0 0 1 0 0 0 0 1 0 0 0 0.35 0"/>
<feBlend mode="normal" in2="shape" result="effect2_innerShadow_467_1004"/>
<feColorMatrix in="SourceAlpha" type="matrix" values="0 0 0 0 0 0 0 0 0 0 0 0 0 0 0 0 0 0 127 0" result="hardAlpha"/>
<feOffset dx="-2" dy="-2"/>
<feGaussianBlur stdDeviation="7.5"/>
<feComposite in2="hardAlpha" operator="arithmetic" k2="-1" k3="1"/>
<feColorMatrix type="matrix" values="0 0 0 0 0 0 0 0 0 0 0 0 0 0 0 0 0 0 0.2 0"/>
<feBlend mode="normal" in2="effect2_innerShadow_467_1004" result="effect3_innerShadow_467_1004"/>
</filter>
<filter id="filter3_dii_467_1004" x="30.7661" y="0.21875" width="154.234" height="146.188" filterUnits="userSpaceOnUse" color-interpolation-filters="sRGB">
<feFlood flood-opacity="0" result="BackgroundImageFix"/>
<feColorMatrix in="SourceAlpha" type="matrix" values="0 0 0 0 0 0 0 0 0 0 0 0 0 0 0 0 0 0 127 0" result="hardAlpha"/>
<feOffset dx="1" dy="2"/>
<feGaussianBlur stdDeviation="7.5"/>
<feComposite in2="hardAlpha" operator="out"/>
<feColorMatrix type="matrix" values="0 0 0 0 0 0 0 0 0 0 0 0 0 0 0 0 0 0 0.1 0"/>
<feBlend mode="normal" in2="BackgroundImageFix" result="effect1_dropShadow_467_1004"/>
<feBlend mode="normal" in="SourceGraphic" in2="effect1_dropShadow_467_1004" result="shape"/>
<feColorMatrix in="SourceAlpha" type="matrix" values="0 0 0 0 0 0 0 0 0 0 0 0 0 0 0 0 0 0 127 0" result="hardAlpha"/>
<feOffset dx="5" dy="5"/>
<feGaussianBlur stdDeviation="5"/>
<feComposite in2="hardAlpha" operator="arithmetic" k2="-1" k3="1"/>
<feColorMatrix type="matrix" values="0 0 0 0 1 0 0 0 0 1 0 0 0 0 1 0 0 0 0.35 0"/>
<feBlend mode="normal" in2="shape" result="effect2_innerShadow_467_1004"/>
<feColorMatrix in="SourceAlpha" type="matrix" values="0 0 0 0 0 0 0 0 0 0 0 0 0 0 0 0 0 0 127 0" result="hardAlpha"/>
<feOffset dx="-2" dy="-2"/>
<feGaussianBlur stdDeviation="7.5"/>
<feComposite in2="hardAlpha" operator="arithmetic" k2="-1" k3="1"/>
<feColorMatrix type="matrix" values="0 0 0 0 0 0 0 0 0 0 0 0 0 0 0 0 0 0 0.2 0"/>
<feBlend mode="normal" in2="effect2_innerShadow_467_1004" result="effect3_innerShadow_467_1004"/>
</filter>
<filter id="filter4_dii_467_1004" x="0" y="16.4556" width="106.5" height="127.468" filterUnits="userSpaceOnUse" color-interpolation-filters="sRGB">
<feFlood flood-opacity="0" result="BackgroundImageFix"/>
<feColorMatrix in="SourceAlpha" type="matrix" values="0 0 0 0 0 0 0 0 0 0 0 0 0 0 0 0 0 0 127 0" result="hardAlpha"/>
<feOffset dx="1" dy="2"/>
<feGaussianBlur stdDeviation="7.5"/>
<feComposite in2="hardAlpha" operator="out"/>
<feColorMatrix type="matrix" values="0 0 0 0 0 0 0 0 0 0 0 0 0 0 0 0 0 0 0.1 0"/>
<feBlend mode="normal" in2="BackgroundImageFix" result="effect1_dropShadow_467_1004"/>
<feBlend mode="normal" in="SourceGraphic" in2="effect1_dropShadow_467_1004" result="shape"/>
<feColorMatrix in="SourceAlpha" type="matrix" values="0 0 0 0 0 0 0 0 0 0 0 0 0 0 0 0 0 0 127 0" result="hardAlpha"/>
<feOffset dx="5" dy="5"/>
<feGaussianBlur stdDeviation="5"/>
<feComposite in2="hardAlpha" operator="arithmetic" k2="-1" k3="1"/>
<feColorMatrix type="matrix" values="0 0 0 0 1 0 0 0 0 1 0 0 0 0 1 0 0 0 0.35 0"/>
<feBlend mode="normal" in2="shape" result="effect2_innerShadow_467_1004"/>
<feColorMatrix in="SourceAlpha" type="matrix" values="0 0 0 0 0 0 0 0 0 0 0 0 0 0 0 0 0 0 127 0" result="hardAlpha"/>
<feOffset dx="-2" dy="-2"/>
<feGaussianBlur stdDeviation="7.5"/>
<feComposite in2="hardAlpha" operator="arithmetic" k2="-1" k3="1"/>
<feColorMatrix type="matrix" values="0 0 0 0 0 0 0 0 0 0 0 0 0 0 0 0 0 0 0.2 0"/>
<feBlend mode="normal" in2="effect2_innerShadow_467_1004" result="effect3_innerShadow_467_1004"/>
</filter>
<filter id="filter5_dii_467_1004" x="9.54053" y="78.7188" width="163.323" height="106.5" filterUnits="userSpaceOnUse" color-interpolation-filters="sRGB">
<feFlood flood-opacity="0" result="BackgroundImageFix"/>
<feColorMatrix in="SourceAlpha" type="matrix" values="0 0 0 0 0 0 0 0 0 0 0 0 0 0 0 0 0 0 127 0" result="hardAlpha"/>
<feOffset dx="1" dy="2"/>
<feGaussianBlur stdDeviation="7.5"/>
<feComposite in2="hardAlpha" operator="out"/>
<feColorMatrix type="matrix" values="0 0 0 0 0 0 0 0 0 0 0 0 0 0 0 0 0 0 0.1 0"/>
<feBlend mode="normal" in2="BackgroundImageFix" result="effect1_dropShadow_467_1004"/>
<feBlend mode="normal" in="SourceGraphic" in2="effect1_dropShadow_467_1004" result="shape"/>
<feColorMatrix in="SourceAlpha" type="matrix" values="0 0 0 0 0 0 0 0 0 0 0 0 0 0 0 0 0 0 127 0" result="hardAlpha"/>
<feOffset dx="5" dy="5"/>
<feGaussianBlur stdDeviation="5"/>
<feComposite in2="hardAlpha" operator="arithmetic" k2="-1" k3="1"/>
<feColorMatrix type="matrix" values="0 0 0 0 1 0 0 0 0 1 0 0 0 0 1 0 0 0 0.35 0"/>
<feBlend mode="normal" in2="shape" result="effect2_innerShadow_467_1004"/>
<feColorMatrix in="SourceAlpha" type="matrix" values="0 0 0 0 0 0 0 0 0 0 0 0 0 0 0 0 0 0 127 0" result="hardAlpha"/>
<feOffset dx="-2" dy="-2"/>
<feGaussianBlur stdDeviation="7.5"/>
<feComposite in2="hardAlpha" operator="arithmetic" k2="-1" k3="1"/>
<feColorMatrix type="matrix" values="0 0 0 0 0 0 0 0 0 0 0 0 0 0 0 0 0 0 0.2 0"/>
<feBlend mode="normal" in2="effect2_innerShadow_467_1004" result="effect3_innerShadow_467_1004"/>
</filter>
</defs>
</svg>
