<svg width="250" height="77" viewBox="0 0 250 77" fill="none" xmlns="http://www.w3.org/2000/svg">
<path d="M36.2607 23.3239L32.5963 31.1787C32.4812 31.446 32.4333 31.7374 32.4568 32.0275C32.4802 32.3176 32.5743 32.5975 32.7309 32.8429C32.8874 33.0882 33.1016 33.2915 33.3548 33.4351C33.608 33.5786 33.8924 33.6579 34.1833 33.6662H63.9444C64.2334 33.6765 64.5155 33.7569 64.7665 33.9006C65.0175 34.0442 65.2298 34.2466 65.3852 34.4906C65.5405 34.7345 65.6341 35.0126 65.658 35.3008C65.6819 35.5889 65.6354 35.8786 65.5225 36.1448L53.0403 62.8923C52.8965 63.1901 52.6728 63.442 52.3941 63.6199C52.1154 63.7978 51.7928 63.8947 51.4622 63.8998H19.5435C18.88 63.8996 18.2303 64.0891 17.671 64.4462C17.1118 64.8032 16.6663 65.3128 16.3873 65.9148L12.7407 73.7964C12.6278 74.0626 12.5812 74.3523 12.6052 74.6405C12.6291 74.9287 12.7227 75.2067 12.8781 75.4506C13.0334 75.6946 13.2457 75.8971 13.4967 76.0407C13.7477 76.1843 14.0298 76.2647 14.3188 76.275H58.2382C58.901 76.2771 59.5505 76.0893 60.1099 75.7338C60.6692 75.3783 61.115 74.8699 61.3944 74.2689L83.7643 26.3018C84.0137 25.7698 84.1247 25.1834 84.0868 24.5971C84.0489 24.0108 83.8635 23.4435 83.5477 22.9481C83.2319 22.4526 82.7961 22.045 82.2806 21.7631C81.7651 21.4812 81.1867 21.3342 80.5991 21.3356H39.408C38.7493 21.3368 38.1044 21.5241 37.5476 21.8759C36.9908 22.2276 36.5447 22.7296 36.2607 23.3239Z" fill="white"/>
<path d="M49.9196 42.591H20.1497C19.8607 42.5807 19.5785 42.5003 19.3275 42.3567C19.0765 42.213 18.8642 42.0105 18.7089 41.7666C18.5536 41.5227 18.4599 41.2446 18.436 40.9564C18.4121 40.6682 18.4586 40.3786 18.5716 40.1124L31.0537 13.3649C31.1975 13.0671 31.4213 12.8152 31.6999 12.6373C31.9786 12.4594 32.3013 12.3625 32.6318 12.3574H64.5416C65.2051 12.3576 65.8549 12.1681 66.4141 11.811C66.9734 11.454 67.4188 10.9444 67.6978 10.3424L71.3622 2.47862C71.4752 2.21241 71.5217 1.92273 71.4978 1.63454C71.4739 1.34635 71.3802 1.0683 71.2249 0.824368C71.0696 0.580433 70.8573 0.37794 70.6063 0.234328C70.3553 0.0907166 70.0731 0.0102977 69.7841 1.81941e-05H25.8558C25.193 -0.00212821 24.5435 0.18568 23.9842 0.541204C23.4248 0.896728 22.979 1.40508 22.6996 2.00608L0.32978 49.9733C0.0803359 50.5052 -0.0306123 51.0916 0.00724463 51.6779C0.0451015 52.2643 0.230541 52.8315 0.546322 53.327C0.862104 53.8224 1.29799 54.23 1.81348 54.5119C2.32898 54.7938 2.90736 54.9409 3.4949 54.9394H44.6771C45.3406 54.9397 45.9904 54.7501 46.5496 54.393C47.1089 54.036 47.5543 53.5264 47.8333 52.9244L51.4977 45.0606C51.6088 44.7949 51.6539 44.5061 51.6291 44.2191C51.6042 43.9321 51.5103 43.6555 51.3552 43.4127C51.2 43.17 50.9884 42.9684 50.7384 42.8253C50.4884 42.6822 50.2075 42.6018 49.9196 42.591Z" fill="white"/>
<path d="M103.673 31.1519C103.817 31.1212 103.967 31.1267 104.109 31.1679C104.25 31.2091 104.379 31.2848 104.484 31.3881C104.589 31.4915 104.667 31.6193 104.711 31.7601C104.755 31.901 104.763 32.0504 104.734 32.1951C104.734 33.0867 103.7 34.1031 101.649 35.3602C99.8741 36.5283 97.8089 37.1797 95.6847 37.2414C93.9763 37.2409 92.3203 36.6522 90.995 35.5742C90.2765 34.9957 89.7072 34.2534 89.3349 33.4094C88.9626 32.5655 88.7981 31.6446 88.8552 30.724C88.972 28.1706 89.7425 25.6901 91.093 23.52C92.4761 21.0085 94.3643 18.8107 96.6387 17.0649C98.4593 15.5502 100.727 14.6762 103.094 14.5774C103.643 14.5513 104.192 14.6374 104.707 14.8305C105.222 15.0237 105.693 15.3198 106.089 15.7008C106.446 16.0359 106.73 16.4407 106.923 16.8901C107.116 17.3395 107.215 17.8239 107.213 18.3131C107.249 19.0976 107.162 19.8828 106.954 20.6402C106.747 21.1574 106.365 21.5862 105.876 21.8527C105.483 22.1377 105.021 22.3131 104.538 22.3609C104.203 22.351 103.884 22.2139 103.647 21.9775C103.514 21.8448 103.411 21.6858 103.343 21.5108C103.275 21.3357 103.245 21.1485 103.254 20.9611C103.279 20.5188 103.36 20.0813 103.495 19.6594C103.629 19.1953 103.704 18.7159 103.718 18.2329C103.718 17.5909 103.504 17.261 103.058 17.261C101.721 17.261 100.217 17.9803 98.5467 19.4187C96.8094 20.9316 95.357 22.7434 94.2582 24.7682C93.1967 26.4686 92.5832 28.4102 92.475 30.4119C92.4453 31.4103 92.7778 32.3857 93.4112 33.158C93.7519 33.5406 94.1758 33.8399 94.6503 34.0331C95.1248 34.2263 95.6373 34.3082 96.1483 34.2725C97.0653 34.231 97.969 34.0382 98.8231 33.7018C99.8856 33.3253 100.891 32.8033 101.81 32.1505C102.344 31.6756 102.982 31.3335 103.673 31.1519Z" fill="white"/>
<path d="M114.131 12.3306C115.139 12.3306 115.647 12.8745 115.647 13.9801C115.641 14.5276 115.569 15.0724 115.433 15.6027C115.291 16.1912 114.916 17.6356 114.283 19.9358C113.803 21.7295 113.458 23.5563 113.249 25.4012C113.042 26.9326 112.923 28.4746 112.892 30.0196C112.903 31.432 112.989 32.8427 113.151 34.2458C113.189 34.5208 113.212 34.7975 113.222 35.0749C113.225 35.3439 113.172 35.6106 113.067 35.8578C112.961 36.105 112.804 36.3273 112.607 36.5104C112.436 36.6955 112.229 36.8446 111.999 36.9487C111.77 37.0528 111.522 37.1099 111.27 37.1166C110.967 37.1307 110.667 37.0474 110.416 36.8789C110.164 36.7105 109.972 36.4657 109.87 36.1805C109.535 35.1423 109.396 34.0509 109.46 32.9619C109.516 29.0725 109.904 25.1949 110.619 21.3713C111.385 16.9312 112.012 14.3129 112.5 13.5164C112.987 12.72 113.531 12.3247 114.131 12.3306Z" fill="white"/>
<path d="M118.153 26.7208C118.447 25.0178 118.598 24.046 118.598 23.8053C118.577 23.1966 118.735 22.595 119.053 22.0756C119.181 21.8552 119.367 21.6734 119.589 21.5495C119.812 21.4255 120.064 21.364 120.319 21.3713C120.851 21.3395 121.377 21.501 121.799 21.826C121.958 21.9409 122.089 22.0905 122.182 22.2635C122.275 22.4366 122.327 22.6284 122.334 22.8245C122.246 23.6107 122.072 24.385 121.817 25.1337L121.728 25.4458C121.3 26.8844 121.001 28.3584 120.836 29.8502C120.729 30.9914 120.676 31.9098 120.676 32.6052C120.7 33.3737 120.799 34.1381 120.97 34.8876C120.995 35.026 121.01 35.1661 121.015 35.3067C121.015 35.5207 120.81 35.8149 120.408 36.1983C120.057 36.5408 119.589 36.7382 119.098 36.7511C117.867 36.7511 117.252 35.8149 117.252 33.9515C117.292 32.003 117.516 30.0626 117.921 28.1562C117.992 27.648 118.072 27.1666 118.153 26.7208ZM124.902 15.2193C124.903 15.5655 124.822 15.907 124.668 16.2166C124.513 16.5262 124.288 16.7954 124.01 17.0025C123.593 17.4204 123.046 17.6844 122.459 17.7514C122.174 17.7496 121.894 17.6856 121.637 17.5639C121.379 17.4423 121.152 17.2659 120.97 17.0471C120.579 16.6831 120.346 16.1809 120.319 15.6473C120.308 15.3457 120.359 15.0451 120.469 14.7643C120.58 14.4835 120.747 14.2286 120.961 14.0157C121.472 13.5765 122.135 13.3556 122.807 13.4005C123.083 13.3869 123.36 13.4288 123.62 13.5237C123.881 13.6187 124.119 13.7647 124.322 13.9533C124.502 14.1123 124.646 14.3071 124.746 14.5251C124.846 14.7431 124.899 14.9796 124.902 15.2193Z" fill="white"/>
<path d="M137.134 33.9693C136.532 32.4733 136.2 30.8825 136.154 29.2707C135.949 26.8812 135.494 25.7043 134.781 25.7043C134.067 25.7043 132.953 26.9436 131.294 29.4312C130.063 31.1405 129.04 32.9902 128.245 34.9412C128.177 35.2757 128.016 35.5844 127.782 35.8328C127.699 35.9354 127.596 36.02 127.48 36.0813C127.363 36.1426 127.235 36.1794 127.104 36.1894C125.686 36.1894 124.973 35.5385 124.973 34.2457C125.048 33.2391 125.188 32.2385 125.392 31.25C125.79 28.8069 125.972 26.3337 125.936 23.8588C125.97 23.3411 126.173 22.849 126.516 22.459C126.645 22.2478 126.822 22.0699 127.033 21.9398C127.243 21.8097 127.481 21.731 127.728 21.7101C128.18 21.6804 128.626 21.8239 128.976 22.1113C129.36 22.7611 129.514 23.521 129.413 24.2689C129.29 26.0031 129.021 27.7239 128.611 29.4133C130.632 24.6582 132.89 22.2807 135.387 22.2807C137.544 22.2807 138.811 23.9836 139.185 27.3895C139.559 30.7953 139.99 32.5309 140.478 32.5963C140.73 32.5857 140.98 32.5376 141.218 32.4536C141.471 32.3549 141.739 32.2977 142.011 32.2842C142.457 32.2842 142.689 32.5428 142.689 33.0688C142.653 33.3695 142.556 33.6594 142.402 33.9204C142.249 34.1813 142.043 34.4074 141.797 34.5845C141.151 35.1299 140.325 35.4158 139.479 35.387C138.994 35.4167 138.511 35.2978 138.096 35.0461C137.68 34.7944 137.351 34.4219 137.152 33.9782L137.134 33.9693Z" fill="white"/>
<path d="M150.027 24.6523C149.663 25.6642 149.401 26.7094 149.242 27.7728C148.935 29.0136 148.712 30.2735 148.573 31.5442C148.532 32.0913 148.618 32.6405 148.823 33.1491C148.898 33.2951 149.013 33.4159 149.156 33.4967C149.299 33.5776 149.462 33.6148 149.625 33.6038C150.138 33.6071 150.646 33.5133 151.123 33.3274C151.814 33.017 152.454 32.6053 153.022 32.1059C153.354 31.7742 153.787 31.5638 154.253 31.5086C154.371 31.502 154.49 31.5191 154.602 31.5589C154.713 31.5987 154.816 31.6604 154.904 31.7404C154.981 31.8069 155.043 31.889 155.086 31.9812C155.129 32.0734 155.152 32.1736 155.153 32.2753C155.153 33.0956 154.485 34.0585 153.165 35.066C151.986 36.0528 150.503 36.6037 148.966 36.6263C148.445 36.6621 147.923 36.5833 147.436 36.3953C146.949 36.2074 146.51 35.9149 146.148 35.5385C145.446 34.6493 145.1 33.5306 145.176 32.4002C145.403 29.8466 145.875 27.3207 146.585 24.8574C146.174 24.9122 145.76 24.9449 145.346 24.9554H145.052C144.583 24.9457 144.128 24.8001 143.741 24.5364C143.52 24.3946 143.341 24.1951 143.225 23.9594C143.109 23.7238 143.059 23.4609 143.081 23.199C143.081 22.4144 143.518 22.0221 144.41 22.0221L147.397 21.9062C147.789 20.7828 148.205 19.2969 148.645 17.4483C148.903 16.3071 149.536 15.7454 150.428 15.7454C150.65 15.7312 150.873 15.7653 151.081 15.8453C151.288 15.9254 151.476 16.0494 151.632 16.209C151.91 16.4852 152.067 16.8603 152.068 17.2522C152.068 17.4037 151.667 18.8392 150.874 21.5763C153.843 21.3178 155.474 21.184 155.76 21.184C156.101 21.1461 156.446 21.2212 156.74 21.398C156.834 21.5146 156.904 21.6488 156.945 21.7927C156.987 21.9367 156.999 22.0874 156.981 22.2361C156.981 23.0682 156.277 23.5943 154.868 23.8142L150.027 24.6523Z" fill="white"/>
<path d="M170.916 28.9141C170.31 31.0708 169.067 32.9943 167.35 34.433C165.933 35.7924 164.07 36.5908 162.108 36.6797C161.462 36.6947 160.821 36.5665 160.23 36.3045C159.64 36.0424 159.115 35.653 158.693 35.1641C157.791 34.1353 157.311 32.8046 157.347 31.4372C157.398 28.8589 158.262 26.3626 159.816 24.3046C161.457 21.9686 163.445 20.8096 165.79 20.8096C166.528 20.7906 167.261 20.9416 167.932 21.2507C168.603 21.5599 169.194 22.0191 169.659 22.5927C170.651 23.7713 171.18 25.2701 171.148 26.8099C171.149 27.5123 171.069 28.2125 170.907 28.8962L170.916 28.9141ZM163.641 24.4561C162.833 25.2475 162.182 26.1855 161.724 27.2201C161.121 28.4055 160.8 29.7147 160.788 31.0449C160.764 31.71 160.912 32.37 161.216 32.9619C161.314 33.1793 161.472 33.3648 161.67 33.4972C161.869 33.6296 162.101 33.7036 162.339 33.7108C163.528 33.7108 164.732 33.0272 165.95 31.6601C167.145 30.4184 167.815 28.7646 167.823 27.0417C167.855 26.2091 167.644 25.3852 167.216 24.6701C167.036 24.3847 166.784 24.152 166.485 23.9954C166.186 23.8389 165.851 23.7641 165.513 23.7785C164.827 23.7738 164.165 24.0286 163.659 24.4918L163.641 24.4561Z" fill="white"/>
<path d="M185.628 33.9693C185.03 32.472 184.698 30.882 184.647 29.2706C184.442 26.8812 183.987 25.7043 183.274 25.7043C182.561 25.7043 181.446 26.9436 179.788 29.4311C178.549 31.1335 177.516 32.9772 176.712 34.9233C176.643 35.2578 176.483 35.5665 176.248 35.8149C176.166 35.9175 176.063 36.0021 175.946 36.0634C175.83 36.1248 175.702 36.1615 175.571 36.1715C174.153 36.1715 173.44 35.5206 173.44 34.2278C173.514 33.2212 173.654 32.2206 173.859 31.2321C174.26 28.7894 174.445 26.3161 174.412 23.8409C174.441 23.324 174.642 22.8316 174.982 22.4411C175.111 22.2299 175.288 22.0521 175.499 21.922C175.71 21.7919 175.948 21.7131 176.195 21.6922C176.647 21.6625 177.093 21.806 177.443 22.0934C177.827 22.7432 177.981 23.5032 177.88 24.251C177.756 25.9852 177.488 27.7061 177.077 29.3955C179.104 24.6404 181.363 22.2628 183.853 22.2628C186.011 22.2628 187.286 23.9657 187.652 27.3716C188.017 30.7774 188.454 32.5784 188.944 32.5784C189.197 32.5686 189.446 32.5205 189.684 32.4357C189.938 32.3379 190.206 32.2807 190.478 32.2664C190.933 32.2664 191.156 32.5249 191.156 33.0509C191.12 33.3516 191.022 33.6416 190.869 33.9025C190.715 34.1634 190.509 34.3896 190.264 34.5666C189.617 35.112 188.791 35.3979 187.946 35.3691C187.461 35.3988 186.978 35.2799 186.562 35.0282C186.146 34.7765 185.817 34.404 185.619 33.9604L185.628 33.9693Z" fill="white"/>
<path d="M103.45 46.6208C103.495 46.2462 103.449 45.8663 103.318 45.5127C103.186 45.1592 102.971 44.8422 102.693 44.588C102.035 44.1587 101.255 43.9582 100.473 44.0174C98.8459 44.0043 97.2453 44.426 95.8363 45.2389C94.4097 46.0502 93.6965 46.9418 93.6965 47.9137C93.6972 48.2224 93.7701 48.5268 93.9094 48.8023C94.0488 49.0779 94.2506 49.3171 94.4989 49.5007C95.7965 50.2602 97.2041 50.8136 98.6715 51.1412C100.524 51.603 102.291 52.3585 103.905 53.3791C104.411 53.689 104.832 54.1204 105.13 54.6342C105.427 55.148 105.591 55.7279 105.608 56.3213C105.608 58.2293 104.164 59.9678 101.257 61.5549C98.4952 63.1036 95.3829 63.92 92.2164 63.9265C91.3564 63.9715 90.5034 63.7505 89.7735 63.2935C89.5041 63.1288 89.281 62.8985 89.1251 62.624C88.9691 62.3495 88.8855 62.0399 88.8819 61.7243C88.8789 61.236 89.0217 60.7579 89.2921 60.3512C89.3881 60.1665 89.5308 60.0101 89.706 59.8975C89.8811 59.7849 90.0827 59.72 90.2906 59.7093C90.5136 59.7086 90.7346 59.7509 90.9415 59.8341C91.8535 60.2456 92.8388 60.47 93.8391 60.4939C95.6406 60.4333 97.4088 59.9927 99.0281 59.2011C100.942 58.3392 101.902 57.4922 101.908 56.6601C101.908 56.3213 101.667 55.9825 101.195 55.6615C100.269 55.1501 99.2878 54.7463 98.2703 54.4579C96.1216 53.7535 94.5167 53.1829 93.4379 52.7282C92.4724 52.3656 91.6224 51.7496 90.9771 50.945C90.4016 50.1747 90.106 49.2312 90.1391 48.2703C90.1391 46.4336 91.2179 44.704 93.3666 43.1259C95.5632 41.5215 98.2255 40.6821 100.945 40.7364C102.332 40.6603 103.71 41.0086 104.895 41.735C105.299 41.9679 105.638 42.2993 105.879 42.6984C106.121 43.0975 106.258 43.5513 106.277 44.0174C106.277 45.7471 105.385 46.6208 103.45 46.6208Z" fill="white"/>
<path d="M121.995 57.4447C121.995 58.47 121.104 59.6915 119.41 61.118C117.781 62.5111 115.704 63.2708 113.561 63.2578C112.829 63.295 112.098 63.1732 111.418 62.9007C110.737 62.6283 110.124 62.2118 109.62 61.6797C108.604 60.452 108.091 58.8843 108.185 57.2931C108.219 54.4375 109.258 51.6852 111.118 49.5185C113.074 47.1053 115.154 45.8987 117.359 45.8987C117.839 45.8754 118.318 45.9509 118.767 46.1204C119.216 46.29 119.625 46.5501 119.97 46.8845C120.314 47.2189 120.586 47.6205 120.769 48.0644C120.952 48.5083 121.042 48.985 121.032 49.465C120.988 50.4099 120.745 51.3349 120.32 52.1797C119.894 53.0246 119.295 53.7704 118.563 54.3687C116.78 55.9961 114.589 57.1086 112.224 57.5873C112.096 57.605 111.98 57.6696 111.897 57.7685C111.815 57.8675 111.772 57.9936 111.778 58.1223C111.788 58.3789 111.849 58.6308 111.958 58.8635C112.067 59.0962 112.221 59.3049 112.411 59.4775C112.631 59.6939 112.894 59.8626 113.182 59.9731C113.47 60.0835 113.778 60.1334 114.087 60.1194C116.078 60.1194 118.049 59.1001 119.998 57.0613C120.13 56.8912 120.295 56.7502 120.484 56.6474C120.673 56.5446 120.881 56.4821 121.095 56.4639C121.701 56.4461 121.995 56.776 121.995 57.4447ZM112.063 54.8234C113.587 54.522 115.009 53.8344 116.191 52.8263C117.377 51.8099 117.974 50.8826 117.974 50.0534C117.985 49.7556 117.886 49.4641 117.698 49.2332C117.613 49.1286 117.506 49.0445 117.384 48.9874C117.262 48.9303 117.128 48.9015 116.994 48.9033C116.102 48.9033 115.21 49.5274 114.14 50.7935C113.143 51.9561 112.431 53.3363 112.063 54.8234Z" fill="white"/>
<path d="M129.877 37.4733C130.938 37.4733 131.473 38.0528 131.473 39.2564C131.468 39.8369 131.393 40.4146 131.25 40.9772C131.098 41.5924 130.697 43.1259 130.037 45.5599C129.532 47.457 129.163 49.3877 128.932 51.3374C128.716 52.9607 128.591 54.5949 128.557 56.2322C128.57 57.722 128.663 59.2101 128.834 60.6901C128.887 61.1626 128.914 61.4479 128.914 61.5817C128.917 61.867 128.861 62.1499 128.749 62.4123C128.637 62.6748 128.471 62.9111 128.263 63.1063C128.08 63.3034 127.86 63.4617 127.615 63.572C127.37 63.6823 127.105 63.7422 126.837 63.7482C126.517 63.7619 126.201 63.6733 125.935 63.4954C125.669 63.3174 125.466 63.0593 125.357 62.7586C125.009 61.6585 124.864 60.5045 124.929 59.3527C124.988 55.2243 125.397 51.1084 126.15 47.0489C126.958 42.3532 127.624 39.5804 128.147 38.7304C128.664 37.8923 129.244 37.4733 129.877 37.4733Z" fill="white"/>
<path d="M146.318 57.4447C146.318 58.467 145.456 59.6915 143.732 61.118C142.103 62.5111 140.027 63.2708 137.883 63.2578C137.151 63.295 136.42 63.1732 135.74 62.9007C135.06 62.6283 134.446 62.2118 133.943 61.6797C132.926 60.452 132.413 58.8843 132.507 57.2931C132.542 54.4375 133.58 51.6852 135.44 49.5185C137.396 47.1053 139.476 45.8987 141.681 45.8987C142.161 45.8754 142.64 45.9509 143.089 46.1204C143.538 46.29 143.948 46.5501 144.292 46.8845C144.637 47.2189 144.909 47.6205 145.092 48.0644C145.274 48.5083 145.364 48.985 145.355 49.465C145.31 50.4099 145.067 51.3349 144.642 52.1797C144.216 53.0246 143.618 53.7704 142.885 54.3687C141.113 55.9825 138.938 57.0883 136.591 57.5695C136.463 57.5871 136.347 57.6518 136.264 57.7507C136.182 57.8496 136.139 57.9758 136.145 58.1044C136.155 58.361 136.216 58.613 136.325 58.8457C136.434 59.0784 136.588 59.2871 136.778 59.4597C136.998 59.6761 137.261 59.8448 137.549 59.9553C137.837 60.0657 138.145 60.1155 138.454 60.1016C140.445 60.1016 142.416 59.0822 144.365 57.0434C144.497 56.8733 144.662 56.7324 144.851 56.6295C145.04 56.5267 145.248 56.4643 145.462 56.4461C146.024 56.4461 146.318 56.776 146.318 57.4447ZM136.385 54.8234C137.91 54.522 139.331 53.8344 140.514 52.8263C141.699 51.8099 142.297 50.8826 142.297 50.0534C142.302 49.7563 142.205 49.4664 142.02 49.2332C141.935 49.1286 141.828 49.0445 141.706 48.9874C141.584 48.9303 141.451 48.9015 141.316 48.9033C140.424 48.9033 139.533 49.5274 138.463 50.7935C137.465 51.9561 136.754 53.3363 136.385 54.8234Z" fill="white"/>
<path d="M162.518 50.1694C161.923 50.4785 161.46 50.7549 161.127 50.9986C160.467 51.4355 159.798 51.8902 159.13 52.4341C158.516 52.8856 157.938 53.3834 157.4 53.923C157.07 54.2618 156.91 54.5115 156.91 54.663C157.374 55.4445 157.957 56.1485 158.639 56.7493C159.497 57.6737 160.414 58.5404 161.385 59.3438C161.946 59.8243 162.653 60.1008 163.392 60.1284H164.042C164.147 60.1232 164.252 60.1395 164.35 60.1763C164.448 60.2131 164.538 60.2696 164.613 60.3424C164.69 60.4314 164.748 60.5348 164.785 60.6465C164.822 60.7582 164.836 60.876 164.827 60.9933C164.759 61.5383 164.488 62.0378 164.069 62.393C163.715 62.6946 163.303 62.9213 162.859 63.0592C162.414 63.1971 161.946 63.2435 161.484 63.1955C160.687 63.1682 159.92 62.8905 159.29 62.402C158.028 61.341 156.886 60.1451 155.884 58.8356C155.298 58.0251 154.629 57.2781 153.887 56.6067C153.816 56.6067 153.611 56.7761 153.263 57.1327C153.01 57.3819 152.782 57.6568 152.586 57.953C152.397 59.0151 152.314 60.0931 152.336 61.1716C152.359 61.7659 152.148 62.3456 151.747 62.7853C151.567 62.9827 151.346 63.1395 151.1 63.2455C150.854 63.3515 150.589 63.4044 150.321 63.4005C150.072 63.4151 149.823 63.3792 149.589 63.2949C149.354 63.2106 149.139 63.0798 148.957 62.9102C148.669 62.6543 148.493 62.2958 148.466 61.9116C148.531 61.1215 148.656 60.3376 148.841 59.5667C149.413 56.4888 149.812 53.3812 150.036 50.2586C150.357 47.1737 150.633 44.7575 150.865 43.0279C150.99 41.8776 151.204 40.7389 151.507 39.622C151.674 39.117 151.983 38.6711 152.398 38.3381C152.75 38.0331 153.199 37.8625 153.664 37.8567C153.87 37.8521 154.074 37.8986 154.258 37.992C154.441 38.0853 154.599 38.2226 154.716 38.3916C154.982 38.7761 155.12 39.2349 155.109 39.7023C155.109 40.3442 154.693 42.8525 153.861 47.2272L153.504 49.162C153.064 52.015 152.841 53.6645 152.835 54.1103L157.382 49.9911C159.7 47.7562 161.403 46.6358 162.491 46.6299C163.534 46.6299 164.06 47.0489 164.06 47.887C164.078 48.3818 163.939 48.8696 163.661 49.2798C163.384 49.69 162.984 50.0016 162.518 50.1694Z" fill="white"/>
<path d="M179.895 57.4447C179.895 58.467 179.03 59.6915 177.3 61.118C175.671 62.5111 173.595 63.2708 171.452 63.2578C170.721 63.2961 169.991 63.1747 169.312 62.9022C168.633 62.6297 168.021 62.2125 167.52 61.6797C166.498 60.4546 165.985 58.885 166.084 57.2931C166.114 54.4367 167.153 51.6828 169.017 49.5185C170.967 47.1053 173.047 45.8987 175.259 45.8987C175.738 45.8754 176.217 45.9509 176.666 46.1204C177.115 46.29 177.525 46.5501 177.869 46.8845C178.214 47.2189 178.486 47.6205 178.669 48.0644C178.851 48.5083 178.941 48.985 178.932 49.465C178.886 50.4105 178.641 51.3357 178.214 52.1805C177.787 53.0253 177.187 53.7709 176.453 54.3687C174.674 55.9961 172.486 57.1088 170.123 57.5873C169.995 57.605 169.879 57.6696 169.797 57.7685C169.714 57.8675 169.672 57.9936 169.677 58.1223C169.686 58.3783 169.746 58.6301 169.853 58.8628C169.96 59.0955 170.112 59.3045 170.301 59.4775C170.523 59.6942 170.787 59.863 171.077 59.9734C171.367 60.0838 171.677 60.1335 171.986 60.1194C173.966 60.1194 175.933 59.1001 177.889 57.0613C178.02 56.8912 178.186 56.7502 178.374 56.6474C178.563 56.5446 178.771 56.4821 178.985 56.4639C179.601 56.4461 179.895 56.776 179.895 57.4447ZM169.963 54.8234C171.485 54.524 172.904 53.836 174.082 52.8263C175.276 51.8099 175.865 50.8826 175.865 50.0534C175.874 49.7572 175.779 49.4672 175.597 49.2332C175.513 49.1286 175.405 49.0445 175.283 48.9874C175.161 48.9303 175.028 48.9015 174.893 48.9033C174.001 48.9033 173.11 49.5274 172.031 50.7935C171.037 51.957 170.328 53.3371 169.963 54.8234Z" fill="white"/>
<path d="M196.327 55.0732C195.684 57.352 194.374 59.386 192.564 60.913C191.065 62.3503 189.094 63.1932 187.019 63.2846C186.335 63.3022 185.657 63.1672 185.032 62.8896C184.407 62.612 183.853 62.1987 183.408 61.6798C182.455 60.592 181.949 59.1843 181.99 57.739C182.046 55.0194 182.957 52.3865 184.593 50.214C186.332 47.7532 188.436 46.5139 190.915 46.5139C191.696 46.4915 192.472 46.6486 193.183 46.9732C193.894 47.2978 194.521 47.7812 195.016 48.3863C196.059 49.6346 196.617 51.2177 196.585 52.8442C196.584 53.5858 196.498 54.3248 196.327 55.0464V55.0732ZM188.632 50.3923C187.781 51.2355 187.094 52.2304 186.608 53.3257C185.965 54.5755 185.623 55.9587 185.61 57.3645C185.583 58.07 185.74 58.7704 186.065 59.3973C186.17 59.6281 186.337 59.8248 186.548 59.9651C186.76 60.1054 187.006 60.1836 187.259 60.1908C188.484 60.1908 189.756 59.4657 191.075 58.0154C192.343 56.7042 193.056 54.9536 193.063 53.1295C193.096 52.2487 192.87 51.3776 192.413 50.6242C192.229 50.3171 191.967 50.0645 191.654 49.8921C191.341 49.7198 190.987 49.6339 190.629 49.6434C189.903 49.6411 189.201 49.9079 188.659 50.3923H188.632Z" fill="white"/>
<path d="M211.394 53.2185C211.299 53.379 210.55 54.9393 209.148 57.8993C209.085 58.0461 209.013 58.189 208.934 58.3273C207.257 61.7153 205.965 63.4093 205.055 63.4093C203.635 63.4093 202.392 61.644 201.328 58.1133C200.379 55.2651 199.841 52.2958 199.732 49.2955C199.696 48.5643 199.906 47.8421 200.33 47.2449C200.53 46.9852 200.791 46.778 201.089 46.6414C201.387 46.5047 201.714 46.4426 202.042 46.4603C202.278 46.4631 202.511 46.5181 202.724 46.6213C202.936 46.7246 203.124 46.8736 203.272 47.0577C203.589 47.3611 203.782 47.7706 203.816 48.2078L203.682 50.1604C203.638 50.7488 203.62 51.3462 203.62 51.9435C203.677 53.3518 203.895 54.7488 204.271 56.1072C204.707 57.8904 205.011 58.7106 205.162 58.7106C205.314 58.7106 205.795 57.8191 206.66 56.0359C207.789 53.7356 208.708 52 209.415 50.829C210.043 49.4416 210.933 48.1884 212.036 47.1379C212.598 47.18 213.136 47.381 213.588 47.7174C213.762 47.8466 213.905 48.0145 214.004 48.2078C214.103 48.4011 214.155 48.6147 214.158 48.8319C214.177 49.0782 214.177 49.3256 214.158 49.5719C214.122 49.7209 214.101 49.8733 214.096 50.0266C214.068 52.8939 214.935 55.6985 216.574 58.0509C216.681 58.1579 216.78 58.0955 216.86 57.8547C216.94 57.614 217.154 56.8918 217.475 55.6614C217.997 53.634 218.68 51.6514 219.517 49.7324C219.944 48.5857 220.576 47.5255 221.38 46.6029C221.84 46.2104 222.425 45.9954 223.03 45.9967C223.217 45.9953 223.403 46.0335 223.575 46.1088C223.747 46.184 223.902 46.2947 224.028 46.4335C224.288 46.6836 224.439 47.0266 224.447 47.3875C224.467 47.7348 224.373 48.079 224.18 48.3683C222.684 50.5214 221.54 52.899 220.792 55.4118C220.222 57.3581 219.516 59.2618 218.679 61.109C218.277 61.8044 217.947 62.1522 217.671 62.1522C216.884 62.1808 216.103 62.0025 215.406 61.635C214.691 61.1516 214.106 60.4993 213.704 59.736C213.078 58.6253 212.581 57.4467 212.223 56.2231C211.876 55.2425 211.599 54.2385 211.394 53.2185Z" fill="white"/>
<path d="M239.345 57.4447C239.345 58.4671 238.481 59.6915 236.751 61.1181C235.122 62.5112 233.046 63.2708 230.902 63.2579C230.172 63.2961 229.441 63.1748 228.762 62.9023C228.083 62.6297 227.472 62.2126 226.97 61.6798C225.949 60.4547 225.435 58.8851 225.535 57.2932C225.566 54.4386 226.602 51.6861 228.459 49.5186C230.412 47.1024 232.507 45.8987 234.7 45.8987C235.179 45.8767 235.657 45.9531 236.105 46.1233C236.553 46.2934 236.962 46.5537 237.305 46.8879C237.649 47.2222 237.92 47.6234 238.102 48.0667C238.284 48.5099 238.374 48.9859 238.365 49.4651C238.32 50.41 238.077 51.3349 237.652 52.1798C237.226 53.0246 236.628 53.7705 235.895 54.3688C234.113 55.9961 231.922 57.1087 229.556 57.5874C229.429 57.6051 229.314 57.6701 229.233 57.7692C229.152 57.8684 229.111 57.9945 229.119 58.1224C229.128 58.3784 229.187 58.6301 229.294 58.8628C229.402 59.0955 229.554 59.3045 229.743 59.4775C229.964 59.6951 230.228 59.8645 230.518 59.975C230.808 60.0855 231.118 60.1347 231.428 60.1195C233.408 60.1195 235.375 59.1001 237.331 57.0614C237.462 56.8912 237.627 56.7503 237.816 56.6475C238.005 56.5446 238.213 56.4821 238.427 56.464C239.042 56.4462 239.345 56.7761 239.345 57.4447ZM229.413 54.8235C230.935 54.5222 232.353 53.8344 233.532 52.8263C234.718 51.8099 235.316 50.8827 235.316 50.0535C235.326 49.7556 235.228 49.4642 235.039 49.2333C234.954 49.1286 234.847 49.0446 234.725 48.9875C234.603 48.9303 234.469 48.9016 234.335 48.9034C233.443 48.9034 232.552 49.5275 231.482 50.7935C230.487 51.957 229.779 53.3372 229.413 54.8235Z" fill="white"/>
<path d="M242.849 52.7014C243.17 50.9183 243.322 49.8751 243.322 49.6255C243.299 48.9793 243.466 48.3404 243.803 47.7888C243.939 47.5568 244.135 47.3656 244.371 47.2354C244.606 47.1052 244.872 47.0407 245.141 47.0488C245.704 47.0108 246.262 47.1788 246.71 47.5213C246.879 47.6436 247.018 47.8026 247.117 47.9864C247.216 48.1701 247.272 48.3739 247.281 48.5823C247.188 49.4147 247.003 50.2341 246.728 51.0253L246.639 51.3551C246.173 52.8766 245.848 54.4375 245.667 56.0181C245.551 57.2218 245.497 58.1936 245.497 58.9336C245.525 59.747 245.63 60.556 245.81 61.3498C245.835 61.4942 245.85 61.6402 245.854 61.7867C245.854 62.0185 245.64 62.3216 245.212 62.6783C244.841 63.0389 244.347 63.2459 243.83 63.2578C242.529 63.2578 241.878 62.2681 241.878 60.2977C241.918 58.2383 242.154 56.1874 242.582 54.1725C242.689 53.6822 242.769 53.174 242.849 52.7014ZM249.982 40.5313C249.977 40.891 249.89 41.2446 249.726 41.5647C249.562 41.8849 249.326 42.1628 249.037 42.3769C248.592 42.8188 248.011 43.0982 247.388 43.1704C247.088 43.1663 246.794 43.0981 246.523 42.9705C246.252 42.8428 246.012 42.6587 245.818 42.4304C245.404 42.0457 245.154 41.5152 245.123 40.9504C245.11 40.6314 245.165 40.3134 245.283 40.0169C245.401 39.7204 245.581 39.4522 245.81 39.2296C246.075 38.996 246.385 38.8174 246.72 38.7041C247.055 38.5909 247.409 38.5452 247.762 38.5698C248.352 38.5454 248.929 38.7535 249.367 39.1494C249.564 39.322 249.722 39.5343 249.832 39.7725C249.941 40.0107 249.998 40.2693 250 40.5313H249.982Z" fill="white"/>
</svg>
