<svg width="1512" height="1084" viewBox="0 0 1512 1084" fill="none" xmlns="http://www.w3.org/2000/svg">
<g clip-path="url(#clip0_467_950)">
<rect width="1512" height="1083.22" fill="#391D0B"/>
<path d="M624.212 1048.4C624.135 1047.75 623.824 1047.25 623.278 1046.89C622.733 1046.53 622.064 1046.36 621.271 1046.36C620.692 1046.36 620.185 1046.45 619.75 1046.64C619.319 1046.82 618.983 1047.08 618.74 1047.41C618.501 1047.74 618.382 1048.11 618.382 1048.53C618.382 1048.88 618.465 1049.18 618.631 1049.43C618.802 1049.68 619.019 1049.88 619.283 1050.05C619.547 1050.21 619.824 1050.35 620.114 1050.45C620.404 1050.55 620.67 1050.64 620.913 1050.7L622.243 1051.06C622.584 1051.15 622.963 1051.27 623.381 1051.43C623.802 1051.59 624.205 1051.8 624.589 1052.08C624.976 1052.34 625.296 1052.69 625.547 1053.11C625.799 1053.53 625.925 1054.05 625.925 1054.66C625.925 1055.37 625.739 1056.01 625.368 1056.58C625.002 1057.15 624.465 1057.61 623.758 1057.94C623.055 1058.28 622.2 1058.45 621.194 1058.45C620.257 1058.45 619.445 1058.3 618.759 1058C618.077 1057.69 617.54 1057.27 617.148 1056.73C616.761 1056.19 616.541 1055.56 616.49 1054.84H618.126C618.169 1055.34 618.335 1055.75 618.625 1056.07C618.919 1056.39 619.29 1056.63 619.737 1056.79C620.189 1056.94 620.675 1057.02 621.194 1057.02C621.8 1057.02 622.343 1056.92 622.824 1056.72C623.306 1056.52 623.687 1056.25 623.969 1055.89C624.25 1055.53 624.39 1055.12 624.39 1054.64C624.39 1054.2 624.269 1053.85 624.026 1053.58C623.783 1053.31 623.464 1053.08 623.067 1052.91C622.671 1052.74 622.243 1052.59 621.783 1052.47L620.172 1052.01C619.149 1051.71 618.339 1051.29 617.743 1050.75C617.146 1050.2 616.848 1049.49 616.848 1048.61C616.848 1047.87 617.046 1047.23 617.442 1046.69C617.843 1046.14 618.38 1045.71 619.053 1045.41C619.731 1045.1 620.487 1044.95 621.322 1044.95C622.166 1044.95 622.916 1045.1 623.572 1045.4C624.229 1045.7 624.748 1046.11 625.132 1046.63C625.52 1047.15 625.724 1047.74 625.746 1048.4H624.212ZM634.514 1054.2V1048.4H636.022V1058.22H634.514V1056.56H634.412C634.182 1057.06 633.824 1057.48 633.338 1057.83C632.852 1058.17 632.238 1058.35 631.497 1058.35C630.883 1058.35 630.338 1058.21 629.86 1057.94C629.383 1057.67 629.008 1057.26 628.735 1056.72C628.463 1056.17 628.326 1055.47 628.326 1054.64V1048.4H629.835V1054.54C629.835 1055.25 630.035 1055.82 630.436 1056.25C630.841 1056.68 631.356 1056.89 631.983 1056.89C632.358 1056.89 632.739 1056.79 633.127 1056.6C633.519 1056.41 633.847 1056.12 634.111 1055.72C634.38 1055.32 634.514 1054.82 634.514 1054.2ZM638.785 1058.22V1048.4H640.243V1049.88H640.345C640.524 1049.4 640.848 1049 641.317 1048.7C641.785 1048.4 642.314 1048.25 642.902 1048.25C643.013 1048.25 643.151 1048.25 643.317 1048.25C643.484 1048.26 643.609 1048.26 643.694 1048.27V1049.81C643.643 1049.79 643.526 1049.77 643.343 1049.75C643.164 1049.72 642.974 1049.7 642.774 1049.7C642.297 1049.7 641.871 1049.8 641.496 1050C641.125 1050.2 640.831 1050.47 640.614 1050.82C640.4 1051.17 640.294 1051.56 640.294 1052.01V1058.22H638.785ZM649.3 1058.42C648.354 1058.42 647.538 1058.21 646.852 1057.8C646.17 1057.38 645.644 1056.79 645.273 1056.03C644.907 1055.27 644.724 1054.39 644.724 1053.39C644.724 1052.38 644.907 1051.49 645.273 1050.73C645.644 1049.96 646.16 1049.36 646.82 1048.92C647.485 1048.49 648.261 1048.27 649.147 1048.27C649.658 1048.27 650.163 1048.36 650.662 1048.53C651.16 1048.7 651.614 1048.98 652.023 1049.36C652.432 1049.74 652.758 1050.24 653.001 1050.87C653.244 1051.49 653.366 1052.27 653.366 1053.18V1053.82H645.797V1052.52H651.832C651.832 1051.96 651.721 1051.47 651.499 1051.03C651.282 1050.6 650.971 1050.26 650.566 1050C650.165 1049.75 649.692 1049.63 649.147 1049.63C648.546 1049.63 648.026 1049.78 647.587 1050.08C647.153 1050.37 646.818 1050.75 646.584 1051.23C646.349 1051.7 646.232 1052.21 646.232 1052.75V1053.62C646.232 1054.36 646.36 1054.99 646.616 1055.5C646.876 1056.01 647.236 1056.4 647.696 1056.67C648.156 1056.94 648.691 1057.07 649.3 1057.07C649.697 1057.07 650.055 1057.01 650.374 1056.9C650.698 1056.79 650.977 1056.62 651.212 1056.39C651.446 1056.16 651.627 1055.87 651.755 1055.53L653.212 1055.94C653.059 1056.44 652.801 1056.87 652.439 1057.25C652.077 1057.62 651.629 1057.91 651.096 1058.12C650.564 1058.32 649.965 1058.42 649.3 1058.42ZM657.169 1052.31V1058.22H655.66V1048.4H657.118V1049.93H657.246C657.476 1049.44 657.825 1049.04 658.294 1048.73C658.763 1048.43 659.368 1048.27 660.109 1048.27C660.774 1048.27 661.356 1048.41 661.854 1048.68C662.353 1048.95 662.741 1049.36 663.018 1049.91C663.295 1050.45 663.433 1051.14 663.433 1051.98V1058.22H661.925V1052.08C661.925 1051.31 661.724 1050.71 661.324 1050.28C660.923 1049.85 660.373 1049.63 659.675 1049.63C659.193 1049.63 658.763 1049.73 658.383 1049.94C658.008 1050.15 657.712 1050.45 657.495 1050.86C657.278 1051.26 657.169 1051.74 657.169 1052.31ZM670.46 1048.4V1049.68H665.371V1048.4H670.46ZM666.854 1046.05H668.363V1055.41C668.363 1055.83 668.425 1056.15 668.548 1056.37C668.676 1056.57 668.838 1056.71 669.034 1056.79C669.234 1056.86 669.445 1056.89 669.667 1056.89C669.833 1056.89 669.97 1056.88 670.076 1056.86C670.183 1056.84 670.268 1056.83 670.332 1056.81L670.639 1058.17C670.536 1058.21 670.394 1058.24 670.21 1058.28C670.027 1058.33 669.795 1058.35 669.514 1058.35C669.087 1058.35 668.67 1058.25 668.261 1058.07C667.856 1057.89 667.519 1057.61 667.251 1057.23C666.987 1056.86 666.854 1056.39 666.854 1055.82V1046.05ZM674.033 1045.13V1049.63H672.626V1045.13H674.033ZM683.674 1050.6L682.318 1050.98C682.233 1050.76 682.107 1050.54 681.941 1050.32C681.779 1050.11 681.558 1049.93 681.276 1049.79C680.995 1049.65 680.635 1049.58 680.196 1049.58C679.595 1049.58 679.095 1049.72 678.694 1049.99C678.298 1050.26 678.1 1050.61 678.1 1051.03C678.1 1051.41 678.236 1051.71 678.509 1051.92C678.781 1052.14 679.208 1052.32 679.787 1052.47L681.245 1052.82C682.122 1053.04 682.776 1053.36 683.207 1053.8C683.637 1054.24 683.852 1054.8 683.852 1055.48C683.852 1056.05 683.691 1056.55 683.367 1056.99C683.047 1057.43 682.6 1057.78 682.024 1058.04C681.449 1058.3 680.78 1058.42 680.017 1058.42C679.016 1058.42 678.187 1058.21 677.531 1057.77C676.875 1057.34 676.459 1056.7 676.284 1055.87L677.716 1055.51C677.852 1056.04 678.11 1056.43 678.49 1056.7C678.873 1056.96 679.374 1057.09 679.992 1057.09C680.695 1057.09 681.253 1056.94 681.666 1056.65C682.084 1056.34 682.293 1055.98 682.293 1055.56C682.293 1055.22 682.174 1054.93 681.935 1054.7C681.696 1054.47 681.33 1054.29 680.835 1054.18L679.199 1053.8C678.3 1053.58 677.639 1053.25 677.218 1052.8C676.8 1052.35 676.591 1051.79 676.591 1051.11C676.591 1050.56 676.747 1050.07 677.058 1049.64C677.373 1049.21 677.801 1048.88 678.343 1048.64C678.888 1048.39 679.506 1048.27 680.196 1048.27C681.168 1048.27 681.931 1048.49 682.485 1048.91C683.043 1049.34 683.439 1049.9 683.674 1050.6ZM691.186 1058.22V1048.4H692.643V1049.88H692.745C692.924 1049.4 693.248 1049 693.717 1048.7C694.186 1048.4 694.714 1048.25 695.302 1048.25C695.413 1048.25 695.552 1048.25 695.718 1048.25C695.884 1048.26 696.01 1048.26 696.095 1048.27V1049.81C696.044 1049.79 695.927 1049.77 695.743 1049.75C695.564 1049.72 695.375 1049.7 695.174 1049.7C694.697 1049.7 694.271 1049.8 693.896 1050C693.525 1050.2 693.231 1050.47 693.014 1050.82C692.801 1051.17 692.694 1051.56 692.694 1052.01V1058.22H691.186ZM701.701 1058.42C700.755 1058.42 699.939 1058.21 699.253 1057.8C698.571 1057.38 698.044 1056.79 697.674 1056.03C697.307 1055.27 697.124 1054.39 697.124 1053.39C697.124 1052.38 697.307 1051.49 697.674 1050.73C698.044 1049.96 698.56 1049.36 699.221 1048.92C699.885 1048.49 700.661 1048.27 701.547 1048.27C702.059 1048.27 702.564 1048.36 703.062 1048.53C703.561 1048.7 704.015 1048.98 704.424 1049.36C704.833 1049.74 705.159 1050.24 705.402 1050.87C705.645 1051.49 705.766 1052.27 705.766 1053.18V1053.82H698.198V1052.52H704.232C704.232 1051.96 704.121 1051.47 703.9 1051.03C703.682 1050.6 703.371 1050.26 702.966 1050C702.566 1049.75 702.093 1049.63 701.547 1049.63C700.946 1049.63 700.427 1049.78 699.988 1050.08C699.553 1050.37 699.218 1050.75 698.984 1051.23C698.75 1051.7 698.632 1052.21 698.632 1052.75V1053.62C698.632 1054.36 698.76 1054.99 699.016 1055.5C699.276 1056.01 699.636 1056.4 700.096 1056.67C700.557 1056.94 701.091 1057.07 701.701 1057.07C702.097 1057.07 702.455 1057.01 702.775 1056.9C703.098 1056.79 703.378 1056.62 703.612 1056.39C703.846 1056.16 704.027 1055.87 704.155 1055.53L705.613 1055.94C705.459 1056.44 705.201 1056.87 704.839 1057.25C704.477 1057.62 704.03 1057.91 703.497 1058.12C702.964 1058.32 702.365 1058.42 701.701 1058.42ZM715.015 1050.6L713.66 1050.98C713.575 1050.76 713.449 1050.54 713.283 1050.32C713.121 1050.11 712.9 1049.93 712.618 1049.79C712.337 1049.65 711.977 1049.58 711.538 1049.58C710.937 1049.58 710.436 1049.72 710.036 1049.99C709.64 1050.26 709.441 1050.61 709.441 1051.03C709.441 1051.41 709.578 1051.71 709.851 1051.92C710.123 1052.14 710.549 1052.32 711.129 1052.47L712.586 1052.82C713.464 1053.04 714.118 1053.36 714.549 1053.8C714.979 1054.24 715.194 1054.8 715.194 1055.48C715.194 1056.05 715.032 1056.55 714.708 1056.99C714.389 1057.43 713.941 1057.78 713.366 1058.04C712.791 1058.3 712.122 1058.42 711.359 1058.42C710.358 1058.42 709.529 1058.21 708.873 1057.77C708.216 1057.34 707.801 1056.7 707.626 1055.87L709.058 1055.51C709.194 1056.04 709.452 1056.43 709.831 1056.7C710.215 1056.96 710.716 1057.09 711.333 1057.09C712.037 1057.09 712.595 1056.94 713.008 1056.65C713.426 1056.34 713.635 1055.98 713.635 1055.56C713.635 1055.22 713.515 1054.93 713.277 1054.7C713.038 1054.47 712.672 1054.29 712.177 1054.18L710.541 1053.8C709.642 1053.58 708.981 1053.25 708.559 1052.8C708.142 1052.35 707.933 1051.79 707.933 1051.11C707.933 1050.56 708.088 1050.07 708.4 1049.64C708.715 1049.21 709.143 1048.88 709.684 1048.64C710.23 1048.39 710.848 1048.27 711.538 1048.27C712.51 1048.27 713.272 1048.49 713.826 1048.91C714.385 1049.34 714.781 1049.9 715.015 1050.6ZM717.465 1061.9V1048.4H718.922V1049.96H719.101C719.212 1049.79 719.366 1049.57 719.562 1049.31C719.762 1049.04 720.047 1048.8 720.418 1048.59C720.793 1048.38 721.3 1048.27 721.939 1048.27C722.766 1048.27 723.495 1048.48 724.126 1048.89C724.756 1049.31 725.248 1049.89 725.602 1050.65C725.956 1051.41 726.133 1052.3 726.133 1053.34C726.133 1054.38 725.956 1055.28 725.602 1056.04C725.248 1056.8 724.758 1057.39 724.132 1057.8C723.506 1058.22 722.783 1058.42 721.965 1058.42C721.334 1058.42 720.829 1058.32 720.45 1058.11C720.071 1057.9 719.779 1057.66 719.574 1057.39C719.37 1057.12 719.212 1056.89 719.101 1056.71H718.974V1061.9H717.465ZM718.948 1053.31C718.948 1054.05 719.057 1054.71 719.274 1055.27C719.491 1055.83 719.809 1056.28 720.226 1056.6C720.644 1056.91 721.155 1057.07 721.761 1057.07C722.391 1057.07 722.917 1056.9 723.339 1056.57C723.765 1056.23 724.085 1055.78 724.298 1055.21C724.515 1054.64 724.624 1054.01 724.624 1053.31C724.624 1052.62 724.518 1052 724.305 1051.44C724.096 1050.88 723.778 1050.44 723.352 1050.12C722.93 1049.79 722.4 1049.63 721.761 1049.63C721.147 1049.63 720.631 1049.78 720.214 1050.09C719.796 1050.4 719.481 1050.83 719.268 1051.39C719.055 1051.94 718.948 1052.58 718.948 1053.31ZM732.422 1058.42C731.536 1058.42 730.758 1058.21 730.089 1057.79C729.425 1057.37 728.905 1056.78 728.53 1056.02C728.159 1055.26 727.974 1054.37 727.974 1053.36C727.974 1052.34 728.159 1051.45 728.53 1050.68C728.905 1049.92 729.425 1049.33 730.089 1048.91C730.758 1048.48 731.536 1048.27 732.422 1048.27C733.309 1048.27 734.084 1048.48 734.749 1048.91C735.418 1049.33 735.938 1049.92 736.309 1050.68C736.684 1051.45 736.871 1052.34 736.871 1053.36C736.871 1054.37 736.684 1055.26 736.309 1056.02C735.938 1056.78 735.418 1057.37 734.749 1057.79C734.084 1058.21 733.309 1058.42 732.422 1058.42ZM732.422 1057.07C733.096 1057.07 733.65 1056.9 734.084 1056.55C734.519 1056.21 734.841 1055.75 735.05 1055.19C735.258 1054.63 735.363 1054.02 735.363 1053.36C735.363 1052.7 735.258 1052.09 735.05 1051.53C734.841 1050.96 734.519 1050.5 734.084 1050.15C733.65 1049.8 733.096 1049.63 732.422 1049.63C731.749 1049.63 731.195 1049.8 730.761 1050.15C730.326 1050.5 730.004 1050.96 729.795 1051.53C729.587 1052.09 729.482 1052.7 729.482 1053.36C729.482 1054.02 729.587 1054.63 729.795 1055.19C730.004 1055.75 730.326 1056.21 730.761 1056.55C731.195 1056.9 731.749 1057.07 732.422 1057.07ZM740.683 1052.31V1058.22H739.174V1048.4H740.631V1049.93H740.759C740.989 1049.44 741.339 1049.04 741.808 1048.73C742.276 1048.43 742.881 1048.27 743.623 1048.27C744.288 1048.27 744.869 1048.41 745.368 1048.68C745.867 1048.95 746.254 1049.36 746.531 1049.91C746.808 1050.45 746.947 1051.14 746.947 1051.98V1058.22H745.438V1052.08C745.438 1051.31 745.238 1050.71 744.837 1050.28C744.437 1049.85 743.887 1049.63 743.188 1049.63C742.707 1049.63 742.276 1049.73 741.897 1049.94C741.522 1050.15 741.226 1050.45 741.009 1050.86C740.791 1051.26 740.683 1051.74 740.683 1052.31ZM756.658 1050.6L755.303 1050.98C755.218 1050.76 755.092 1050.54 754.926 1050.32C754.764 1050.11 754.542 1049.93 754.261 1049.79C753.98 1049.65 753.62 1049.58 753.181 1049.58C752.58 1049.58 752.079 1049.72 751.678 1049.99C751.282 1050.26 751.084 1050.61 751.084 1051.03C751.084 1051.41 751.22 1051.71 751.493 1051.92C751.766 1052.14 752.192 1052.32 752.772 1052.47L754.229 1052.82C755.107 1053.04 755.761 1053.36 756.191 1053.8C756.622 1054.24 756.837 1054.8 756.837 1055.48C756.837 1056.05 756.675 1056.55 756.351 1056.99C756.031 1057.43 755.584 1057.78 755.009 1058.04C754.433 1058.3 753.764 1058.42 753.002 1058.42C752 1058.42 751.171 1058.21 750.515 1057.77C749.859 1057.34 749.443 1056.7 749.269 1055.87L750.701 1055.51C750.837 1056.04 751.095 1056.43 751.474 1056.7C751.857 1056.96 752.358 1057.09 752.976 1057.09C753.679 1057.09 754.237 1056.94 754.651 1056.65C755.068 1056.34 755.277 1055.98 755.277 1055.56C755.277 1055.22 755.158 1054.93 754.919 1054.7C754.681 1054.47 754.314 1054.29 753.82 1054.18L752.183 1053.8C751.284 1053.58 750.624 1053.25 750.202 1052.8C749.784 1052.35 749.576 1051.79 749.576 1051.11C749.576 1050.56 749.731 1050.07 750.042 1049.64C750.357 1049.21 750.786 1048.88 751.327 1048.64C751.872 1048.39 752.49 1048.27 753.181 1048.27C754.152 1048.27 754.915 1048.49 755.469 1048.91C756.027 1049.34 756.424 1049.9 756.658 1050.6ZM759.108 1058.22V1048.4H760.616V1058.22H759.108ZM759.875 1046.76C759.581 1046.76 759.327 1046.66 759.114 1046.46C758.905 1046.26 758.801 1046.02 758.801 1045.74C758.801 1045.46 758.905 1045.22 759.114 1045.02C759.327 1044.82 759.581 1044.72 759.875 1044.72C760.169 1044.72 760.42 1044.82 760.629 1045.02C760.842 1045.22 760.949 1045.46 760.949 1045.74C760.949 1046.02 760.842 1046.26 760.629 1046.46C760.42 1046.66 760.169 1046.76 759.875 1046.76ZM771.408 1048.4L767.777 1058.22H766.243L762.612 1048.4H764.248L766.959 1056.22H767.061L769.771 1048.4H771.408ZM777.164 1058.42C776.218 1058.42 775.401 1058.21 774.715 1057.8C774.034 1057.38 773.507 1056.79 773.137 1056.03C772.77 1055.27 772.587 1054.39 772.587 1053.39C772.587 1052.38 772.77 1051.49 773.137 1050.73C773.507 1049.96 774.023 1049.36 774.683 1048.92C775.348 1048.49 776.124 1048.27 777.01 1048.27C777.522 1048.27 778.026 1048.36 778.525 1048.53C779.024 1048.7 779.477 1048.98 779.887 1049.36C780.296 1049.74 780.622 1050.24 780.865 1050.87C781.107 1051.49 781.229 1052.27 781.229 1053.18V1053.82H773.661V1052.52H779.695C779.695 1051.96 779.584 1051.47 779.362 1051.03C779.145 1050.6 778.834 1050.26 778.429 1050C778.029 1049.75 777.556 1049.63 777.01 1049.63C776.409 1049.63 775.889 1049.78 775.451 1050.08C775.016 1050.37 774.681 1050.75 774.447 1051.23C774.213 1051.7 774.095 1052.21 774.095 1052.75V1053.62C774.095 1054.36 774.223 1054.99 774.479 1055.5C774.739 1056.01 775.099 1056.4 775.559 1056.67C776.019 1056.94 776.554 1057.07 777.164 1057.07C777.56 1057.07 777.918 1057.01 778.237 1056.9C778.561 1056.79 778.84 1056.62 779.075 1056.39C779.309 1056.16 779.49 1055.87 779.618 1055.53L781.076 1055.94C780.922 1056.44 780.664 1056.87 780.302 1057.25C779.94 1057.62 779.492 1057.91 778.96 1058.12C778.427 1058.32 777.828 1058.42 777.164 1058.42ZM790.095 1045.13V1058.22H788.586V1045.13H790.095ZM795.747 1058.45C795.125 1058.45 794.56 1058.33 794.053 1058.1C793.546 1057.86 793.143 1057.52 792.845 1057.07C792.547 1056.62 792.397 1056.07 792.397 1055.43C792.397 1054.87 792.508 1054.41 792.73 1054.06C792.951 1053.71 793.248 1053.43 793.618 1053.23C793.989 1053.03 794.398 1052.88 794.846 1052.79C795.297 1052.68 795.751 1052.6 796.207 1052.54C796.804 1052.47 797.287 1052.41 797.658 1052.37C798.033 1052.33 798.306 1052.26 798.476 1052.16C798.651 1052.06 798.738 1051.89 798.738 1051.65V1051.6C798.738 1050.97 798.566 1050.48 798.221 1050.13C797.88 1049.78 797.362 1049.6 796.667 1049.6C795.947 1049.6 795.382 1049.76 794.973 1050.08C794.564 1050.39 794.277 1050.73 794.11 1051.09L792.679 1050.57C792.934 1049.98 793.275 1049.51 793.701 1049.18C794.132 1048.84 794.601 1048.61 795.108 1048.48C795.619 1048.34 796.122 1048.27 796.616 1048.27C796.932 1048.27 797.294 1048.31 797.703 1048.39C798.116 1048.46 798.515 1048.61 798.898 1048.84C799.286 1049.07 799.608 1049.42 799.863 1049.88C800.119 1050.35 800.247 1050.97 800.247 1051.75V1058.22H798.738V1056.89H798.662C798.559 1057.1 798.389 1057.33 798.15 1057.57C797.912 1057.82 797.594 1058.02 797.198 1058.19C796.802 1058.36 796.318 1058.45 795.747 1058.45ZM795.977 1057.09C796.574 1057.09 797.076 1056.98 797.485 1056.74C797.899 1056.51 798.21 1056.21 798.419 1055.83C798.632 1055.46 798.738 1055.07 798.738 1054.66V1053.28C798.674 1053.36 798.534 1053.43 798.316 1053.5C798.103 1053.55 797.856 1053.61 797.575 1053.65C797.298 1053.7 797.027 1053.74 796.763 1053.77C796.503 1053.8 796.292 1053.83 796.13 1053.85C795.738 1053.9 795.372 1053.98 795.031 1054.1C794.694 1054.21 794.422 1054.37 794.213 1054.6C794.008 1054.82 793.906 1055.12 793.906 1055.51C793.906 1056.03 794.1 1056.43 794.488 1056.7C794.88 1056.96 795.376 1057.09 795.977 1057.09ZM804.509 1052.31V1058.22H803V1048.4H804.458V1049.93H804.585C804.816 1049.44 805.165 1049.04 805.634 1048.73C806.102 1048.43 806.708 1048.27 807.449 1048.27C808.114 1048.27 808.696 1048.41 809.194 1048.68C809.693 1048.95 810.08 1049.36 810.357 1049.91C810.634 1050.45 810.773 1051.14 810.773 1051.98V1058.22H809.264V1052.08C809.264 1051.31 809.064 1050.71 808.664 1050.28C808.263 1049.85 807.713 1049.63 807.014 1049.63C806.533 1049.63 806.102 1049.73 805.723 1049.94C805.348 1050.15 805.052 1050.45 804.835 1050.86C804.617 1051.26 804.509 1051.74 804.509 1052.31ZM817.237 1058.42C816.419 1058.42 815.696 1058.22 815.07 1057.8C814.444 1057.39 813.954 1056.8 813.6 1056.04C813.246 1055.28 813.069 1054.38 813.069 1053.34C813.069 1052.3 813.246 1051.41 813.6 1050.65C813.954 1049.89 814.446 1049.31 815.076 1048.89C815.707 1048.48 816.436 1048.27 817.262 1048.27C817.902 1048.27 818.407 1048.38 818.777 1048.59C819.152 1048.8 819.438 1049.04 819.634 1049.31C819.834 1049.57 819.99 1049.79 820.101 1049.96H820.228V1045.13H821.737V1058.22H820.28V1056.71H820.101C819.99 1056.89 819.832 1057.12 819.628 1057.39C819.423 1057.66 819.131 1057.9 818.752 1058.11C818.373 1058.32 817.868 1058.42 817.237 1058.42ZM817.441 1057.07C818.047 1057.07 818.558 1056.91 818.976 1056.6C819.393 1056.28 819.711 1055.83 819.928 1055.27C820.145 1054.71 820.254 1054.05 820.254 1053.31C820.254 1052.58 820.147 1051.94 819.934 1051.39C819.721 1050.83 819.406 1050.4 818.988 1050.09C818.571 1049.78 818.055 1049.63 817.441 1049.63C816.802 1049.63 816.27 1049.79 815.843 1050.12C815.422 1050.44 815.104 1050.88 814.891 1051.44C814.682 1052 814.578 1052.62 814.578 1053.31C814.578 1054.01 814.684 1054.64 814.897 1055.21C815.115 1055.78 815.434 1056.23 815.856 1056.57C816.282 1056.9 816.811 1057.07 817.441 1057.07ZM824.709 1058.22V1048.4H826.218V1058.22H824.709ZM825.476 1046.76C825.182 1046.76 824.929 1046.66 824.716 1046.46C824.507 1046.26 824.402 1046.02 824.402 1045.74C824.402 1045.46 824.507 1045.22 824.716 1045.02C824.929 1044.82 825.182 1044.72 825.476 1044.72C825.77 1044.72 826.022 1044.82 826.231 1045.02C826.444 1045.22 826.55 1045.46 826.55 1045.74C826.55 1046.02 826.444 1046.26 826.231 1046.46C826.022 1046.66 825.77 1046.76 825.476 1046.76ZM830.489 1052.31V1058.22H828.981V1048.4H830.438V1049.93H830.566C830.796 1049.44 831.145 1049.04 831.614 1048.73C832.083 1048.43 832.688 1048.27 833.43 1048.27C834.094 1048.27 834.676 1048.41 835.175 1048.68C835.673 1048.95 836.061 1049.36 836.338 1049.91C836.615 1050.45 836.753 1051.14 836.753 1051.98V1058.22H835.245V1052.08C835.245 1051.31 835.045 1050.71 834.644 1050.28C834.243 1049.85 833.694 1049.63 832.995 1049.63C832.513 1049.63 832.083 1049.73 831.704 1049.94C831.329 1050.15 831.033 1050.45 830.815 1050.86C830.598 1051.26 830.489 1051.74 830.489 1052.31ZM843.473 1062.11C842.744 1062.11 842.118 1062.01 841.594 1061.82C841.07 1061.64 840.633 1061.4 840.283 1061.1C839.938 1060.8 839.663 1060.48 839.459 1060.14L840.661 1059.29C840.797 1059.47 840.97 1059.68 841.178 1059.91C841.387 1060.14 841.673 1060.34 842.035 1060.51C842.401 1060.69 842.881 1060.78 843.473 1060.78C844.266 1060.78 844.92 1060.58 845.435 1060.2C845.951 1059.82 846.209 1059.22 846.209 1058.4V1056.4H846.081C845.97 1056.58 845.813 1056.8 845.608 1057.07C845.408 1057.33 845.118 1057.56 844.739 1057.76C844.364 1057.97 843.857 1058.07 843.217 1058.07C842.425 1058.07 841.713 1057.88 841.082 1057.5C840.456 1057.13 839.96 1056.58 839.593 1055.87C839.231 1055.15 839.05 1054.28 839.05 1053.26C839.05 1052.25 839.227 1051.38 839.58 1050.63C839.934 1049.88 840.426 1049.3 841.057 1048.89C841.688 1048.48 842.416 1048.27 843.243 1048.27C843.882 1048.27 844.389 1048.38 844.764 1048.59C845.144 1048.8 845.433 1049.04 845.634 1049.31C845.838 1049.57 845.996 1049.79 846.107 1049.96H846.26V1048.4H847.717V1058.5C847.717 1059.34 847.526 1060.03 847.142 1060.56C846.763 1061.09 846.251 1061.48 845.608 1061.73C844.969 1061.98 844.257 1062.11 843.473 1062.11ZM843.422 1056.71C844.027 1056.71 844.538 1056.57 844.956 1056.29C845.374 1056.02 845.691 1055.62 845.908 1055.1C846.126 1054.58 846.234 1053.96 846.234 1053.23C846.234 1052.53 846.128 1051.9 845.915 1051.36C845.702 1050.82 845.386 1050.39 844.969 1050.09C844.551 1049.78 844.036 1049.63 843.422 1049.63C842.783 1049.63 842.25 1049.79 841.824 1050.11C841.402 1050.44 841.085 1050.87 840.871 1051.42C840.663 1051.96 840.558 1052.57 840.558 1053.23C840.558 1053.91 840.665 1054.52 840.878 1055.04C841.095 1055.56 841.415 1055.97 841.837 1056.27C842.263 1056.56 842.791 1056.71 843.422 1056.71ZM855.541 1061.9V1048.4H856.999V1049.96H857.178C857.288 1049.79 857.442 1049.57 857.638 1049.31C857.838 1049.04 858.124 1048.8 858.494 1048.59C858.869 1048.38 859.376 1048.27 860.016 1048.27C860.842 1048.27 861.571 1048.48 862.202 1048.89C862.832 1049.31 863.325 1049.89 863.678 1050.65C864.032 1051.41 864.209 1052.3 864.209 1053.34C864.209 1054.38 864.032 1055.28 863.678 1056.04C863.325 1056.8 862.835 1057.39 862.208 1057.8C861.582 1058.22 860.859 1058.42 860.041 1058.42C859.411 1058.42 858.906 1058.32 858.526 1058.11C858.147 1057.9 857.855 1057.66 857.651 1057.39C857.446 1057.12 857.288 1056.89 857.178 1056.71H857.05V1061.9H855.541ZM857.024 1053.31C857.024 1054.05 857.133 1054.71 857.35 1055.27C857.568 1055.83 857.885 1056.28 858.303 1056.6C858.72 1056.91 859.232 1057.07 859.837 1057.07C860.467 1057.07 860.994 1056.9 861.416 1056.57C861.842 1056.23 862.161 1055.78 862.374 1055.21C862.592 1054.64 862.7 1054.01 862.7 1053.31C862.7 1052.62 862.594 1052 862.381 1051.44C862.172 1050.88 861.854 1050.44 861.428 1050.12C861.006 1049.79 860.476 1049.63 859.837 1049.63C859.223 1049.63 858.707 1049.78 858.29 1050.09C857.872 1050.4 857.557 1050.83 857.344 1051.39C857.131 1051.94 857.024 1052.58 857.024 1053.31ZM869.399 1058.45C868.777 1058.45 868.212 1058.33 867.705 1058.1C867.198 1057.86 866.795 1057.52 866.497 1057.07C866.199 1056.62 866.05 1056.07 866.05 1055.43C866.05 1054.87 866.161 1054.41 866.382 1054.06C866.604 1053.71 866.9 1053.43 867.271 1053.23C867.641 1053.03 868.05 1052.88 868.498 1052.79C868.95 1052.68 869.403 1052.6 869.859 1052.54C870.456 1052.47 870.94 1052.41 871.31 1052.37C871.685 1052.33 871.958 1052.26 872.129 1052.16C872.303 1052.06 872.391 1051.89 872.391 1051.65V1051.6C872.391 1050.97 872.218 1050.48 871.873 1050.13C871.532 1049.78 871.014 1049.6 870.32 1049.6C869.599 1049.6 869.035 1049.76 868.626 1050.08C868.217 1050.39 867.929 1050.73 867.763 1051.09L866.331 1050.57C866.587 1049.98 866.928 1049.51 867.354 1049.18C867.784 1048.84 868.253 1048.61 868.76 1048.48C869.271 1048.34 869.774 1048.27 870.269 1048.27C870.584 1048.27 870.946 1048.31 871.355 1048.39C871.769 1048.46 872.167 1048.61 872.55 1048.84C872.938 1049.07 873.26 1049.42 873.516 1049.88C873.771 1050.35 873.899 1050.97 873.899 1051.75V1058.22H872.391V1056.89H872.314C872.212 1057.1 872.041 1057.33 871.803 1057.57C871.564 1057.82 871.246 1058.02 870.85 1058.19C870.454 1058.36 869.97 1058.45 869.399 1058.45ZM869.629 1057.09C870.226 1057.09 870.729 1056.98 871.138 1056.74C871.551 1056.51 871.862 1056.21 872.071 1055.83C872.284 1055.46 872.391 1055.07 872.391 1054.66V1053.28C872.327 1053.36 872.186 1053.43 871.969 1053.5C871.756 1053.55 871.509 1053.61 871.227 1053.65C870.95 1053.7 870.68 1053.74 870.416 1053.77C870.156 1053.8 869.945 1053.83 869.783 1053.85C869.391 1053.9 869.024 1053.98 868.683 1054.1C868.347 1054.21 868.074 1054.37 867.865 1054.6C867.661 1054.82 867.558 1055.12 867.558 1055.51C867.558 1056.03 867.752 1056.43 868.14 1056.7C868.532 1056.96 869.028 1057.09 869.629 1057.09ZM880.616 1062.11C879.887 1062.11 879.261 1062.01 878.736 1061.82C878.212 1061.64 877.775 1061.4 877.426 1061.1C877.081 1060.8 876.806 1060.48 876.601 1060.14L877.803 1059.29C877.939 1059.47 878.112 1059.68 878.321 1059.91C878.53 1060.14 878.815 1060.34 879.177 1060.51C879.544 1060.69 880.023 1060.78 880.616 1060.78C881.408 1060.78 882.062 1060.58 882.578 1060.2C883.094 1059.82 883.351 1059.22 883.351 1058.4V1056.4H883.224C883.113 1056.58 882.955 1056.8 882.751 1057.07C882.55 1057.33 882.261 1057.56 881.881 1057.76C881.506 1057.97 880.999 1058.07 880.36 1058.07C879.567 1058.07 878.856 1057.88 878.225 1057.5C877.599 1057.13 877.102 1056.58 876.736 1055.87C876.373 1055.15 876.192 1054.28 876.192 1053.26C876.192 1052.25 876.369 1051.38 876.723 1050.63C877.077 1049.88 877.569 1049.3 878.199 1048.89C878.83 1048.48 879.559 1048.27 880.386 1048.27C881.025 1048.27 881.532 1048.38 881.907 1048.59C882.286 1048.8 882.576 1049.04 882.776 1049.31C882.981 1049.57 883.138 1049.79 883.249 1049.96H883.403V1048.4H884.86V1058.5C884.86 1059.34 884.668 1060.03 884.285 1060.56C883.905 1061.09 883.394 1061.48 882.751 1061.73C882.111 1061.98 881.4 1062.11 880.616 1062.11ZM880.564 1056.71C881.17 1056.71 881.681 1056.57 882.099 1056.29C882.516 1056.02 882.834 1055.62 883.051 1055.1C883.268 1054.58 883.377 1053.96 883.377 1053.23C883.377 1052.53 883.27 1051.9 883.057 1051.36C882.844 1050.82 882.529 1050.39 882.111 1050.09C881.694 1049.78 881.178 1049.63 880.564 1049.63C879.925 1049.63 879.393 1049.79 878.966 1050.11C878.545 1050.44 878.227 1050.87 878.014 1051.42C877.805 1051.96 877.701 1052.57 877.701 1053.23C877.701 1053.91 877.807 1054.52 878.02 1055.04C878.238 1055.56 878.557 1055.97 878.979 1056.27C879.405 1056.56 879.934 1056.71 880.564 1056.71ZM891.738 1058.42C890.792 1058.42 889.976 1058.21 889.29 1057.8C888.608 1057.38 888.082 1056.79 887.711 1056.03C887.344 1055.27 887.161 1054.39 887.161 1053.39C887.161 1052.38 887.344 1051.49 887.711 1050.73C888.082 1049.96 888.597 1049.36 889.258 1048.92C889.922 1048.49 890.698 1048.27 891.584 1048.27C892.096 1048.27 892.601 1048.36 893.099 1048.53C893.598 1048.7 894.052 1048.98 894.461 1049.36C894.87 1049.74 895.196 1050.24 895.439 1050.87C895.682 1051.49 895.803 1052.27 895.803 1053.18V1053.82H888.235V1052.52H894.269C894.269 1051.96 894.158 1051.47 893.937 1051.03C893.719 1050.6 893.408 1050.26 893.003 1050C892.603 1049.75 892.13 1049.63 891.584 1049.63C890.984 1049.63 890.464 1049.78 890.025 1050.08C889.59 1050.37 889.256 1050.75 889.021 1051.23C888.787 1051.7 888.67 1052.21 888.67 1052.75V1053.62C888.67 1054.36 888.797 1054.99 889.053 1055.5C889.313 1056.01 889.673 1056.4 890.133 1056.67C890.594 1056.94 891.128 1057.07 891.738 1057.07C892.134 1057.07 892.492 1057.01 892.812 1056.9C893.136 1056.79 893.415 1056.62 893.649 1056.39C893.883 1056.16 894.064 1055.87 894.192 1055.53L895.65 1055.94C895.496 1056.44 895.239 1056.87 894.876 1057.25C894.514 1057.62 894.067 1057.91 893.534 1058.12C893.001 1058.32 892.403 1058.42 891.738 1058.42Z" fill="white"/>
</g>
<defs>
<clipPath id="clip0_467_950">
<rect width="1512" height="1083.22" fill="white"/>
</clipPath>
</defs>
</svg>
